<svg xmlns="http://www.w3.org/2000/svg" xmlns:xlink="http://www.w3.org/1999/xlink" viewBox="0 0 446.93 280.57"><defs><style>.cls-1{isolation:isolate;}.cls-17,.cls-2,.cls-3,.cls-37,.cls-38,.cls-39,.cls-44,.cls-45,.cls-50,.cls-51{opacity:0.4;}.cls-2,.cls-3,.cls-38,.cls-39,.cls-44,.cls-45,.cls-50,.cls-51{mix-blend-mode:lighten;}.cls-2{fill:url(#_ÂÁ_Ï_ÌÌ_È_ËÂÌÚ_371);}.cls-3{fill:url(#_ÂÁ_Ï_ÌÌ_È_ËÂÌÚ_374);}.cls-15,.cls-16,.cls-17,.cls-18,.cls-19,.cls-22,.cls-4,.cls-5{fill:#6ee8fc;}.cls-4{opacity:0.3;}.cls-6{fill:url(#_ÂÁ_Ï_ÌÌ_È_ËÂÌÚ_388);}.cls-7{fill:#0c0f38;}.cls-16,.cls-7{opacity:0.6;}.cls-8{fill:url(#_ÂÁ_Ï_ÌÌ_È_ËÂÌÚ_377);}.cls-36,.cls-9{fill:#d4088c;}.cls-10{fill:url(#_ÂÁ_Ï_ÌÌ_È_ËÂÌÚ_300);}.cls-11{fill:#6de0f6;}.cls-12{fill:#18d0f7;}.cls-13{fill:#25bfec;}.cls-14{fill:#267fe5;}.cls-15,.cls-35,.cls-36{opacity:0.8;}.cls-18{opacity:0.2;}.cls-19{opacity:0.1;}.cls-20{fill:url(#_ÂÁ_Ï_ÌÌ_È_ËÂÌÚ_377-2);}.cls-21{fill:url(#_ÂÁ_Ï_ÌÌ_È_ËÂÌÚ_300-2);}.cls-22{opacity:0.5;}.cls-23{fill:url(#_ÂÁ_Ï_ÌÌ_È_ËÂÌÚ_377-3);}.cls-24{fill:url(#_ÂÁ_Ï_ÌÌ_È_ËÂÌÚ_300-3);}.cls-25{fill:url(#_ÂÁ_Ï_ÌÌ_È_ËÂÌÚ_377-4);}.cls-26{fill:url(#_ÂÁ_Ï_ÌÌ_È_ËÂÌÚ_300-4);}.cls-27{fill:url(#_ÂÁ_Ï_ÌÌ_È_ËÂÌÚ_377-5);}.cls-28{fill:url(#_ÂÁ_Ï_ÌÌ_È_ËÂÌÚ_300-5);}.cls-29,.cls-37{fill:#fff;}.cls-30{fill:url(#_ÂÁ_Ï_ÌÌ_È_ËÂÌÚ_300-6);}.cls-31{fill:url(#_ÂÁ_Ï_ÌÌ_È_ËÂÌÚ_300-7);}.cls-32{fill:url(#_ÂÁ_Ï_ÌÌ_È_ËÂÌÚ_478);}.cls-33{fill:url(#_ÂÁ_Ï_ÌÌ_È_ËÂÌÚ_377-6);}.cls-34{fill:url(#_ÂÁ_Ï_ÌÌ_È_ËÂÌÚ_478-2);}.cls-35{fill:#6ee1f8;}.cls-38{fill:url(#_ÂÁ_Ï_ÌÌ_È_ËÂÌÚ_371-2);}.cls-39{fill:url(#_ÂÁ_Ï_ÌÌ_È_ËÂÌÚ_374-2);}.cls-40{fill:url(#_ÂÁ_Ï_ÌÌ_È_ËÂÌÚ_102);}.cls-41{fill:url(#_ÂÁ_Ï_ÌÌ_È_ËÂÌÚ_377-7);}.cls-42{fill:url(#_ÂÁ_Ï_ÌÌ_È_ËÂÌÚ_388-2);}.cls-43{fill:url(#_ÂÁ_Ï_ÌÌ_È_ËÂÌÚ_300-8);}.cls-44{fill:url(#_ÂÁ_Ï_ÌÌ_È_ËÂÌÚ_371-3);}.cls-45{fill:url(#_ÂÁ_Ï_ÌÌ_È_ËÂÌÚ_374-3);}.cls-46{fill:url(#_ÂÁ_Ï_ÌÌ_È_ËÂÌÚ_102-2);}.cls-47{fill:url(#_ÂÁ_Ï_ÌÌ_È_ËÂÌÚ_377-8);}.cls-48{fill:url(#_ÂÁ_Ï_ÌÌ_È_ËÂÌÚ_388-3);}.cls-49{fill:url(#_ÂÁ_Ï_ÌÌ_È_ËÂÌÚ_300-9);}.cls-50{fill:url(#_ÂÁ_Ï_ÌÌ_È_ËÂÌÚ_371-4);}.cls-51{fill:url(#_ÂÁ_Ï_ÌÌ_È_ËÂÌÚ_374-4);}.cls-52{fill:url(#_ÂÁ_Ï_ÌÌ_È_ËÂÌÚ_102-3);}.cls-53{fill:url(#_ÂÁ_Ï_ÌÌ_È_ËÂÌÚ_377-9);}.cls-54{fill:url(#_ÂÁ_Ï_ÌÌ_È_ËÂÌÚ_388-4);}.cls-55{fill:url(#_ÂÁ_Ï_ÌÌ_È_ËÂÌÚ_300-10);}</style><radialGradient id="_ÂÁ_Ï_ÌÌ_È_ËÂÌÚ_371" cx="-2850.26" cy="156.11" r="68.5" gradientTransform="matrix(0.87, 0.5, -0.87, 0.5, 2726.11, 1511.22)" gradientUnits="userSpaceOnUse"><stop offset="0.01" stop-color="#25bfec"/><stop offset="0.05" stop-color="#24b4e1"/><stop offset="0.22" stop-color="#1f83b0"/><stop offset="0.39" stop-color="#1b5a86"/><stop offset="0.56" stop-color="#173a66"/><stop offset="0.72" stop-color="#152350"/><stop offset="0.87" stop-color="#131642"/><stop offset="1" stop-color="#13113d"/></radialGradient><radialGradient id="_ÂÁ_Ï_ÌÌ_È_ËÂÌÚ_374" cx="-2872.61" cy="178.45" r="68.5" gradientTransform="matrix(0.87, 0.5, -0.87, 0.5, 2726.11, 1511.22)" gradientUnits="userSpaceOnUse"><stop offset="0.01" stop-color="#d4088c"/><stop offset="0.1" stop-color="#b70980"/><stop offset="0.26" stop-color="#860c6c"/><stop offset="0.42" stop-color="#5c0e5b"/><stop offset="0.58" stop-color="#3c0f4e"/><stop offset="0.73" stop-color="#261045"/><stop offset="0.87" stop-color="#18113f"/><stop offset="1" stop-color="#13113d"/></radialGradient><linearGradient id="_ÂÁ_Ï_ÌÌ_È_ËÂÌÚ_388" x1="91.55" y1="198.1" x2="150.92" y2="198.1" gradientUnits="userSpaceOnUse"><stop offset="0" stop-color="#d4088c"/><stop offset="0.23" stop-color="#d4088c"/><stop offset="0.51" stop-color="#6ee1f8"/><stop offset="0.78" stop-color="#6ee8fc"/><stop offset="1" stop-color="#6ee8fc"/></linearGradient><linearGradient id="_ÂÁ_Ï_ÌÌ_È_ËÂÌÚ_377" x1="-161.61" y1="190.72" x2="-102.56" y2="190.72" gradientTransform="translate(253.32)" gradientUnits="userSpaceOnUse"><stop offset="0" stop-color="#a31fa9"/><stop offset="0.07" stop-color="#8b17a0"/><stop offset="0.15" stop-color="#740f98"/><stop offset="0.24" stop-color="#640a92"/><stop offset="0.34" stop-color="#5b078f"/><stop offset="0.48" stop-color="#58068e"/><stop offset="0.63" stop-color="#4d22a3"/><stop offset="0.94" stop-color="#3168da"/><stop offset="1" stop-color="#2c75e4"/></linearGradient><linearGradient id="_ÂÁ_Ï_ÌÌ_È_ËÂÌÚ_300" x1="164.61" y1="999.86" x2="212.82" y2="999.86" gradientTransform="matrix(0.87, 0.5, -0.87, 0.5, 800.78, -451.53)" gradientUnits="userSpaceOnUse"><stop offset="0" stop-color="#8d139b"/><stop offset="0.17" stop-color="#851ba1"/><stop offset="0.43" stop-color="#6e33b2"/><stop offset="0.76" stop-color="#4958cd"/><stop offset="1" stop-color="#2979e4"/></linearGradient><linearGradient id="_ÂÁ_Ï_ÌÌ_È_ËÂÌÚ_377-2" x1="-161.61" y1="169.96" x2="-102.56" y2="169.96" xlink:href="#_ÂÁ_Ï_ÌÌ_È_ËÂÌÚ_377"/><linearGradient id="_ÂÁ_Ï_ÌÌ_È_ËÂÌÚ_300-2" x1="143.85" y1="979.09" x2="192.06" y2="979.09" xlink:href="#_ÂÁ_Ï_ÌÌ_È_ËÂÌÚ_300"/><linearGradient id="_ÂÁ_Ï_ÌÌ_È_ËÂÌÚ_377-3" x1="-161.61" y1="149.19" x2="-102.56" y2="149.19" xlink:href="#_ÂÁ_Ï_ÌÌ_È_ËÂÌÚ_377"/><linearGradient id="_ÂÁ_Ï_ÌÌ_È_ËÂÌÚ_300-3" x1="123.08" y1="958.33" x2="171.29" y2="958.33" xlink:href="#_ÂÁ_Ï_ÌÌ_È_ËÂÌÚ_300"/><linearGradient id="_ÂÁ_Ï_ÌÌ_È_ËÂÌÚ_377-4" x1="-161.61" y1="128.42" x2="-102.56" y2="128.42" xlink:href="#_ÂÁ_Ï_ÌÌ_È_ËÂÌÚ_377"/><linearGradient id="_ÂÁ_Ï_ÌÌ_È_ËÂÌÚ_300-4" x1="102.32" y1="937.56" x2="150.53" y2="937.56" xlink:href="#_ÂÁ_Ï_ÌÌ_È_ËÂÌÚ_300"/><linearGradient id="_ÂÁ_Ï_ÌÌ_È_ËÂÌÚ_377-5" x1="-161.61" y1="107.66" x2="-102.56" y2="107.66" xlink:href="#_ÂÁ_Ï_ÌÌ_È_ËÂÌÚ_377"/><linearGradient id="_ÂÁ_Ï_ÌÌ_È_ËÂÌÚ_300-5" x1="81.55" y1="916.8" x2="129.76" y2="916.8" gradientTransform="matrix(0.87, 0.5, -0.87, 0.5, 823.68, -413.23)" xlink:href="#_ÂÁ_Ï_ÌÌ_È_ËÂÌÚ_300"/><linearGradient id="_ÂÁ_Ï_ÌÌ_È_ËÂÌÚ_300-6" x1="22.15" y1="202.7" x2="517.69" y2="202.7" gradientTransform="matrix(1, 0, 0, 1, 0, 0)" xlink:href="#_ÂÁ_Ï_ÌÌ_È_ËÂÌÚ_300"/><linearGradient id="_ÂÁ_Ï_ÌÌ_È_ËÂÌÚ_300-7" x1="-1297.11" y1="993.54" x2="-1161.45" y2="993.54" gradientTransform="matrix(0.87, 0.5, -1, 0.58, 2320.01, 235.69)" xlink:href="#_ÂÁ_Ï_ÌÌ_È_ËÂÌÚ_300"/><radialGradient id="_ÂÁ_Ï_ÌÌ_È_ËÂÌÚ_478" cx="-1975.24" cy="-1487.04" r="269.78" gradientTransform="matrix(0.84, 0.49, -1.07, 0.62, 192.66, 1959.72)" gradientUnits="userSpaceOnUse"><stop offset="0.01" stop-color="#2c35a2"/><stop offset="0.16" stop-color="#252c88"/><stop offset="0.4" stop-color="#1b2167"/><stop offset="0.62" stop-color="#15194f"/><stop offset="0.83" stop-color="#101540"/><stop offset="1" stop-color="#0f133b"/></radialGradient><linearGradient id="_ÂÁ_Ï_ÌÌ_È_ËÂÌÚ_377-6" x1="115.3" y1="156.81" x2="361.39" y2="156.81" gradientTransform="matrix(1, 0, 0, 1, 0, 0)" xlink:href="#_ÂÁ_Ï_ÌÌ_È_ËÂÌÚ_377"/><radialGradient id="_ÂÁ_Ï_ÌÌ_È_ËÂÌÚ_478-2" cx="-1233.78" cy="689.49" r="12.83" gradientTransform="matrix(0.87, 0.5, -0.87, 0.5, 2033.14, 401.03)" xlink:href="#_ÂÁ_Ï_ÌÌ_È_ËÂÌÚ_478"/><radialGradient id="_ÂÁ_Ï_ÌÌ_È_ËÂÌÚ_371-2" cx="611.23" cy="1634.57" fx="595.0824809604263" fy="1641.5182649263268" r="25.25" gradientTransform="matrix(-0.86, 0.87, -0.54, -1.38, 1827.21, 1970.4)" xlink:href="#_ÂÁ_Ï_ÌÌ_È_ËÂÌÚ_371"/><radialGradient id="_ÂÁ_Ï_ÌÌ_È_ËÂÌÚ_374-2" cx="-2708.19" cy="-758.94" r="38.16" gradientTransform="matrix(0.87, 0.5, -0.87, 0.5, 2057.55, 1924.99)" xlink:href="#_ÂÁ_Ï_ÌÌ_È_ËÂÌÚ_374"/><linearGradient id="_ÂÁ_Ï_ÌÌ_È_ËÂÌÚ_102" x1="388.28" y1="232.61" x2="427.22" y2="232.61" xlink:href="#_ÂÁ_Ï_ÌÌ_È_ËÂÌÚ_388"/><linearGradient id="_ÂÁ_Ï_ÌÌ_È_ËÂÌÚ_377-7" x1="388.53" y1="225.9" x2="427.91" y2="225.9" gradientTransform="matrix(1, 0, 0, 1, 0, 0)" xlink:href="#_ÂÁ_Ï_ÌÌ_È_ËÂÌÚ_377"/><linearGradient id="_ÂÁ_Ï_ÌÌ_È_ËÂÌÚ_388-2" x1="388.53" y1="230.27" x2="427.91" y2="230.27" xlink:href="#_ÂÁ_Ï_ÌÌ_È_ËÂÌÚ_388"/><linearGradient id="_ÂÁ_Ï_ÌÌ_È_ËÂÌÚ_300-8" x1="653.55" y1="636" x2="672.1" y2="619.94" gradientTransform="matrix(0.87, 0.5, -1, 0.58, 461.37, -475.07)" xlink:href="#_ÂÁ_Ï_ÌÌ_È_ËÂÌÚ_300"/><radialGradient id="_ÂÁ_Ï_ÌÌ_È_ËÂÌÚ_371-3" cx="625.3" cy="1675" fx="609.1565000075973" fy="1681.9451094031924" r="25.25" gradientTransform="matrix(-0.86, 0.87, -0.54, -1.38, 1813.37, 2042.33)" xlink:href="#_ÂÁ_Ï_ÌÌ_È_ËÂÌÚ_371"/><radialGradient id="_ÂÁ_Ï_ÌÌ_È_ËÂÌÚ_374-3" cx="-2707.48" cy="-703.34" r="38.16" gradientTransform="matrix(0.87, 0.5, -0.87, 0.5, 2057.55, 1924.99)" xlink:href="#_ÂÁ_Ï_ÌÌ_È_ËÂÌÚ_374"/><linearGradient id="_ÂÁ_Ï_ÌÌ_È_ËÂÌÚ_102-2" x1="340.74" y1="260.76" x2="379.68" y2="260.76" xlink:href="#_ÂÁ_Ï_ÌÌ_È_ËÂÌÚ_388"/><linearGradient id="_ÂÁ_Ï_ÌÌ_È_ËÂÌÚ_377-8" x1="340.99" y1="254.06" x2="380.38" y2="254.06" gradientTransform="matrix(1, 0, 0, 1, 0, 0)" xlink:href="#_ÂÁ_Ï_ÌÌ_È_ËÂÌÚ_377"/><linearGradient id="_ÂÁ_Ï_ÌÌ_È_ËÂÌÚ_388-3" x1="340.99" y1="258.42" x2="380.38" y2="258.42" xlink:href="#_ÂÁ_Ï_ÌÌ_È_ËÂÌÚ_388"/><linearGradient id="_ÂÁ_Ï_ÌÌ_È_ËÂÌÚ_300-9" x1="654.26" y1="684.15" x2="672.81" y2="668.08" gradientTransform="matrix(0.87, 0.5, -1, 0.58, 461.37, -475.07)" xlink:href="#_ÂÁ_Ï_ÌÌ_È_ËÂÌÚ_300"/><radialGradient id="_ÂÁ_Ï_ÌÌ_È_ËÂÌÚ_371-4" cx="639.38" cy="1715.42" fx="623.2305338003288" fy="1722.3719919579728" r="25.25" gradientTransform="matrix(-0.86, 0.87, -0.54, -1.38, 1799.53, 2114.27)" xlink:href="#_ÂÁ_Ï_ÌÌ_È_ËÂÌÚ_371"/><radialGradient id="_ÂÁ_Ï_ÌÌ_È_ËÂÌÚ_374-4" cx="-2706.77" cy="-647.74" r="38.16" gradientTransform="matrix(0.87, 0.5, -0.87, 0.5, 2057.55, 1924.99)" xlink:href="#_ÂÁ_Ï_ÌÌ_È_ËÂÌÚ_374"/><linearGradient id="_ÂÁ_Ï_ÌÌ_È_ËÂÌÚ_102-3" x1="293.21" y1="288.92" x2="332.15" y2="288.92" xlink:href="#_ÂÁ_Ï_ÌÌ_È_ËÂÌÚ_388"/><linearGradient id="_ÂÁ_Ï_ÌÌ_È_ËÂÌÚ_377-9" x1="293.46" y1="282.21" x2="332.84" y2="282.21" gradientTransform="matrix(1, 0, 0, 1, 0, 0)" xlink:href="#_ÂÁ_Ï_ÌÌ_È_ËÂÌÚ_377"/><linearGradient id="_ÂÁ_Ï_ÌÌ_È_ËÂÌÚ_388-4" x1="293.46" y1="286.58" x2="332.84" y2="286.58" xlink:href="#_ÂÁ_Ï_ÌÌ_È_ËÂÌÚ_388"/><linearGradient id="_ÂÁ_Ï_ÌÌ_È_ËÂÌÚ_300-10" x1="654.97" y1="732.3" x2="673.52" y2="716.23" gradientTransform="matrix(0.87, 0.5, -1, 0.58, 461.37, -475.07)" xlink:href="#_ÂÁ_Ï_ÌÌ_È_ËÂÌÚ_300"/></defs><title>5</title><g class="cls-1"><g id="_ÎÓÈ_1" data-name="—ÎÓÈ_1"><ellipse class="cls-2" cx="122.6" cy="164.15" rx="83.89" ry="48.44"/><ellipse class="cls-3" cx="83.89" cy="164.15" rx="83.89" ry="48.44"/><path class="cls-4" d="M121.14,221.12a55.62,55.62,0,0,1-15.68-2.21c-10.17-3-17.12-8.6-19.08-15.39-1.37-4.76-.08-9.7,3.63-13.91h0l.4-.46c8.91-10.09,29.37-14,46.57-9,10.17,3,17.12,8.6,19.08,15.4,1.37,4.76.08,9.7-3.63,13.91l-.4.45C145.75,217.05,133.72,221.12,121.14,221.12ZM93.55,192.73c-2.65,3-3.57,6.28-2.64,9.48,1.48,5.14,7.42,9.69,15.88,12.18,15.33,4.51,34.05,1.11,41.71-7.58l.4-.45c2.65-3,3.57-6.28,2.64-9.49-1.48-5.13-7.42-9.69-15.88-12.18-15.33-4.51-34-1.11-41.71,7.58Z" transform="translate(-22.9 -38.3)"/><path class="cls-5" d="M121,219A53.07,53.07,0,0,1,106,217c-9.48-2.79-15.93-7.89-17.69-14-1.19-4.12-.09-8.27,3.2-12l.4-.45c8.29-9.39,28.23-13.15,44.46-8.38,9.49,2.79,15.93,7.9,17.7,14,1.19,4.13.08,8.27-3.21,12l-.4.45C144.66,215.2,133,219,121,219ZM92,191.37c-3.13,3.56-4.19,7.5-3.07,11.41,1.68,5.81,8.14,10.89,17.27,13.58,16,4.71,35.68,1,43.83-8.19l.4-.46c3.13-3.55,4.2-7.5,3.07-11.4-1.68-5.82-8.13-10.89-17.27-13.58-16-4.71-35.68-1-43.83,8.19Z" transform="translate(-22.9 -38.3)"/><path class="cls-6" d="M121.24,215.3c-7.59,0-15.18-1.67-21-5-5.63-3.25-8.73-7.58-8.73-12.19s3.1-8.94,8.73-12.19c11.56-6.67,30.36-6.67,41.92,0,5.62,3.25,8.72,7.58,8.72,12.19s-3.1,9-8.72,12.2C136.42,213.63,128.83,215.3,121.24,215.3Zm0-34.08c-7.53,0-15.06,1.66-20.8,5-5.52,3.19-8.56,7.42-8.56,11.91s3,8.73,8.56,11.91c11.47,6.62,30.13,6.63,41.59,0,5.53-3.18,8.57-7.41,8.57-11.91s-3-8.72-8.57-11.91C136.3,182.88,128.77,181.22,121.24,181.22Z" transform="translate(-22.9 -38.3)"/><ellipse class="cls-7" cx="98.34" cy="159.81" rx="24.93" ry="14.39"/><path class="cls-8" d="M150.76,190.71v-9.65h-5.23a22.88,22.88,0,0,0-3.42-2.39c-11.52-6.66-30.22-6.66-41.75,0a23.41,23.41,0,0,0-3.42,2.39H91.72v9.66h0c0,4.36,2.88,8.72,8.64,12.05,11.53,6.66,30.23,6.66,41.76,0C147.89,199.44,150.77,195.07,150.76,190.71Z" transform="translate(-22.9 -38.3)"/><path class="cls-9" d="M92,190.47v-9.41h-.27v9.66c0,3.91,2.32,7.8,6.94,11C94.22,198.4,92,194.44,92,190.47Z" transform="translate(-22.9 -38.3)"/><path class="cls-5" d="M150.29,181.06v9.33c0,4.37-2.87,8.74-8.64,12.07-11.53,6.66-30.22,6.66-41.75,0-.59-.34-1.12-.69-1.65-1.05.66.47,1.36.93,2.11,1.36,11.53,6.66,30.23,6.66,41.76,0,5.77-3.33,8.65-7.7,8.64-12.06v-9.65Z" transform="translate(-22.9 -38.3)"/><ellipse class="cls-10" cx="98.34" cy="142.76" rx="29.52" ry="17.05"/><path class="cls-9" d="M101.16,169.18c5.86-3.38,13.51-5.09,21.18-5.14-7.92-.17-15.93,1.47-22,5-9,5.19-11,13-5.92,19.18C90,181.84,92.27,174.32,101.16,169.18Z" transform="translate(-22.9 -38.3)"/><path class="cls-5" d="M142.11,169a36.68,36.68,0,0,0-10.44-3.88,35.58,35.58,0,0,1,9.41,3.65c11.53,6.66,11.53,17.45,0,24.11-8.47,4.89-20.79,6.17-31.31,3.88,10.74,2.61,23.6,1.4,32.35-3.65C153.64,186.45,153.64,175.66,142.11,169Z" transform="translate(-22.9 -38.3)"/><ellipse class="cls-11" cx="98.19" cy="142.76" rx="18.87" ry="10.89"/><path class="cls-12" d="M107.76,179.19c7.36-4.25,19.31-4.25,26.68,0a11.58,11.58,0,0,1,4.82,4.79c1.76-3.66.16-7.75-4.82-10.62-7.37-4.26-19.32-4.26-26.68,0-5,2.88-6.59,7-4.83,10.63A11.49,11.49,0,0,1,107.76,179.19Z" transform="translate(-22.9 -38.3)"/><path class="cls-13" d="M107.76,177.13c7.36-4.25,19.31-4.25,26.68,0,2.85,1.65,4.58,3.69,5.23,5.82,1-3.38-.71-7-5.23-9.59-7.37-4.26-19.32-4.26-26.68,0-4.52,2.61-6.26,6.22-5.23,9.6C103.17,180.82,104.91,178.78,107.76,177.13Z" transform="translate(-22.9 -38.3)"/><path class="cls-14" d="M107.76,175.29c7.36-4.25,19.31-4.25,26.68,0,3.25,1.88,5.06,4.28,5.44,6.74.48-3.1-1.33-6.3-5.44-8.67-7.37-4.26-19.32-4.26-26.68,0-4.12,2.38-5.93,5.58-5.45,8.68C102.69,179.57,104.5,177.17,107.76,175.29Z" transform="translate(-22.9 -38.3)"/><path class="cls-5" d="M136.52,167.89a1.91,1.91,0,0,0-1.75.24c-.36.35-.18.8.42,1a1.89,1.89,0,0,0,1.74-.24C137.3,168.56,137.11,168.11,136.52,167.89Z" transform="translate(-22.9 -38.3)"/><path class="cls-15" d="M140.68,169.92a2,2,0,0,0-1.76,0c-.46.29-.43.75.07,1a2,2,0,0,0,1.76,0C141.22,170.64,141.19,170.19,140.68,169.92Z" transform="translate(-22.9 -38.3)"/><path class="cls-16" d="M144.1,172.36a1.91,1.91,0,0,0-1.74-.16c-.55.23-.68.68-.27,1a1.87,1.87,0,0,0,1.73.16C144.38,173.13,144.5,172.68,144.1,172.36Z" transform="translate(-22.9 -38.3)"/><path class="cls-17" d="M146.63,175.14a1.71,1.71,0,0,0-1.65-.35c-.63.16-.9.59-.61,1a1.7,1.7,0,0,0,1.65.35C146.64,175.93,146.92,175.5,146.63,175.14Z" transform="translate(-22.9 -38.3)"/><path class="cls-18" d="M148.17,178.15a1.46,1.46,0,0,0-1.5-.53c-.67.09-1.08.48-.92.87a1.46,1.46,0,0,0,1.5.53C147.91,178.93,148.33,178.54,148.17,178.15Z" transform="translate(-22.9 -38.3)"/><path class="cls-19" d="M148.53,181.62c.31-.35.05-.78-.57-1a1.76,1.76,0,0,0-1.66.33c-.3.36-.05.79.57,1A1.71,1.71,0,0,0,148.53,181.62Z" transform="translate(-22.9 -38.3)"/><path class="cls-20" d="M150.76,169.94v-9.65h-5.23a23.64,23.64,0,0,0-3.42-2.39c-11.52-6.65-30.22-6.65-41.75,0a24.21,24.21,0,0,0-3.42,2.39H91.72V170h0c0,4.36,2.88,8.72,8.64,12,11.53,6.65,30.23,6.65,41.76,0C147.89,178.68,150.77,174.31,150.76,169.94Z" transform="translate(-22.9 -38.3)"/><path class="cls-9" d="M92,169.7v-9.41h-.27V170c0,3.9,2.32,7.8,6.94,11C94.22,177.63,92,173.67,92,169.7Z" transform="translate(-22.9 -38.3)"/><path class="cls-5" d="M150.29,160.29v9.34c0,4.37-2.87,8.74-8.64,12.07-11.53,6.65-30.22,6.65-41.75,0-.59-.34-1.12-.7-1.65-1.06.66.47,1.36.93,2.11,1.37,11.53,6.65,30.23,6.65,41.76,0,5.77-3.33,8.65-7.7,8.64-12.07v-9.65Z" transform="translate(-22.9 -38.3)"/><ellipse class="cls-21" cx="98.34" cy="122" rx="29.52" ry="17.04"/><path class="cls-9" d="M101.16,148.42c5.86-3.39,13.51-5.09,21.18-5.14-7.92-.17-15.93,1.47-22,5-9,5.19-11,13-5.92,19.17C90,161.07,92.27,153.55,101.16,148.42Z" transform="translate(-22.9 -38.3)"/><path class="cls-5" d="M142.11,148.24a36.39,36.39,0,0,0-10.44-3.88,35.58,35.58,0,0,1,9.41,3.65c11.53,6.65,11.53,17.45,0,24.1-8.47,4.89-20.79,6.17-31.31,3.88,10.74,2.61,23.6,1.4,32.35-3.65C153.64,165.69,153.64,154.9,142.11,148.24Z" transform="translate(-22.9 -38.3)"/><path class="cls-11" d="M134.44,168c-7.37,4.26-19.32,4.26-26.68,0s-7.37-11.15,0-15.4,19.31-4.25,26.68,0S141.81,163.74,134.44,168Z" transform="translate(-22.9 -38.3)"/><path class="cls-12" d="M107.76,158.43c7.36-4.26,19.31-4.26,26.68,0a11.51,11.51,0,0,1,4.82,4.78c1.76-3.66.16-7.74-4.82-10.62-7.37-4.25-19.32-4.25-26.68,0-5,2.88-6.59,7-4.83,10.62A11.48,11.48,0,0,1,107.76,158.43Z" transform="translate(-22.9 -38.3)"/><path class="cls-13" d="M107.76,156.37c7.36-4.26,19.31-4.26,26.68,0,2.85,1.64,4.58,3.68,5.23,5.81,1-3.38-.71-7-5.23-9.59-7.37-4.25-19.32-4.25-26.68,0-4.52,2.61-6.26,6.21-5.23,9.59C103.17,160.05,104.91,158,107.76,156.37Z" transform="translate(-22.9 -38.3)"/><path class="cls-14" d="M107.76,154.53c7.36-4.25,19.31-4.25,26.68,0,3.25,1.88,5.06,4.28,5.44,6.73.48-3.1-1.33-6.3-5.44-8.67-7.37-4.25-19.32-4.25-26.68,0-4.12,2.37-5.93,5.57-5.45,8.67C102.69,158.81,104.5,156.41,107.76,154.53Z" transform="translate(-22.9 -38.3)"/><path class="cls-5" d="M136.52,147.13a1.88,1.88,0,0,0-1.75.24c-.36.34-.18.79.42,1a1.86,1.86,0,0,0,1.74-.24C137.3,147.79,137.11,147.34,136.52,147.13Z" transform="translate(-22.9 -38.3)"/><path class="cls-15" d="M140.68,149.15a2,2,0,0,0-1.76,0c-.46.29-.43.74.07,1a2,2,0,0,0,1.76,0C141.22,149.88,141.19,149.42,140.68,149.15Z" transform="translate(-22.9 -38.3)"/><path class="cls-16" d="M144.1,151.59a1.91,1.91,0,0,0-1.74-.16c-.55.24-.68.68-.27,1a1.89,1.89,0,0,0,1.73.16C144.38,152.37,144.5,151.92,144.1,151.59Z" transform="translate(-22.9 -38.3)"/><path class="cls-17" d="M146.63,154.38A1.74,1.74,0,0,0,145,154c-.63.17-.9.59-.61.95a1.7,1.7,0,0,0,1.65.36C146.64,155.16,146.92,154.74,146.63,154.38Z" transform="translate(-22.9 -38.3)"/><path class="cls-18" d="M148.17,157.39a1.43,1.43,0,0,0-1.5-.53c-.67.09-1.08.48-.92.86a1.43,1.43,0,0,0,1.5.53C147.91,158.16,148.33,157.78,148.17,157.39Z" transform="translate(-22.9 -38.3)"/><path class="cls-19" d="M148.53,160.86c.31-.36.05-.79-.57-1a1.71,1.71,0,0,0-1.66.33c-.3.36-.05.79.57,1A1.74,1.74,0,0,0,148.53,160.86Z" transform="translate(-22.9 -38.3)"/><path class="cls-22" d="M150.76,148.07l-9.14-.1c-11.12-6.14-28.49-6.29-39.91-.46l-10-.11v12.43h0c-.22,4.51,2.65,9.07,8.62,12.51,11.53,6.66,30.23,6.66,41.75,0,6-3.44,8.85-8,8.63-12.51h0Z" transform="translate(-22.9 -38.3)"/><path class="cls-23" d="M150.76,149.17v-9.64h-5.23a22.88,22.88,0,0,0-3.42-2.39c-11.52-6.66-30.22-6.66-41.75,0a23.41,23.41,0,0,0-3.42,2.39H91.72v9.66h0c0,4.36,2.88,8.72,8.64,12.05,11.53,6.66,30.23,6.66,41.76,0C147.89,157.91,150.77,153.54,150.76,149.17Z" transform="translate(-22.9 -38.3)"/><path class="cls-9" d="M92,148.94v-9.41h-.27v9.66c0,3.91,2.32,7.8,6.94,11C94.22,156.87,92,152.91,92,148.94Z" transform="translate(-22.9 -38.3)"/><path class="cls-5" d="M150.29,139.53v9.33c0,4.37-2.87,8.74-8.64,12.07-11.53,6.66-30.22,6.66-41.75,0-.59-.34-1.12-.69-1.65-1.05.66.47,1.36.93,2.11,1.36,11.53,6.66,30.23,6.66,41.76,0,5.77-3.33,8.65-7.7,8.64-12.07v-9.64Z" transform="translate(-22.9 -38.3)"/><ellipse class="cls-24" cx="98.34" cy="101.23" rx="29.52" ry="17.05"/><path class="cls-9" d="M101.16,127.65c5.86-3.38,13.51-5.09,21.18-5.14-7.92-.17-15.93,1.47-22,5-9,5.19-11,13-5.92,19.17C90,140.31,92.27,132.79,101.16,127.65Z" transform="translate(-22.9 -38.3)"/><path class="cls-5" d="M142.11,127.47a36.68,36.68,0,0,0-10.44-3.88,35.58,35.58,0,0,1,9.41,3.65c11.53,6.66,11.53,17.45,0,24.11-8.47,4.88-20.79,6.17-31.31,3.88,10.74,2.61,23.6,1.4,32.35-3.65C153.64,144.92,153.64,134.13,142.11,127.47Z" transform="translate(-22.9 -38.3)"/><ellipse class="cls-11" cx="98.19" cy="101.23" rx="18.87" ry="10.89"/><path class="cls-12" d="M107.76,137.66c7.36-4.25,19.31-4.25,26.68,0a11.52,11.52,0,0,1,4.82,4.79c1.76-3.66.16-7.75-4.82-10.63-7.37-4.25-19.32-4.25-26.68,0-5,2.88-6.59,7-4.83,10.63A11.49,11.49,0,0,1,107.76,137.66Z" transform="translate(-22.9 -38.3)"/><path class="cls-13" d="M107.76,135.6c7.36-4.25,19.31-4.25,26.68,0,2.85,1.65,4.58,3.69,5.23,5.82,1-3.38-.71-7-5.23-9.6-7.37-4.25-19.32-4.25-26.68,0-4.52,2.61-6.26,6.22-5.23,9.59C103.17,139.29,104.91,137.24,107.76,135.6Z" transform="translate(-22.9 -38.3)"/><path class="cls-14" d="M107.76,133.76c7.36-4.25,19.31-4.25,26.68,0,3.25,1.88,5.06,4.28,5.44,6.74.48-3.1-1.33-6.3-5.44-8.68-7.37-4.25-19.32-4.25-26.68,0-4.12,2.38-5.93,5.57-5.45,8.68C102.69,138,104.5,135.64,107.76,133.76Z" transform="translate(-22.9 -38.3)"/><path class="cls-5" d="M136.52,126.36a1.91,1.91,0,0,0-1.75.24c-.36.35-.18.8.42,1a1.89,1.89,0,0,0,1.74-.24C137.3,127,137.11,126.58,136.52,126.36Z" transform="translate(-22.9 -38.3)"/><path class="cls-15" d="M140.68,128.39a2,2,0,0,0-1.76,0c-.46.29-.43.75.07,1a2,2,0,0,0,1.76,0C141.22,129.11,141.19,128.66,140.68,128.39Z" transform="translate(-22.9 -38.3)"/><path class="cls-16" d="M144.1,130.83a1.91,1.91,0,0,0-1.74-.16c-.55.23-.68.68-.27,1a1.89,1.89,0,0,0,1.73.16C144.38,131.6,144.5,131.15,144.1,130.83Z" transform="translate(-22.9 -38.3)"/><path class="cls-17" d="M146.63,133.61a1.71,1.71,0,0,0-1.65-.35c-.63.16-.9.59-.61,1a1.7,1.7,0,0,0,1.65.35C146.64,134.4,146.92,134,146.63,133.61Z" transform="translate(-22.9 -38.3)"/><path class="cls-18" d="M148.17,136.62a1.46,1.46,0,0,0-1.5-.53c-.67.09-1.08.48-.92.87a1.46,1.46,0,0,0,1.5.53C147.91,137.4,148.33,137,148.17,136.62Z" transform="translate(-22.9 -38.3)"/><path class="cls-19" d="M148.53,140.09c.31-.35.05-.78-.57-1a1.76,1.76,0,0,0-1.66.33c-.3.36-.05.79.57,1A1.71,1.71,0,0,0,148.53,140.09Z" transform="translate(-22.9 -38.3)"/><path class="cls-25" d="M150.76,128.41v-9.65h-5.23a23.64,23.64,0,0,0-3.42-2.39c-11.52-6.65-30.22-6.65-41.75,0a24.21,24.21,0,0,0-3.42,2.39H91.72v9.66h0c0,4.37,2.88,8.73,8.64,12.06,11.53,6.65,30.23,6.65,41.76,0C147.89,137.15,150.77,132.78,150.76,128.41Z" transform="translate(-22.9 -38.3)"/><path class="cls-9" d="M92,128.17v-9.41h-.27v9.66c0,3.91,2.32,7.81,6.94,11C94.22,136.1,92,132.14,92,128.17Z" transform="translate(-22.9 -38.3)"/><path class="cls-5" d="M150.29,118.76v9.34c0,4.37-2.87,8.74-8.64,12.07-11.53,6.65-30.22,6.65-41.75,0-.59-.34-1.12-.7-1.65-1.06.66.47,1.36.93,2.11,1.37,11.53,6.65,30.23,6.65,41.76,0,5.77-3.33,8.65-7.7,8.64-12.07v-9.65Z" transform="translate(-22.9 -38.3)"/><ellipse class="cls-26" cx="98.34" cy="80.46" rx="29.52" ry="17.04"/><path class="cls-9" d="M101.16,106.89c5.86-3.39,13.51-5.09,21.18-5.14-7.92-.17-15.93,1.47-22,5-9,5.18-11,13-5.92,19.17C90,119.54,92.27,112,101.16,106.89Z" transform="translate(-22.9 -38.3)"/><path class="cls-5" d="M142.11,106.71a36.39,36.39,0,0,0-10.44-3.88,35.58,35.58,0,0,1,9.41,3.65c11.53,6.65,11.53,17.45,0,24.1-8.47,4.89-20.79,6.17-31.31,3.88,10.74,2.61,23.6,1.4,32.35-3.65C153.64,124.16,153.64,113.37,142.11,106.71Z" transform="translate(-22.9 -38.3)"/><path class="cls-11" d="M134.44,126.46c-7.37,4.26-19.32,4.26-26.68,0s-7.37-11.15,0-15.4,19.31-4.25,26.68,0S141.81,122.21,134.44,126.46Z" transform="translate(-22.9 -38.3)"/><path class="cls-12" d="M107.76,116.9c7.36-4.26,19.31-4.26,26.68,0a11.51,11.51,0,0,1,4.82,4.78c1.76-3.66.16-7.74-4.82-10.62-7.37-4.25-19.32-4.25-26.68,0-5,2.88-6.59,7-4.83,10.62A11.48,11.48,0,0,1,107.76,116.9Z" transform="translate(-22.9 -38.3)"/><path class="cls-13" d="M107.76,114.84c7.36-4.26,19.31-4.26,26.68,0,2.85,1.64,4.58,3.68,5.23,5.81,1-3.38-.71-7-5.23-9.59-7.37-4.25-19.32-4.25-26.68,0-4.52,2.61-6.26,6.21-5.23,9.59C103.17,118.52,104.91,116.48,107.76,114.84Z" transform="translate(-22.9 -38.3)"/><path class="cls-14" d="M107.76,113c7.36-4.25,19.31-4.25,26.68,0,3.25,1.88,5.06,4.28,5.44,6.73.48-3.1-1.33-6.3-5.44-8.67-7.37-4.25-19.32-4.25-26.68,0-4.12,2.37-5.93,5.57-5.45,8.67C102.69,117.27,104.5,114.88,107.76,113Z" transform="translate(-22.9 -38.3)"/><path class="cls-5" d="M136.52,105.6a1.88,1.88,0,0,0-1.75.24c-.36.34-.18.79.42,1a1.86,1.86,0,0,0,1.74-.24C137.3,106.26,137.11,105.81,136.52,105.6Z" transform="translate(-22.9 -38.3)"/><path class="cls-15" d="M140.68,107.62a2,2,0,0,0-1.76,0c-.46.29-.43.74.07,1a2,2,0,0,0,1.76,0C141.22,108.34,141.19,107.89,140.68,107.62Z" transform="translate(-22.9 -38.3)"/><path class="cls-16" d="M144.1,110.06a1.91,1.91,0,0,0-1.74-.16c-.55.24-.68.68-.27,1a1.89,1.89,0,0,0,1.73.16C144.38,110.83,144.5,110.39,144.1,110.06Z" transform="translate(-22.9 -38.3)"/><path class="cls-17" d="M146.63,112.85a1.71,1.71,0,0,0-1.65-.36c-.63.17-.9.59-.61,1a1.73,1.73,0,0,0,1.65.36C146.64,113.63,146.92,113.21,146.63,112.85Z" transform="translate(-22.9 -38.3)"/><path class="cls-18" d="M148.17,115.86a1.43,1.43,0,0,0-1.5-.53c-.67.09-1.08.47-.92.86a1.43,1.43,0,0,0,1.5.53C147.91,116.63,148.33,116.24,148.17,115.86Z" transform="translate(-22.9 -38.3)"/><path class="cls-19" d="M148.53,119.33c.31-.36.05-.79-.57-1a1.71,1.71,0,0,0-1.66.33c-.3.35-.05.78.57,1A1.74,1.74,0,0,0,148.53,119.33Z" transform="translate(-22.9 -38.3)"/><path class="cls-22" d="M150.76,106.54l-9.14-.1c-11.12-6.14-28.49-6.29-39.91-.46l-10-.11v12.42h0c-.22,4.52,2.65,9.08,8.62,12.52,11.53,6.66,30.23,6.66,41.75,0,6-3.44,8.85-8,8.63-12.52h0Z" transform="translate(-22.9 -38.3)"/><path class="cls-27" d="M150.76,107.64V98h-5.23a22.88,22.88,0,0,0-3.42-2.39c-11.52-6.66-30.22-6.66-41.75,0A23.41,23.41,0,0,0,96.94,98H91.72v9.66h0c0,4.36,2.88,8.72,8.64,12,11.53,6.66,30.23,6.66,41.76,0C147.89,116.38,150.77,112,150.76,107.64Z" transform="translate(-22.9 -38.3)"/><path class="cls-9" d="M92,107.41V98h-.27v9.66c0,3.9,2.32,7.8,6.94,11C94.22,115.34,92,111.37,92,107.41Z" transform="translate(-22.9 -38.3)"/><path class="cls-5" d="M150.29,98v9.33c0,4.37-2.87,8.74-8.64,12.07-11.53,6.66-30.22,6.66-41.75,0-.59-.34-1.12-.69-1.65-1.05.66.47,1.36.93,2.11,1.36,11.53,6.66,30.23,6.66,41.76,0,5.77-3.33,8.65-7.7,8.64-12.07V98Z" transform="translate(-22.9 -38.3)"/><path class="cls-28" d="M142.12,110.05c-11.53,6.66-30.23,6.66-41.76,0s-11.53-17.45,0-24.11,30.22-6.65,41.75,0S153.64,103.39,142.12,110.05Z" transform="translate(-22.9 -38.3)"/><path class="cls-9" d="M101.16,86.12C107,82.74,114.67,81,122.34,81c-7.92-.17-15.93,1.47-22,5-9,5.19-11,13-5.92,19.17C90,98.78,92.27,91.26,101.16,86.12Z" transform="translate(-22.9 -38.3)"/><path class="cls-5" d="M142.11,85.94a36.68,36.68,0,0,0-10.44-3.88,35.58,35.58,0,0,1,9.41,3.65c11.53,6.66,11.53,17.45,0,24.11-8.47,4.88-20.79,6.17-31.31,3.88,10.74,2.61,23.6,1.4,32.35-3.65C153.64,103.39,153.64,92.6,142.11,85.94Z" transform="translate(-22.9 -38.3)"/><ellipse class="cls-11" cx="98.19" cy="59.7" rx="18.87" ry="10.89"/><path class="cls-12" d="M107.76,96.13c7.36-4.25,19.31-4.25,26.68,0a11.52,11.52,0,0,1,4.82,4.79c1.76-3.66.16-7.75-4.82-10.63-7.37-4.25-19.32-4.25-26.68,0-5,2.88-6.59,7-4.83,10.63A11.49,11.49,0,0,1,107.76,96.13Z" transform="translate(-22.9 -38.3)"/><path class="cls-13" d="M107.76,94.07c7.36-4.25,19.31-4.25,26.68,0,2.85,1.64,4.58,3.69,5.23,5.81,1-3.37-.71-7-5.23-9.59-7.37-4.25-19.32-4.25-26.68,0-4.52,2.61-6.26,6.22-5.23,9.59C103.17,97.75,104.91,95.71,107.76,94.07Z" transform="translate(-22.9 -38.3)"/><path class="cls-14" d="M107.76,92.23c7.36-4.25,19.31-4.25,26.68,0,3.25,1.88,5.06,4.28,5.44,6.74.48-3.1-1.33-6.3-5.44-8.68-7.37-4.25-19.32-4.25-26.68,0-4.12,2.38-5.93,5.57-5.45,8.68C102.69,96.51,104.5,94.11,107.76,92.23Z" transform="translate(-22.9 -38.3)"/><path class="cls-5" d="M136.52,84.83a1.91,1.91,0,0,0-1.75.24c-.36.35-.18.8.42,1a1.89,1.89,0,0,0,1.74-.24C137.3,85.49,137.11,85,136.52,84.83Z" transform="translate(-22.9 -38.3)"/><path class="cls-15" d="M140.68,86.86a2,2,0,0,0-1.76,0c-.46.29-.43.75.07,1a2,2,0,0,0,1.76,0C141.22,87.58,141.19,87.12,140.68,86.86Z" transform="translate(-22.9 -38.3)"/><path class="cls-16" d="M144.1,89.3a1.88,1.88,0,0,0-1.74-.16c-.55.23-.68.68-.27,1a1.89,1.89,0,0,0,1.73.16C144.38,90.07,144.5,89.62,144.1,89.3Z" transform="translate(-22.9 -38.3)"/><path class="cls-17" d="M146.63,92.08a1.71,1.71,0,0,0-1.65-.35c-.63.16-.9.59-.61,1A1.7,1.7,0,0,0,146,93C146.64,92.87,146.92,92.44,146.63,92.08Z" transform="translate(-22.9 -38.3)"/><path class="cls-18" d="M148.17,95.09a1.46,1.46,0,0,0-1.5-.53c-.67.09-1.08.48-.92.87a1.46,1.46,0,0,0,1.5.53C147.91,95.87,148.33,95.48,148.17,95.09Z" transform="translate(-22.9 -38.3)"/><path class="cls-19" d="M148.53,98.56c.31-.35.05-.78-.57-1a1.76,1.76,0,0,0-1.66.33c-.3.36-.05.79.57,1A1.71,1.71,0,0,0,148.53,98.56Z" transform="translate(-22.9 -38.3)"/><circle class="cls-11" cx="98.76" cy="81.44" r="1.85"/><path class="cls-14" d="M121.66,120.89a1.86,1.86,0,0,1-1.82-1.51,2.07,2.07,0,0,0,0,.35,1.86,1.86,0,1,0,3.71,0,2.09,2.09,0,0,0,0-.35A1.85,1.85,0,0,1,121.66,120.89Z" transform="translate(-22.9 -38.3)"/><circle class="cls-11" cx="98.76" cy="102.2" r="1.85"/><path class="cls-14" d="M121.66,141.66a1.86,1.86,0,0,1-1.82-1.51,2,2,0,0,0,0,.35,1.86,1.86,0,0,0,3.71,0,2,2,0,0,0,0-.35A1.85,1.85,0,0,1,121.66,141.66Z" transform="translate(-22.9 -38.3)"/><circle class="cls-11" cx="98.76" cy="122.97" r="1.85"/><path class="cls-14" d="M121.66,162.42a1.86,1.86,0,0,1-1.82-1.51,2.07,2.07,0,0,0,0,.35,1.86,1.86,0,1,0,3.71,0,2.09,2.09,0,0,0,0-.35A1.85,1.85,0,0,1,121.66,162.42Z" transform="translate(-22.9 -38.3)"/><circle class="cls-11" cx="98.76" cy="143.73" r="1.85"/><path class="cls-14" d="M121.66,183.19a1.86,1.86,0,0,1-1.82-1.51,2,2,0,0,0,0,.35,1.86,1.86,0,0,0,3.71,0,2,2,0,0,0,0-.35A1.85,1.85,0,0,1,121.66,183.19Z" transform="translate(-22.9 -38.3)"/><circle class="cls-11" cx="98.76" cy="164.5" r="1.85"/><path class="cls-14" d="M121.66,204a1.86,1.86,0,0,1-1.82-1.5,1.86,1.86,0,1,0,3.64,0A1.85,1.85,0,0,1,121.66,204Z" transform="translate(-22.9 -38.3)"/><path class="cls-4" d="M280.1,306.83a9.47,9.47,0,0,1-4.65-1.13l-47-27.18a1.34,1.34,0,0,1-.49-1.83,1.32,1.32,0,0,1,1.83-.49l47,27.17a7.41,7.41,0,0,0,6.62,0L432,218.17c.61-.35,1-.78,1-1.13s-.37-.79-1-1.14l-47-27.18a1.34,1.34,0,1,1,1.35-2.32l47,27.18a3.74,3.74,0,0,1,0,6.92L284.75,305.7A9.53,9.53,0,0,1,280.1,306.83Z" transform="translate(-22.9 -38.3)"/><path class="cls-5" d="M280.1,305.75a8.51,8.51,0,0,1-4.12-1l-47-27.18.26-.46,47,27.18a8.51,8.51,0,0,0,7.69,0l148.62-85.2a2.17,2.17,0,0,0,0-4.13l-47-27.18.27-.46,47,27.18a2.69,2.69,0,0,1,0,5.06l-148.62,85.2A8.44,8.44,0,0,1,280.1,305.75Z" transform="translate(-22.9 -38.3)"/><path class="cls-29" d="M392,191.18a1.21,1.21,0,1,1-.44-1.65A1.22,1.22,0,0,1,392,191.18Z" transform="translate(-22.9 -38.3)"/><path class="cls-29" d="M398.22,194.8a1.21,1.21,0,1,1-.44-1.65A1.21,1.21,0,0,1,398.22,194.8Z" transform="translate(-22.9 -38.3)"/><path class="cls-29" d="M404.48,198.42a1.21,1.21,0,1,1-.44-1.65A1.21,1.21,0,0,1,404.48,198.42Z" transform="translate(-22.9 -38.3)"/><path class="cls-29" d="M410.74,202a1.21,1.21,0,1,1-.44-1.65A1.21,1.21,0,0,1,410.74,202Z" transform="translate(-22.9 -38.3)"/><path class="cls-29" d="M417,205.66a1.21,1.21,0,1,1-.44-1.65A1.21,1.21,0,0,1,417,205.66Z" transform="translate(-22.9 -38.3)"/><path class="cls-29" d="M423.26,209.28a1.21,1.21,0,1,1-.44-1.65A1.21,1.21,0,0,1,423.26,209.28Z" transform="translate(-22.9 -38.3)"/><path class="cls-29" d="M429.52,212.9a1.21,1.21,0,1,1-.44-1.65A1.21,1.21,0,0,1,429.52,212.9Z" transform="translate(-22.9 -38.3)"/><path class="cls-29" d="M434.25,217.63a2.8,2.8,0,0,1-.77-.46c-.21-.15-.35-.23-.38-.36a1.85,1.85,0,0,1,.51-1.38.92.92,0,0,1,.9-.26,1.34,1.34,0,0,1,.88.9,1.36,1.36,0,0,1-.22,1.32A.85.85,0,0,1,434.25,217.63Z" transform="translate(-22.9 -38.3)"/><path class="cls-29" d="M428.47,221.76a1.21,1.21,0,1,1,2.09-1.2,1.21,1.21,0,0,1-2.09,1.2Z" transform="translate(-22.9 -38.3)"/><path class="cls-29" d="M422.19,225.35a1.2,1.2,0,0,1,.45-1.64,1.21,1.21,0,1,1-.45,1.64Z" transform="translate(-22.9 -38.3)"/><path class="cls-29" d="M415.92,229a1.21,1.21,0,1,1,1.65.45A1.21,1.21,0,0,1,415.92,229Z" transform="translate(-22.9 -38.3)"/><path class="cls-29" d="M409.65,232.55a1.21,1.21,0,1,1,2.09-1.2,1.21,1.21,0,0,1-2.09,1.2Z" transform="translate(-22.9 -38.3)"/><path class="cls-29" d="M403.37,236.14a1.21,1.21,0,1,1,1.65.45A1.2,1.2,0,0,1,403.37,236.14Z" transform="translate(-22.9 -38.3)"/><path class="cls-29" d="M397.1,239.74a1.21,1.21,0,1,1,1.64.45A1.21,1.21,0,0,1,397.1,239.74Z" transform="translate(-22.9 -38.3)"/><path class="cls-29" d="M390.83,243.34a1.21,1.21,0,1,1,1.64.44A1.2,1.2,0,0,1,390.83,243.34Z" transform="translate(-22.9 -38.3)"/><path class="cls-29" d="M384.55,246.93a1.21,1.21,0,0,1,2.09-1.2,1.21,1.21,0,1,1-2.09,1.2Z" transform="translate(-22.9 -38.3)"/><path class="cls-29" d="M378.28,250.53a1.21,1.21,0,1,1,1.64.45A1.2,1.2,0,0,1,378.28,250.53Z" transform="translate(-22.9 -38.3)"/><path class="cls-29" d="M372,254.13a1.21,1.21,0,1,1,1.64.44A1.2,1.2,0,0,1,372,254.13Z" transform="translate(-22.9 -38.3)"/><path class="cls-29" d="M365.73,257.72a1.21,1.21,0,0,1,2.09-1.2,1.21,1.21,0,1,1-2.09,1.2Z" transform="translate(-22.9 -38.3)"/><path class="cls-29" d="M359.46,261.32a1.21,1.21,0,1,1,1.64.45A1.2,1.2,0,0,1,359.46,261.32Z" transform="translate(-22.9 -38.3)"/><path class="cls-29" d="M353.18,264.92a1.21,1.21,0,1,1,1.65.44A1.21,1.21,0,0,1,353.18,264.92Z" transform="translate(-22.9 -38.3)"/><path class="cls-29" d="M346.91,268.51a1.2,1.2,0,1,1,1.65.45A1.2,1.2,0,0,1,346.91,268.51Z" transform="translate(-22.9 -38.3)"/><path class="cls-29" d="M340.64,272.11a1.21,1.21,0,1,1,1.64.45A1.2,1.2,0,0,1,340.64,272.11Z" transform="translate(-22.9 -38.3)"/><path class="cls-29" d="M334.36,275.71a1.21,1.21,0,1,1,2.09-1.2,1.21,1.21,0,0,1-2.09,1.2Z" transform="translate(-22.9 -38.3)"/><path class="cls-29" d="M328.09,279.3a1.2,1.2,0,1,1,1.64.45A1.2,1.2,0,0,1,328.09,279.3Z" transform="translate(-22.9 -38.3)"/><path class="cls-29" d="M321.82,282.9a1.21,1.21,0,0,1,2.09-1.2,1.21,1.21,0,1,1-2.09,1.2Z" transform="translate(-22.9 -38.3)"/><path class="cls-29" d="M315.54,286.5a1.21,1.21,0,1,1,2.09-1.2,1.21,1.21,0,0,1-2.09,1.2Z" transform="translate(-22.9 -38.3)"/><path class="cls-29" d="M309.27,290.09a1.2,1.2,0,1,1,1.64.45A1.2,1.2,0,0,1,309.27,290.09Z" transform="translate(-22.9 -38.3)"/><path class="cls-29" d="M303,293.69a1.19,1.19,0,0,1,.44-1.64,1.21,1.21,0,1,1,1.2,2.09A1.2,1.2,0,0,1,303,293.69Z" transform="translate(-22.9 -38.3)"/><path class="cls-29" d="M296.72,297.29a1.21,1.21,0,1,1,1.65.44A1.21,1.21,0,0,1,296.72,297.29Z" transform="translate(-22.9 -38.3)"/><path class="cls-29" d="M290.45,300.89a1.21,1.21,0,1,1,2.09-1.2,1.21,1.21,0,0,1-2.09,1.2Z" transform="translate(-22.9 -38.3)"/><path class="cls-29" d="M284.17,304.48a1.2,1.2,0,0,1,.45-1.64,1.21,1.21,0,1,1-.45,1.64Z" transform="translate(-22.9 -38.3)"/><path class="cls-29" d="M277.17,305a1.29,1.29,0,0,1,1.38-.87,1.27,1.27,0,0,1,1,1.33,1.16,1.16,0,0,1-1.42,1A1.14,1.14,0,0,1,277.17,305Z" transform="translate(-22.9 -38.3)"/><path class="cls-29" d="M270.85,301.49a1.21,1.21,0,0,1,2.09,1.21,1.21,1.21,0,1,1-2.09-1.21Z" transform="translate(-22.9 -38.3)"/><path class="cls-29" d="M264.59,297.87a1.21,1.21,0,1,1,.44,1.65A1.22,1.22,0,0,1,264.59,297.87Z" transform="translate(-22.9 -38.3)"/><path class="cls-29" d="M258.33,294.25a1.21,1.21,0,1,1,.44,1.65A1.22,1.22,0,0,1,258.33,294.25Z" transform="translate(-22.9 -38.3)"/><path class="cls-29" d="M252.07,290.63a1.21,1.21,0,1,1,.44,1.65A1.22,1.22,0,0,1,252.07,290.63Z" transform="translate(-22.9 -38.3)"/><path class="cls-29" d="M245.81,287a1.21,1.21,0,1,1,.44,1.65A1.22,1.22,0,0,1,245.81,287Z" transform="translate(-22.9 -38.3)"/><path class="cls-29" d="M239.55,283.39A1.21,1.21,0,1,1,240,285,1.22,1.22,0,0,1,239.55,283.39Z" transform="translate(-22.9 -38.3)"/><path class="cls-29" d="M233.29,279.77a1.21,1.21,0,1,1,.44,1.65A1.22,1.22,0,0,1,233.29,279.77Z" transform="translate(-22.9 -38.3)"/><path class="cls-7" d="M200.65,317.86,92.51,255.42c-2.58-1.48-2.26-4.08.72-5.8L313.12,122.67c3-1.72,7.48-1.91,10.05-.42l108.15,62.44c2.58,1.48,2.25,4.08-.72,5.8l-219.89,127C207.73,319.16,203.23,319.35,200.65,317.86Z" transform="translate(-22.9 -38.3)"/><path class="cls-30" d="M433.06,161.84l-5.51,3.31L323.17,104.89c-2.57-1.49-7.08-1.3-10.05.42l-216.43,125-5.92-2.65v8.07h0a3.05,3.05,0,0,0,1.74,2.4L200.65,300.5c2.58,1.49,7.08,1.31,10.06-.41l219.89-127c1.67-1,2.51-2.21,2.46-3.38h0Z" transform="translate(-22.9 -38.3)"/><path class="cls-9" d="M96.69,230.26l-5.92-2.65v8.07h0a3.05,3.05,0,0,0,1.74,2.4l.23.13a2.4,2.4,0,0,1-.52-1.35h0v-8.06l5.93,2.64,8.36-4.82c-.39-.45-.78-.9-1.18-1.33Z" transform="translate(-22.9 -38.3)"/><path class="cls-5" d="M427.55,165.15l-51.24-29.58-1.55,1,51.39,29.67,5.51-3.31v7.91h0a3.09,3.09,0,0,1-1,2.21c1.59-.95,2.39-2.17,2.35-3.31h0v-7.91Z" transform="translate(-22.9 -38.3)"/><path class="cls-31" d="M200.65,292.53,92.51,230.09c-2.58-1.49-2.26-4.09.72-5.81L313.12,97.33c3-1.72,7.48-1.91,10.05-.42l108.15,62.44c2.58,1.49,2.25,4.09-.72,5.81l-219.89,127C207.73,293.83,203.23,294,200.65,292.53Z" transform="translate(-22.9 -38.3)"/><path class="cls-9" d="M202.15,292.53,94,230.09c-2.58-1.49-2.25-4.09.72-5.81L314.61,97.33a11.48,11.48,0,0,1,5-1.39,11.78,11.78,0,0,0-6.48,1.39l-219.89,127c-3,1.72-3.3,4.32-.72,5.81l108.14,62.44a9.32,9.32,0,0,0,5.07,1A8.37,8.37,0,0,1,202.15,292.53Z" transform="translate(-22.9 -38.3)"/><path class="cls-5" d="M431.32,159.35,323.17,96.91a9.3,9.3,0,0,0-5.06-1,8.32,8.32,0,0,1,3.62,1l108.14,62.44c2.58,1.49,2.26,4.09-.72,5.81l-219.89,127a11.48,11.48,0,0,1-5,1.39,11.86,11.86,0,0,0,6.44-1.39l219.89-127C433.57,163.44,433.9,160.84,431.32,159.35Z" transform="translate(-22.9 -38.3)"/><polygon class="cls-32" points="190.08 250.39 76.25 184.67 286.61 63.22 400.44 128.94 190.08 250.39"/><polygon class="cls-33" points="201.71 227.85 115.3 177.96 274.98 85.77 361.39 135.65 201.71 227.85"/><path class="cls-34" d="M377,135.36l-12.27-7.09c-.46-.27-.4-.73.13-1h0a2,2,0,0,1,1.81-.08l12.27,7.09c.46.27.41.73-.13,1h0A2,2,0,0,1,377,135.36Z" transform="translate(-22.9 -38.3)"/><path class="cls-35" d="M194.7,144.78S200,86.46,211.29,93s5.85,40.36,17.58,47.14c11.55,6.66,5.26-96.57,22.7-86.5,12.51,7.22,8.51,85.63,19.67,92.08,12.54,7.24,8.95-22.3,20.07-21,6.37.77,9.72,19.94,18.77,24.28s4.73-78.76,19-70.5c14.48,8.36,18.67,154.68,18.67,154.68Z" transform="translate(-22.9 -38.3)"/><path class="cls-29" d="M211.8,92.47a2.41,2.41,0,1,1-2.41-2.41A2.4,2.4,0,0,1,211.8,92.47Z" transform="translate(-22.9 -38.3)"/><path class="cls-29" d="M251.67,53a2.41,2.41,0,1,1-2.4-2.41A2.39,2.39,0,0,1,251.67,53Z" transform="translate(-22.9 -38.3)"/><path class="cls-29" d="M293.39,124.59a2.41,2.41,0,1,1-2.4-2.4A2.41,2.41,0,0,1,293.39,124.59Z" transform="translate(-22.9 -38.3)"/><path class="cls-29" d="M329.64,77.73a2.41,2.41,0,1,1-2.4-2.4A2.41,2.41,0,0,1,329.64,77.73Z" transform="translate(-22.9 -38.3)"/><path class="cls-36" d="M159.59,162.11s3.94-57.93,12.38-53,4.37,38.81,13.12,43.87S189,68.86,202,76.37c9.34,5.39,6.35,35.2,14.69,40,9.35,5.4,7.73-9.41,15-5.24s7.26,23,14,26.06,3.53-64.45,14.21-58.29,13.93,149.23,13.93,149.23Z" transform="translate(-22.9 -38.3)"/><path class="cls-29" d="M173.69,108.82a2.41,2.41,0,1,1-2.41-2.41A2.41,2.41,0,0,1,173.69,108.82Z" transform="translate(-22.9 -38.3)"/><path class="cls-29" d="M203,75.92a2.41,2.41,0,1,1-2.4-2.4A2.4,2.4,0,0,1,203,75.92Z" transform="translate(-22.9 -38.3)"/><path class="cls-29" d="M231.8,110.54a2.41,2.41,0,1,1-2.41-2.41A2.41,2.41,0,0,1,231.8,110.54Z" transform="translate(-22.9 -38.3)"/><path class="cls-29" d="M260.88,78.7a2.41,2.41,0,1,1-2.4-2.4A2.41,2.41,0,0,1,260.88,78.7Z" transform="translate(-22.9 -38.3)"/><polygon class="cls-35" points="183.13 194.31 165.83 184.33 171.88 180.83 189.18 190.82 183.13 194.31"/><polygon class="cls-36" points="193.91 188.18 176.61 178.19 182.66 174.7 199.95 184.68 193.91 188.18"/><path class="cls-37" d="M171.28,169.36a.5.5,0,0,1-.5-.5v-60a.5.5,0,0,1,.5-.5.5.5,0,0,1,.5.5v60A.5.5,0,0,1,171.28,169.36Z" transform="translate(-22.9 -38.3)"/><path class="cls-37" d="M200.62,186.32a.5.5,0,0,1-.5-.5V75.92a.5.5,0,0,1,.5-.5.5.5,0,0,1,.5.5v109.9A.5.5,0,0,1,200.62,186.32Z" transform="translate(-22.9 -38.3)"/><path class="cls-37" d="M229.39,203a.5.5,0,0,1-.5-.5V110.54a.5.5,0,0,1,.5-.5.5.5,0,0,1,.5.5v91.91A.5.5,0,0,1,229.39,203Z" transform="translate(-22.9 -38.3)"/><path class="cls-37" d="M258.48,219.64a.5.5,0,0,1-.5-.5V78.91a.5.5,0,0,1,.5-.5.51.51,0,0,1,.5.5V219.14A.5.5,0,0,1,258.48,219.64Z" transform="translate(-22.9 -38.3)"/><path class="cls-29" d="M135.85,134.41a.51.51,0,0,1-.41-.21.52.52,0,0,1,.12-.7L171,108.44l29.29-32.85a.5.5,0,0,1,.38-.17.49.49,0,0,1,.38.18l28.41,34.18,28.7-31.41,34.07-39.9a.5.5,0,0,1,.76.65L258.86,79l-29.1,31.84a.49.49,0,0,1-.38.17.53.53,0,0,1-.37-.18L200.6,76.69l-28.94,32.46-.09.07-35.43,25.1A.52.52,0,0,1,135.85,134.41Z" transform="translate(-22.9 -38.3)"/><ellipse class="cls-38" cx="428.77" cy="236.67" rx="25.49" ry="41.24" transform="translate(119.09 595.39) rotate(-83.06)"/><ellipse class="cls-39" cx="369.5" cy="191.43" rx="46.73" ry="26.98"/><path class="cls-7" d="M404.86,241.36l-12.27-7.07c-1.49-.86-1.3-2.37.42-3.36l11.82-6.83a6.44,6.44,0,0,1,5.81-.25l12.27,7.08c1.49.86,1.3,2.36-.42,3.35l-11.82,6.84A6.47,6.47,0,0,1,404.86,241.36Z" transform="translate(-22.9 -38.3)"/><path class="cls-40" d="M407.31,244a6.47,6.47,0,0,1-3.14-.72l-14.55-8.39a2.36,2.36,0,0,1-1.34-2,3.14,3.14,0,0,1,1.84-2.51l14-8.11a8,8,0,0,1,7.19-.28l14.55,8.39a2.35,2.35,0,0,1,1.34,2,3.11,3.11,0,0,1-1.84,2.5l-14,8.11A8.28,8.28,0,0,1,407.31,244Zm.87-22.14a7.73,7.73,0,0,0-3.75.94l-14,8.11a2.57,2.57,0,0,0-1.54,2,1.77,1.77,0,0,0,1.05,1.47l14.55,8.39a7.32,7.32,0,0,0,6.6-.28l14-8.11a2.6,2.6,0,0,0,1.54-2,1.81,1.81,0,0,0-1.05-1.48L411,222.48A5.8,5.8,0,0,0,408.18,221.83Z" transform="translate(-22.9 -38.3)"/><path class="cls-41" d="M423.91,218.81H413.52l-2.88-1.66a6.47,6.47,0,0,0-5.81.24L402,219.05H391.59v7h0a1.67,1.67,0,0,0,1,1.55l12.27,7.08a6.47,6.47,0,0,0,5.81-.24l11.82-6.84a2.5,2.5,0,0,0,1.42-1.8h0Z" transform="translate(-22.9 -38.3)"/><path class="cls-42" d="M422.49,227.1l-11.82,6.84a6.47,6.47,0,0,1-5.81.24l-12.27-7.08a1.68,1.68,0,0,1-1-1.56h0V226h0a1.67,1.67,0,0,0,1,1.55l12.27,7.08a6.47,6.47,0,0,0,5.81-.24l11.82-6.84a2.5,2.5,0,0,0,1.42-1.8h0v-.48h0A2.5,2.5,0,0,1,422.49,227.1Z" transform="translate(-22.9 -38.3)"/><path class="cls-9" d="M392.25,226.51h0v-7h10.39l2.85-1.66a6.49,6.49,0,0,1,5.82-.24l2.88,1.66h9.73v-.48H413.52l-2.88-1.66a6.47,6.47,0,0,0-5.81.24L402,219.05H391.59v7h0a1.67,1.67,0,0,0,1,1.55l.12.07A1.44,1.44,0,0,1,392.25,226.51Z" transform="translate(-22.9 -38.3)"/><path class="cls-43" d="M404.86,227.68l-12.27-7.07c-1.49-.86-1.3-2.36.42-3.36l11.82-6.83a6.44,6.44,0,0,1,5.81-.25l12.27,7.08c1.49.86,1.3,2.36-.42,3.36l-11.82,6.83A6.47,6.47,0,0,1,404.86,227.68Z" transform="translate(-22.9 -38.3)"/><path class="cls-5" d="M422.91,217.25l-12.27-7.08a5.47,5.47,0,0,0-2.93-.56,5,5,0,0,1,2.11.56l12.27,7.08c1.49.86,1.3,2.36-.42,3.36l-11.82,6.83a6.63,6.63,0,0,1-2.88.81,6.79,6.79,0,0,0,3.7-.81l11.82-6.83C424.21,219.61,424.4,218.11,422.91,217.25Z" transform="translate(-22.9 -38.3)"/><path class="cls-9" d="M405.8,227.68l-12.27-7.07c-1.49-.86-1.3-2.36.42-3.36l11.82-6.83a6.46,6.46,0,0,1,2.83-.81,6.85,6.85,0,0,0-3.77.81L393,217.25c-1.72,1-1.91,2.5-.42,3.36l12.27,7.07a5.45,5.45,0,0,0,3,.57A4.77,4.77,0,0,1,405.8,227.68Z" transform="translate(-22.9 -38.3)"/><path class="cls-5" d="M413.75,222.39a13.28,13.28,0,0,1-12,0c-3.31-1.91-3.31-5,0-6.92a13.22,13.22,0,0,1,12,0C417.06,217.38,417.06,220.48,413.75,222.39Z" transform="translate(-22.9 -38.3)"/><path class="cls-14" d="M401.75,217.29a13.28,13.28,0,0,1,12,0,4.83,4.83,0,0,1,2.33,2.55c.5-1.54-.27-3.18-2.33-4.37a13.22,13.22,0,0,0-12,0c-2.06,1.19-2.84,2.83-2.33,4.37A4.83,4.83,0,0,1,401.75,217.29Z" transform="translate(-22.9 -38.3)"/><ellipse class="cls-44" cx="381.23" cy="264.83" rx="25.49" ry="41.24" transform="translate(49.36 572.95) rotate(-83.06)"/><ellipse class="cls-45" cx="321.96" cy="219.58" rx="46.73" ry="26.98"/><path class="cls-7" d="M357.32,269.52l-12.26-7.08c-1.49-.86-1.31-2.36.41-3.35l11.82-6.84a6.49,6.49,0,0,1,5.82-.24l12.26,7.07c1.49.86,1.31,2.37-.41,3.36l-11.83,6.84A6.47,6.47,0,0,1,357.32,269.52Z" transform="translate(-22.9 -38.3)"/><path class="cls-46" d="M359.78,272.12a6.23,6.23,0,0,1-3.14-.72L342.09,263a2.34,2.34,0,0,1-1.35-2,3.13,3.13,0,0,1,1.84-2.51l14-8.11a8,8,0,0,1,7.19-.29l14.55,8.39a2.34,2.34,0,0,1,1.34,2,3.15,3.15,0,0,1-1.83,2.51l-14,8.11A8.41,8.41,0,0,1,359.78,272.12Zm.87-22.14a7.7,7.7,0,0,0-3.75.94l-14,8.11a2.58,2.58,0,0,0-1.54,2,1.78,1.78,0,0,0,1,1.47l14.55,8.39a7.35,7.35,0,0,0,6.6-.29l14-8.11a2.57,2.57,0,0,0,1.54-2,1.78,1.78,0,0,0-1-1.47l-14.56-8.39A5.73,5.73,0,0,0,360.65,250Z" transform="translate(-22.9 -38.3)"/><path class="cls-47" d="M376.38,247H366l-2.88-1.66a6.46,6.46,0,0,0-5.82.25l-2.85,1.65H344.05v7h0a1.68,1.68,0,0,0,1,1.56l12.26,7.07a6.47,6.47,0,0,0,5.81-.24L375,255.73a2.43,2.43,0,0,0,1.41-1.79h0Z" transform="translate(-22.9 -38.3)"/><path class="cls-48" d="M375,255.25l-11.83,6.84a6.47,6.47,0,0,1-5.81.24l-12.26-7.07a1.7,1.7,0,0,1-1-1.56h0v.48h0a1.7,1.7,0,0,0,1,1.56l12.26,7.07a6.47,6.47,0,0,0,5.81-.24L375,255.73a2.43,2.43,0,0,0,1.41-1.79h0v-.48h0A2.45,2.45,0,0,1,375,255.25Z" transform="translate(-22.9 -38.3)"/><path class="cls-9" d="M344.71,254.66h0v-7h10.38L358,246a6.44,6.44,0,0,1,5.81-.25l2.88,1.66h9.74V247H366l-2.88-1.66a6.46,6.46,0,0,0-5.82.25l-2.85,1.65H344.05v7h0a1.7,1.7,0,0,0,1,1.56l.11.06A1.46,1.46,0,0,1,344.71,254.66Z" transform="translate(-22.9 -38.3)"/><path class="cls-49" d="M357.32,255.84l-12.26-7.08c-1.49-.86-1.31-2.36.41-3.35l11.82-6.84a6.49,6.49,0,0,1,5.82-.24l12.26,7.07c1.49.86,1.31,2.37-.41,3.36l-11.83,6.84A6.47,6.47,0,0,1,357.32,255.84Z" transform="translate(-22.9 -38.3)"/><path class="cls-5" d="M375.37,245.4l-12.26-7.07a5.43,5.43,0,0,0-2.94-.57,5,5,0,0,1,2.12.57l12.26,7.07c1.49.86,1.31,2.37-.41,3.36l-11.83,6.84a6.58,6.58,0,0,1-2.87.8,6.76,6.76,0,0,0,3.69-.8L375,248.76C376.68,247.77,376.86,246.26,375.37,245.4Z" transform="translate(-22.9 -38.3)"/><path class="cls-9" d="M358.26,255.84,346,248.76c-1.49-.86-1.31-2.36.41-3.35l11.82-6.84a6.63,6.63,0,0,1,2.84-.8,6.81,6.81,0,0,0-3.78.8l-11.82,6.84c-1.72,1-1.9,2.49-.41,3.35l12.26,7.08a5.49,5.49,0,0,0,3,.56A4.81,4.81,0,0,1,358.26,255.84Z" transform="translate(-22.9 -38.3)"/><path class="cls-5" d="M366.21,250.55a13.26,13.26,0,0,1-12,0c-3.32-1.92-3.32-5,0-6.93a13.26,13.26,0,0,1,12,0C369.53,245.53,369.53,248.63,366.21,250.55Z" transform="translate(-22.9 -38.3)"/><path class="cls-14" d="M354.22,245.44a13.26,13.26,0,0,1,12,0,4.91,4.91,0,0,1,2.34,2.56c.5-1.54-.28-3.19-2.34-4.38a13.26,13.26,0,0,0-12,0c-2.06,1.19-2.84,2.84-2.34,4.38A4.87,4.87,0,0,1,354.22,245.44Z" transform="translate(-22.9 -38.3)"/><ellipse class="cls-50" cx="333.7" cy="292.98" rx="25.49" ry="41.24" transform="translate(-20.38 550.52) rotate(-83.06)"/><ellipse class="cls-51" cx="274.43" cy="247.74" rx="46.73" ry="26.98"/><path class="cls-7" d="M309.79,297.67l-12.27-7.07c-1.49-.86-1.3-2.37.42-3.36l11.82-6.84a6.47,6.47,0,0,1,5.81-.24l12.27,7.08c1.49.86,1.3,2.36-.42,3.35l-11.82,6.84A6.47,6.47,0,0,1,309.79,297.67Z" transform="translate(-22.9 -38.3)"/><path class="cls-52" d="M312.24,300.28a6.47,6.47,0,0,1-3.14-.72l-14.55-8.4a2.31,2.31,0,0,1-1.34-2,3.14,3.14,0,0,1,1.84-2.51l14-8.11a8,8,0,0,1,7.19-.28l14.55,8.39a2.34,2.34,0,0,1,1.34,2,3.11,3.11,0,0,1-1.84,2.51l-14,8.11A8.28,8.28,0,0,1,312.24,300.28Zm.87-22.14a7.73,7.73,0,0,0-3.75.94l-14,8.11a2.57,2.57,0,0,0-1.54,2,1.77,1.77,0,0,0,1.05,1.47L309.4,299a7.35,7.35,0,0,0,6.6-.28l14-8.11a2.59,2.59,0,0,0,1.53-2,1.78,1.78,0,0,0-1-1.47L316,278.79A5.8,5.8,0,0,0,313.11,278.14Z" transform="translate(-22.9 -38.3)"/><path class="cls-53" d="M328.84,275.12H318.45l-2.88-1.66a6.47,6.47,0,0,0-5.81.24l-2.86,1.66H296.52v7h0a1.68,1.68,0,0,0,1,1.56L309.79,291a6.47,6.47,0,0,0,5.81-.24l11.82-6.84a2.5,2.5,0,0,0,1.42-1.8h0Z" transform="translate(-22.9 -38.3)"/><path class="cls-54" d="M327.42,283.41l-11.82,6.83a6.44,6.44,0,0,1-5.81.25l-12.27-7.08a1.68,1.68,0,0,1-1-1.56h0v.48h0a1.68,1.68,0,0,0,1,1.56L309.79,291a6.47,6.47,0,0,0,5.81-.24l11.82-6.84a2.5,2.5,0,0,0,1.42-1.8h0v-.48h0A2.5,2.5,0,0,1,327.42,283.41Z" transform="translate(-22.9 -38.3)"/><path class="cls-9" d="M297.18,282.81h0v-7h10.39l2.85-1.66a6.49,6.49,0,0,1,5.82-.24l2.88,1.66h9.73v-.48H318.45l-2.88-1.66a6.47,6.47,0,0,0-5.81.24l-2.86,1.66H296.52v7h0a1.68,1.68,0,0,0,1,1.56l.12.07A1.45,1.45,0,0,1,297.18,282.81Z" transform="translate(-22.9 -38.3)"/><path class="cls-55" d="M309.79,284l-12.27-7.07c-1.49-.86-1.3-2.37.42-3.36l11.82-6.84a6.47,6.47,0,0,1,5.81-.24l12.27,7.08c1.49.86,1.3,2.36-.42,3.35l-11.82,6.84A6.47,6.47,0,0,1,309.79,284Z" transform="translate(-22.9 -38.3)"/><path class="cls-5" d="M327.84,273.56l-12.27-7.08a5.38,5.38,0,0,0-2.93-.56,4.81,4.81,0,0,1,2.11.56L327,273.56c1.49.86,1.3,2.36-.42,3.35l-11.82,6.84a6.63,6.63,0,0,1-2.88.81,6.9,6.9,0,0,0,3.7-.81l11.82-6.84C329.14,275.92,329.33,274.42,327.84,273.56Z" transform="translate(-22.9 -38.3)"/><path class="cls-9" d="M310.73,284l-12.27-7.07c-1.49-.86-1.3-2.37.42-3.36l11.82-6.84a6.54,6.54,0,0,1,2.83-.8,6.85,6.85,0,0,0-3.77.8l-11.82,6.84c-1.72,1-1.91,2.5-.42,3.36L309.79,284a5.36,5.36,0,0,0,3,.56A4.77,4.77,0,0,1,310.73,284Z" transform="translate(-22.9 -38.3)"/><path class="cls-5" d="M318.68,278.7a13.28,13.28,0,0,1-12,0c-3.31-1.91-3.31-5,0-6.93a13.28,13.28,0,0,1,12,0C322,273.69,322,276.79,318.68,278.7Z" transform="translate(-22.9 -38.3)"/><path class="cls-14" d="M306.68,273.6a13.28,13.28,0,0,1,12,0,4.83,4.83,0,0,1,2.33,2.55c.5-1.54-.27-3.19-2.33-4.38a13.28,13.28,0,0,0-12,0c-2.06,1.19-2.84,2.84-2.33,4.38A4.83,4.83,0,0,1,306.68,273.6Z" transform="translate(-22.9 -38.3)"/></g></g></svg>