<svg xmlns="http://www.w3.org/2000/svg" xmlns:xlink="http://www.w3.org/1999/xlink" viewBox="0 0 320 320"><defs><style>.cls-1{fill:none;}.cls-2{isolation:isolate;}.cls-3{fill:url(#radial-gradient);}.cls-4{fill:url(#linear-gradient);}.cls-5{fill:#c9ffaf;}.cls-6{fill:url(#linear-gradient-2);}.cls-7{fill:#deffce;}.cls-10,.cls-30,.cls-31,.cls-33,.cls-35,.cls-7{mix-blend-mode:multiply;}.cls-8{fill:url(#linear-gradient-3);}.cls-17,.cls-18,.cls-23,.cls-34,.cls-37,.cls-9{mix-blend-mode:color-dodge;}.cls-9{fill:url(#Radial_Gradient_1);}.cls-10{fill:#e5ffd9;}.cls-11{fill:#d4ffc0;}.cls-12{opacity:0.7;}.cls-12,.cls-15{mix-blend-mode:screen;}.cls-13{fill:#c6ffaa;}.cls-14{fill:url(#linear-gradient-4);}.cls-16{fill:#d1ffba;}.cls-17{fill:url(#radial-gradient-2);}.cls-18{fill:url(#radial-gradient-3);}.cls-19{fill:url(#linear-gradient-5);}.cls-20{fill:url(#linear-gradient-6);}.cls-21{fill:url(#linear-gradient-7);}.cls-22{fill:url(#linear-gradient-8);}.cls-24{fill:url(#Radial_Gradient_1-2);}.cls-25{fill:url(#Radial_Gradient_1-3);}.cls-26{clip-path:url(#clip-path);}.cls-27{fill:url(#linear-gradient-9);}.cls-28{fill:url(#New_Gradient_Swatch_copy_2);}.cls-29{fill:url(#New_Gradient_Swatch_copy_2-2);}.cls-30{fill:url(#linear-gradient-10);}.cls-32{fill:#826e3d;}.cls-33{fill:url(#linear-gradient-11);}.cls-34{fill:url(#Radial_Gradient_1-4);}.cls-35{fill:url(#linear-gradient-12);}.cls-36{fill:url(#New_Gradient_Swatch_copy_2-3);}.cls-37{opacity:0.5;fill:url(#radial-gradient-4);}</style><radialGradient id="radial-gradient" cx="160.47" cy="160.54" r="160" gradientTransform="translate(-0.47 -128.97) scale(1 1.8)" gradientUnits="userSpaceOnUse"><stop offset="0" stop-color="#042626"/><stop offset="0.42" stop-color="#031e1d" stop-opacity="0.97"/><stop offset="1" stop-color="#010d09" stop-opacity="0.9"/></radialGradient><linearGradient id="linear-gradient" x1="305.5" y1="113.42" x2="-136.16" y2="245.42" gradientUnits="userSpaceOnUse"><stop offset="0.01" stop-color="#b4a88b"/><stop offset="0.05" stop-color="#908e77"/><stop offset="0.15" stop-color="#354d45"/><stop offset="0.2" stop-color="#042929"/><stop offset="0.35" stop-color="#547d62"/><stop offset="0.52" stop-color="#addaa1"/><stop offset="0.6" stop-color="#d1ffba"/><stop offset="0.63" stop-color="#caf6b4"/><stop offset="0.69" stop-color="#b5dea3"/><stop offset="0.76" stop-color="#95b787"/><stop offset="0.84" stop-color="#678060"/><stop offset="0.94" stop-color="#2d3b30"/><stop offset="1" stop-color="#02070b"/></linearGradient><linearGradient id="linear-gradient-2" x1="384.53" y1="87.92" x2="-200.84" y2="262.86" xlink:href="#linear-gradient"/><linearGradient id="linear-gradient-3" x1="329.37" y1="89.52" x2="-18.56" y2="247.93" xlink:href="#linear-gradient"/><radialGradient id="Radial_Gradient_1" cx="80.1" cy="164.07" r="59.61" gradientUnits="userSpaceOnUse"><stop offset="0" stop-color="#fff"/><stop offset="1"/></radialGradient><linearGradient id="linear-gradient-4" x1="329.31" y1="86.32" x2="-17.86" y2="272.74" xlink:href="#linear-gradient"/><radialGradient id="radial-gradient-2" cx="552.42" cy="3710.41" r="3.75" gradientTransform="matrix(0.87, 0.53, 0.02, -0.98, -390.86, 3456.74)" gradientUnits="userSpaceOnUse"><stop offset="0.39" stop-color="#fff"/><stop offset="0.41" stop-color="#f3ffed"/><stop offset="0.44" stop-color="#deffce"/><stop offset="0.48" stop-color="#cfffb8"/><stop offset="0.51" stop-color="#c6ffab"/><stop offset="0.55" stop-color="#c3ffa6"/><stop offset="0.55" stop-color="#bffaa2"/><stop offset="0.57" stop-color="#9bcb84"/><stop offset="0.59" stop-color="#7aa068"/><stop offset="0.61" stop-color="#5d794f"/><stop offset="0.64" stop-color="#445839"/><stop offset="0.67" stop-color="#2e3d27"/><stop offset="0.7" stop-color="#1d2619"/><stop offset="0.73" stop-color="#10150e"/><stop offset="0.78" stop-color="#070906"/><stop offset="0.84" stop-color="#010201"/><stop offset="1"/></radialGradient><radialGradient id="radial-gradient-3" cx="590.75" cy="3636.44" r="3.75" xlink:href="#radial-gradient-2"/><linearGradient id="linear-gradient-5" x1="292.45" y1="91.4" x2="-141.68" y2="221.15" xlink:href="#linear-gradient"/><linearGradient id="linear-gradient-6" x1="354.13" y1="73.09" x2="79.6" y2="242.86" xlink:href="#linear-gradient"/><linearGradient id="linear-gradient-7" x1="319" y1="100.93" x2="168.49" y2="194.01" xlink:href="#linear-gradient"/><linearGradient id="linear-gradient-8" x1="318.47" y1="93.64" x2="97.1" y2="205.62" xlink:href="#linear-gradient"/><radialGradient id="Radial_Gradient_1-2" cx="250.39" cy="132.2" r="15.77" xlink:href="#Radial_Gradient_1"/><radialGradient id="Radial_Gradient_1-3" cx="280.15" cy="82.44" r="37.91" xlink:href="#Radial_Gradient_1"/><clipPath id="clip-path" transform="translate(-0.47 -0.54)"><polyline id="SVGID" class="cls-1" points="77.58 136.25 76.17 145.79 76.09 170.8 98 188.58 120.58 177.04 103.11 145"/></clipPath><linearGradient id="linear-gradient-9" x1="2370.56" y1="154.17" x2="2387.37" y2="184.83" gradientTransform="translate(-2284.93)" gradientUnits="userSpaceOnUse"><stop offset="0" stop-color="#89846b"/><stop offset="0.23" stop-color="#89846b"/><stop offset="0.54" stop-color="#fffe9f"/><stop offset="0.65" stop-color="#fffea2"/><stop offset="0.75" stop-color="#fffead"/><stop offset="0.84" stop-color="#fffebf"/><stop offset="0.86" stop-color="#fffec4"/><stop offset="0.97" stop-color="#fffeb1"/></linearGradient><linearGradient id="New_Gradient_Swatch_copy_2" x1="2368.54" y1="173.76" x2="2407.8" y2="162.01" gradientTransform="translate(-1873.54 -1174.79) rotate(30.31)" gradientUnits="userSpaceOnUse"><stop offset="0.04" stop-color="#fffea7"/><stop offset="0.31" stop-color="#f2efa5"/><stop offset="0.83" stop-color="#cfc6a1"/><stop offset="1" stop-color="#c2b8a0"/></linearGradient><linearGradient id="New_Gradient_Swatch_copy_2-2" x1="5951.29" y1="177.62" x2="5990.44" y2="154.03" gradientTransform="matrix(-0.86, -0.5, -0.5, 0.86, 5322.02, 3031.75)" xlink:href="#New_Gradient_Swatch_copy_2"/><linearGradient id="linear-gradient-10" x1="2372.57" y1="183.62" x2="2374.63" y2="165.11" xlink:href="#linear-gradient-9"/><linearGradient id="linear-gradient-11" x1="2374.13" y1="152.21" x2="2390.83" y2="182.67" xlink:href="#linear-gradient-9"/><radialGradient id="Radial_Gradient_1-4" cx="2378.43" cy="166.1" r="13.44" gradientTransform="translate(-2284.93)" xlink:href="#Radial_Gradient_1"/><linearGradient id="linear-gradient-12" x1="84.22" y1="172" x2="97.07" y2="172" gradientTransform="matrix(1, 0, 0, 1, 0, 0)" xlink:href="#linear-gradient-9"/><linearGradient id="New_Gradient_Swatch_copy_2-3" x1="105.69" y1="200.78" x2="69.12" y2="135.07" gradientTransform="matrix(1, 0, 0, 1, 0, 0)" xlink:href="#New_Gradient_Swatch_copy_2"/><radialGradient id="radial-gradient-4" cx="94.64" cy="169.22" r="7.38" xlink:href="#Radial_Gradient_1"/></defs><title>favicon</title><g class="cls-2"><g id="Layer_2" data-name="Layer 2"><rect class="cls-3" width="320" height="320" rx="50" ry="50"/></g><g id="Layer_1" data-name="Layer 1"><polygon class="cls-4" points="186.68 128.47 175.68 134.97 206.82 163.38 217.82 156.88 186.68 128.47"/><polygon class="cls-5" points="96.13 212.99 107.13 206.49 185.38 150.3 174.38 156.8 96.13 212.99"/><polygon class="cls-5" points="27.24 220.61 38.24 214.11 78.67 183.41 67.67 189.91 27.24 220.61"/><polygon class="cls-6" points="68.25 168.05 79.25 161.55 108.06 184.93 97.06 191.43 68.25 168.05"/><polygon class="cls-7" points="75.55 170.26 81.19 166.53 103.37 184.53 97.73 188.26 75.55 170.26"/><polygon class="cls-8" points="206.82 163.38 175.68 134.97 97.06 191.43 68.25 168.05 11.61 211.26 27.24 220.61 67.67 189.91 96.13 212.99 174.38 156.8 206.29 185.91 206.82 163.38"/><polygon class="cls-9" points="176.01 134.69 97.4 191.14 68.59 167.76 11.95 210.97 12.7 211.43 68.47 168.89 97.27 192.27 175.89 135.81 207.04 164.22 206.53 185.53 206.63 185.62 207.16 163.09 176.01 134.69"/><polygon class="cls-10" points="128.4 195.81 233.73 256.63 233.73 132.53 128.4 71.71 128.4 195.81"/><polygon class="cls-11" points="229.58 218.94 209.67 207.43 209.67 204.66 229.58 216.17 229.58 218.94"/><polygon class="cls-11" points="224.08 220.71 209.67 212.31 209.67 210.54 224.08 218.93 224.08 220.71"/><polygon class="cls-11" points="224.08 223.94 209.67 215.55 209.67 213.77 224.08 222.17 224.08 223.94"/><polygon class="cls-11" points="198.58 126.78 178.67 115.27 178.67 112.49 198.58 124 198.58 126.78"/><g class="cls-12"><path class="cls-13" d="M233.19,255.77l-.56-.33-103.91-60v-122l104.47,60.31ZM129.47,195l103,59.45V134.18l-103-59.44Z" transform="translate(-0.47 -0.54)"/><rect class="cls-13" x="138.07" y="79.55" width="0.75" height="120.69"/><rect class="cls-13" x="149.92" y="86.35" width="0.75" height="120.69"/><rect class="cls-13" x="161.77" y="93.15" width="0.75" height="120.69"/><rect class="cls-13" x="173.61" y="99.94" width="0.75" height="120.69"/><rect class="cls-13" x="185.46" y="106.74" width="0.75" height="120.69"/><rect class="cls-13" x="197.31" y="113.54" width="0.75" height="120.69"/><rect class="cls-13" x="209.15" y="120.34" width="0.75" height="120.69"/><rect class="cls-13" x="221" y="127.14" width="0.75" height="120.69"/><rect class="cls-13" x="180.58" y="57.2" width="0.75" height="119.76" transform="translate(-11.39 214.71) rotate(-60)"/><rect class="cls-13" x="180.58" y="70.88" width="0.75" height="119.76" transform="matrix(0.5, -0.87, 0.87, 0.5, -23.23, 221.55)"/><rect class="cls-13" x="180.58" y="84.56" width="0.75" height="119.76" transform="translate(-35.08 228.39) rotate(-60)"/><rect class="cls-13" x="180.58" y="98.24" width="0.75" height="119.76" transform="translate(-46.93 235.23) rotate(-60)"/><rect class="cls-13" x="180.58" y="111.91" width="0.75" height="119.76" transform="translate(-58.77 242.07) rotate(-60)"/><rect class="cls-13" x="180.58" y="125.59" width="0.75" height="119.76" transform="translate(-70.62 248.91) rotate(-60)"/><rect class="cls-13" x="180.58" y="139.27" width="0.75" height="119.76" transform="matrix(0.5, -0.87, 0.87, 0.5, -82.46, 255.75)"/><rect class="cls-13" x="180.58" y="152.95" width="0.75" height="119.76" transform="translate(-94.31 262.59) rotate(-60)"/></g><polygon class="cls-11" points="193.08 128.54 178.67 120.15 178.67 118.37 193.08 126.77 193.08 128.54"/><polygon class="cls-11" points="193.08 131.78 178.67 123.38 178.67 121.6 193.08 130 193.08 131.78"/><polygon class="cls-14" points="233.74 148.23 206.13 171.12 174.69 142.44 128.4 175.55 128.4 183.47 174.39 150.58 206.01 179.42 233.74 156.43 233.74 148.23"/><g class="cls-15"><path class="cls-16" d="M175.26,141.28a.51.51,0,0,1-.5-.5V138.9a.51.51,0,0,1,.5-.5.5.5,0,0,1,.5.5v1.88A.5.5,0,0,1,175.26,141.28Zm0-4.35a.51.51,0,0,1-.5-.5V134a.51.51,0,0,1,.5-.5.5.5,0,0,1,.5.5v2.48A.5.5,0,0,1,175.26,136.93Zm0-5a.51.51,0,0,1-.5-.5V129a.51.51,0,0,1,.5-.5.5.5,0,0,1,.5.5v2.48A.5.5,0,0,1,175.26,132Zm0-4.95a.51.51,0,0,1-.5-.5v-2.48a.51.51,0,0,1,.5-.5.5.5,0,0,1,.5.5v2.48A.5.5,0,0,1,175.26,127Zm0-5a.51.51,0,0,1-.5-.5V119.1a.5.5,0,0,1,.5-.5.5.5,0,0,1,.5.5v2.48A.5.5,0,0,1,175.26,122.08Zm0-5a.51.51,0,0,1-.5-.5v-2.48a.5.5,0,0,1,.5-.5.5.5,0,0,1,.5.5v2.48A.5.5,0,0,1,175.26,117.13Z" transform="translate(-0.47 -0.54)"/></g><g class="cls-15"><path class="cls-16" d="M206.6,206.94a.5.5,0,0,1-.5-.5v-.87a.5.5,0,0,1,.5-.5.5.5,0,0,1,.5.5v.87A.5.5,0,0,1,206.6,206.94Zm0-3.35a.5.5,0,0,1-.5-.5v-2.47a.5.5,0,0,1,.5-.5.5.5,0,0,1,.5.5v2.47A.5.5,0,0,1,206.6,203.59Zm0-5a.5.5,0,0,1-.5-.5v-2.47a.5.5,0,0,1,.5-.5.5.5,0,0,1,.5.5v2.47A.5.5,0,0,1,206.6,198.64Zm0-4.95a.5.5,0,0,1-.5-.5v-2.47a.5.5,0,0,1,.5-.5.5.5,0,0,1,.5.5v2.47A.5.5,0,0,1,206.6,193.69Zm0-4.95a.5.5,0,0,1-.5-.5v-2.47a.5.5,0,0,1,.5-.5.5.5,0,0,1,.5.5v2.47A.5.5,0,0,1,206.6,188.74Zm0-5a.5.5,0,0,1-.5-.5v-2.47a.5.5,0,0,1,.5-.5.5.5,0,0,1,.5.5v2.47A.5.5,0,0,1,206.6,183.79Z" transform="translate(-0.47 -0.54)"/></g><path class="cls-17" d="M178.18,114.7a7.12,7.12,0,0,0-3.16-5.64c-1.79-1.09-3.28-.33-3.33,1.69a7.15,7.15,0,0,0,3.16,5.65C176.64,117.49,178.13,116.73,178.18,114.7Z" transform="translate(-0.47 -0.54)"/><path class="cls-18" d="M209.61,207.37a7.14,7.14,0,0,0-3.15-5.65c-1.79-1.09-3.29-.33-3.34,1.7a7.18,7.18,0,0,0,3.16,5.65C208.07,210.16,209.56,209.4,209.61,207.37Z" transform="translate(-0.47 -0.54)"/><polygon class="cls-19" points="256.99 100.78 245.99 107.28 297.24 91.19 308.24 84.69 256.99 100.78"/><polygon class="cls-20" points="276.24 138.03 287.24 131.53 308.24 84.69 297.24 91.19 276.24 138.03"/><polygon class="cls-21" points="234.08 156.44 239.74 154.09 278.24 122.31 267.24 128.81 234.08 156.44"/><polygon class="cls-22" points="234.08 156.44 267.24 128.81 276.24 138.03 297.24 91.19 245.99 107.28 255.31 116.61 234.12 134.32 234.08 156.44"/><g class="cls-23"><polygon class="cls-24" points="234.32 135.35 255.51 117.65 254.78 116.92 234.32 134.02 234.28 156.14 234.28 156.14 234.32 135.35"/><polygon class="cls-25" points="296.75 92.44 297.44 90.89 246.19 106.98 247.21 107.99 296.75 92.44"/></g><g class="cls-26"><path class="cls-27" d="M105.93,176.79c0,3.85-1.33,6.58-3.49,7.9L98.68,187c-2.24,1.25-.81-1.6-4.22-3.57C87.59,179.47,82,169.87,82,162c0-3.9-3.61-3.93-1.4-5.23l4.18-2.38c2.25-1.22,5.31-1,8.69,1C100.36,159.3,105.93,168.9,105.93,176.79Z" transform="translate(-0.47 -0.54)"/><ellipse class="cls-28" cx="89.42" cy="172.02" rx="10.13" ry="17.54" transform="translate(-75.07 68.1) rotate(-30.31)"/><ellipse class="cls-29" cx="89.42" cy="172.02" rx="7.49" ry="12.97" transform="translate(-75.07 68.1) rotate(-30.31)"/><path class="cls-30" d="M90.27,181.77c-5.08-2.93-9.2-10-9.2-15.86a7.5,7.5,0,0,1,1.45-4.83c-1.43,1-2.3,3-2.3,5.63,0,5.83,4.12,12.93,9.2,15.87,3.26,1.88,6.12,1.58,7.75-.42C95.49,183.39,93,183.36,90.27,181.77Z" transform="translate(-0.47 -0.54)"/><g class="cls-31"><path class="cls-32" d="M93.76,155.5l-.27-.17-.25-.13-4.13,2.39.31.16.21.13Z" transform="translate(-0.47 -0.54)"/><path class="cls-32" d="M89.25,153.75l-4.16,2.41a7.45,7.45,0,0,1,.77.15L90,153.9Q89.64,153.81,89.25,153.75Z" transform="translate(-0.47 -0.54)"/><path class="cls-32" d="M96.2,157.25l-4.12,2.37.42.36,4.12-2.37Z" transform="translate(-0.47 -0.54)"/><path class="cls-32" d="M100.7,162.15l-4.1,2.37.3.43,4.1-2.37Z" transform="translate(-0.47 -0.54)"/><path class="cls-32" d="M98.64,159.59,94.53,162l.35.39L99,160Z" transform="translate(-0.47 -0.54)"/><path class="cls-32" d="M102.45,164.9l-4.09,2.36.24.46,4.1-2.37C102.62,165.2,102.54,165.05,102.45,164.9Z" transform="translate(-0.47 -0.54)"/><path class="cls-32" d="M105.22,181.1l-4,2.33c-.1.27-.2.54-.32.79l4-2.33A8.16,8.16,0,0,0,105.22,181.1Z" transform="translate(-0.47 -0.54)"/><path class="cls-32" d="M101.85,179.51l0,.62,4.07-2.35c0-.2,0-.41,0-.62Z" transform="translate(-0.47 -0.54)"/><path class="cls-32" d="M105.75,174.32c0-.18,0-.37-.07-.56l-4.09,2.36c0,.19,0,.37.08.56Z" transform="translate(-0.47 -0.54)"/><path class="cls-32" d="M100.86,173c0,.17.09.34.14.52l4.09-2.36c0-.18-.09-.35-.14-.52Z" transform="translate(-0.47 -0.54)"/><path class="cls-32" d="M104.06,168.22c-.06-.16-.12-.32-.19-.49l-4.09,2.37c.07.16.13.32.19.48Z" transform="translate(-0.47 -0.54)"/></g><path class="cls-33" d="M93.49,155.33c-3.38-2-6.44-2.18-8.69-1l-.56.31c2.19-.93,5-.62,8.17,1.19,6.87,4,12.44,13.57,12.44,21.45,0,3.86-1.32,6.58-3.48,7.9-.06,0,1-.49,1.07-.53,2.16-1.32,3.49-4.05,3.49-7.9C105.93,168.9,100.36,159.3,93.49,155.33Z" transform="translate(-0.47 -0.54)"/><path class="cls-34" d="M90,157.39c-3.29-1.9-6.23-2.1-8.46-1,2.08-.58,4.65-.14,7.44,1.47,6.87,4,12.44,13.57,12.44,21.45,0,4.11-1.51,6.93-3.93,8.14,3-.85,5-3.92,5-8.61C102.4,171,96.83,161.36,90,157.39Z" transform="translate(-0.47 -0.54)"/><path class="cls-35" d="M91.28,164.81l1.12,4.32A1.51,1.51,0,0,0,93,170l3.39,2c.64.38.9,1.46.39,1.61l-2.7.79c-.22.07-.32.35-.24.7l1,4.3c.18.8-.51,1-1,.26L91,175.88a.84.84,0,0,0-.77-.44l-2.78.61c-.52.12-1.21-.86-1-1.45l1-3.16a1.26,1.26,0,0,0-.23-1l-2.71-3.91c-.51-.73-.24-1.51.39-1.16l3.4,1.88c.28.16.53.09.62-.16l1.11-3C90.22,163.51,91.07,164,91.28,164.81Z" transform="translate(-0.47 -0.54)"/><path class="cls-36" d="M90.53,165.19l1.12,4.32a1.52,1.52,0,0,0,.62.87l3.39,2c.64.38.9,1.47.39,1.62l-2.7.79c-.22.06-.32.34-.24.7l1,4.29c.18.81-.51,1-1,.27l-2.79-3.84a.88.88,0,0,0-.77-.44l-2.78.62c-.53.11-1.21-.86-1-1.45l1-3.16a1.22,1.22,0,0,0-.24-1l-2.7-3.91c-.51-.74-.24-1.52.39-1.16l3.4,1.88c.28.15.53.09.62-.16l1.11-3C89.47,163.88,90.32,164.37,90.53,165.19Z" transform="translate(-0.47 -0.54)"/><path class="cls-37" d="M90.53,165.19l1.12,4.32a1.52,1.52,0,0,0,.62.87l3.39,2c.64.38.9,1.47.39,1.62l-2.7.79c-.22.06-.32.34-.24.7l1,4.29c.18.81-.51,1-1,.27l-2.79-3.84a.88.88,0,0,0-.77-.44l-2.78.62c-.53.11-1.21-.86-1-1.45l1-3.16a1.22,1.22,0,0,0-.24-1l-2.7-3.91c-.51-.74-.24-1.52.39-1.16l3.4,1.88c.28.15.53.09.62-.16l1.11-3C89.47,163.88,90.32,164.37,90.53,165.19Z" transform="translate(-0.47 -0.54)"/></g></g></g></svg>