<svg xmlns="http://www.w3.org/2000/svg" xmlns:xlink="http://www.w3.org/1999/xlink" viewBox="0 0 767.17 824.97"><defs><style>.cls-1,.cls-10,.cls-11,.cls-12,.cls-13,.cls-16,.cls-2,.cls-9{fill:#fffe9f;}.cls-1{opacity:0.3;}.cls-3{fill:url(#_ÂÁ_Ï_ÌÌ_È_ËÂÌÚ_14);}.cls-4{fill:#02070b;}.cls-10,.cls-4{opacity:0.6;}.cls-5{fill:url(#_ÂÁ_Ï_ÌÌ_È_ËÂÌÚ_15);}.cls-30,.cls-6{fill:#c3ffa6;}.cls-7{fill:url(#_ÂÁ_Ï_ÌÌ_È_ËÂÌÚ_13);}.cls-8{fill:#92a7aa;}.cls-29,.cls-30,.cls-9{opacity:0.8;}.cls-11,.cls-31{opacity:0.4;}.cls-12{opacity:0.2;}.cls-13{opacity:0.1;}.cls-14{fill:url(#_ÂÁ_Ï_ÌÌ_È_ËÂÌÚ_15-2);}.cls-15{fill:url(#_ÂÁ_Ï_ÌÌ_È_ËÂÌÚ_13-2);}.cls-16{opacity:0.5;}.cls-17{fill:url(#_ÂÁ_Ï_ÌÌ_È_ËÂÌÚ_15-3);}.cls-18{fill:url(#_ÂÁ_Ï_ÌÌ_È_ËÂÌÚ_13-3);}.cls-19{fill:url(#_ÂÁ_Ï_ÌÌ_È_ËÂÌÚ_15-4);}.cls-20{fill:url(#_ÂÁ_Ï_ÌÌ_È_ËÂÌÚ_13-4);}.cls-21{fill:url(#_ÂÁ_Ï_ÌÌ_È_ËÂÌÚ_15-5);}.cls-22{fill:url(#_ÂÁ_Ï_ÌÌ_È_ËÂÌÚ_13-5);}.cls-23,.cls-31{fill:#fff;}.cls-24{fill:url(#_ÂÁ_Ï_ÌÌ_È_ËÂÌÚ_13-6);}.cls-25{fill:url(#_ÂÁ_Ï_ÌÌ_È_ËÂÌÚ_13-7);}.cls-26{fill:url(#_ÂÁ_Ï_ÌÌ_È_ËÂÌÚ_18);}.cls-27{fill:url(#_ÂÁ_Ï_ÌÌ_È_ËÂÌÚ_15-6);}.cls-28{fill:url(#_ÂÁ_Ï_ÌÌ_È_ËÂÌÚ_18-2);}.cls-29{fill:#89846b;}.cls-32{fill:url(#_ÂÁ_Ï_ÌÌ_È_ËÂÌÚ_14-2);}.cls-33{fill:url(#_ÂÁ_Ï_ÌÌ_È_ËÂÌÚ_15-7);}.cls-34{fill:url(#_ÂÁ_Ï_ÌÌ_È_ËÂÌÚ_14-3);}.cls-35{fill:url(#_ÂÁ_Ï_ÌÌ_È_ËÂÌÚ_13-8);}.cls-36{fill:url(#_ÂÁ_Ï_ÌÌ_È_ËÂÌÚ_14-4);}.cls-37{fill:url(#_ÂÁ_Ï_ÌÌ_È_ËÂÌÚ_15-8);}.cls-38{fill:url(#_ÂÁ_Ï_ÌÌ_È_ËÂÌÚ_14-5);}.cls-39{fill:url(#_ÂÁ_Ï_ÌÌ_È_ËÂÌÚ_13-9);}.cls-40{fill:url(#_ÂÁ_Ï_ÌÌ_È_ËÂÌÚ_14-6);}.cls-41{fill:url(#_ÂÁ_Ï_ÌÌ_È_ËÂÌÚ_15-9);}.cls-42{fill:url(#_ÂÁ_Ï_ÌÌ_È_ËÂÌÚ_14-7);}.cls-43{fill:url(#_ÂÁ_Ï_ÌÌ_È_ËÂÌÚ_13-10);}</style><linearGradient id="_ÂÁ_Ï_ÌÌ_È_ËÂÌÚ_14" x1="46.28" y1="446.32" x2="165.99" y2="446.32" gradientUnits="userSpaceOnUse"><stop offset="0" stop-color="#c3ffa6"/><stop offset="0.23" stop-color="#c3ffa6"/><stop offset="0.51" stop-color="#fffe9f"/><stop offset="0.78" stop-color="#fffe9f"/><stop offset="1" stop-color="#fffe9f"/></linearGradient><linearGradient id="_ÂÁ_Ï_ÌÌ_È_ËÂÌÚ_15" x1="-206.71" y1="431.44" x2="-87.66" y2="431.44" gradientTransform="translate(253.32)" gradientUnits="userSpaceOnUse"><stop offset="0" stop-color="#c3ffa6"/><stop offset="0.01" stop-color="#bcf8a2"/><stop offset="0.05" stop-color="#92c886"/><stop offset="0.1" stop-color="#6c9d6d"/><stop offset="0.15" stop-color="#4c7958"/><stop offset="0.2" stop-color="#325c47"/><stop offset="0.26" stop-color="#1d453a"/><stop offset="0.32" stop-color="#0f3530"/><stop offset="0.39" stop-color="#072c2b"/><stop offset="0.48" stop-color="#042929"/><stop offset="0.6" stop-color="#204242"/><stop offset="0.85" stop-color="#668082"/><stop offset="1" stop-color="#92a7aa"/></linearGradient><linearGradient id="_ÂÁ_Ï_ÌÌ_È_ËÂÌÚ_13" x1="-1358.35" y1="-690.4" x2="-1261.14" y2="-690.4" gradientTransform="matrix(0.87, 0.5, -0.87, 0.5, 642.49, 1412.03)" gradientUnits="userSpaceOnUse"><stop offset="0" stop-color="#042929"/><stop offset="0.13" stop-color="#0d3131"/><stop offset="0.34" stop-color="#244546"/><stop offset="0.6" stop-color="#4a6768"/><stop offset="0.89" stop-color="#7e9597"/><stop offset="1" stop-color="#92a7aa"/></linearGradient><linearGradient id="_ÂÁ_Ï_ÌÌ_È_ËÂÌÚ_15-2" x1="-206.71" y1="389.57" x2="-87.66" y2="389.57" xlink:href="#_ÂÁ_Ï_ÌÌ_È_ËÂÌÚ_15"/><linearGradient id="_ÂÁ_Ï_ÌÌ_È_ËÂÌÚ_13-2" x1="-1400.22" y1="-732.27" x2="-1303.01" y2="-732.27" xlink:href="#_ÂÁ_Ï_ÌÌ_È_ËÂÌÚ_13"/><linearGradient id="_ÂÁ_Ï_ÌÌ_È_ËÂÌÚ_15-3" x1="-206.71" y1="347.7" x2="-87.66" y2="347.7" xlink:href="#_ÂÁ_Ï_ÌÌ_È_ËÂÌÚ_15"/><linearGradient id="_ÂÁ_Ï_ÌÌ_È_ËÂÌÚ_13-3" x1="-1442.09" y1="-774.14" x2="-1344.88" y2="-774.14" xlink:href="#_ÂÁ_Ï_ÌÌ_È_ËÂÌÚ_13"/><linearGradient id="_ÂÁ_Ï_ÌÌ_È_ËÂÌÚ_15-4" x1="-206.71" y1="305.83" x2="-87.66" y2="305.83" xlink:href="#_ÂÁ_Ï_ÌÌ_È_ËÂÌÚ_15"/><linearGradient id="_ÂÁ_Ï_ÌÌ_È_ËÂÌÚ_13-4" x1="-1483.96" y1="-816.01" x2="-1386.75" y2="-816.01" xlink:href="#_ÂÁ_Ï_ÌÌ_È_ËÂÌÚ_13"/><linearGradient id="_ÂÁ_Ï_ÌÌ_È_ËÂÌÚ_15-5" x1="-206.71" y1="263.96" x2="-87.66" y2="263.96" xlink:href="#_ÂÁ_Ï_ÌÌ_È_ËÂÌÚ_15"/><linearGradient id="_ÂÁ_Ï_ÌÌ_È_ËÂÌÚ_13-5" x1="-1525.83" y1="-857.88" x2="-1428.62" y2="-857.88" xlink:href="#_ÂÁ_Ï_ÌÌ_È_ËÂÌÚ_13"/><linearGradient id="_ÂÁ_Ï_ÌÌ_È_ËÂÌÚ_13-6" x1="-93.66" y1="455.59" x2="905.55" y2="455.59" gradientTransform="matrix(1, 0, 0, 1, 0, 0)" xlink:href="#_ÂÁ_Ï_ÌÌ_È_ËÂÌÚ_13"/><linearGradient id="_ÂÁ_Ï_ÌÌ_È_ËÂÌÚ_13-7" x1="-2768.03" y1="-488.36" x2="-2494.47" y2="-488.36" gradientTransform="matrix(0.87, 0.5, -1, 0.58, 2180.09, 2037.11)" xlink:href="#_ÂÁ_Ï_ÌÌ_È_ËÂÌÚ_13"/><radialGradient id="_ÂÁ_Ï_ÌÌ_È_ËÂÌÚ_18" cx="-3468.96" cy="-2857.58" r="543.98" gradientTransform="matrix(0.84, 0.49, -1.07, 0.62, 15, 3738.88)" gradientUnits="userSpaceOnUse"><stop offset="0.01" stop-color="#042929"/><stop offset="0.28" stop-color="#031b1c"/><stop offset="0.67" stop-color="#020c0f"/><stop offset="1" stop-color="#02070b"/></radialGradient><linearGradient id="_ÂÁ_Ï_ÌÌ_È_ËÂÌÚ_15-6" x1="140.34" y1="440.28" x2="636.55" y2="440.28" gradientTransform="matrix(1, 0, 0, 1, 0, 0)" xlink:href="#_ÂÁ_Ï_ÌÌ_È_ËÂÌÚ_15"/><radialGradient id="_ÂÁ_Ï_ÌÌ_È_ËÂÌÚ_18-2" cx="-2640.7" cy="-1198.36" r="25.87" gradientTransform="matrix(0.87, 0.5, -0.87, 0.5, 1851.95, 2226.29)" xlink:href="#_ÂÁ_Ï_ÌÌ_È_ËÂÌÚ_18"/><linearGradient id="_ÂÁ_Ï_ÌÌ_È_ËÂÌÚ_14-2" x1="644.6" y1="515.9" x2="723.11" y2="515.9" xlink:href="#_ÂÁ_Ï_ÌÌ_È_ËÂÌÚ_14"/><linearGradient id="_ÂÁ_Ï_ÌÌ_È_ËÂÌÚ_15-7" x1="645.1" y1="502.38" x2="724.52" y2="502.38" gradientTransform="matrix(1, 0, 0, 1, 0, 0)" xlink:href="#_ÂÁ_Ï_ÌÌ_È_ËÂÌÚ_15"/><linearGradient id="_ÂÁ_Ï_ÌÌ_È_ËÂÌÚ_14-3" x1="645.1" y1="511.19" x2="724.52" y2="511.19" xlink:href="#_ÂÁ_Ï_ÌÌ_È_ËÂÌÚ_14"/><linearGradient id="_ÂÁ_Ï_ÌÌ_È_ËÂÌÚ_13-8" x1="-647.85" y1="-890.37" x2="-610.45" y2="-922.77" gradientTransform="matrix(0.87, 0.5, -1, 0.58, 321.45, 1326.35)" xlink:href="#_ÂÁ_Ï_ÌÌ_È_ËÂÌÚ_13"/><linearGradient id="_ÂÁ_Ï_ÌÌ_È_ËÂÌÚ_14-4" x1="548.75" y1="572.67" x2="627.26" y2="572.67" xlink:href="#_ÂÁ_Ï_ÌÌ_È_ËÂÌÚ_14"/><linearGradient id="_ÂÁ_Ï_ÌÌ_È_ËÂÌÚ_15-8" x1="549.25" y1="559.15" x2="628.67" y2="559.15" gradientTransform="matrix(1, 0, 0, 1, 0, 0)" xlink:href="#_ÂÁ_Ï_ÌÌ_È_ËÂÌÚ_15"/><linearGradient id="_ÂÁ_Ï_ÌÌ_È_ËÂÌÚ_14-5" x1="549.25" y1="567.96" x2="628.67" y2="567.96" xlink:href="#_ÂÁ_Ï_ÌÌ_È_ËÂÌÚ_14"/><linearGradient id="_ÂÁ_Ï_ÌÌ_È_ËÂÌÚ_13-9" x1="-646.42" y1="-793.29" x2="-609.02" y2="-825.68" gradientTransform="matrix(0.87, 0.5, -1, 0.58, 321.45, 1326.35)" xlink:href="#_ÂÁ_Ï_ÌÌ_È_ËÂÌÚ_13"/><linearGradient id="_ÂÁ_Ï_ÌÌ_È_ËÂÌÚ_14-6" x1="452.9" y1="629.44" x2="531.41" y2="629.44" xlink:href="#_ÂÁ_Ï_ÌÌ_È_ËÂÌÚ_14"/><linearGradient id="_ÂÁ_Ï_ÌÌ_È_ËÂÌÚ_15-9" x1="453.4" y1="615.92" x2="532.82" y2="615.92" gradientTransform="matrix(1, 0, 0, 1, 0, 0)" xlink:href="#_ÂÁ_Ï_ÌÌ_È_ËÂÌÚ_15"/><linearGradient id="_ÂÁ_Ï_ÌÌ_È_ËÂÌÚ_14-7" x1="453.4" y1="624.73" x2="532.82" y2="624.73" xlink:href="#_ÂÁ_Ï_ÌÌ_È_ËÂÌÚ_14"/><linearGradient id="_ÂÁ_Ï_ÌÌ_È_ËÂÌÚ_13-10" x1="-645" y1="-696.2" x2="-607.59" y2="-728.6" gradientTransform="matrix(0.87, 0.5, -1, 0.58, 321.45, 1326.35)" xlink:href="#_ÂÁ_Ï_ÌÌ_È_ËÂÌÚ_13"/></defs><title>features5</title><g id="S5"><path class="cls-1" d="M106,492.73a112.67,112.67,0,0,1-31.63-4.44c-20.5-6-34.52-17.35-38.47-31-2.77-9.6-.17-19.56,7.33-28.06h0l.81-.91c18-20.36,59.22-28.31,93.91-18.11,20.5,6,34.52,17.35,38.47,31,2.77,9.6.17,19.56-7.33,28.06l-.8.91C155.57,484.54,131.31,492.73,106,492.73ZM50.3,435.49C45,441.54,43.12,448.16,45,454.62c3,10.35,15,19.53,32,24.55,30.91,9.1,68.64,2.24,84.11-15.28l.8-.92c5.34-6.05,7.19-12.67,5.32-19.12-3-10.36-15-19.54-32-24.56-30.92-9.1-68.65-2.24-84.11,15.28Z"/><path class="cls-2" d="M105.57,488.51a107.17,107.17,0,0,1-30.08-4.18c-19.12-5.62-32.13-15.91-35.68-28.22-2.4-8.32-.16-16.68,6.46-24.19l.81-.91c16.71-18.94,56.93-26.51,89.66-16.88,19.12,5.62,32.12,15.91,35.67,28.23,2.4,8.31.17,16.67-6.46,24.18l-.8.91C153.36,480.81,129.87,488.51,105.57,488.51ZM47.21,432.75c-6.33,7.17-8.47,15.13-6.19,23,3.38,11.72,16.4,21.95,34.82,27.37,32.31,9.5,71.95,2.09,88.37-16.51l.8-.91c6.33-7.17,8.47-15.13,6.2-23-3.38-11.72-16.4-21.95-34.83-27.37-32.3-9.5-71.95-2.09-88.36,16.51Z"/><path class="cls-3" d="M106.14,481c-15.3,0-30.61-3.36-42.26-10.09-11.35-6.55-17.6-15.28-17.6-24.59s6.25-18,17.6-24.58c23.3-13.45,61.21-13.45,84.51,0C159.74,428.29,166,437,166,446.33s-6.25,18-17.59,24.58C136.75,477.64,121.44,481,106.14,481Zm0-68.71c-15.19,0-30.37,3.34-41.93,10-11.14,6.42-17.27,15-17.27,24s6.13,17.59,17.27,24c23.12,13.35,60.74,13.36,83.86,0,11.14-6.42,17.27-14.95,17.27-24s-6.13-17.6-17.27-24C136.51,415.63,121.32,412.29,106.14,412.29Z"/><ellipse class="cls-4" cx="106.14" cy="446.32" rx="50.26" ry="29.02"/><path class="cls-5" d="M165.67,431.41V412H155.13a47.1,47.1,0,0,0-6.9-4.82c-23.25-13.42-60.94-13.42-84.19,0A47.53,47.53,0,0,0,57.15,412H46.61v19.48h0c0,8.8,5.81,17.59,17.44,24.3,23.24,13.43,60.94,13.43,84.18,0C159.87,449,165.68,440.22,165.67,431.41Z"/><path class="cls-6" d="M47.16,430.94V412h-.55v19.48c0,7.87,4.69,15.74,14,22.11C51.66,446.92,47.16,438.93,47.16,430.94Z"/><path class="cls-2" d="M164.73,412v18.82c0,8.81-5.8,17.62-17.44,24.34-23.24,13.42-60.94,13.42-84.18,0-1.19-.69-2.27-1.4-3.33-2.13,1.33.95,2.74,1.87,4.27,2.75,23.24,13.43,60.94,13.43,84.18,0,11.64-6.72,17.45-15.52,17.44-24.33V412Z"/><ellipse class="cls-7" cx="106.14" cy="411.96" rx="59.53" ry="34.37"/><path class="cls-6" d="M65.65,388c11.81-6.82,27.24-10.26,42.71-10.36-16-.35-32.13,3-44.32,10-18.11,10.46-22.27,26.17-11.93,38.66C43.21,413.53,47.72,398.36,65.65,388Z"/><path class="cls-2" d="M148.23,387.65a73.61,73.61,0,0,0-21.06-7.82,71.94,71.94,0,0,1,19,7.35c23.25,13.43,23.25,35.19,0,48.61-17.07,9.86-41.91,12.44-63.12,7.82,21.64,5.27,47.58,2.83,65.21-7.35C171.48,422.84,171.48,401.08,148.23,387.65Z"/><ellipse class="cls-2" cx="105.85" cy="411.96" rx="38.04" ry="21.96"/><path class="cls-2" d="M79,408.2c14.86-8.58,38.94-8.58,53.8,0,4.81,2.77,8,6.11,9.73,9.64,3.55-7.38.32-15.61-9.73-21.42-14.86-8.57-38.94-8.57-53.8,0-10,5.81-13.27,14-9.73,21.42C70.91,414.31,74.14,411,79,408.2Z"/><path class="cls-2" d="M79,404c14.86-8.58,38.94-8.58,53.8,0,5.74,3.32,9.24,7.43,10.54,11.72,2.07-6.81-1.43-14.07-10.54-19.34-14.86-8.57-38.94-8.57-53.8,0-9.11,5.27-12.61,12.53-10.54,19.34C69.71,411.47,73.21,407.35,79,404Z"/><path class="cls-8" d="M79,400.34c14.86-8.58,38.94-8.58,53.8,0,6.57,3.79,10.22,8.62,11,13.57,1-6.25-2.69-12.7-11-17.49-14.86-8.57-38.94-8.57-53.8,0-8.29,4.79-11.94,11.24-11,17.49C68.73,409,72.38,404.13,79,400.34Z"/><path class="cls-2" d="M136.94,385.41a3.8,3.8,0,0,0-3.51.48c-.74.7-.36,1.61.84,2a3.78,3.78,0,0,0,3.51-.48C138.52,386.75,138.14,385.84,136.94,385.41Z"/><path class="cls-9" d="M145.35,389.49a3.93,3.93,0,0,0-3.55.08c-.94.58-.88,1.5.13,2a3.93,3.93,0,0,0,3.55-.07C146.42,391,146.36,390,145.35,389.49Z"/><path class="cls-10" d="M152.24,394.42a3.81,3.81,0,0,0-3.5-.33c-1.13.47-1.38,1.38-.57,2a3.86,3.86,0,0,0,3.51.32C152.8,396,153.05,395.07,152.24,394.42Z"/><path class="cls-11" d="M157.34,400a3.47,3.47,0,0,0-3.33-.72c-1.26.34-1.81,1.2-1.24,1.92a3.47,3.47,0,0,0,3.33.72C157.36,401.61,157.91,400.75,157.34,400Z"/><path class="cls-12" d="M160.44,406.1c-.32-.78-1.68-1.26-3-1.07s-2.18,1-1.86,1.74,1.67,1.26,3,1.08S160.76,406.88,160.44,406.1Z"/><path class="cls-13" d="M161.18,413.1c.6-.72.09-1.59-1.16-1.94a3.51,3.51,0,0,0-3.35.67c-.61.72-.1,1.58,1.15,1.94A3.53,3.53,0,0,0,161.18,413.1Z"/><path class="cls-14" d="M165.67,389.54V370.08H155.13a47.85,47.85,0,0,0-6.9-4.81c-23.25-13.43-60.94-13.43-84.19,0a48.29,48.29,0,0,0-6.89,4.81H46.61v19.49h0c0,8.8,5.81,17.59,17.44,24.3,23.24,13.42,60.94,13.42,84.18,0C159.87,407.15,165.68,398.35,165.67,389.54Z"/><path class="cls-6" d="M47.16,389.06v-19h-.55v19.49c0,7.87,4.69,15.74,14,22.11C51.66,405.05,47.16,397.06,47.16,389.06Z"/><path class="cls-2" d="M164.73,370.08v18.83c0,8.81-5.8,17.62-17.44,24.34-23.24,13.42-60.94,13.42-84.18,0-1.19-.69-2.27-1.4-3.33-2.13,1.33.95,2.74,1.87,4.27,2.75,23.24,13.42,60.94,13.42,84.18,0,11.64-6.72,17.45-15.52,17.44-24.33V370.08Z"/><ellipse class="cls-15" cx="106.14" cy="370.08" rx="59.53" ry="34.37"/><path class="cls-6" d="M65.65,346.14c11.81-6.82,27.24-10.26,42.71-10.36-16-.35-32.13,3-44.32,10C45.93,356.24,41.77,372,52.11,384.44,43.21,371.66,47.72,356.49,65.65,346.14Z"/><path class="cls-2" d="M148.23,345.78A73.61,73.61,0,0,0,127.17,338a71.94,71.94,0,0,1,19,7.35c23.25,13.43,23.25,35.19,0,48.61-17.07,9.85-41.91,12.44-63.12,7.82,21.64,5.27,47.58,2.83,65.21-7.35C171.48,381,171.48,359.2,148.23,345.78Z"/><path class="cls-2" d="M132.75,385.62c-14.86,8.57-38.94,8.57-53.8,0s-14.86-22.49,0-31.07,38.94-8.57,53.8,0S147.61,377,132.75,385.62Z"/><path class="cls-2" d="M79,366.33c14.86-8.58,38.94-8.58,53.8,0,4.81,2.77,8,6.11,9.73,9.64,3.55-7.38.32-15.61-9.73-21.42-14.86-8.57-38.94-8.57-53.8,0-10,5.8-13.27,14-9.73,21.42C70.91,372.44,74.14,369.1,79,366.33Z"/><path class="cls-2" d="M79,362.17c14.86-8.58,38.94-8.58,53.8,0,5.74,3.31,9.24,7.43,10.54,11.72,2.07-6.81-1.43-14.07-10.54-19.34-14.86-8.57-38.94-8.57-53.8,0-9.11,5.26-12.61,12.53-10.54,19.34C69.71,369.6,73.21,365.48,79,362.17Z"/><path class="cls-8" d="M79,358.46c14.86-8.57,38.94-8.57,53.8,0,6.57,3.79,10.22,8.62,11,13.57,1-6.25-2.69-12.7-11-17.49-14.86-8.57-38.94-8.57-53.8,0C70.66,359.34,67,365.79,68,372,68.73,367.09,72.38,362.26,79,358.46Z"/><path class="cls-2" d="M136.94,343.54a3.8,3.8,0,0,0-3.51.48c-.74.7-.36,1.6.84,2a3.78,3.78,0,0,0,3.51-.48C138.52,344.88,138.14,344,136.94,343.54Z"/><path class="cls-9" d="M145.35,347.62a3.93,3.93,0,0,0-3.55.08c-.94.58-.88,1.5.13,2a3.93,3.93,0,0,0,3.55-.07C146.42,349.08,146.36,348.16,145.35,347.62Z"/><path class="cls-10" d="M152.24,352.55a3.81,3.81,0,0,0-3.5-.33c-1.13.47-1.38,1.38-.57,2a3.83,3.83,0,0,0,3.51.33C152.8,354.1,153.05,353.19,152.24,352.55Z"/><path class="cls-11" d="M157.34,358.16a3.47,3.47,0,0,0-3.33-.72c-1.26.34-1.81,1.2-1.24,1.92a3.47,3.47,0,0,0,3.33.72C157.36,359.74,157.91,358.88,157.34,358.16Z"/><path class="cls-12" d="M160.44,364.23c-.32-.78-1.68-1.26-3-1.07s-2.18,1-1.86,1.74,1.67,1.26,3,1.08S160.76,365,160.44,364.23Z"/><path class="cls-13" d="M161.18,371.23c.6-.72.09-1.59-1.16-1.94a3.51,3.51,0,0,0-3.35.67c-.61.72-.1,1.58,1.15,1.93A3.5,3.5,0,0,0,161.18,371.23Z"/><path class="cls-16" d="M165.67,345.45l-18.43-.21c-22.42-12.37-57.44-12.68-80.48-.92l-20.18-.23v25.05h.07c-.43,9.11,5.36,18.3,17.4,25.25,23.24,13.42,60.94,13.42,84.18,0,12-6.95,17.83-16.14,17.4-25.25h0Z"/><path class="cls-17" d="M165.67,347.67V328.21H155.13a47.85,47.85,0,0,0-6.9-4.81C125,310,87.29,310,64,323.4a48.29,48.29,0,0,0-6.89,4.81H46.61V347.7h0c0,8.79,5.81,17.59,17.44,24.3,23.24,13.42,60.94,13.42,84.18,0C159.87,365.28,165.68,356.47,165.67,347.67Z"/><path class="cls-6" d="M47.16,347.19v-19h-.55V347.7c0,7.87,4.69,15.73,14,22.11C51.66,363.18,47.16,355.19,47.16,347.19Z"/><path class="cls-2" d="M164.73,328.21V347c0,8.81-5.8,17.62-17.44,24.34-23.24,13.42-60.94,13.42-84.18,0-1.19-.69-2.27-1.41-3.33-2.13,1.33.95,2.74,1.87,4.27,2.75,23.24,13.42,60.94,13.42,84.18,0,11.64-6.72,17.45-15.53,17.44-24.33V328.21Z"/><ellipse class="cls-18" cx="106.14" cy="328.21" rx="59.53" ry="34.37"/><path class="cls-6" d="M65.65,304.27c11.81-6.82,27.24-10.26,42.71-10.36-16-.35-32.13,3-44.32,10-18.11,10.46-22.27,26.17-11.93,38.66C43.21,329.79,47.72,314.62,65.65,304.27Z"/><path class="cls-2" d="M148.23,303.91a73.61,73.61,0,0,0-21.06-7.82,71.94,71.94,0,0,1,19,7.35c23.25,13.42,23.25,35.19,0,48.61-17.07,9.85-41.91,12.44-63.12,7.82,21.64,5.27,47.58,2.83,65.21-7.35C171.48,339.09,171.48,317.33,148.23,303.91Z"/><ellipse class="cls-2" cx="105.85" cy="328.21" rx="38.04" ry="21.96"/><path class="cls-2" d="M79,324.45c14.86-8.57,38.94-8.57,53.8,0,4.81,2.77,8,6.11,9.73,9.64,3.55-7.38.32-15.62-9.73-21.42-14.86-8.57-38.94-8.57-53.8,0-10,5.8-13.27,14-9.73,21.42C70.91,330.57,74.14,327.23,79,324.45Z"/><path class="cls-2" d="M79,320.3c14.86-8.58,38.94-8.58,53.8,0,5.74,3.31,9.24,7.43,10.54,11.72,2.07-6.81-1.43-14.08-10.54-19.34-14.86-8.57-38.94-8.57-53.8,0-9.11,5.26-12.61,12.53-10.54,19.34C69.71,327.73,73.21,323.61,79,320.3Z"/><path class="cls-8" d="M79,316.59c14.86-8.57,38.94-8.57,53.8,0,6.57,3.8,10.22,8.63,11,13.58,1-6.25-2.69-12.7-11-17.49-14.86-8.57-38.94-8.57-53.8,0-8.29,4.79-11.94,11.23-11,17.49C68.73,325.22,72.38,320.38,79,316.59Z"/><path class="cls-2" d="M136.94,301.67a3.78,3.78,0,0,0-3.51.48c-.74.7-.36,1.6.84,2a3.78,3.78,0,0,0,3.51-.48C138.52,303,138.14,302.1,136.94,301.67Z"/><path class="cls-9" d="M145.35,305.75a3.93,3.93,0,0,0-3.55.07c-.94.59-.88,1.51.13,2.05a3.93,3.93,0,0,0,3.55-.07C146.42,307.21,146.36,306.29,145.35,305.75Z"/><path class="cls-10" d="M152.24,310.68a3.81,3.81,0,0,0-3.5-.33c-1.13.47-1.38,1.38-.57,2a3.83,3.83,0,0,0,3.51.33C152.8,312.23,153.05,311.32,152.24,310.68Z"/><path class="cls-11" d="M157.34,316.28a3.5,3.5,0,0,0-3.33-.71c-1.26.33-1.81,1.19-1.24,1.92a3.47,3.47,0,0,0,3.33.72C157.36,317.87,157.91,317,157.34,316.28Z"/><path class="cls-12" d="M160.44,322.36c-.32-.78-1.68-1.26-3-1.07s-2.18,1-1.86,1.74,1.67,1.26,3,1.07S160.76,323.14,160.44,322.36Z"/><path class="cls-13" d="M161.18,329.36c.6-.72.09-1.59-1.16-1.94a3.51,3.51,0,0,0-3.35.67c-.61.71-.1,1.58,1.15,1.93A3.53,3.53,0,0,0,161.18,329.36Z"/><path class="cls-19" d="M165.67,305.8V286.34H155.13a47.85,47.85,0,0,0-6.9-4.81C125,268.1,87.29,268.1,64,281.52a49.14,49.14,0,0,0-6.89,4.82H46.61v19.49h0c0,8.79,5.81,17.59,17.44,24.3,23.24,13.42,60.94,13.42,84.18,0C159.87,323.41,165.68,314.6,165.67,305.8Z"/><path class="cls-6" d="M47.16,305.32v-19h-.55v19.49c0,7.87,4.69,15.73,14,22.11C51.66,321.31,47.16,313.32,47.16,305.32Z"/><path class="cls-2" d="M164.73,286.34v18.83c0,8.81-5.8,17.62-17.44,24.34-23.24,13.42-60.94,13.42-84.18,0-1.19-.68-2.27-1.4-3.33-2.12,1.33.95,2.74,1.87,4.27,2.75,23.24,13.42,60.94,13.42,84.18,0,11.64-6.72,17.45-15.53,17.44-24.33V286.34Z"/><ellipse class="cls-20" cx="106.14" cy="286.34" rx="59.53" ry="34.37"/><path class="cls-6" d="M65.65,262.4c11.81-6.82,27.24-10.26,42.71-10.37-16-.34-32.13,3-44.32,10C45.93,272.5,41.77,288.21,52.11,300.7,43.21,287.92,47.72,272.75,65.65,262.4Z"/><path class="cls-2" d="M148.23,262a73.62,73.62,0,0,0-21.06-7.83,72.3,72.3,0,0,1,19,7.36c23.25,13.42,23.25,35.18,0,48.61C129.07,320,104.23,322.62,83,318c21.64,5.27,47.58,2.83,65.21-7.35C171.48,297.22,171.48,275.46,148.23,262Z"/><path class="cls-2" d="M132.75,301.87c-14.86,8.58-38.94,8.58-53.8,0s-14.86-22.48,0-31.06,38.94-8.58,53.8,0S147.61,293.3,132.75,301.87Z"/><path class="cls-2" d="M79,282.58c14.86-8.57,38.94-8.57,53.8,0,4.81,2.78,8,6.12,9.73,9.65,3.55-7.38.32-15.62-9.73-21.42-14.86-8.58-38.94-8.58-53.8,0-10,5.8-13.27,14-9.73,21.42C70.91,288.7,74.14,285.36,79,282.58Z"/><path class="cls-2" d="M79,278.43c14.86-8.58,38.94-8.58,53.8,0,5.74,3.31,9.24,7.43,10.54,11.72,2.07-6.81-1.43-14.08-10.54-19.34-14.86-8.58-38.94-8.58-53.8,0-9.11,5.26-12.61,12.53-10.54,19.34C69.71,285.86,73.21,281.74,79,278.43Z"/><path class="cls-8" d="M79,274.72c14.86-8.57,38.94-8.57,53.8,0,6.57,3.79,10.22,8.63,11,13.58,1-6.25-2.69-12.7-11-17.49-14.86-8.58-38.94-8.58-53.8,0C70.66,275.6,67,282,68,288.3,68.73,283.35,72.38,278.51,79,274.72Z"/><path class="cls-2" d="M136.94,259.8a3.78,3.78,0,0,0-3.51.48c-.74.7-.36,1.6.84,2a3.78,3.78,0,0,0,3.51-.48C138.52,261.13,138.14,260.23,136.94,259.8Z"/><path class="cls-9" d="M145.35,263.88a3.93,3.93,0,0,0-3.55.07c-.94.59-.88,1.51.13,2.05a3.93,3.93,0,0,0,3.55-.07C146.42,265.34,146.36,264.42,145.35,263.88Z"/><path class="cls-10" d="M152.24,268.81a3.81,3.81,0,0,0-3.5-.33c-1.13.47-1.38,1.37-.57,2a3.83,3.83,0,0,0,3.51.33C152.8,270.36,153.05,269.45,152.24,268.81Z"/><path class="cls-11" d="M157.34,274.41a3.5,3.5,0,0,0-3.33-.71c-1.26.33-1.81,1.19-1.24,1.92a3.45,3.45,0,0,0,3.33.71C157.36,276,157.91,275.14,157.34,274.41Z"/><path class="cls-12" d="M160.44,280.49c-.32-.78-1.68-1.26-3-1.07s-2.18,1-1.86,1.74,1.67,1.26,3,1.07S160.76,281.27,160.44,280.49Z"/><path class="cls-13" d="M161.18,287.49c.6-.72.09-1.59-1.16-1.94a3.51,3.51,0,0,0-3.35.67c-.61.71-.1,1.58,1.15,1.93A3.53,3.53,0,0,0,161.18,287.49Z"/><path class="cls-16" d="M165.67,261.7l-18.43-.21c-22.42-12.36-57.44-12.67-80.48-.91l-20.18-.23v25h.07c-.43,9.11,5.36,18.29,17.4,25.25,23.24,13.42,60.94,13.42,84.18,0,12-6.95,17.83-16.14,17.4-25.25h0Z"/><path class="cls-21" d="M165.67,263.93V244.47H155.13a48.68,48.68,0,0,0-6.9-4.82c-23.25-13.42-60.94-13.42-84.19,0a49.14,49.14,0,0,0-6.89,4.82H46.61V264h0c0,8.79,5.81,17.59,17.44,24.3,23.24,13.42,60.94,13.42,84.18,0C159.87,281.54,165.68,272.73,165.67,263.93Z"/><path class="cls-6" d="M47.16,263.45v-19h-.55V264c0,7.87,4.69,15.73,14,22.11C51.66,279.44,47.16,271.45,47.16,263.45Z"/><path class="cls-2" d="M164.73,244.47V263.3c0,8.81-5.8,17.62-17.44,24.33-23.24,13.43-60.94,13.43-84.18,0-1.19-.68-2.27-1.4-3.33-2.12,1.33.95,2.74,1.87,4.27,2.75,23.24,13.42,60.94,13.42,84.18,0,11.64-6.72,17.45-15.53,17.44-24.33V244.47Z"/><path class="cls-22" d="M148.23,268.78c-23.24,13.42-60.94,13.42-84.18,0s-23.25-35.18,0-48.6,60.94-13.42,84.19,0S171.48,255.35,148.23,268.78Z"/><path class="cls-6" d="M65.65,220.52c11.81-6.81,27.24-10.26,42.71-10.36-16-.34-32.13,3-44.32,10-18.11,10.46-22.27,26.17-11.93,38.65C43.21,246.05,47.72,230.88,65.65,220.52Z"/><path class="cls-2" d="M148.23,220.17a73.62,73.62,0,0,0-21.06-7.83,72.3,72.3,0,0,1,19,7.36c23.25,13.42,23.25,35.18,0,48.61-17.07,9.85-41.91,12.44-63.12,7.82,21.64,5.27,47.58,2.83,65.21-7.35C171.48,255.35,171.48,233.59,148.23,220.17Z"/><ellipse class="cls-2" cx="105.85" cy="244.47" rx="38.04" ry="21.96"/><path class="cls-2" d="M79,240.71c14.86-8.57,38.94-8.57,53.8,0,4.81,2.78,8,6.12,9.73,9.65,3.55-7.38.32-15.62-9.73-21.42-14.86-8.58-38.94-8.58-53.8,0-10,5.8-13.27,14-9.73,21.42C70.91,246.83,74.14,243.49,79,240.71Z"/><path class="cls-2" d="M79,236.56c14.86-8.58,38.94-8.58,53.8,0,5.74,3.31,9.24,7.43,10.54,11.72,2.07-6.81-1.43-14.08-10.54-19.34-14.86-8.58-38.94-8.58-53.8,0-9.11,5.26-12.61,12.53-10.54,19.34C69.71,244,73.21,239.87,79,236.56Z"/><path class="cls-8" d="M79,232.85c14.86-8.57,38.94-8.57,53.8,0,6.57,3.79,10.22,8.63,11,13.58,1-6.26-2.69-12.7-11-17.49-14.86-8.58-38.94-8.58-53.8,0-8.29,4.79-11.94,11.23-11,17.49C68.73,241.47,72.38,236.64,79,232.85Z"/><path class="cls-2" d="M136.94,217.93a3.78,3.78,0,0,0-3.51.48c-.74.69-.36,1.6.84,2a3.78,3.78,0,0,0,3.51-.48C138.52,219.26,138.14,218.36,136.94,217.93Z"/><path class="cls-9" d="M145.35,222a3.93,3.93,0,0,0-3.55.07c-.94.59-.88,1.51.13,2a3.93,3.93,0,0,0,3.55-.08C146.42,223.47,146.36,222.55,145.35,222Z"/><path class="cls-10" d="M152.24,226.93a3.84,3.84,0,0,0-3.5-.32c-1.13.47-1.38,1.37-.57,2a3.83,3.83,0,0,0,3.51.33C152.8,228.49,153.05,227.58,152.24,226.93Z"/><path class="cls-11" d="M157.34,232.54a3.5,3.5,0,0,0-3.33-.71c-1.26.33-1.81,1.19-1.24,1.92a3.45,3.45,0,0,0,3.33.71C157.36,234.13,157.91,233.27,157.34,232.54Z"/><path class="cls-12" d="M160.44,238.62c-.32-.78-1.68-1.26-3-1.08s-2.18,1-1.86,1.75,1.67,1.26,3,1.07S160.76,239.4,160.44,238.62Z"/><path class="cls-13" d="M161.18,245.62c.6-.72.09-1.59-1.16-1.94a3.53,3.53,0,0,0-3.35.66c-.61.72-.1,1.59,1.15,1.94A3.55,3.55,0,0,0,161.18,245.62Z"/><circle class="cls-2" cx="106.99" cy="288.3" r="3.74"/><path class="cls-8" d="M107,290.64a3.74,3.74,0,0,1-3.67-3,4.05,4.05,0,0,0-.07.7,3.74,3.74,0,0,0,7.48,0,4.05,4.05,0,0,0-.07-.7A3.74,3.74,0,0,1,107,290.64Z"/><circle class="cls-2" cx="106.99" cy="330.17" r="3.74"/><path class="cls-8" d="M107,332.51a3.74,3.74,0,0,1-3.67-3,4.05,4.05,0,0,0-.07.7,3.74,3.74,0,0,0,7.48,0,4.05,4.05,0,0,0-.07-.7A3.74,3.74,0,0,1,107,332.51Z"/><circle class="cls-2" cx="106.99" cy="372.04" r="3.74"/><path class="cls-8" d="M107,374.38a3.74,3.74,0,0,1-3.67-3,4.05,4.05,0,0,0-.07.7,3.74,3.74,0,0,0,7.48,0,4.05,4.05,0,0,0-.07-.7A3.74,3.74,0,0,1,107,374.38Z"/><circle class="cls-2" cx="106.99" cy="413.91" r="3.74"/><path class="cls-8" d="M107,416.25a3.74,3.74,0,0,1-3.67-3,4.05,4.05,0,0,0-.07.7,3.74,3.74,0,0,0,7.48,0,4.05,4.05,0,0,0-.07-.7A3.74,3.74,0,0,1,107,416.25Z"/><circle class="cls-2" cx="106.99" cy="455.78" r="3.74"/><path class="cls-8" d="M107,458.12a3.74,3.74,0,0,1-3.67-3,4.05,4.05,0,0,0-.07.7,3.74,3.74,0,0,0,7.48,0,4.05,4.05,0,0,0-.07-.7A3.74,3.74,0,0,1,107,458.12Z"/><path class="cls-1" d="M426.46,665.56a19.1,19.1,0,0,1-9.38-2.28l-94.77-54.8a2.71,2.71,0,0,1,2.71-4.69l94.77,54.81a15,15,0,0,0,13.34,0L732.8,486.79c1.23-.71,2-1.57,2-2.29s-.74-1.57-2-2.29L638,427.41a2.71,2.71,0,0,1,2.71-4.69l94.76,54.8c3,1.72,4.68,4.26,4.68,7s-1.7,5.26-4.68,7L435.83,663.29A19.14,19.14,0,0,1,426.46,665.56Z"/><path class="cls-2" d="M426.46,663.39a17,17,0,0,1-8.3-2L323.4,606.6l.54-.93,94.76,54.8a17.18,17.18,0,0,0,15.52,0l299.66-171.8c2-1.14,3-2.62,3-4.17s-1.08-3-3-4.16l-94.76-54.81.54-.93,94.76,54.8c2.32,1.34,3.6,3.15,3.6,5.1s-1.28,3.77-3.6,5.1L434.75,661.41A16.94,16.94,0,0,1,426.46,663.39Z"/><path class="cls-23" d="M652,432.36a2.43,2.43,0,1,1-.89-3.32A2.43,2.43,0,0,1,652,432.36Z"/><path class="cls-23" d="M664.63,439.66a2.43,2.43,0,1,1-.89-3.32A2.43,2.43,0,0,1,664.63,439.66Z"/><path class="cls-23" d="M677.25,447a2.43,2.43,0,1,1-.88-3.32A2.42,2.42,0,0,1,677.25,447Z"/><path class="cls-23" d="M689.88,454.26a2.43,2.43,0,1,1-.89-3.32A2.43,2.43,0,0,1,689.88,454.26Z"/><path class="cls-23" d="M702.5,461.56a2.43,2.43,0,1,1-.89-3.32A2.43,2.43,0,0,1,702.5,461.56Z"/><path class="cls-23" d="M715.12,468.86a2.43,2.43,0,1,1-.89-3.32A2.43,2.43,0,0,1,715.12,468.86Z"/><path class="cls-23" d="M727.74,476.16a2.43,2.43,0,1,1-.88-3.32A2.43,2.43,0,0,1,727.74,476.16Z"/><path class="cls-23" d="M737.28,485.69a5.66,5.66,0,0,1-1.55-.91c-.41-.31-.69-.48-.76-.74a3.74,3.74,0,0,1,1-2.77,1.85,1.85,0,0,1,1.82-.52,2.67,2.67,0,0,1,1.79,1.81,2.8,2.8,0,0,1-.46,2.66A1.7,1.7,0,0,1,737.28,485.69Z"/><path class="cls-23" d="M725.63,494a2.43,2.43,0,1,1,3.32.9A2.44,2.44,0,0,1,725.63,494Z"/><path class="cls-23" d="M713,501.27a2.43,2.43,0,1,1,3.32.9A2.44,2.44,0,0,1,713,501.27Z"/><path class="cls-23" d="M700.33,508.52a2.43,2.43,0,1,1,3.32.9A2.42,2.42,0,0,1,700.33,508.52Z"/><path class="cls-23" d="M687.68,515.78a2.43,2.43,0,1,1,3.32.9A2.43,2.43,0,0,1,687.68,515.78Z"/><path class="cls-23" d="M675,523a2.43,2.43,0,1,1,3.32.9A2.44,2.44,0,0,1,675,523Z"/><path class="cls-23" d="M662.38,530.28a2.43,2.43,0,1,1,3.32.9A2.44,2.44,0,0,1,662.38,530.28Z"/><path class="cls-23" d="M649.73,537.53a2.43,2.43,0,1,1,3.32.9A2.43,2.43,0,0,1,649.73,537.53Z"/><path class="cls-23" d="M637.08,544.79a2.43,2.43,0,1,1,3.32.9A2.43,2.43,0,0,1,637.08,544.79Z"/><path class="cls-23" d="M624.43,552a2.43,2.43,0,1,1,3.32.9A2.44,2.44,0,0,1,624.43,552Z"/><path class="cls-23" d="M611.78,559.29a2.43,2.43,0,1,1,3.32.9A2.44,2.44,0,0,1,611.78,559.29Z"/><path class="cls-23" d="M599.13,566.54a2.43,2.43,0,1,1,3.32.9A2.43,2.43,0,0,1,599.13,566.54Z"/><path class="cls-23" d="M586.48,573.8a2.43,2.43,0,1,1,3.32.9A2.43,2.43,0,0,1,586.48,573.8Z"/><path class="cls-23" d="M573.83,581.05a2.43,2.43,0,1,1,3.32.9A2.44,2.44,0,0,1,573.83,581.05Z"/><path class="cls-23" d="M561.18,588.3a2.43,2.43,0,0,1,4.22-2.42,2.43,2.43,0,1,1-4.22,2.42Z"/><path class="cls-23" d="M548.53,595.55a2.43,2.43,0,1,1,3.32.9A2.42,2.42,0,0,1,548.53,595.55Z"/><path class="cls-23" d="M535.88,602.81a2.43,2.43,0,1,1,3.32.9A2.43,2.43,0,0,1,535.88,602.81Z"/><path class="cls-23" d="M523.23,610.06a2.43,2.43,0,1,1,3.32.9A2.43,2.43,0,0,1,523.23,610.06Z"/><path class="cls-23" d="M510.58,617.31a2.43,2.43,0,1,1,3.32.9A2.42,2.42,0,0,1,510.58,617.31Z"/><path class="cls-23" d="M497.93,624.56a2.43,2.43,0,0,1,4.22-2.41,2.43,2.43,0,1,1-4.22,2.41Z"/><path class="cls-23" d="M485.28,631.82a2.43,2.43,0,1,1,3.32.9A2.43,2.43,0,0,1,485.28,631.82Z"/><path class="cls-23" d="M472.63,639.07a2.43,2.43,0,1,1,3.32.9A2.43,2.43,0,0,1,472.63,639.07Z"/><path class="cls-23" d="M460,646.32a2.43,2.43,0,1,1,3.32.9A2.41,2.41,0,0,1,460,646.32Z"/><path class="cls-23" d="M447.33,653.58a2.43,2.43,0,1,1,3.32.9A2.43,2.43,0,0,1,447.33,653.58Z"/><path class="cls-23" d="M434.68,660.83a2.43,2.43,0,1,1,3.32.9A2.43,2.43,0,0,1,434.68,660.83Z"/><path class="cls-23" d="M420.55,661.89a2.63,2.63,0,0,1,2.8-1.76,2.59,2.59,0,0,1,1.95,2.69,2.43,2.43,0,1,1-4.75-.93Z"/><path class="cls-23" d="M407.82,654.8a2.43,2.43,0,1,1,.89,3.32A2.43,2.43,0,0,1,407.82,654.8Z"/><path class="cls-23" d="M395.2,647.5a2.43,2.43,0,1,1,.89,3.32A2.43,2.43,0,0,1,395.2,647.5Z"/><path class="cls-23" d="M382.58,640.2a2.43,2.43,0,1,1,.88,3.32A2.43,2.43,0,0,1,382.58,640.2Z"/><path class="cls-23" d="M370,632.9a2.43,2.43,0,1,1,.89,3.32A2.43,2.43,0,0,1,370,632.9Z"/><path class="cls-23" d="M357.33,625.6a2.43,2.43,0,1,1,.89,3.32A2.43,2.43,0,0,1,357.33,625.6Z"/><path class="cls-23" d="M344.71,618.3a2.43,2.43,0,1,1,.88,3.32A2.43,2.43,0,0,1,344.71,618.3Z"/><path class="cls-23" d="M332.08,611a2.43,2.43,0,1,1,.89,3.32A2.44,2.44,0,0,1,332.08,611Z"/><path class="cls-4" d="M266.26,687.81,48.2,561.91c-5.2-3-4.54-8.24,1.46-11.71L493,294.21c6-3.46,15.08-3.84,20.28-.84l218.06,125.9c5.19,3,4.54,8.24-1.46,11.71L286.54,687C280.54,690.43,271.46,690.81,266.26,687.81Z"/><path class="cls-24" d="M734.89,373.21l-11.12,6.67L513.32,258.38c-5.2-3-14.28-2.63-20.28.84l-436.4,252L44.7,505.83v16.26h0c.1,1.81,1.25,3.53,3.5,4.83l218.06,125.9c5.2,3,14.28,2.62,20.28-.84L729.92,396c3.38-2,5.06-4.46,5-6.82h0Z"/><path class="cls-6" d="M56.64,511.17,44.7,505.83v16.26h0c.1,1.81,1.25,3.53,3.5,4.83l.46.27a5,5,0,0,1-1-2.73h0V508.19l11.94,5.34,16.86-9.73c-.77-.91-1.56-1.8-2.38-2.67Z"/><path class="cls-2" d="M723.77,379.88l-103.3-59.64c-1.05.67-2.09,1.35-3.13,2L721,382.1l11.11-6.68v15.95h0a6.28,6.28,0,0,1-1.92,4.47c3.22-1.93,4.83-4.38,4.73-6.68h0v-16Z"/><path class="cls-25" d="M266.26,636.72,48.2,510.82c-5.2-3-4.54-8.24,1.46-11.71L493,243.13c6-3.47,15.08-3.84,20.28-.84L731.38,368.18c5.19,3,4.54,8.25-1.46,11.71l-443.38,256C280.54,639.34,271.46,639.72,266.26,636.72Z"/><path class="cls-6" d="M269.28,636.72,51.22,510.82c-5.2-3-4.55-8.24,1.45-11.71l443.38-256a23.15,23.15,0,0,1,10.06-2.81A23.91,23.91,0,0,0,493,243.13l-443.38,256c-6,3.47-6.66,8.71-1.46,11.71l218.06,125.9a18.94,18.94,0,0,0,10.22,2A16.92,16.92,0,0,1,269.28,636.72Z"/><path class="cls-2" d="M731.38,368.18,513.32,242.29a18.9,18.9,0,0,0-10.21-2,16.83,16.83,0,0,1,7.29,2L728.46,368.18c5.2,3,4.55,8.25-1.45,11.71l-443.39,256a23.16,23.16,0,0,1-10.07,2.81,23.86,23.86,0,0,0,13-2.81l443.38-256C735.92,376.43,736.57,371.19,731.38,368.18Z"/><polygon class="cls-26" points="291.13 628.98 61.61 496.46 485.77 251.57 715.29 384.09 291.13 628.98"/><polygon class="cls-27" points="314.57 583.52 140.34 482.93 462.32 297.03 636.55 397.63 314.57 583.52"/><path class="cls-28" d="M621.86,319.81l-24.75-14.29c-.93-.54-.82-1.48.26-2.11h0a4.07,4.07,0,0,1,3.65-.15l24.74,14.29c.94.54.82,1.48-.26,2.1h0A4,4,0,0,1,621.86,319.81Z"/><path class="cls-29" d="M254.27,338.81s10.64-117.59,33.45-104.38,11.79,81.39,35.45,95.05c23.29,13.45,10.6-194.71,45.76-174.41,25.23,14.57,17.16,172.67,39.68,185.67,25.28,14.59,18-45,40.45-42.26,12.86,1.54,19.61,40.21,37.86,48.95s9.54-158.81,38.39-142.15C554.51,222.14,563,517.17,563,517.17Z"/><path class="cls-23" d="M288.74,233.33a4.85,4.85,0,1,1-4.85-4.85A4.85,4.85,0,0,1,288.74,233.33Z"/><path class="cls-23" d="M369.14,153.68a4.85,4.85,0,1,1-4.84-4.85A4.84,4.84,0,0,1,369.14,153.68Z"/><path class="cls-23" d="M453.26,298.1a4.85,4.85,0,1,1-4.85-4.85A4.85,4.85,0,0,1,453.26,298.1Z"/><path class="cls-23" d="M526.36,203.62a4.85,4.85,0,1,1-4.85-4.85A4.85,4.85,0,0,1,526.36,203.62Z"/><path class="cls-30" d="M183.47,373.75s7.95-116.82,25-106.94,8.8,78.25,26.46,88.45c17.37,10,7.91-169.54,34.14-154.39,18.84,10.87,12.81,71,29.62,80.67,18.86,10.89,15.6-19,30.19-10.56s14.63,46.45,28.25,52.55,7.12-130,28.65-117.54c21.8,12.59,28.09,300.91,28.09,300.91Z"/><path class="cls-23" d="M211.89,266.29a4.85,4.85,0,1,1-4.84-4.85A4.85,4.85,0,0,1,211.89,266.29Z"/><path class="cls-23" d="M271,200a4.85,4.85,0,1,1-4.85-4.85A4.85,4.85,0,0,1,271,200Z"/><path class="cls-23" d="M329.07,269.76a4.85,4.85,0,1,1-4.85-4.85A4.85,4.85,0,0,1,329.07,269.76Z"/><path class="cls-23" d="M387.71,205.57a4.85,4.85,0,1,1-4.85-4.85A4.85,4.85,0,0,1,387.71,205.57Z"/><polygon class="cls-9" points="277.11 515.9 242.24 495.77 254.44 488.73 289.31 508.86 277.11 515.9"/><polygon class="cls-30" points="298.84 503.53 263.97 483.4 276.17 476.35 311.04 496.49 298.84 503.53"/><path class="cls-31" d="M207.05,388.38a1,1,0,0,1-1-1V266.29a1,1,0,1,1,2,0V387.37A1,1,0,0,1,207.05,388.38Z"/><path class="cls-31" d="M266.19,422.57a1,1,0,0,1-1-1V200a1,1,0,1,1,2,0v221.6A1,1,0,0,1,266.19,422.57Z"/><path class="cls-31" d="M324.22,456.1a1,1,0,0,1-1-1V269.76a1,1,0,0,1,2,0V455.1A1,1,0,0,1,324.22,456.1Z"/><path class="cls-31" d="M382.86,489.75a1,1,0,0,1-1-1V206a1,1,0,0,1,2,0V488.74A1,1,0,0,1,382.86,489.75Z"/><path class="cls-23" d="M135.61,317.9a1,1,0,0,1-.59-1.83l71.35-50.54,59.07-66.24a1,1,0,0,1,1.53,0l57.29,68.91,57.86-63.33,68.7-80.44a1,1,0,0,1,1.42-.12,1,1,0,0,1,.11,1.43l-68.72,80.46L325,270.44a1,1,0,0,1-.76.33,1,1,0,0,1-.76-.37l-57.28-68.9L207.8,267a.8.8,0,0,1-.17.15l-71.44,50.6A1,1,0,0,1,135.61,317.9Z"/><path class="cls-4" d="M678,533.55l-24.74-14.26c-3-1.74-2.63-4.77.84-6.77L678,498.74c3.46-2,8.71-2.22,11.71-.49l24.74,14.27c3,1.73,2.63,4.76-.84,6.76l-23.84,13.79C686.28,535.07,681,535.29,678,533.55Z"/><path class="cls-32" d="M683,538.81a12.89,12.89,0,0,1-6.34-1.45L647.3,520.44a4.71,4.71,0,0,1-2.7-4c0-1.85,1.34-3.7,3.7-5L676.57,495c4.27-2.46,10.78-2.72,14.5-.57l29.34,16.92a4.73,4.73,0,0,1,2.7,4c0,1.86-1.35,3.7-3.7,5.06l-28.27,16.35A16.71,16.71,0,0,1,683,538.81Zm1.75-44.64a15.53,15.53,0,0,0-7.56,1.89L648.9,512.41c-2,1.14-3.11,2.61-3.11,4a3.59,3.59,0,0,0,2.11,3l29.34,16.92c3.39,2,9.36,1.7,13.3-.57l28.27-16.36c2-1.14,3.11-2.6,3.11-4a3.58,3.58,0,0,0-2.11-3l-29.34-16.93A11.73,11.73,0,0,0,684.73,494.17Z"/><path class="cls-33" d="M716.45,488.07h-21l-5.82-3.34c-3-1.73-8.25-1.51-11.71.49l-5.76,3.34H651.27v14.07h0a3.39,3.39,0,0,0,2,3.14L678,520c3,1.74,8.25,1.52,11.71-.48l23.84-13.79c1.8-1,2.76-2.35,2.85-3.62h0Z"/><path class="cls-34" d="M713.58,504.79l-23.84,13.79c-3.46,2-8.71,2.22-11.71.49L653.29,504.8a3.39,3.39,0,0,1-2-3.14h0v1h0a3.39,3.39,0,0,0,2,3.14L678,520c3,1.74,8.25,1.52,11.71-.48l23.84-13.79c1.8-1,2.76-2.35,2.85-3.62h0v-1h0C716.34,502.44,715.38,503.75,713.58,504.79Z"/><path class="cls-6" d="M652.6,503.6h0V489.53h20.94l5.76-3.34c3.47-2,8.71-2.22,11.72-.49l5.81,3.34h19.63v-1h-21l-5.82-3.34c-3-1.73-8.25-1.51-11.71.49l-5.76,3.34H651.27v14.07h0a3.39,3.39,0,0,0,2,3.14l.24.14A3,3,0,0,1,652.6,503.6Z"/><path class="cls-35" d="M678,506,653.29,491.7c-3-1.73-2.63-4.76.84-6.76L678,471.15c3.46-2,8.71-2.22,11.71-.48l24.74,14.26c3,1.74,2.63,4.77-.84,6.77l-23.84,13.78C686.28,507.49,681,507.7,678,506Z"/><path class="cls-2" d="M714.42,484.93l-24.74-14.26a10.83,10.83,0,0,0-5.91-1.14,9.72,9.72,0,0,1,4.26,1.14l24.74,14.26c3,1.74,2.62,4.77-.84,6.77l-23.84,13.78a13.21,13.21,0,0,1-5.8,1.63,13.68,13.68,0,0,0,7.45-1.63l23.84-13.78C717.05,489.7,717.42,486.67,714.42,484.93Z"/><path class="cls-6" d="M679.92,506,655.18,491.7c-3-1.73-2.62-4.76.84-6.76l23.84-13.79a13.36,13.36,0,0,1,5.71-1.62,13.84,13.84,0,0,0-7.6,1.62l-23.84,13.79c-3.47,2-3.85,5-.84,6.76L678,506a11,11,0,0,0,6,1.14A9.73,9.73,0,0,1,679.92,506Z"/><path class="cls-2" d="M696,495.3c-6.68,3.86-17.51,3.86-24.19,0s-6.68-10.11,0-14,17.51-3.86,24.19,0S702.63,491.45,696,495.3Z"/><path class="cls-8" d="M671.76,485c6.68-3.86,17.51-3.86,24.19,0a9.76,9.76,0,0,1,4.71,5.14c1-3.1-.56-6.43-4.71-8.82-6.68-3.86-17.51-3.86-24.19,0-4.15,2.39-5.72,5.72-4.71,8.82A9.72,9.72,0,0,1,671.76,485Z"/><path class="cls-4" d="M582.18,590.32l-24.74-14.26c-3-1.74-2.63-4.77.84-6.77l23.84-13.78c3.46-2,8.71-2.22,11.71-.49l24.74,14.27c3,1.73,2.63,4.76-.84,6.76l-23.84,13.79C590.43,591.84,585.18,592.06,582.18,590.32Z"/><path class="cls-36" d="M587.13,595.58a12.91,12.91,0,0,1-6.34-1.45l-29.34-16.92a4.73,4.73,0,0,1-2.7-4c0-1.85,1.35-3.7,3.7-5.05l28.27-16.36c4.27-2.46,10.78-2.72,14.5-.57l29.34,16.92a4.73,4.73,0,0,1,2.7,4c0,1.86-1.35,3.7-3.7,5.06l-28.27,16.35A16.71,16.71,0,0,1,587.13,595.58Zm1.75-44.64a15.53,15.53,0,0,0-7.56,1.89l-28.27,16.35c-2,1.14-3.11,2.61-3.11,4a3.59,3.59,0,0,0,2.11,3l29.34,16.92c3.39,2,9.36,1.7,13.3-.57L623,576.16c2-1.14,3.11-2.6,3.11-4a3.58,3.58,0,0,0-2.11-3l-29.34-16.93A11.73,11.73,0,0,0,588.88,550.94Z"/><path class="cls-37" d="M620.6,544.84h-21l-5.82-3.34c-3-1.73-8.25-1.51-11.71.49l-5.76,3.34H555.42V559.4h0a3.39,3.39,0,0,0,2,3.14l24.74,14.26c3,1.74,8.25,1.52,11.71-.48l23.84-13.79c1.8-1,2.76-2.35,2.85-3.62h0Z"/><path class="cls-38" d="M617.73,561.56l-23.84,13.79c-3.46,2-8.71,2.22-11.71.49l-24.74-14.27a3.39,3.39,0,0,1-2-3.14h0v1h0a3.39,3.39,0,0,0,2,3.14l24.74,14.26c3,1.74,8.25,1.52,11.71-.48l23.84-13.79c1.8-1,2.76-2.35,2.85-3.62h0v-1h0C620.49,559.21,619.53,560.52,617.73,561.56Z"/><path class="cls-6" d="M556.75,560.37h0V546.3h20.94l5.76-3.34c3.47-2,8.71-2.22,11.72-.49l5.81,3.34H620.6v-1h-21l-5.82-3.34c-3-1.73-8.25-1.51-11.71.49l-5.76,3.34H555.42V559.4h0a3.39,3.39,0,0,0,2,3.14l.24.14A3,3,0,0,1,556.75,560.37Z"/><path class="cls-39" d="M582.18,562.74l-24.74-14.27c-3-1.73-2.63-4.76.84-6.76l23.84-13.79c3.46-2,8.71-2.22,11.71-.48l24.74,14.26c3,1.74,2.63,4.77-.84,6.77l-23.84,13.78C590.43,564.26,585.18,564.47,582.18,562.74Z"/><path class="cls-2" d="M618.57,541.7l-24.74-14.26a10.83,10.83,0,0,0-5.91-1.14,9.72,9.72,0,0,1,4.26,1.14l24.74,14.26c3,1.74,2.63,4.77-.84,6.77l-23.84,13.78a13.21,13.21,0,0,1-5.8,1.63,13.68,13.68,0,0,0,7.45-1.63l23.84-13.78C621.2,546.47,621.57,543.44,618.57,541.7Z"/><path class="cls-6" d="M584.07,562.74l-24.74-14.27c-3-1.73-2.62-4.76.85-6.76L584,527.92a13.36,13.36,0,0,1,5.71-1.62,13.84,13.84,0,0,0-7.6,1.62l-23.84,13.79c-3.47,2-3.84,5-.84,6.76l24.74,14.27a11,11,0,0,0,6,1.14A9.73,9.73,0,0,1,584.07,562.74Z"/><path class="cls-2" d="M600.1,552.07c-6.68,3.86-17.51,3.86-24.19,0s-6.68-10.11,0-14,17.51-3.86,24.19,0S606.78,548.22,600.1,552.07Z"/><path class="cls-8" d="M575.91,541.79c6.68-3.86,17.51-3.86,24.19,0a9.72,9.72,0,0,1,4.71,5.14c1-3.1-.56-6.43-4.71-8.82-6.68-3.86-17.51-3.86-24.19,0-4.15,2.39-5.72,5.72-4.71,8.82A9.72,9.72,0,0,1,575.91,541.79Z"/><path class="cls-4" d="M486.33,647.09l-24.74-14.26c-3-1.74-2.63-4.77.84-6.77l23.84-13.78c3.46-2,8.71-2.22,11.72-.49l24.73,14.27c3,1.73,2.63,4.76-.84,6.76L498,646.61C494.58,648.61,489.33,648.83,486.33,647.09Z"/><path class="cls-40" d="M491.28,652.35a12.91,12.91,0,0,1-6.34-1.45L455.6,634a4.73,4.73,0,0,1-2.7-4c0-1.85,1.35-3.7,3.7-5.05l28.27-16.36c4.27-2.46,10.78-2.72,14.5-.57l29.34,16.92a4.73,4.73,0,0,1,2.7,4c0,1.86-1.34,3.7-3.7,5.06l-28.27,16.35A16.71,16.71,0,0,1,491.28,652.35ZM493,607.71a15.53,15.53,0,0,0-7.56,1.89L457.2,626c-2,1.14-3.11,2.61-3.11,4a3.59,3.59,0,0,0,2.11,3l29.34,16.92c3.39,2,9.36,1.7,13.3-.57l28.27-16.36c2-1.14,3.11-2.6,3.11-4a3.58,3.58,0,0,0-2.11-3L498.77,609A11.73,11.73,0,0,0,493,607.71Z"/><path class="cls-41" d="M524.75,601.61H503.8L498,598.27c-3-1.73-8.26-1.51-11.72.49l-5.76,3.34H459.57v14.07h0a3.39,3.39,0,0,0,2,3.14l24.74,14.26c3,1.74,8.25,1.52,11.71-.48l23.84-13.79c1.8-1,2.76-2.35,2.85-3.62h0Z"/><path class="cls-42" d="M521.88,618.33,498,632.12c-3.46,2-8.71,2.22-11.71.49l-24.74-14.27a3.39,3.39,0,0,1-2-3.14h0v1h0a3.39,3.39,0,0,0,2,3.14l24.74,14.26c3,1.74,8.25,1.52,11.71-.48l23.84-13.79c1.8-1,2.76-2.35,2.85-3.62h0v-1h0C524.64,616,523.68,617.29,521.88,618.33Z"/><path class="cls-6" d="M460.9,617.14h0V603.07h20.94l5.76-3.34c3.47-2,8.71-2.22,11.72-.49l5.81,3.34h19.63v-1H503.8L498,598.27c-3-1.73-8.26-1.51-11.72.49l-5.76,3.34H459.57v14.07h0a3.39,3.39,0,0,0,2,3.14l.24.14A3,3,0,0,1,460.9,617.14Z"/><path class="cls-43" d="M486.33,619.51l-24.74-14.27c-3-1.73-2.63-4.76.84-6.76l23.84-13.79c3.46-2,8.71-2.22,11.72-.48l24.73,14.26c3,1.74,2.63,4.77-.84,6.77L498,619C494.58,621,489.33,621.24,486.33,619.51Z"/><path class="cls-2" d="M522.72,598.47,498,584.21a10.88,10.88,0,0,0-5.92-1.14,9.72,9.72,0,0,1,4.26,1.14l24.74,14.26c3,1.74,2.63,4.77-.84,6.77L496.39,619a13.17,13.17,0,0,1-5.8,1.63A13.68,13.68,0,0,0,498,619l23.84-13.78C525.35,603.24,525.73,600.21,522.72,598.47Z"/><path class="cls-6" d="M488.22,619.51l-24.74-14.27c-3-1.73-2.62-4.76.85-6.76l23.83-13.79a13.4,13.4,0,0,1,5.71-1.62,13.84,13.84,0,0,0-7.6,1.62l-23.84,13.79c-3.47,2-3.84,5-.84,6.76l24.74,14.27a11,11,0,0,0,6,1.14A9.73,9.73,0,0,1,488.22,619.51Z"/><path class="cls-2" d="M504.25,608.84c-6.68,3.86-17.51,3.86-24.19,0s-6.68-10.11,0-14,17.51-3.86,24.19,0S510.93,605,504.25,608.84Z"/><path class="cls-8" d="M480.06,598.56c6.68-3.86,17.51-3.86,24.19,0A9.72,9.72,0,0,1,509,603.7c1-3.1-.56-6.43-4.71-8.82-6.68-3.86-17.51-3.86-24.19,0-4.15,2.39-5.72,5.72-4.71,8.82A9.76,9.76,0,0,1,480.06,598.56Z"/></g></svg>