<svg xmlns="http://www.w3.org/2000/svg" xmlns:xlink="http://www.w3.org/1999/xlink" viewBox="0 0 297.68 251.67"><defs><style>.cls-1{fill:none;}.cls-2{isolation:isolate;}.cls-3{opacity:0.1;}.cls-16,.cls-38,.cls-4{fill:#c3ffa6;}.cls-5{fill:#fff;}.cls-38,.cls-6{opacity:0.4;}.cls-6{fill:url(#linear-gradient);}.cls-7{fill:url(#linear-gradient-2);}.cls-8{fill:url(#linear-gradient-3);}.cls-9{fill:url(#linear-gradient-4);}.cls-10{fill:url(#linear-gradient-5);}.cls-11{fill:url(#linear-gradient-6);}.cls-12{fill:url(#linear-gradient-7);}.cls-13{fill:url(#linear-gradient-8);}.cls-14{fill:url(#linear-gradient-9);}.cls-15{fill:url(#linear-gradient-10);}.cls-16{opacity:0.2;}.cls-17{clip-path:url(#clip-path);}.cls-18{fill:url(#_ÂÁ_Ï_ÌÌ_È_ËÂÌÚ_11);}.cls-19,.cls-21,.cls-32{mix-blend-mode:lighten;}.cls-19{fill:url(#_ÂÁ_Ï_ÌÌ_È_ËÂÌÚ_6);}.cls-20{fill:url(#_ÂÁ_Ï_ÌÌ_È_ËÂÌÚ_11-2);}.cls-22{fill:url(#_ÂÁ_Ï_ÌÌ_È_ËÂÌÚ_6-2);}.cls-23{fill:url(#_ÂÁ_Ï_ÌÌ_È_ËÂÌÚ_11-3);}.cls-24{fill:url(#_ÂÁ_Ï_ÌÌ_È_ËÂÌÚ_6-3);}.cls-25{fill:#152734;}.cls-26{fill:#92a7aa;}.cls-27{fill:url(#_ÂÁ_Ï_ÌÌ_È_ËÂÌÚ_11-4);}.cls-28{fill:url(#_ÂÁ_Ï_ÌÌ_È_ËÂÌÚ_6-4);}.cls-29{fill:url(#_ÂÁ_Ï_ÌÌ_È_ËÂÌÚ_11-5);}.cls-30{fill:url(#_ÂÁ_Ï_ÌÌ_È_ËÂÌÚ_6-5);}.cls-31{fill:url(#_ÂÁ_Ï_ÌÌ_È_ËÂÌÚ_11-6);}.cls-32{fill:url(#_ÂÁ_Ï_ÌÌ_È_ËÂÌÚ_6-6);}.cls-33,.cls-35{opacity:0.3;}.cls-34{fill:url(#_ÂÁ_Ï_ÌÌ_È_ËÂÌÚ_10);}.cls-35,.cls-37{fill:#0e1522;}.cls-36{fill:url(#_ÂÁ_Ï_ÌÌ_È_ËÂÌÚ_9);}.cls-39{fill:url(#_ÂÁ_Ï_ÌÌ_È_ËÂÌÚ_10-2);}.cls-40{fill:url(#_ÂÁ_Ï_ÌÌ_È_ËÂÌÚ_9-2);}.cls-41{fill:#937e24;}.cls-42{fill:#02070b;}.cls-43{fill:url(#_ÂÁ_Ï_ÌÌ_È_ËÂÌÚ_10-3);}.cls-44{fill:url(#_ÂÁ_Ï_ÌÌ_È_ËÂÌÚ_9-3);}.cls-45{fill:url(#_ÂÁ_Ï_ÌÌ_È_ËÂÌÚ_10-4);}.cls-46{fill:url(#_ÂÁ_Ï_ÌÌ_È_ËÂÌÚ_9-4);}</style><linearGradient id="linear-gradient" x1="112.77" y1="192.54" x2="245.24" y2="192.54" gradientUnits="userSpaceOnUse"><stop offset="0" stop-color="#c3ffa6"/><stop offset="1" stop-color="#042929"/></linearGradient><linearGradient id="linear-gradient-2" x1="93.74" y1="155.66" x2="264.27" y2="155.66" xlink:href="#linear-gradient"/><linearGradient id="linear-gradient-3" x1="93.74" y1="153.66" x2="264.27" y2="153.66" xlink:href="#linear-gradient"/><linearGradient id="linear-gradient-4" x1="98" y1="124.22" x2="217.5" y2="124.22" xlink:href="#linear-gradient"/><linearGradient id="linear-gradient-5" x1="51.53" y1="143.57" x2="60.21" y2="184.39" gradientUnits="userSpaceOnUse"><stop offset="0" stop-color="#c3ffa6"/><stop offset="0.15" stop-color="#c1fba3"/><stop offset="0.32" stop-color="#bcee99"/><stop offset="0.5" stop-color="#b2d88a"/><stop offset="0.67" stop-color="#a5ba74"/><stop offset="0.85" stop-color="#959358"/><stop offset="1" stop-color="#856e3d"/></linearGradient><linearGradient id="linear-gradient-6" x1="54.88" y1="145.53" x2="63.49" y2="186.06" gradientTransform="translate(173.17 31.64) rotate(60)" xlink:href="#linear-gradient-5"/><linearGradient id="linear-gradient-7" x1="38.75" y1="271.12" x2="73.42" y2="236.45" gradientUnits="userSpaceOnUse"><stop offset="0" stop-color="#defe7f"/><stop offset="1"/></linearGradient><linearGradient id="linear-gradient-8" x1="42.09" y1="273.08" x2="76.28" y2="238.89" gradientTransform="translate(251.28 76.73) rotate(60)" xlink:href="#linear-gradient-7"/><linearGradient id="linear-gradient-9" x1="272.93" y1="64.16" x2="301.75" y2="64.16" gradientUnits="userSpaceOnUse"><stop offset="0" stop-color="#c3ffa6"/><stop offset="0.15" stop-color="#c1faa3"/><stop offset="0.32" stop-color="#bbed99"/><stop offset="0.5" stop-color="#b2d789"/><stop offset="0.68" stop-color="#a4b772"/><stop offset="0.87" stop-color="#938f55"/><stop offset="1" stop-color="#856e3d"/></linearGradient><linearGradient id="linear-gradient-10" x1="276.79" y1="63.97" x2="305.61" y2="63.97" gradientTransform="translate(7.45 -27.55) rotate(5.49)" xlink:href="#linear-gradient-9"/><clipPath id="clip-path" transform="translate(-38.35 -39.31)"><polygon class="cls-1" points="226.77 252.66 237.76 258.99 281.53 233.72 281.53 185.13 226.77 216.74 226.77 252.66"/></clipPath><radialGradient id="_ÂÁ_Ï_ÌÌ_È_ËÂÌÚ_11" cx="-2078.18" cy="-2358.88" r="20.63" gradientTransform="matrix(-0.66, 0.64, 1.06, 1.08, 1335.28, 3990.04)" gradientUnits="userSpaceOnUse"><stop offset="0" stop-color="#937e24"/><stop offset="1" stop-color="#152734"/></radialGradient><linearGradient id="_ÂÁ_Ï_ÌÌ_È_ËÂÌÚ_6" x1="-2669.03" y1="-248.6" x2="-2678.69" y2="-235.71" gradientTransform="matrix(-0.66, 0.64, 0.8, 0.82, -1341.12, 2035.35)" gradientUnits="userSpaceOnUse"><stop offset="0" stop-color="#c3ffa6"/><stop offset="0.08" stop-color="#a8dd94"/><stop offset="0.2" stop-color="#81ad7b"/><stop offset="0.32" stop-color="#608465"/><stop offset="0.45" stop-color="#456253"/><stop offset="0.58" stop-color="#304846"/><stop offset="0.71" stop-color="#21363c"/><stop offset="0.85" stop-color="#182b36"/><stop offset="1" stop-color="#152734"/></linearGradient><radialGradient id="_ÂÁ_Ï_ÌÌ_È_ËÂÌÚ_11-2" cx="-210.66" cy="-286.45" r="61.6" gradientTransform="matrix(-0.71, -0.7, -0.7, 0.71, -149.22, 88.22)" xlink:href="#_ÂÁ_Ï_ÌÌ_È_ËÂÌÚ_11"/><linearGradient id="_ÂÁ_Ï_ÌÌ_È_ËÂÌÚ_6-2" x1="-498.02" y1="428.37" x2="-476.68" y2="428.37" gradientTransform="matrix(-0.54, -0.84, -0.84, 0.54, 301.9, -547.88)" xlink:href="#_ÂÁ_Ï_ÌÌ_È_ËÂÌÚ_6"/><radialGradient id="_ÂÁ_Ï_ÌÌ_È_ËÂÌÚ_11-3" cx="817.84" cy="213.31" r="60.86" gradientTransform="matrix(-0.78, 0, 0, 1.06, 796.86, -118.92)" xlink:href="#_ÂÁ_Ï_ÌÌ_È_ËÂÌÚ_11"/><linearGradient id="_ÂÁ_Ï_ÌÌ_È_ËÂÌÚ_6-3" x1="796.95" y1="254.03" x2="796.95" y2="193.2" gradientTransform="matrix(-0.78, 0, 0, 1.06, 796.86, -118.92)" xlink:href="#_ÂÁ_Ï_ÌÌ_È_ËÂÌÚ_6"/><radialGradient id="_ÂÁ_Ï_ÌÌ_È_ËÂÌÚ_11-4" cx="216.27" cy="66.78" r="47.5" gradientTransform="matrix(-0.99, -0.16, -0.16, 0.99, 383.24, 33.05)" xlink:href="#_ÂÁ_Ï_ÌÌ_È_ËÂÌÚ_11"/><linearGradient id="_ÂÁ_Ï_ÌÌ_È_ËÂÌÚ_6-4" x1="194.82" y1="98.78" x2="202.64" y2="43.11" gradientTransform="matrix(-0.99, -0.16, -0.16, 0.99, 383.24, 33.05)" xlink:href="#_ÂÁ_Ï_ÌÌ_È_ËÂÌÚ_6"/><radialGradient id="_ÂÁ_Ï_ÌÌ_È_ËÂÌÚ_11-5" cx="-190.05" cy="-245.65" r="22.26" gradientTransform="matrix(-0.71, -0.7, -0.7, 0.71, -160.18, 142.74)" xlink:href="#_ÂÁ_Ï_ÌÌ_È_ËÂÌÚ_11"/><linearGradient id="_ÂÁ_Ï_ÌÌ_È_ËÂÌÚ_6-5" x1="-202.15" y1="-229.76" x2="-187.65" y2="-245.42" gradientTransform="matrix(-0.71, -0.7, -0.7, 0.71, -160.18, 142.74)" xlink:href="#_ÂÁ_Ï_ÌÌ_È_ËÂÌÚ_6"/><radialGradient id="_ÂÁ_Ï_ÌÌ_È_ËÂÌÚ_11-6" cx="210.26" cy="-1855.31" r="20.63" gradientTransform="matrix(-0.91, 0.11, 0.18, 1.5, 649.48, 2899.09)" xlink:href="#_ÂÁ_Ï_ÌÌ_È_ËÂÌÚ_11"/><linearGradient id="_ÂÁ_Ï_ÌÌ_È_ËÂÌÚ_6-6" x1="89.97" y1="220.52" x2="106.08" y2="220.52" gradientTransform="matrix(-0.91, 0.11, 0.14, 1.14, 195.4, -114.44)" xlink:href="#_ÂÁ_Ï_ÌÌ_È_ËÂÌÚ_6"/><linearGradient id="_ÂÁ_Ï_ÌÌ_È_ËÂÌÚ_10" x1="260.06" y1="104.69" x2="300.87" y2="128.25" gradientTransform="matrix(-1, 0, 0, 1, 374.39, 0)" gradientUnits="userSpaceOnUse"><stop offset="0" stop-color="#92a7aa"/><stop offset="0.18" stop-color="#92a198"/><stop offset="0.54" stop-color="#929369"/><stop offset="1" stop-color="#937e24"/></linearGradient><linearGradient id="_ÂÁ_Ï_ÌÌ_È_ËÂÌÚ_9" x1="254.94" y1="113.59" x2="306.37" y2="113.59" gradientTransform="matrix(-1, 0, 0, 1, 374.39, 0)" gradientUnits="userSpaceOnUse"><stop offset="0" stop-color="#fff"/><stop offset="0.13" stop-color="#e7e2ce"/><stop offset="0.29" stop-color="#cec49b"/><stop offset="0.45" stop-color="#b9ab70"/><stop offset="0.61" stop-color="#a8974f"/><stop offset="0.75" stop-color="#9d8937"/><stop offset="0.89" stop-color="#958129"/><stop offset="1" stop-color="#937e24"/></linearGradient><linearGradient id="_ÂÁ_Ï_ÌÌ_È_ËÂÌÚ_10-2" x1="260.06" y1="72.47" x2="300.87" y2="96.03" xlink:href="#_ÂÁ_Ï_ÌÌ_È_ËÂÌÚ_10"/><linearGradient id="_ÂÁ_Ï_ÌÌ_È_ËÂÌÚ_9-2" x1="254.94" y1="81.37" x2="306.37" y2="81.37" xlink:href="#_ÂÁ_Ï_ÌÌ_È_ËÂÌÚ_9"/><linearGradient id="_ÂÁ_Ï_ÌÌ_È_ËÂÌÚ_10-3" x1="43.47" y1="179.46" x2="84.28" y2="203.02" xlink:href="#_ÂÁ_Ï_ÌÌ_È_ËÂÌÚ_10"/><linearGradient id="_ÂÁ_Ï_ÌÌ_È_ËÂÌÚ_9-3" x1="38.35" y1="188.37" x2="89.79" y2="188.37" xlink:href="#_ÂÁ_Ï_ÌÌ_È_ËÂÌÚ_9"/><linearGradient id="_ÂÁ_Ï_ÌÌ_È_ËÂÌÚ_10-4" x1="43.47" y1="149.42" x2="84.28" y2="172.98" xlink:href="#_ÂÁ_Ï_ÌÌ_È_ËÂÌÚ_10"/><linearGradient id="_ÂÁ_Ï_ÌÌ_È_ËÂÌÚ_9-4" x1="38.35" y1="158.33" x2="89.79" y2="158.33" xlink:href="#_ÂÁ_Ï_ÌÌ_È_ËÂÌÚ_9"/></defs><title>features2-2</title><g class="cls-2"><g id="_ÎÓÈ_1" data-name="—ÎÓÈ_1"><g class="cls-3"><path class="cls-4" d="M93.74,220l1.28-.17a3.73,3.73,0,0,1,.44-.29l98.79-57c2.55-1.48,7-1.29,10,.41l57.63,33.27a6.18,6.18,0,0,1,1.76,1.48l.67-.2v2h0a3,3,0,0,1-1.72,2.48l-98.79,57c-2.55,1.47-7,1.29-9.95-.42L96.17,225.29c-1.64-.95-2.47-2.17-2.43-3.32h0Z" transform="translate(-38.35 -39.31)"/><path class="cls-4" d="M163.76,257l98.79-57c2.55-1.47,2.23-4.05-.71-5.75l-57.63-33.27c-3-1.7-7.41-1.89-10-.41l-98.79,57c-2.55,1.48-2.23,4.05.71,5.75l57.64,33.27C156.75,258.27,161.21,258.45,163.76,257Z" transform="translate(-38.35 -39.31)"/><path class="cls-5" d="M228.9,205l12.2-7c1.14-.66,1-1.8-.32-2.56h0a4.91,4.91,0,0,0-4.42-.18l-12.2,7c-1.14.66-1,1.8.32,2.56h0A4.91,4.91,0,0,0,228.9,205Z" transform="translate(-38.35 -39.31)"/><path class="cls-5" d="M206.4,218l12.19-7c1.14-.65,1-1.8-.31-2.55h0a4.93,4.93,0,0,0-4.43-.19l-12.2,7.05c-1.13.65-1,1.79.32,2.55h0A4.9,4.9,0,0,0,206.4,218Z" transform="translate(-38.35 -39.31)"/><path class="cls-5" d="M183.89,231l12.2-7c1.13-.66,1-1.8-.32-2.56h0a4.9,4.9,0,0,0-4.43-.18l-12.2,7c-1.13.65-1,1.8.32,2.56h0A5,5,0,0,0,183.89,231Z" transform="translate(-38.35 -39.31)"/><path class="cls-5" d="M161.38,244l12.2-7c1.13-.65,1-1.8-.32-2.55h0a4.93,4.93,0,0,0-4.43-.19l-12.19,7c-1.14.66-1,1.8.32,2.56h0A4.88,4.88,0,0,0,161.38,244Z" transform="translate(-38.35 -39.31)"/></g><path class="cls-6" d="M167.17,230l76.73-44.3c2-1.14,1.74-3.14-.55-4.47l-44.77-25.84c-2.29-1.32-5.75-1.47-7.73-.32l-76.74,44.3c-2,1.15-1.74,3.15.55,4.47l44.77,25.84C161.72,231,165.18,231.15,167.17,230Z" transform="translate(-38.35 -39.31)"/><path class="cls-7" d="M93.74,164.91l1.28-.16a3.73,3.73,0,0,1,.44-.29l98.79-57c2.55-1.47,7-1.29,10,.42l57.63,33.27a6.16,6.16,0,0,1,1.76,1.47l.67-.19v2h0a3,3,0,0,1-1.72,2.48l-98.79,57c-2.55,1.48-7,1.29-9.95-.41L96.17,170.21c-1.64-1-2.47-2.18-2.43-3.33h0Z" transform="translate(-38.35 -39.31)"/><path class="cls-8" d="M163.76,201.89l98.79-57c2.55-1.47,2.23-4.05-.71-5.75l-57.63-33.27c-3-1.71-7.41-1.89-10-.42l-98.79,57c-2.55,1.47-2.23,4,.71,5.75l57.64,33.27C156.75,203.18,161.21,203.37,163.76,201.89Z" transform="translate(-38.35 -39.31)"/><polygon class="cls-9" points="109.47 158.72 217.5 96.34 206.03 89.72 98 152.09 109.47 158.72"/><path class="cls-10" d="M38.35,173.93c0-11.15,7.83-24.71,17.49-30.28,4.84-2.8,9.22-3.06,12.38-1.22h0l3.31,1.94-1,.09c1.74,2.13,2.76,5.27,2.76,9.28,0,11.15-7.83,24.71-17.49,30.29-3.32,1.91-6.42,2.64-9.06,2.31l.07.89-3.36-2,0,0-.13-.08h0C40.25,183.29,38.35,179.42,38.35,173.93Z" transform="translate(-38.35 -39.31)"/><ellipse class="cls-11" cx="59.18" cy="165.79" rx="24.73" ry="14.28" transform="matrix(0.5, -0.87, 0.87, 0.5, -152.34, 94.83)"/><g class="cls-3"><path class="cls-12" d="M38.35,264.13c0-11.16,7.83-24.71,17.49-30.29,4.84-2.79,9.22-3.05,12.38-1.21h0l3.31,1.94-1,.09c1.74,2.13,2.76,5.28,2.76,9.28,0,11.16-7.83,24.72-17.49,30.29-3.32,1.92-6.42,2.64-9.06,2.31l.07.89-3.36-2,0,0-.13-.08h0C40.25,273.49,38.35,269.61,38.35,264.13Z" transform="translate(-38.35 -39.31)"/><ellipse class="cls-13" cx="59.18" cy="255.99" rx="24.73" ry="14.28" transform="translate(-230.45 139.93) rotate(-60)"/></g><path class="cls-14" d="M279,82.69c-6.47-9.08-8-24.67-3.34-34.81,2.32-5.09,5.73-7.84,9.38-8.18h0l3.81-.35-.73.63c2.66.73,5.31,2.7,7.64,6,6.47,9.08,8,24.67,3.34,34.82-1.59,3.48-3.69,5.87-6,7.14l.58.68-3.87.35h-.05l-.16,0h0C285.94,89.21,282.15,87.15,279,82.69Z" transform="translate(-38.35 -39.31)"/><ellipse class="cls-15" cx="291.2" cy="63.97" rx="14.28" ry="24.73" transform="matrix(1, -0.1, 0.1, 1, -43.14, -11.17)"/><g class="cls-3"><path class="cls-4" d="M271.09,131.11c-2.75-10.81,1.5-25.88,9.48-33.66,4-3.9,8.18-5.23,11.7-4.23h0L296,94.28l-.91.33c2.22,1.63,4,4.43,5,8.32,2.74,10.8-1.5,25.87-9.49,33.66-2.74,2.67-5.57,4.14-8.21,4.47l.29.84-3.74-1.07-.05,0-.15,0h0C275.23,139.72,272.44,136.43,271.09,131.11Z" transform="translate(-38.35 -39.31)"/><ellipse class="cls-4" cx="289.27" cy="118.09" rx="24.73" ry="14.28" transform="translate(58.8 325.18) rotate(-74.26)"/></g><g class="cls-3"><path class="cls-4" d="M234.45,257.08c0-11.15,7.83-24.71,17.49-30.29,4.83-2.79,9.21-3,12.38-1.21h0l3.3,1.93-1,.09c1.75,2.14,2.76,5.28,2.76,9.29,0,11.15-7.83,24.71-17.48,30.28a14.84,14.84,0,0,1-9.07,2.32l.07.88-3.35-2,0,0-.14-.08h0C236.35,266.44,234.45,262.56,234.45,257.08Z" transform="translate(-38.35 -39.31)"/><ellipse class="cls-4" cx="255.28" cy="248.94" rx="24.73" ry="14.28" transform="translate(-126.3 306.22) rotate(-60)"/></g><path class="cls-16" d="M254.15,282.59c15.3,0,30.61-3.37,42.27-10.09C307.74,266,314,257.25,314,248s-6.24-18-17.56-24.5c-23.31-13.46-61.23-13.46-84.54,0-11.32,6.53-17.56,15.24-17.56,24.5s6.23,18,17.56,24.51l.08-.15-.08.15C223.53,279.22,238.84,282.59,254.15,282.59Zm0-68.85c15.25,0,30.49,3.34,42.1,10,11.21,6.47,17.38,15.07,17.38,24.2s-6.17,17.73-17.39,24.21c-23.21,13.4-61,13.4-84.19,0-11.21-6.48-17.38-15.07-17.38-24.21s6.17-17.73,17.38-24.2C223.66,217.09,238.91,213.74,254.15,213.74Z" transform="translate(-38.35 -39.31)"/><path class="cls-4" d="M254.15,269.51c9.5,0,19-2.08,26.25-6.26,7-4.07,10.92-9.49,10.92-15.26s-3.88-11.19-10.92-15.26c-14.47-8.35-38-8.35-52.5,0C220.85,236.8,217,242.22,217,248s3.88,11.19,10.93,15.26h0C235.13,267.43,244.64,269.51,254.15,269.51Zm0-42.7c9.44,0,18.89,2.07,26.08,6.22,6.93,4,10.75,9.32,10.75,15s-3.82,10.95-10.75,15c-14.38,8.3-37.78,8.3-52.16,0h0c-6.93-4-10.75-9.32-10.75-15s3.82-11,10.75-15C235.26,228.88,244.71,226.81,254.15,226.81Z" transform="translate(-38.35 -39.31)"/><g class="cls-17"><path class="cls-4" d="M234.45,257.08c0-11.15,7.83-24.71,17.49-30.29,4.83-2.79,9.21-3,12.38-1.21h0l3.3,1.93-1,.09c1.75,2.14,2.76,5.28,2.76,9.29,0,11.15-7.83,24.71-17.48,30.28a14.84,14.84,0,0,1-9.07,2.32l.07.88-3.35-2,0,0-.14-.08h0C236.35,266.44,234.45,262.56,234.45,257.08Z" transform="translate(-38.35 -39.31)"/><ellipse class="cls-4" cx="255.28" cy="248.94" rx="24.73" ry="14.28" transform="translate(-126.3 306.22) rotate(-60)"/></g><polygon class="cls-4" points="144.11 251.67 144.19 251.62 188.51 223.19 188.32 222.9 144.1 251.27 69.95 208.68 85.72 199.9 85.72 144.9 85.37 144.9 85.37 199.7 69.25 208.68 69.52 208.83 144.11 251.67"/><path class="cls-18" d="M211.65,124.06c3.57,3.65,13,8.53,15.89,5.67s-1.76-12.36-5.33-16-8.84-4.29-11.75-1.44S208.07,120.41,211.65,124.06Z" transform="translate(-38.35 -39.31)"/><path class="cls-19" d="M211.65,124.06c3.57,3.65,13,8.53,15.89,5.67s-1.76-12.36-5.33-16-8.84-4.29-11.75-1.44S208.07,120.41,211.65,124.06Z" transform="translate(-38.35 -39.31)"/><path class="cls-4" d="M211.23,114.16a1.71,1.71,0,0,0,1.58-2.38L207.5,99.1a1.71,1.71,0,1,0-3.16,1.32l5.3,12.68A1.73,1.73,0,0,0,211.23,114.16Z" transform="translate(-38.35 -39.31)"/><rect class="cls-4" x="125.24" y="122.03" width="29.32" height="3.43" transform="translate(-65.65 167.69) rotate(-67.96)"/><circle class="cls-20" cx="202.42" cy="93.27" r="10.67" transform="translate(-26.95 168.78) rotate(-55.75)"/><g class="cls-21"><path class="cls-22" d="M196.68,84.26a10.68,10.68,0,1,0,14.74,3.27A10.68,10.68,0,0,0,196.68,84.26Z" transform="translate(-38.35 -39.31)"/></g><path class="cls-23" d="M149.2,112.64c0,20.72,12.34,37.51,27.55,37.51s27.56-16.79,27.56-37.51S192,85.72,176.75,85.72,149.2,91.93,149.2,112.64Z" transform="translate(-38.35 -39.31)"/><g class="cls-21"><path class="cls-24" d="M149.2,112.64c0,20.72,12.34,37.51,27.55,37.51s27.56-16.79,27.56-37.51S192,85.72,176.75,85.72,149.2,91.93,149.2,112.64Z" transform="translate(-38.35 -39.31)"/></g><ellipse class="cls-25" cx="138.4" cy="57.55" rx="18.8" ry="10.86"/><path class="cls-4" d="M190.05,92.07c-7.34-4.24-19.25-4.24-26.59,0-3,1.75-4.81,4-5.34,6.23-.75-3.23,1-6.63,5.34-9.12,7.34-4.24,19.25-4.24,26.59,0,4.31,2.49,6.09,5.89,5.34,9.12C194.86,96,193.08,93.82,190.05,92.07Z" transform="translate(-38.35 -39.31)"/><ellipse class="cls-26" cx="192.89" cy="61.32" rx="6.48" ry="11.22" transform="translate(-43.17 65.35) rotate(-30)"/><circle class="cls-27" cx="175.66" cy="70.95" r="28.1" transform="translate(-47.51 -9.99) rotate(-9.3)"/><g class="cls-21"><circle class="cls-28" cx="175.66" cy="70.95" r="28.1" transform="translate(-47.51 -9.99) rotate(-9.3)"/></g><ellipse class="cls-25" cx="192.44" cy="78.13" rx="12.36" ry="7.13" transform="translate(8.01 186.46) rotate(-67.4)"/><path class="cls-4" d="M188.08,79.47c.26,2,1.78,2.64,3.39,1.41A7,7,0,0,0,193.91,75c-.26-2-1.78-2.64-3.39-1.41A7,7,0,0,0,188.08,79.47Z" transform="translate(-38.35 -39.31)"/><path class="cls-25" d="M191.62,87.33c4.42-3.39,7.43-10.61,6.71-16.14A6.84,6.84,0,0,0,196,66.41c2.31.22,4.07,2.18,4.51,5.59.72,5.52-2.29,12.75-6.72,16.13-2.62,2-5.15,2.22-6.93.9A7,7,0,0,0,191.62,87.33Z" transform="translate(-38.35 -39.31)"/><path class="cls-4" d="M193.36,88c4.43-3.38,7.44-10.61,6.72-16.13-.34-2.56-1.41-4.3-2.9-5.11,1.69.7,2.92,2.52,3.28,5.29.72,5.52-2.29,12.75-6.72,16.13-2.37,1.82-4.68,2.16-6.41,1.23C189,90.05,191.15,89.64,193.36,88Z" transform="translate(-38.35 -39.31)"/><circle class="cls-29" cx="145.4" cy="110.16" r="10.67" transform="translate(-65.84 129.04) rotate(-55.75)"/><g class="cls-21"><circle class="cls-30" cx="145.4" cy="110.16" r="10.67" transform="translate(-65.84 129.04) rotate(-55.75)"/></g><path class="cls-31" d="M128.38,145.52c.61,5.07,5.09,14.68,9.14,14.19s6.14-10.87,5.54-15.94-4.38-8.79-8.43-8.31S127.78,140.45,128.38,145.52Z" transform="translate(-38.35 -39.31)"/><path class="cls-32" d="M128.38,145.52c.61,5.07,5.09,14.68,9.14,14.19s6.14-10.87,5.54-15.94-4.38-8.79-8.43-8.31S127.78,140.45,128.38,145.52Z" transform="translate(-38.35 -39.31)"/><g class="cls-33"><path class="cls-34" d="M68,118.07v-4.48l1.24-.69c.35,2.12,2.84,3.51,4.92,3.8L88.35,125l6.19,2.23L114.28,117l-.45-.26c1.68-.79,2.59-2.59,3.5-4.24l1.33.8.79.22v4.6h0a3,3,0,0,1-1.73,2.42L97.94,132a9.28,9.28,0,0,1-8.4,0L69.76,120.57A3,3,0,0,1,68,118.19v-.12Z" transform="translate(-38.35 -39.31)"/><path class="cls-35" d="M74.18,116.7,88.35,125l5.39,1.94V133a8.53,8.53,0,0,1-4.2-1L69.76,120.57A3,3,0,0,1,68,118.19v-.12h0v-4.48l1.13-.63h.12C69.66,115,72.12,116.41,74.18,116.7Z" transform="translate(-38.35 -39.31)"/><path class="cls-36" d="M97.94,127.44,117.72,116c2.31-1.34,2.31-3.52,0-4.85L97.94,99.75a9.28,9.28,0,0,0-8.4,0L69.76,111.17c-2.32,1.33-2.32,3.51,0,4.85l19.78,11.42A9.34,9.34,0,0,0,97.94,127.44Z" transform="translate(-38.35 -39.31)"/><g class="cls-33"><path class="cls-37" d="M97.94,127.44,117.72,116c2.31-1.34,2.31-3.52,0-4.85L97.94,99.75a9.28,9.28,0,0,0-8.4,0L69.76,111.17c-2.32,1.33-2.32,3.51,0,4.85l19.78,11.42A9.34,9.34,0,0,0,97.94,127.44Z" transform="translate(-38.35 -39.31)"/></g></g><path class="cls-4" d="M93.74,110.82a7.5,7.5,0,0,0,3.72-.89l19.78-11.42a2.38,2.38,0,0,0,0-4.5L97.46,82.59a8.22,8.22,0,0,0-7.45,0L70.23,94a2.38,2.38,0,0,0,0,4.5L90,109.93A7.57,7.57,0,0,0,93.74,110.82Zm3.55-1.19a7.85,7.85,0,0,1-7.11,0L70.4,98.21a2,2,0,0,1,0-3.9L90.18,82.89a7.82,7.82,0,0,1,7.11,0l19.78,11.42a2,2,0,0,1,0,3.9Z" transform="translate(-38.35 -39.31)"/><path class="cls-38" d="M68,91.88V85.1l1.24-.69c.35,2.12,2.84,3.51,4.92,3.8L88.35,96.5l6.19,2.23,19.74-10.18-.45-.27c1.68-.79,2.59-2.59,3.5-4.23l1.33.79.79.22V92h0a3,3,0,0,1-1.73,2.42L97.94,105.79a9.28,9.28,0,0,1-8.4,0L69.76,94.37A3,3,0,0,1,68,92v-.11Z" transform="translate(-38.35 -39.31)"/><path class="cls-39" d="M68,85.86V81.37l1.24-.69c.35,2.12,2.84,3.51,4.92,3.8l14.17,8.29L94.54,95l19.74-10.19-.45-.27c1.68-.79,2.59-2.59,3.5-4.23l1.33.79.79.22v4.6h0a3,3,0,0,1-1.73,2.42L97.94,99.77a9.28,9.28,0,0,1-8.4,0L69.76,88.35A3,3,0,0,1,68,86v-.12Z" transform="translate(-38.35 -39.31)"/><path class="cls-35" d="M74.18,84.48l14.17,8.29,5.39,2v6.06a8.53,8.53,0,0,1-4.2-1L69.76,88.35A3,3,0,0,1,68,86v-.12h0V81.37l1.13-.63h.12C69.66,82.83,72.12,84.2,74.18,84.48Z" transform="translate(-38.35 -39.31)"/><path class="cls-40" d="M97.94,95.22,117.72,83.8c2.31-1.34,2.31-3.51,0-4.85L97.94,67.53a9.28,9.28,0,0,0-8.4,0L69.76,79c-2.32,1.34-2.32,3.51,0,4.85L89.54,95.22A9.28,9.28,0,0,0,97.94,95.22Z" transform="translate(-38.35 -39.31)"/><path class="cls-41" d="M93.74,93.15a6.79,6.79,0,0,0,3.36-.81l15.46-8.92a2.17,2.17,0,0,0,0-4.09L97.1,70.41a7.39,7.39,0,0,0-6.73,0L74.91,79.33a2.17,2.17,0,0,0,0,4.09l15.46,8.92A6.86,6.86,0,0,0,93.74,93.15Zm0-23.21a6.52,6.52,0,0,1,3.19.77l15.45,8.92a1.83,1.83,0,0,1,0,3.49L96.93,92a7.05,7.05,0,0,1-6.39,0L75.09,83.12a1.83,1.83,0,0,1,0-3.49l15.45-8.92A6.53,6.53,0,0,1,93.74,69.94Z" transform="translate(-38.35 -39.31)"/><path class="cls-5" d="M69.76,83.8,89.54,95.22a9.28,9.28,0,0,0,8.4,0L117.72,83.8a3.12,3.12,0,0,0,1.71-2.15,2.8,2.8,0,0,1-1.71,2.71L97.94,95.78a9.31,9.31,0,0,1-8.4,0L69.76,84.36A2.79,2.79,0,0,1,68,81.65,3.11,3.11,0,0,0,69.76,83.8Z" transform="translate(-38.35 -39.31)"/><path class="cls-42" d="M284.6,192.85v-4.48l1.24-.69c.35,2.11,2.84,3.51,4.92,3.8l14.18,8.28,6.18,2.24,19.75-10.19-.46-.27c1.69-.78,2.6-2.59,3.51-4.23l1.33.79.79.22v4.6h0a2.93,2.93,0,0,1-1.74,2.42l-19.78,11.42a9.28,9.28,0,0,1-8.4,0l-19.78-11.42A3,3,0,0,1,284.6,193v-.11Z" transform="translate(-38.35 -39.31)"/><path class="cls-42" d="M290.76,191.48l14.18,8.28,5.38,2v6.06a8.58,8.58,0,0,1-4.2-1l-19.78-11.42A3,3,0,0,1,284.6,193v-.11h0v-4.48l1.13-.63h.12C286.24,189.82,288.7,191.19,290.76,191.48Z" transform="translate(-38.35 -39.31)"/><path class="cls-42" d="M314.52,202.21l19.78-11.42c2.32-1.34,2.32-3.51,0-4.85l-19.78-11.42a9.28,9.28,0,0,0-8.4,0l-19.78,11.42c-2.32,1.34-2.32,3.51,0,4.85l19.78,11.42A9.28,9.28,0,0,0,314.52,202.21Z" transform="translate(-38.35 -39.31)"/><path class="cls-42" d="M314.52,202.21l19.78-11.42c2.32-1.34,2.32-3.51,0-4.85l-19.78-11.42a9.28,9.28,0,0,0-8.4,0l-19.78,11.42c-2.32,1.34-2.32,3.51,0,4.85l19.78,11.42A9.28,9.28,0,0,0,314.52,202.21Z" transform="translate(-38.35 -39.31)"/><path class="cls-42" d="M310.32,187.78a7.68,7.68,0,0,0,3.73-.89l19.78-11.42a2.39,2.39,0,0,0,0-4.51l-19.78-11.42a8.27,8.27,0,0,0-7.46,0L286.81,171a2.39,2.39,0,0,0,0,4.51l19.78,11.42A7.68,7.68,0,0,0,310.32,187.78Zm0-28.79a7.35,7.35,0,0,1,3.56.85l19.78,11.42a2.06,2.06,0,0,1,0,3.91l-19.79,11.42a7.88,7.88,0,0,1-7.11,0L287,175.17a2.06,2.06,0,0,1,0-3.91l19.78-11.42A7.38,7.38,0,0,1,310.32,159Z" transform="translate(-38.35 -39.31)"/><path class="cls-42" d="M284.6,168.83v-6.77l1.24-.69c.35,2.11,2.84,3.51,4.92,3.8l14.18,8.28,6.18,2.24,19.75-10.19-.46-.26c1.69-.79,2.6-2.6,3.51-4.24l1.33.79.79.22v6.89h0a3,3,0,0,1-1.74,2.43l-19.78,11.42a9.34,9.34,0,0,1-8.4,0l-19.78-11.42A3,3,0,0,1,284.6,169v-.12Z" transform="translate(-38.35 -39.31)"/><path class="cls-42" d="M284.6,162.81v-4.48l1.24-.69c.35,2.11,2.84,3.51,4.92,3.8l14.18,8.29,6.18,2.23,19.75-10.19-.46-.26c1.69-.79,2.6-2.59,3.51-4.24l1.33.79.79.22v4.6h0a3,3,0,0,1-1.74,2.43l-19.78,11.42a9.34,9.34,0,0,1-8.4,0l-19.78-11.42a3,3,0,0,1-1.74-2.39v-.11Z" transform="translate(-38.35 -39.31)"/><path class="cls-42" d="M290.76,161.44l14.18,8.29,5.38,1.94v6.06a8.58,8.58,0,0,1-4.2-1l-19.78-11.42a3,3,0,0,1-1.74-2.39v-.11h0v-4.48l1.13-.63h.12C286.24,159.78,288.7,161.15,290.76,161.44Z" transform="translate(-38.35 -39.31)"/><path class="cls-42" d="M314.52,172.17l19.78-11.42c2.32-1.33,2.32-3.51,0-4.85l-19.78-11.42a9.34,9.34,0,0,0-8.4,0L286.34,155.9c-2.32,1.34-2.32,3.52,0,4.85l19.78,11.42A9.28,9.28,0,0,0,314.52,172.17Z" transform="translate(-38.35 -39.31)"/><path class="cls-42" d="M286.34,160.75l19.78,11.42a9.28,9.28,0,0,0,8.4,0l19.78-11.42a3.1,3.1,0,0,0,1.72-2.14,2.81,2.81,0,0,1-1.72,2.7l-19.78,11.42a9.28,9.28,0,0,1-8.4,0l-19.78-11.42a2.81,2.81,0,0,1-1.72-2.7A3.1,3.1,0,0,0,286.34,160.75Z" transform="translate(-38.35 -39.31)"/><g class="cls-33"><path class="cls-43" d="M284.6,192.85v-4.48l1.24-.69c.35,2.11,2.84,3.51,4.92,3.8l14.18,8.28,6.18,2.24,19.75-10.19-.46-.27c1.69-.78,2.6-2.59,3.51-4.23l1.33.79.79.22v4.6h0a2.93,2.93,0,0,1-1.74,2.42l-19.78,11.42a9.28,9.28,0,0,1-8.4,0l-19.78-11.42A3,3,0,0,1,284.6,193v-.11Z" transform="translate(-38.35 -39.31)"/><path class="cls-35" d="M290.76,191.48l14.18,8.28,5.38,2v6.06a8.58,8.58,0,0,1-4.2-1l-19.78-11.42A3,3,0,0,1,284.6,193v-.11h0v-4.48l1.13-.63h.12C286.24,189.82,288.7,191.19,290.76,191.48Z" transform="translate(-38.35 -39.31)"/><path class="cls-44" d="M314.52,202.21l19.78-11.42c2.32-1.34,2.32-3.51,0-4.85l-19.78-11.42a9.28,9.28,0,0,0-8.4,0l-19.78,11.42c-2.32,1.34-2.32,3.51,0,4.85l19.78,11.42A9.28,9.28,0,0,0,314.52,202.21Z" transform="translate(-38.35 -39.31)"/><g class="cls-33"><path class="cls-37" d="M314.52,202.21l19.78-11.42c2.32-1.34,2.32-3.51,0-4.85l-19.78-11.42a9.28,9.28,0,0,0-8.4,0l-19.78,11.42c-2.32,1.34-2.32,3.51,0,4.85l19.78,11.42A9.28,9.28,0,0,0,314.52,202.21Z" transform="translate(-38.35 -39.31)"/></g></g><path class="cls-4" d="M310.32,187.78a7.68,7.68,0,0,0,3.73-.89l19.78-11.42a2.39,2.39,0,0,0,0-4.51l-19.78-11.42a8.27,8.27,0,0,0-7.46,0L286.81,171a2.39,2.39,0,0,0,0,4.51l19.78,11.42A7.68,7.68,0,0,0,310.32,187.78Zm0-28.79a7.35,7.35,0,0,1,3.56.85l19.78,11.42a2.06,2.06,0,0,1,0,3.91l-19.79,11.42a7.88,7.88,0,0,1-7.11,0L287,175.17a2.06,2.06,0,0,1,0-3.91l19.78-11.42A7.38,7.38,0,0,1,310.32,159Z" transform="translate(-38.35 -39.31)"/><path class="cls-38" d="M284.6,168.83v-6.77l1.24-.69c.35,2.11,2.84,3.51,4.92,3.8l14.18,8.28,6.18,2.24,19.75-10.19-.46-.26c1.69-.79,2.6-2.6,3.51-4.24l1.33.79.79.22v6.89h0a3,3,0,0,1-1.74,2.43l-19.78,11.42a9.34,9.34,0,0,1-8.4,0l-19.78-11.42A3,3,0,0,1,284.6,169v-.12Z" transform="translate(-38.35 -39.31)"/><path class="cls-45" d="M284.6,162.81v-4.48l1.24-.69c.35,2.11,2.84,3.51,4.92,3.8l14.18,8.29,6.18,2.23,19.75-10.19-.46-.26c1.69-.79,2.6-2.59,3.51-4.24l1.33.79.79.22v4.6h0a3,3,0,0,1-1.74,2.43l-19.78,11.42a9.34,9.34,0,0,1-8.4,0l-19.78-11.42a3,3,0,0,1-1.74-2.39v-.11Z" transform="translate(-38.35 -39.31)"/><path class="cls-35" d="M290.76,161.44l14.18,8.29,5.38,1.94v6.06a8.58,8.58,0,0,1-4.2-1l-19.78-11.42a3,3,0,0,1-1.74-2.39v-.11h0v-4.48l1.13-.63h.12C286.24,159.78,288.7,161.15,290.76,161.44Z" transform="translate(-38.35 -39.31)"/><path class="cls-46" d="M314.52,172.17l19.78-11.42c2.32-1.33,2.32-3.51,0-4.85l-19.78-11.42a9.34,9.34,0,0,0-8.4,0L286.34,155.9c-2.32,1.34-2.32,3.52,0,4.85l19.78,11.42A9.28,9.28,0,0,0,314.52,172.17Z" transform="translate(-38.35 -39.31)"/><path class="cls-5" d="M286.34,160.75l19.78,11.42a9.28,9.28,0,0,0,8.4,0l19.78-11.42a3.1,3.1,0,0,0,1.72-2.14,2.81,2.81,0,0,1-1.72,2.7l-19.78,11.42a9.28,9.28,0,0,1-8.4,0l-19.78-11.42a2.81,2.81,0,0,1-1.72-2.7A3.1,3.1,0,0,0,286.34,160.75Z" transform="translate(-38.35 -39.31)"/></g></g></svg>