<svg xmlns="http://www.w3.org/2000/svg" xmlns:xlink="http://www.w3.org/1999/xlink" viewBox="0 0 767.17 665.16"><defs><style>.cls-1,.cls-10,.cls-11,.cls-12,.cls-13,.cls-16,.cls-2,.cls-9{fill:#fffe9f;}.cls-1{opacity:0.3;}.cls-3{fill:url(#_ÂÁ_Ï_ÌÌ_È_ËÂÌÚ_14);}.cls-4{fill:#02070b;}.cls-10,.cls-4{opacity:0.6;}.cls-5{fill:url(#_ÂÁ_Ï_ÌÌ_È_ËÂÌÚ_15);}.cls-30,.cls-6{fill:#c3ffa6;}.cls-7{fill:url(#_ÂÁ_Ï_ÌÌ_È_ËÂÌÚ_13);}.cls-8{fill:#92a7aa;}.cls-29,.cls-30,.cls-9{opacity:0.8;}.cls-11,.cls-31{opacity:0.4;}.cls-12{opacity:0.2;}.cls-13{opacity:0.1;}.cls-14{fill:url(#_ÂÁ_Ï_ÌÌ_È_ËÂÌÚ_15-2);}.cls-15{fill:url(#_ÂÁ_Ï_ÌÌ_È_ËÂÌÚ_13-2);}.cls-16{opacity:0.5;}.cls-17{fill:url(#_ÂÁ_Ï_ÌÌ_È_ËÂÌÚ_15-3);}.cls-18{fill:url(#_ÂÁ_Ï_ÌÌ_È_ËÂÌÚ_13-3);}.cls-19{fill:url(#_ÂÁ_Ï_ÌÌ_È_ËÂÌÚ_15-4);}.cls-20{fill:url(#_ÂÁ_Ï_ÌÌ_È_ËÂÌÚ_13-4);}.cls-21{fill:url(#_ÂÁ_Ï_ÌÌ_È_ËÂÌÚ_15-5);}.cls-22{fill:url(#_ÂÁ_Ï_ÌÌ_È_ËÂÌÚ_13-5);}.cls-23,.cls-31{fill:#fff;}.cls-24{fill:url(#_ÂÁ_Ï_ÌÌ_È_ËÂÌÚ_13-6);}.cls-25{fill:url(#_ÂÁ_Ï_ÌÌ_È_ËÂÌÚ_13-7);}.cls-26{fill:url(#_ÂÁ_Ï_ÌÌ_È_ËÂÌÚ_18);}.cls-27{fill:url(#_ÂÁ_Ï_ÌÌ_È_ËÂÌÚ_15-6);}.cls-28{fill:url(#_ÂÁ_Ï_ÌÌ_È_ËÂÌÚ_18-2);}.cls-29{fill:#89846b;}.cls-32{fill:url(#_ÂÁ_Ï_ÌÌ_È_ËÂÌÚ_14-2);}.cls-33{fill:url(#_ÂÁ_Ï_ÌÌ_È_ËÂÌÚ_15-7);}.cls-34{fill:url(#_ÂÁ_Ï_ÌÌ_È_ËÂÌÚ_14-3);}.cls-35{fill:url(#_ÂÁ_Ï_ÌÌ_È_ËÂÌÚ_13-8);}.cls-36{fill:url(#_ÂÁ_Ï_ÌÌ_È_ËÂÌÚ_14-4);}.cls-37{fill:url(#_ÂÁ_Ï_ÌÌ_È_ËÂÌÚ_15-8);}.cls-38{fill:url(#_ÂÁ_Ï_ÌÌ_È_ËÂÌÚ_14-5);}.cls-39{fill:url(#_ÂÁ_Ï_ÌÌ_È_ËÂÌÚ_13-9);}.cls-40{fill:url(#_ÂÁ_Ï_ÌÌ_È_ËÂÌÚ_14-6);}.cls-41{fill:url(#_ÂÁ_Ï_ÌÌ_È_ËÂÌÚ_15-9);}.cls-42{fill:url(#_ÂÁ_Ï_ÌÌ_È_ËÂÌÚ_14-7);}.cls-43{fill:url(#_ÂÁ_Ï_ÌÌ_È_ËÂÌÚ_13-10);}</style><linearGradient id="_ÂÁ_Ï_ÌÌ_È_ËÂÌÚ_14" x1="46.28" y1="375.78" x2="165.99" y2="375.78" gradientUnits="userSpaceOnUse"><stop offset="0" stop-color="#c3ffa6"/><stop offset="0.23" stop-color="#c3ffa6"/><stop offset="0.51" stop-color="#fffe9f"/><stop offset="0.78" stop-color="#fffe9f"/><stop offset="1" stop-color="#fffe9f"/></linearGradient><linearGradient id="_ÂÁ_Ï_ÌÌ_È_ËÂÌÚ_15" x1="-206.71" y1="360.9" x2="-87.66" y2="360.9" gradientTransform="translate(253.32)" gradientUnits="userSpaceOnUse"><stop offset="0" stop-color="#c3ffa6"/><stop offset="0.01" stop-color="#bcf8a2"/><stop offset="0.05" stop-color="#92c886"/><stop offset="0.1" stop-color="#6c9d6d"/><stop offset="0.15" stop-color="#4c7958"/><stop offset="0.2" stop-color="#325c47"/><stop offset="0.26" stop-color="#1d453a"/><stop offset="0.32" stop-color="#0f3530"/><stop offset="0.39" stop-color="#072c2b"/><stop offset="0.48" stop-color="#042929"/><stop offset="0.6" stop-color="#204242"/><stop offset="0.85" stop-color="#668082"/><stop offset="1" stop-color="#92a7aa"/></linearGradient><linearGradient id="_ÂÁ_Ï_ÌÌ_È_ËÂÌÚ_13" x1="-1358.35" y1="-760.94" x2="-1261.14" y2="-760.94" gradientTransform="matrix(0.87, 0.5, -0.87, 0.5, 581.4, 1376.76)" gradientUnits="userSpaceOnUse"><stop offset="0" stop-color="#042929"/><stop offset="0.13" stop-color="#0d3131"/><stop offset="0.34" stop-color="#244546"/><stop offset="0.6" stop-color="#4a6768"/><stop offset="0.89" stop-color="#7e9597"/><stop offset="1" stop-color="#92a7aa"/></linearGradient><linearGradient id="_ÂÁ_Ï_ÌÌ_È_ËÂÌÚ_15-2" x1="-206.71" y1="319.03" x2="-87.66" y2="319.03" xlink:href="#_ÂÁ_Ï_ÌÌ_È_ËÂÌÚ_15"/><linearGradient id="_ÂÁ_Ï_ÌÌ_È_ËÂÌÚ_13-2" x1="-1400.22" y1="-802.81" x2="-1303.01" y2="-802.81" xlink:href="#_ÂÁ_Ï_ÌÌ_È_ËÂÌÚ_13"/><linearGradient id="_ÂÁ_Ï_ÌÌ_È_ËÂÌÚ_15-3" x1="-206.71" y1="277.15" x2="-87.66" y2="277.15" xlink:href="#_ÂÁ_Ï_ÌÌ_È_ËÂÌÚ_15"/><linearGradient id="_ÂÁ_Ï_ÌÌ_È_ËÂÌÚ_13-3" x1="-1442.09" y1="-844.69" x2="-1344.88" y2="-844.69" xlink:href="#_ÂÁ_Ï_ÌÌ_È_ËÂÌÚ_13"/><linearGradient id="_ÂÁ_Ï_ÌÌ_È_ËÂÌÚ_15-4" x1="-206.71" y1="235.28" x2="-87.66" y2="235.28" xlink:href="#_ÂÁ_Ï_ÌÌ_È_ËÂÌÚ_15"/><linearGradient id="_ÂÁ_Ï_ÌÌ_È_ËÂÌÚ_13-4" x1="-1483.96" y1="-886.56" x2="-1386.75" y2="-886.56" xlink:href="#_ÂÁ_Ï_ÌÌ_È_ËÂÌÚ_13"/><linearGradient id="_ÂÁ_Ï_ÌÌ_È_ËÂÌÚ_15-5" x1="-206.71" y1="193.41" x2="-87.66" y2="193.41" xlink:href="#_ÂÁ_Ï_ÌÌ_È_ËÂÌÚ_15"/><linearGradient id="_ÂÁ_Ï_ÌÌ_È_ËÂÌÚ_13-5" x1="-1525.83" y1="-928.43" x2="-1428.62" y2="-928.43" xlink:href="#_ÂÁ_Ï_ÌÌ_È_ËÂÌÚ_13"/><linearGradient id="_ÂÁ_Ï_ÌÌ_È_ËÂÌÚ_13-6" x1="-93.66" y1="385.05" x2="905.55" y2="385.05" gradientTransform="matrix(1, 0, 0, 1, 0, 0)" xlink:href="#_ÂÁ_Ï_ÌÌ_È_ËÂÌÚ_13"/><linearGradient id="_ÂÁ_Ï_ÌÌ_È_ËÂÌÚ_13-7" x1="-2768.03" y1="-558.91" x2="-2494.47" y2="-558.91" gradientTransform="matrix(0.87, 0.5, -1, 0.58, 2109.54, 2007.3)" xlink:href="#_ÂÁ_Ï_ÌÌ_È_ËÂÌÚ_13"/><radialGradient id="_ÂÁ_Ï_ÌÌ_È_ËÂÌÚ_18" cx="-3468.96" cy="-2928.12" r="543.98" gradientTransform="matrix(0.84, 0.49, -1.07, 0.62, -60.6, 3711.99)" gradientUnits="userSpaceOnUse"><stop offset="0.01" stop-color="#042929"/><stop offset="0.28" stop-color="#031b1c"/><stop offset="0.67" stop-color="#020c0f"/><stop offset="1" stop-color="#02070b"/></radialGradient><linearGradient id="_ÂÁ_Ï_ÌÌ_È_ËÂÌÚ_15-6" x1="140.34" y1="369.73" x2="636.55" y2="369.73" gradientTransform="matrix(1, 0, 0, 1, 0, 0)" xlink:href="#_ÂÁ_Ï_ÌÌ_È_ËÂÌÚ_15"/><radialGradient id="_ÂÁ_Ï_ÌÌ_È_ËÂÌÚ_18-2" cx="-2640.7" cy="-1268.9" r="25.87" gradientTransform="matrix(0.87, 0.5, -0.87, 0.5, 1790.86, 2191.02)" xlink:href="#_ÂÁ_Ï_ÌÌ_È_ËÂÌÚ_18"/><linearGradient id="_ÂÁ_Ï_ÌÌ_È_ËÂÌÚ_14-2" x1="644.6" y1="445.36" x2="723.11" y2="445.36" xlink:href="#_ÂÁ_Ï_ÌÌ_È_ËÂÌÚ_14"/><linearGradient id="_ÂÁ_Ï_ÌÌ_È_ËÂÌÚ_15-7" x1="645.1" y1="431.84" x2="724.52" y2="431.84" gradientTransform="matrix(1, 0, 0, 1, 0, 0)" xlink:href="#_ÂÁ_Ï_ÌÌ_È_ËÂÌÚ_15"/><linearGradient id="_ÂÁ_Ï_ÌÌ_È_ËÂÌÚ_14-3" x1="645.1" y1="440.64" x2="724.52" y2="440.64" xlink:href="#_ÂÁ_Ï_ÌÌ_È_ËÂÌÚ_14"/><linearGradient id="_ÂÁ_Ï_ÌÌ_È_ËÂÌÚ_13-8" x1="-647.85" y1="-960.92" x2="-610.45" y2="-993.31" gradientTransform="matrix(0.87, 0.5, -1, 0.58, 250.9, 1296.53)" xlink:href="#_ÂÁ_Ï_ÌÌ_È_ËÂÌÚ_13"/><linearGradient id="_ÂÁ_Ï_ÌÌ_È_ËÂÌÚ_14-4" x1="548.75" y1="502.13" x2="627.26" y2="502.13" xlink:href="#_ÂÁ_Ï_ÌÌ_È_ËÂÌÚ_14"/><linearGradient id="_ÂÁ_Ï_ÌÌ_È_ËÂÌÚ_15-8" x1="549.25" y1="488.61" x2="628.67" y2="488.61" gradientTransform="matrix(1, 0, 0, 1, 0, 0)" xlink:href="#_ÂÁ_Ï_ÌÌ_È_ËÂÌÚ_15"/><linearGradient id="_ÂÁ_Ï_ÌÌ_È_ËÂÌÚ_14-5" x1="549.25" y1="497.41" x2="628.67" y2="497.41" xlink:href="#_ÂÁ_Ï_ÌÌ_È_ËÂÌÚ_14"/><linearGradient id="_ÂÁ_Ï_ÌÌ_È_ËÂÌÚ_13-9" x1="-646.42" y1="-863.83" x2="-609.02" y2="-896.22" gradientTransform="matrix(0.87, 0.5, -1, 0.58, 250.9, 1296.53)" xlink:href="#_ÂÁ_Ï_ÌÌ_È_ËÂÌÚ_13"/><linearGradient id="_ÂÁ_Ï_ÌÌ_È_ËÂÌÚ_14-6" x1="452.9" y1="558.9" x2="531.41" y2="558.9" xlink:href="#_ÂÁ_Ï_ÌÌ_È_ËÂÌÚ_14"/><linearGradient id="_ÂÁ_Ï_ÌÌ_È_ËÂÌÚ_15-9" x1="453.4" y1="545.38" x2="532.82" y2="545.38" gradientTransform="matrix(1, 0, 0, 1, 0, 0)" xlink:href="#_ÂÁ_Ï_ÌÌ_È_ËÂÌÚ_15"/><linearGradient id="_ÂÁ_Ï_ÌÌ_È_ËÂÌÚ_14-7" x1="453.4" y1="554.18" x2="532.82" y2="554.18" xlink:href="#_ÂÁ_Ï_ÌÌ_È_ËÂÌÚ_14"/><linearGradient id="_ÂÁ_Ï_ÌÌ_È_ËÂÌÚ_13-10" x1="-645" y1="-766.75" x2="-607.59" y2="-799.14" gradientTransform="matrix(0.87, 0.5, -1, 0.58, 250.9, 1296.53)" xlink:href="#_ÂÁ_Ï_ÌÌ_È_ËÂÌÚ_13"/></defs><title>features5</title><g id="S5"><path class="cls-1" d="M106,422.18a113,113,0,0,1-31.63-4.43c-20.5-6-34.52-17.35-38.47-31.05-2.77-9.59-.17-19.56,7.33-28.05h0l.81-.91c18-20.36,59.22-28.32,93.91-18.11,20.5,6,34.52,17.34,38.47,31,2.77,9.6.17,19.56-7.33,28.05l-.8.91C155.57,414,131.31,422.18,106,422.18ZM50.3,364.94C45,371,43.12,377.61,45,384.07c3,10.36,15,19.54,32,24.56,30.91,9.09,68.64,2.24,84.11-15.29l.8-.91c5.34-6.06,7.19-12.67,5.32-19.13-3-10.36-15-19.54-32-24.56C104.3,339.65,66.57,346.5,51.11,364Z"/><path class="cls-2" d="M105.57,418a107.53,107.53,0,0,1-30.08-4.18c-19.12-5.63-32.13-15.92-35.68-28.23-2.4-8.31-.16-16.67,6.46-24.18l.81-.91C63.79,341.53,104,334,136.74,343.58c19.12,5.63,32.12,15.92,35.67,28.23,2.4,8.31.17,16.68-6.46,24.18l-.8.91C153.36,410.26,129.87,418,105.57,418ZM47.21,362.21c-6.33,7.17-8.47,15.12-6.19,23,3.38,11.72,16.4,22,34.82,27.38,32.31,9.5,71.95,2.09,88.37-16.52l.8-.91c6.33-7.16,8.47-15.12,6.2-23-3.38-11.72-16.4-22-34.83-27.38-32.3-9.5-71.95-2.09-88.36,16.52Z"/><path class="cls-3" d="M106.14,410.46c-15.3,0-30.61-3.37-42.26-10.09-11.35-6.56-17.6-15.29-17.6-24.59s6.25-18,17.6-24.59c23.3-13.45,61.21-13.45,84.51,0,11.35,6.56,17.6,15.29,17.6,24.59s-6.25,18-17.59,24.59C136.75,407.09,121.44,410.46,106.14,410.46Zm0-68.71c-15.19,0-30.37,3.34-41.93,10-11.14,6.43-17.27,15-17.27,24s6.13,17.59,17.27,24c23.12,13.35,60.74,13.35,83.86,0,11.14-6.43,17.27-15,17.27-24s-6.13-17.59-17.27-24C136.51,345.09,121.32,341.75,106.14,341.75Z"/><ellipse class="cls-4" cx="106.14" cy="375.78" rx="50.26" ry="29.02"/><path class="cls-5" d="M165.67,360.87V341.41H155.13a48.68,48.68,0,0,0-6.9-4.82c-23.25-13.42-60.94-13.42-84.19,0a49.14,49.14,0,0,0-6.89,4.82H46.61V360.9h0c0,8.79,5.81,17.59,17.44,24.3,23.24,13.42,60.94,13.42,84.18,0C159.87,378.48,165.68,369.67,165.67,360.87Z"/><path class="cls-6" d="M47.16,360.39v-19h-.55V360.9c0,7.87,4.69,15.73,14,22.11C51.66,376.38,47.16,368.39,47.16,360.39Z"/><path class="cls-2" d="M164.73,341.41v18.83c0,8.81-5.8,17.61-17.44,24.33-23.24,13.43-60.94,13.43-84.18,0-1.19-.68-2.27-1.4-3.33-2.12,1.33.95,2.74,1.87,4.27,2.75,23.24,13.42,60.94,13.42,84.18,0,11.64-6.72,17.45-15.53,17.44-24.33V341.41Z"/><ellipse class="cls-7" cx="106.14" cy="341.41" rx="59.53" ry="34.37"/><path class="cls-6" d="M65.65,317.46c11.81-6.81,27.24-10.26,42.71-10.36-16-.34-32.13,3-44.32,10-18.11,10.45-22.27,26.17-11.93,38.65C43.21,343,47.72,327.82,65.65,317.46Z"/><path class="cls-2" d="M148.23,317.11a73.33,73.33,0,0,0-21.06-7.83,72.3,72.3,0,0,1,19,7.36c23.25,13.42,23.25,35.18,0,48.6-17.07,9.86-41.91,12.45-63.12,7.83,21.64,5.26,47.58,2.83,65.21-7.36C171.48,352.29,171.48,330.53,148.23,317.11Z"/><ellipse class="cls-2" cx="105.85" cy="341.41" rx="38.04" ry="21.96"/><path class="cls-2" d="M79,337.65c14.86-8.58,38.94-8.57,53.8,0,4.81,2.78,8,6.12,9.73,9.65,3.55-7.38.32-15.62-9.73-21.42-14.86-8.58-38.94-8.58-53.8,0-10,5.8-13.27,14-9.73,21.42C70.91,343.77,74.14,340.43,79,337.65Z"/><path class="cls-2" d="M79,333.49c14.86-8.57,38.94-8.57,53.8,0,5.74,3.32,9.24,7.44,10.54,11.73,2.07-6.81-1.43-14.08-10.54-19.34-14.86-8.58-38.94-8.58-53.8,0-9.11,5.26-12.61,12.53-10.54,19.34C69.71,340.92,73.21,336.81,79,333.49Z"/><path class="cls-8" d="M79,329.79c14.86-8.58,38.94-8.58,53.8,0,6.57,3.79,10.22,8.63,11,13.58,1-6.26-2.69-12.7-11-17.49-14.86-8.58-38.94-8.58-53.8,0-8.29,4.79-11.94,11.23-11,17.49C68.73,338.41,72.38,333.58,79,329.79Z"/><path class="cls-2" d="M136.94,314.87a3.78,3.78,0,0,0-3.51.48c-.74.69-.36,1.6.84,2a3.8,3.8,0,0,0,3.51-.48C138.52,316.2,138.14,315.3,136.94,314.87Z"/><path class="cls-9" d="M145.35,319a3.93,3.93,0,0,0-3.55.07c-.94.59-.88,1.5.13,2.05a3.93,3.93,0,0,0,3.55-.08C146.42,320.41,146.36,319.49,145.35,319Z"/><path class="cls-10" d="M152.24,323.87a3.81,3.81,0,0,0-3.5-.32c-1.13.47-1.38,1.37-.57,2a3.86,3.86,0,0,0,3.51.33C152.8,325.43,153.05,324.52,152.24,323.87Z"/><path class="cls-11" d="M157.34,329.48a3.5,3.5,0,0,0-3.33-.71c-1.26.33-1.81,1.19-1.24,1.92a3.45,3.45,0,0,0,3.33.71C157.36,331.07,157.91,330.21,157.34,329.48Z"/><path class="cls-12" d="M160.44,335.56c-.32-.78-1.68-1.26-3-1.08s-2.18,1-1.86,1.75,1.67,1.26,3,1.07S160.76,336.34,160.44,335.56Z"/><path class="cls-13" d="M161.18,342.55c.6-.71.09-1.58-1.16-1.93a3.51,3.51,0,0,0-3.35.66c-.61.72-.1,1.59,1.15,1.94A3.53,3.53,0,0,0,161.18,342.55Z"/><path class="cls-14" d="M165.67,319V299.54H155.13a48.68,48.68,0,0,0-6.9-4.82C125,281.3,87.29,281.3,64,294.72a49.14,49.14,0,0,0-6.89,4.82H46.61V319h0c0,8.79,5.81,17.59,17.44,24.3,23.24,13.42,60.94,13.42,84.18,0C159.87,336.61,165.68,327.8,165.67,319Z"/><path class="cls-6" d="M47.16,318.52v-19h-.55V319c0,7.87,4.69,15.73,14,22.11C51.66,334.51,47.16,326.52,47.16,318.52Z"/><path class="cls-2" d="M164.73,299.54v18.83c0,8.81-5.8,17.61-17.44,24.33-23.24,13.42-60.94,13.42-84.18,0-1.19-.68-2.27-1.4-3.33-2.12,1.33.95,2.74,1.87,4.27,2.75,23.24,13.42,60.94,13.42,84.18,0,11.64-6.72,17.45-15.53,17.44-24.34V299.54Z"/><ellipse class="cls-15" cx="106.14" cy="299.54" rx="59.53" ry="34.37"/><path class="cls-6" d="M65.65,275.59c11.81-6.81,27.24-10.26,42.71-10.36-16-.34-32.13,3-44.32,10-18.11,10.45-22.27,26.17-11.93,38.65C43.21,301.11,47.72,286,65.65,275.59Z"/><path class="cls-2" d="M148.23,275.24a73.33,73.33,0,0,0-21.06-7.83,72.3,72.3,0,0,1,19,7.36c23.25,13.42,23.25,35.18,0,48.6-17.07,9.86-41.91,12.45-63.12,7.83,21.64,5.26,47.58,2.82,65.21-7.36C171.48,310.42,171.48,288.66,148.23,275.24Z"/><path class="cls-2" d="M132.75,315.07c-14.86,8.58-38.94,8.58-53.8,0S64.09,292.59,79,284s38.94-8.58,53.8,0S147.61,306.49,132.75,315.07Z"/><path class="cls-2" d="M79,295.78c14.86-8.58,38.94-8.58,53.8,0,4.81,2.78,8,6.12,9.73,9.65,3.55-7.38.32-15.62-9.73-21.42-14.86-8.58-38.94-8.58-53.8,0-10,5.8-13.27,14-9.73,21.42C70.91,301.89,74.14,298.56,79,295.78Z"/><path class="cls-2" d="M79,291.62c14.86-8.57,38.94-8.57,53.8,0,5.74,3.32,9.24,7.43,10.54,11.73,2.07-6.81-1.43-14.08-10.54-19.34-14.86-8.58-38.94-8.58-53.8,0-9.11,5.26-12.61,12.52-10.54,19.34C69.71,299.05,73.21,294.94,79,291.62Z"/><path class="cls-8" d="M79,287.92c14.86-8.58,38.94-8.58,53.8,0,6.57,3.79,10.22,8.62,11,13.58,1-6.26-2.69-12.7-11-17.49-14.86-8.58-38.94-8.58-53.8,0C70.66,288.8,67,295.24,68,301.49,68.73,296.54,72.38,291.71,79,287.92Z"/><path class="cls-2" d="M136.94,273a3.78,3.78,0,0,0-3.51.48c-.74.69-.36,1.6.84,2a3.8,3.8,0,0,0,3.51-.48C138.52,274.33,138.14,273.42,136.94,273Z"/><path class="cls-9" d="M145.35,277.08a3.9,3.9,0,0,0-3.55.07c-.94.59-.88,1.5.13,2.05a3.93,3.93,0,0,0,3.55-.08C146.42,278.54,146.36,277.62,145.35,277.08Z"/><path class="cls-10" d="M152.24,282a3.81,3.81,0,0,0-3.5-.32c-1.13.47-1.38,1.37-.57,2a3.86,3.86,0,0,0,3.51.33C152.8,283.56,153.05,282.65,152.24,282Z"/><path class="cls-11" d="M157.34,287.61a3.45,3.45,0,0,0-3.33-.71c-1.26.33-1.81,1.19-1.24,1.92a3.45,3.45,0,0,0,3.33.71C157.36,289.2,157.91,288.34,157.34,287.61Z"/><path class="cls-12" d="M160.44,293.69c-.32-.78-1.68-1.26-3-1.08s-2.18,1-1.86,1.75,1.67,1.26,3,1.07S160.76,294.47,160.44,293.69Z"/><path class="cls-13" d="M161.18,300.68c.6-.71.09-1.58-1.16-1.93a3.51,3.51,0,0,0-3.35.66c-.61.72-.1,1.59,1.15,1.94A3.53,3.53,0,0,0,161.18,300.68Z"/><path class="cls-16" d="M165.67,274.9l-18.43-.21c-22.42-12.37-57.44-12.67-80.48-.92l-20.18-.23V298.6h.07c-.43,9.11,5.36,18.29,17.4,25.24,23.24,13.43,60.94,13.43,84.18,0,12-6.95,17.83-16.13,17.4-25.24h0Z"/><path class="cls-17" d="M165.67,277.12V257.67H155.13a48.68,48.68,0,0,0-6.9-4.82c-23.25-13.42-60.94-13.42-84.19,0a49.14,49.14,0,0,0-6.89,4.82H46.61v19.48h0c0,8.8,5.81,17.6,17.44,24.31,23.24,13.42,60.94,13.42,84.18,0C159.87,294.74,165.68,285.93,165.67,277.12Z"/><path class="cls-6" d="M47.16,276.65v-19h-.55v19.48c0,7.88,4.69,15.74,14,22.12C51.66,292.64,47.16,284.65,47.16,276.65Z"/><path class="cls-2" d="M164.73,257.67V276.5c0,8.8-5.8,17.61-17.44,24.33-23.24,13.42-60.94,13.42-84.18,0-1.19-.68-2.27-1.4-3.33-2.12,1.33.94,2.74,1.87,4.27,2.75,23.24,13.42,60.94,13.42,84.18,0,11.64-6.72,17.45-15.53,17.44-24.34V257.67Z"/><ellipse class="cls-18" cx="106.14" cy="257.67" rx="59.53" ry="34.37"/><path class="cls-6" d="M65.65,233.72c11.81-6.82,27.24-10.26,42.71-10.36-16-.34-32.13,3-44.32,10C45.93,243.82,41.77,259.53,52.11,272,43.21,259.24,47.72,244.08,65.65,233.72Z"/><path class="cls-2" d="M148.23,233.37a73.33,73.33,0,0,0-21.06-7.83,72.3,72.3,0,0,1,19,7.36c23.25,13.42,23.25,35.18,0,48.6C129.07,291.36,104.23,294,83,289.33c21.64,5.26,47.58,2.82,65.21-7.36C171.48,268.55,171.48,246.79,148.23,233.37Z"/><ellipse class="cls-2" cx="105.85" cy="257.67" rx="38.04" ry="21.96"/><path class="cls-2" d="M79,253.91c14.86-8.58,38.94-8.58,53.8,0,4.81,2.78,8,6.11,9.73,9.65,3.55-7.38.32-15.62-9.73-21.42-14.86-8.58-38.94-8.58-53.8,0-10,5.8-13.27,14-9.73,21.41C70.91,260,74.14,256.69,79,253.91Z"/><path class="cls-2" d="M79,249.75c14.86-8.57,38.94-8.57,53.8,0,5.74,3.32,9.24,7.43,10.54,11.73,2.07-6.81-1.43-14.08-10.54-19.34-14.86-8.58-38.94-8.58-53.8,0-9.11,5.26-12.61,12.52-10.54,19.34C69.71,257.18,73.21,253.07,79,249.75Z"/><path class="cls-8" d="M79,246.05c14.86-8.58,38.94-8.58,53.8,0,6.57,3.79,10.22,8.62,11,13.58,1-6.26-2.69-12.7-11-17.49-14.86-8.58-38.94-8.58-53.8,0-8.29,4.78-11.94,11.23-11,17.48C68.73,254.67,72.38,249.84,79,246.05Z"/><path class="cls-2" d="M136.94,231.13a3.78,3.78,0,0,0-3.51.48c-.74.69-.36,1.6.84,2a3.78,3.78,0,0,0,3.51-.49C138.52,232.46,138.14,231.55,136.94,231.13Z"/><path class="cls-9" d="M145.35,235.2a3.93,3.93,0,0,0-3.55.08c-.94.59-.88,1.5.13,2.05a3.93,3.93,0,0,0,3.55-.08C146.42,236.67,146.36,235.75,145.35,235.2Z"/><path class="cls-10" d="M152.24,240.13a3.81,3.81,0,0,0-3.5-.32c-1.13.47-1.38,1.37-.57,2a3.83,3.83,0,0,0,3.51.32C152.8,241.69,153.05,240.78,152.24,240.13Z"/><path class="cls-11" d="M157.34,245.74A3.45,3.45,0,0,0,154,245c-1.26.33-1.81,1.19-1.24,1.92a3.47,3.47,0,0,0,3.33.71C157.36,247.33,157.91,246.47,157.34,245.74Z"/><path class="cls-12" d="M160.44,251.82c-.32-.78-1.68-1.26-3-1.08s-2.18,1-1.86,1.75,1.67,1.26,3,1.07S160.76,252.59,160.44,251.82Z"/><path class="cls-13" d="M161.18,258.81c.6-.72.09-1.58-1.16-1.93a3.48,3.48,0,0,0-3.35.66c-.61.72-.1,1.59,1.15,1.94A3.53,3.53,0,0,0,161.18,258.81Z"/><path class="cls-19" d="M165.67,235.25V215.8H155.13a48.68,48.68,0,0,0-6.9-4.82C125,197.56,87.29,197.56,64,211a49.14,49.14,0,0,0-6.89,4.82H46.61v19.48h0c0,8.8,5.81,17.6,17.44,24.31C87.29,273,125,273,148.23,259.59,159.87,252.87,165.68,244.06,165.67,235.25Z"/><path class="cls-6" d="M47.16,234.78v-19h-.55v19.48c0,7.88,4.69,15.74,14,22.12C51.66,250.77,47.16,242.77,47.16,234.78Z"/><path class="cls-2" d="M164.73,215.8v18.83c0,8.8-5.8,17.61-17.44,24.33-23.24,13.42-60.94,13.42-84.18,0-1.19-.68-2.27-1.4-3.33-2.12,1.33.94,2.74,1.86,4.27,2.75C87.29,273,125,273,148.23,259.59c11.64-6.72,17.45-15.53,17.44-24.34V215.8Z"/><ellipse class="cls-20" cx="106.14" cy="215.8" rx="59.53" ry="34.37"/><path class="cls-6" d="M65.65,191.85c11.81-6.82,27.24-10.26,42.71-10.36-16-.34-32.13,3-44.32,10C45.93,202,41.77,217.66,52.11,230.15,43.21,217.37,47.72,202.21,65.65,191.85Z"/><path class="cls-2" d="M148.23,191.5a73.33,73.33,0,0,0-21.06-7.83,72.3,72.3,0,0,1,19,7.36c23.25,13.42,23.25,35.18,0,48.6-17.07,9.86-41.91,12.45-63.12,7.83,21.64,5.26,47.58,2.82,65.21-7.36C171.48,226.68,171.48,204.92,148.23,191.5Z"/><path class="cls-2" d="M132.75,231.33c-14.86,8.58-38.94,8.58-53.8,0s-14.86-22.48,0-31.06,38.94-8.58,53.8,0S147.61,222.75,132.75,231.33Z"/><path class="cls-2" d="M79,212c14.86-8.58,38.94-8.58,53.8,0,4.81,2.78,8,6.11,9.73,9.65,3.55-7.38.32-15.62-9.73-21.42-14.86-8.58-38.94-8.58-53.8,0-10,5.8-13.27,14-9.73,21.41C70.91,218.15,74.14,214.82,79,212Z"/><path class="cls-2" d="M79,207.88c14.86-8.58,38.94-8.58,53.8,0,5.74,3.32,9.24,7.43,10.54,11.73,2.07-6.82-1.43-14.08-10.54-19.34-14.86-8.58-38.94-8.58-53.8,0-9.11,5.26-12.61,12.52-10.54,19.34C69.71,215.31,73.21,211.2,79,207.88Z"/><path class="cls-8" d="M79,204.18c14.86-8.58,38.94-8.58,53.8,0,6.57,3.79,10.22,8.62,11,13.58,1-6.26-2.69-12.7-11-17.49-14.86-8.58-38.94-8.58-53.8,0C70.66,205.05,67,211.5,68,217.75,68.73,212.8,72.38,208,79,204.18Z"/><path class="cls-2" d="M136.94,189.26a3.78,3.78,0,0,0-3.51.48c-.74.69-.36,1.6.84,2a3.78,3.78,0,0,0,3.51-.49C138.52,190.59,138.14,189.68,136.94,189.26Z"/><path class="cls-9" d="M145.35,193.33a3.93,3.93,0,0,0-3.55.08c-.94.59-.88,1.5.13,2.05a3.93,3.93,0,0,0,3.55-.08C146.42,194.79,146.36,193.88,145.35,193.33Z"/><path class="cls-10" d="M152.24,198.26a3.81,3.81,0,0,0-3.5-.32c-1.13.46-1.38,1.37-.57,2a3.83,3.83,0,0,0,3.51.32C152.8,199.81,153.05,198.91,152.24,198.26Z"/><path class="cls-11" d="M157.34,203.87a3.45,3.45,0,0,0-3.33-.71c-1.26.33-1.81,1.19-1.24,1.92a3.5,3.5,0,0,0,3.33.71C157.36,205.46,157.91,204.6,157.34,203.87Z"/><path class="cls-12" d="M160.44,210c-.32-.78-1.68-1.26-3-1.08s-2.18,1-1.86,1.75,1.67,1.25,3,1.07S160.76,210.72,160.44,210Z"/><path class="cls-13" d="M161.18,216.94c.6-.72.09-1.58-1.16-1.94a3.51,3.51,0,0,0-3.35.67c-.61.72-.1,1.59,1.15,1.94A3.53,3.53,0,0,0,161.18,216.94Z"/><path class="cls-16" d="M165.67,191.16,147.24,191c-22.42-12.37-57.44-12.68-80.48-.92l-20.18-.23v25.06h.07c-.43,9.1,5.36,18.29,17.4,25.24,23.24,13.42,60.94,13.42,84.18,0,12-6.95,17.83-16.14,17.4-25.24h0Z"/><path class="cls-21" d="M165.67,193.38V173.93H155.13a48.68,48.68,0,0,0-6.9-4.82c-23.25-13.42-60.94-13.42-84.19,0a48.32,48.32,0,0,0-6.89,4.82H46.61v19.48h0c0,8.8,5.81,17.59,17.44,24.31,23.24,13.42,60.94,13.42,84.18,0C159.87,211,165.68,202.19,165.67,193.38Z"/><path class="cls-6" d="M47.16,192.91v-19h-.55v19.48c0,7.88,4.69,15.74,14,22.12C51.66,208.89,47.16,200.9,47.16,192.91Z"/><path class="cls-2" d="M164.73,173.93v18.83c0,8.8-5.8,17.61-17.44,24.33-23.24,13.42-60.94,13.42-84.18,0-1.19-.68-2.27-1.4-3.33-2.13,1.33.95,2.74,1.87,4.27,2.76,23.24,13.42,60.94,13.42,84.18,0,11.64-6.72,17.45-15.53,17.44-24.34V173.93Z"/><path class="cls-22" d="M148.23,198.23c-23.24,13.42-60.94,13.42-84.18,0s-23.25-35.18,0-48.61,60.94-13.42,84.19,0S171.48,184.81,148.23,198.23Z"/><path class="cls-6" d="M65.65,150c11.81-6.82,27.24-10.26,42.71-10.36-16-.34-32.13,3-44.32,10-18.11,10.46-22.27,26.17-11.93,38.66C43.21,175.5,47.72,160.34,65.65,150Z"/><path class="cls-2" d="M148.23,149.63a73.33,73.33,0,0,0-21.06-7.83,72.3,72.3,0,0,1,19,7.36c23.25,13.42,23.25,35.18,0,48.6-17.07,9.86-41.91,12.45-63.12,7.83,21.64,5.26,47.58,2.82,65.21-7.36C171.48,184.81,171.48,163.05,148.23,149.63Z"/><ellipse class="cls-2" cx="105.85" cy="173.93" rx="38.04" ry="21.96"/><path class="cls-2" d="M79,170.17c14.86-8.58,38.94-8.58,53.8,0,4.81,2.78,8,6.11,9.73,9.64,3.55-7.37.32-15.61-9.73-21.41-14.86-8.58-38.94-8.58-53.8,0-10,5.8-13.27,14-9.73,21.41C70.91,176.28,74.14,173,79,170.17Z"/><path class="cls-2" d="M79,166c14.86-8.58,38.94-8.58,53.8,0,5.74,3.32,9.24,7.43,10.54,11.73,2.07-6.82-1.43-14.08-10.54-19.34-14.86-8.58-38.94-8.58-53.8,0-9.11,5.26-12.61,12.52-10.54,19.33C69.71,173.44,73.21,169.33,79,166Z"/><path class="cls-8" d="M79,162.31c14.86-8.58,38.94-8.58,53.8,0,6.57,3.79,10.22,8.62,11,13.57,1-6.25-2.69-12.7-11-17.48-14.86-8.58-38.94-8.58-53.8,0-8.29,4.78-11.94,11.23-11,17.48C68.73,170.93,72.38,166.1,79,162.31Z"/><path class="cls-2" d="M136.94,147.39a3.75,3.75,0,0,0-3.51.48c-.74.69-.36,1.6.84,2a3.75,3.75,0,0,0,3.51-.48C138.52,148.72,138.14,147.81,136.94,147.39Z"/><path class="cls-9" d="M145.35,151.46a3.93,3.93,0,0,0-3.55.08c-.94.59-.88,1.5.13,2.05a3.93,3.93,0,0,0,3.55-.08C146.42,152.92,146.36,152,145.35,151.46Z"/><path class="cls-10" d="M152.24,156.39a3.81,3.81,0,0,0-3.5-.32c-1.13.46-1.38,1.37-.57,2a3.83,3.83,0,0,0,3.51.32C152.8,157.94,153.05,157,152.24,156.39Z"/><path class="cls-11" d="M157.34,162a3.45,3.45,0,0,0-3.33-.71c-1.26.33-1.81,1.19-1.24,1.92a3.5,3.5,0,0,0,3.33.71C157.36,163.59,157.91,162.73,157.34,162Z"/><path class="cls-12" d="M160.44,168.07c-.32-.77-1.68-1.26-3-1.07s-2.18,1-1.86,1.74,1.67,1.26,3,1.08S160.76,168.85,160.44,168.07Z"/><path class="cls-13" d="M161.18,175.07c.6-.72.09-1.58-1.16-1.94a3.51,3.51,0,0,0-3.35.67c-.61.72-.1,1.59,1.15,1.94A3.53,3.53,0,0,0,161.18,175.07Z"/><circle class="cls-2" cx="106.99" cy="217.76" r="3.74"/><path class="cls-8" d="M107,220.09a3.74,3.74,0,0,1-3.67-3,4.17,4.17,0,0,0-.07.71,3.74,3.74,0,0,0,7.48,0,4.17,4.17,0,0,0-.07-.71A3.74,3.74,0,0,1,107,220.09Z"/><circle class="cls-2" cx="106.99" cy="259.63" r="3.74"/><path class="cls-8" d="M107,262a3.74,3.74,0,0,1-3.67-3,4,4,0,0,0-.07.7,3.74,3.74,0,0,0,7.48,0,4,4,0,0,0-.07-.7A3.75,3.75,0,0,1,107,262Z"/><circle class="cls-2" cx="106.99" cy="301.5" r="3.74"/><path class="cls-8" d="M107,303.83a3.73,3.73,0,0,1-3.67-3,4,4,0,0,0-.07.7,3.74,3.74,0,0,0,7.48,0,4,4,0,0,0-.07-.7A3.74,3.74,0,0,1,107,303.83Z"/><circle class="cls-2" cx="106.99" cy="343.37" r="3.74"/><path class="cls-8" d="M107,345.71a3.74,3.74,0,0,1-3.67-3,4,4,0,0,0-.07.7,3.74,3.74,0,0,0,7.48,0,4,4,0,0,0-.07-.7A3.74,3.74,0,0,1,107,345.71Z"/><circle class="cls-2" cx="106.99" cy="385.24" r="3.74"/><path class="cls-8" d="M107,387.58a3.74,3.74,0,0,1-3.67-3,4.05,4.05,0,0,0-.07.7,3.74,3.74,0,0,0,7.48,0,4.05,4.05,0,0,0-.07-.7A3.74,3.74,0,0,1,107,387.58Z"/><path class="cls-1" d="M426.46,595a19.1,19.1,0,0,1-9.38-2.28l-94.77-54.81a2.7,2.7,0,0,1,2.71-4.68l94.77,54.8a15,15,0,0,0,13.34,0L732.8,416.24c1.23-.71,2-1.56,2-2.28s-.74-1.58-2-2.29L638,356.86a2.7,2.7,0,1,1,2.71-4.68L735.5,407c3,1.71,4.68,4.26,4.68,7s-1.7,5.26-4.68,7L435.83,592.74A19,19,0,0,1,426.46,595Z"/><path class="cls-2" d="M426.46,592.84a17,17,0,0,1-8.3-2l-94.76-54.8.54-.94,94.76,54.81a17.18,17.18,0,0,0,15.52,0L733.88,418.12c2-1.13,3-2.61,3-4.16s-1.08-3-3-4.17L639.12,355l.54-.94,94.76,54.81c2.32,1.33,3.6,3.15,3.6,5.1s-1.28,3.76-3.6,5.1L434.75,590.86A16.94,16.94,0,0,1,426.46,592.84Z"/><path class="cls-23" d="M652,361.82a2.43,2.43,0,1,1-.89-3.32A2.43,2.43,0,0,1,652,361.82Z"/><path class="cls-23" d="M664.63,369.12a2.43,2.43,0,1,1-.89-3.32A2.43,2.43,0,0,1,664.63,369.12Z"/><path class="cls-23" d="M677.25,376.42a2.43,2.43,0,1,1-.88-3.32A2.43,2.43,0,0,1,677.25,376.42Z"/><path class="cls-23" d="M689.88,383.72a2.43,2.43,0,1,1-.89-3.32A2.44,2.44,0,0,1,689.88,383.72Z"/><path class="cls-23" d="M702.5,391a2.43,2.43,0,1,1-.89-3.32A2.43,2.43,0,0,1,702.5,391Z"/><path class="cls-23" d="M715.12,398.32a2.43,2.43,0,1,1-.89-3.32A2.43,2.43,0,0,1,715.12,398.32Z"/><path class="cls-23" d="M727.74,405.62a2.43,2.43,0,1,1-.88-3.32A2.43,2.43,0,0,1,727.74,405.62Z"/><path class="cls-23" d="M737.28,415.15a5.67,5.67,0,0,1-1.55-.92c-.41-.31-.69-.47-.76-.73a3.74,3.74,0,0,1,1-2.77,1.85,1.85,0,0,1,1.82-.52A2.63,2.63,0,0,1,739.6,412a2.8,2.8,0,0,1-.46,2.66A1.72,1.72,0,0,1,737.28,415.15Z"/><path class="cls-23" d="M725.63,423.48a2.43,2.43,0,1,1,3.32.9A2.43,2.43,0,0,1,725.63,423.48Z"/><path class="cls-23" d="M713,430.73a2.43,2.43,0,1,1,3.32.9A2.43,2.43,0,0,1,713,430.73Z"/><path class="cls-23" d="M700.33,438a2.43,2.43,0,1,1,3.32.9A2.44,2.44,0,0,1,700.33,438Z"/><path class="cls-23" d="M687.68,445.23a2.43,2.43,0,1,1,3.32.9A2.42,2.42,0,0,1,687.68,445.23Z"/><path class="cls-23" d="M675,452.49a2.43,2.43,0,1,1,3.32.9A2.43,2.43,0,0,1,675,452.49Z"/><path class="cls-23" d="M662.38,459.74a2.43,2.43,0,1,1,3.32.9A2.43,2.43,0,0,1,662.38,459.74Z"/><path class="cls-23" d="M649.73,467a2.43,2.43,0,1,1,3.32.9A2.44,2.44,0,0,1,649.73,467Z"/><path class="cls-23" d="M637.08,474.24a2.43,2.43,0,1,1,3.32.9A2.42,2.42,0,0,1,637.08,474.24Z"/><path class="cls-23" d="M624.43,481.5a2.43,2.43,0,1,1,3.32.9A2.43,2.43,0,0,1,624.43,481.5Z"/><path class="cls-23" d="M611.78,488.75a2.43,2.43,0,1,1,3.32.9A2.43,2.43,0,0,1,611.78,488.75Z"/><path class="cls-23" d="M599.13,496a2.43,2.43,0,1,1,3.32.9A2.44,2.44,0,0,1,599.13,496Z"/><path class="cls-23" d="M586.48,503.25a2.43,2.43,0,1,1,3.32.9A2.42,2.42,0,0,1,586.48,503.25Z"/><path class="cls-23" d="M573.83,510.51a2.43,2.43,0,1,1,3.32.9A2.43,2.43,0,0,1,573.83,510.51Z"/><path class="cls-23" d="M561.18,517.76a2.43,2.43,0,1,1,3.32.9A2.43,2.43,0,0,1,561.18,517.76Z"/><path class="cls-23" d="M548.53,525a2.43,2.43,0,1,1,3.32.9A2.44,2.44,0,0,1,548.53,525Z"/><path class="cls-23" d="M535.88,532.26a2.43,2.43,0,1,1,3.32.9A2.42,2.42,0,0,1,535.88,532.26Z"/><path class="cls-23" d="M523.23,539.52a2.43,2.43,0,1,1,3.32.9A2.43,2.43,0,0,1,523.23,539.52Z"/><path class="cls-23" d="M510.58,546.77a2.43,2.43,0,1,1,3.32.9A2.43,2.43,0,0,1,510.58,546.77Z"/><path class="cls-23" d="M497.93,554a2.43,2.43,0,1,1,3.32.9A2.43,2.43,0,0,1,497.93,554Z"/><path class="cls-23" d="M485.28,561.27a2.43,2.43,0,1,1,3.32.9A2.41,2.41,0,0,1,485.28,561.27Z"/><path class="cls-23" d="M472.63,568.53a2.43,2.43,0,1,1,3.32.9A2.43,2.43,0,0,1,472.63,568.53Z"/><path class="cls-23" d="M460,575.78a2.43,2.43,0,1,1,3.32.9A2.43,2.43,0,0,1,460,575.78Z"/><path class="cls-23" d="M447.33,583a2.43,2.43,0,1,1,3.32.9A2.43,2.43,0,0,1,447.33,583Z"/><path class="cls-23" d="M434.68,590.28a2.43,2.43,0,1,1,3.32.9A2.41,2.41,0,0,1,434.68,590.28Z"/><path class="cls-23" d="M420.55,591.35a2.43,2.43,0,0,1,4.75.93,2.43,2.43,0,1,1-4.75-.93Z"/><path class="cls-23" d="M407.82,584.26a2.43,2.43,0,1,1,.89,3.32A2.43,2.43,0,0,1,407.82,584.26Z"/><path class="cls-23" d="M395.2,577a2.43,2.43,0,1,1,.89,3.32A2.43,2.43,0,0,1,395.2,577Z"/><path class="cls-23" d="M382.58,569.66a2.43,2.43,0,1,1,.88,3.32A2.43,2.43,0,0,1,382.58,569.66Z"/><path class="cls-23" d="M370,562.36a2.43,2.43,0,1,1,.89,3.32A2.43,2.43,0,0,1,370,562.36Z"/><path class="cls-23" d="M357.33,555.06a2.43,2.43,0,1,1,.89,3.32A2.43,2.43,0,0,1,357.33,555.06Z"/><path class="cls-23" d="M344.71,547.76a2.43,2.43,0,1,1,.88,3.32A2.43,2.43,0,0,1,344.71,547.76Z"/><path class="cls-23" d="M332.08,540.46a2.43,2.43,0,1,1,.89,3.32A2.44,2.44,0,0,1,332.08,540.46Z"/><path class="cls-4" d="M266.26,617.26,48.2,491.36c-5.2-3-4.54-8.24,1.46-11.7L493,223.67c6-3.47,15.08-3.84,20.28-.84l218.06,125.9c5.19,3,4.54,8.24-1.46,11.7l-443.38,256C280.54,619.89,271.46,620.26,266.26,617.26Z"/><path class="cls-24" d="M734.89,302.66l-11.12,6.68L513.32,187.83c-5.2-3-14.28-2.62-20.28.84l-436.4,252L44.7,435.29v16.26h0c.1,1.81,1.25,3.53,3.5,4.83L266.26,582.26c5.2,3,14.28,2.63,20.28-.84l443.38-256c3.38-1.95,5.06-4.47,5-6.83h0Z"/><path class="cls-6" d="M56.64,440.63,44.7,435.29v16.26h0c.1,1.81,1.25,3.53,3.5,4.83l.46.26a5,5,0,0,1-1-2.73h0V437.65L59.55,443l16.86-9.73c-.77-.91-1.56-1.81-2.38-2.68Z"/><path class="cls-2" d="M723.77,309.34l-103.3-59.65-3.13,2L721,311.55l11.11-6.68v16h0a6.27,6.27,0,0,1-1.92,4.46c3.22-1.93,4.83-4.37,4.73-6.68h0v-16Z"/><path class="cls-25" d="M266.26,566.18,48.2,440.28c-5.2-3-4.54-8.24,1.46-11.71L493,172.58c6-3.46,15.08-3.84,20.28-.84l218.06,125.9c5.19,3,4.54,8.24-1.46,11.71l-443.38,256C280.54,568.8,271.46,569.18,266.26,566.18Z"/><path class="cls-6" d="M269.28,566.18,51.22,440.28c-5.2-3-4.55-8.24,1.45-11.71l443.38-256a23.15,23.15,0,0,1,10.06-2.8,23.9,23.9,0,0,0-13.07,2.8l-443.38,256c-6,3.47-6.66,8.71-1.46,11.71l218.06,125.9a18.85,18.85,0,0,0,10.22,2A16.92,16.92,0,0,1,269.28,566.18Z"/><path class="cls-2" d="M731.38,297.64,513.32,171.74a18.9,18.9,0,0,0-10.21-2,17,17,0,0,1,7.29,2l218.06,125.9c5.2,3,4.55,8.24-1.45,11.71l-443.39,256a23,23,0,0,1-10.07,2.81,23.77,23.77,0,0,0,13-2.81l443.38-256C735.92,305.88,736.57,300.64,731.38,297.64Z"/><polygon class="cls-26" points="291.13 558.44 61.61 425.92 485.77 181.03 715.29 313.55 291.13 558.44"/><polygon class="cls-27" points="314.57 512.98 140.34 412.38 462.32 226.49 636.55 327.08 314.57 512.98"/><path class="cls-28" d="M621.86,249.26,597.11,235c-.93-.54-.82-1.48.26-2.1h0a4.07,4.07,0,0,1,3.65-.15L625.76,247c.94.54.82,1.48-.26,2.1h0A4,4,0,0,1,621.86,249.26Z"/><path class="cls-29" d="M254.27,268.26s10.64-117.59,33.45-104.37,11.79,81.39,35.45,95.05c23.29,13.44,10.6-194.71,45.76-174.41,25.23,14.57,17.16,172.66,39.68,185.66,25.28,14.6,18-45,40.45-42.26,12.86,1.55,19.61,40.22,37.86,49s9.54-158.81,38.39-142.16c29.2,16.86,37.64,311.9,37.64,311.9Z"/><path class="cls-23" d="M288.74,162.78a4.85,4.85,0,1,1-4.85-4.84A4.85,4.85,0,0,1,288.74,162.78Z"/><path class="cls-23" d="M369.14,83.13a4.85,4.85,0,1,1-4.84-4.84A4.85,4.85,0,0,1,369.14,83.13Z"/><path class="cls-23" d="M453.26,227.56a4.85,4.85,0,1,1-4.85-4.85A4.85,4.85,0,0,1,453.26,227.56Z"/><path class="cls-23" d="M526.36,133.07a4.85,4.85,0,1,1-4.85-4.84A4.85,4.85,0,0,1,526.36,133.07Z"/><path class="cls-30" d="M183.47,303.2s7.95-116.81,25-106.94,8.8,78.26,26.46,88.45c17.37,10,7.91-169.54,34.14-154.39,18.84,10.87,12.81,71,29.62,80.68,18.86,10.89,15.6-19,30.19-10.56S343.48,246.88,357.1,253s7.12-130,28.65-117.53c21.8,12.58,28.09,300.9,28.09,300.9Z"/><path class="cls-23" d="M211.89,195.74a4.85,4.85,0,1,1-4.84-4.84A4.85,4.85,0,0,1,211.89,195.74Z"/><path class="cls-23" d="M271,129.41a4.85,4.85,0,1,1-4.85-4.84A4.85,4.85,0,0,1,271,129.41Z"/><path class="cls-23" d="M329.07,199.21a4.85,4.85,0,1,1-4.85-4.84A4.85,4.85,0,0,1,329.07,199.21Z"/><path class="cls-23" d="M387.71,135a4.85,4.85,0,1,1-4.85-4.84A4.85,4.85,0,0,1,387.71,135Z"/><polygon class="cls-9" points="277.11 445.36 242.24 425.23 254.44 418.18 289.31 438.32 277.11 445.36"/><polygon class="cls-30" points="298.84 432.99 263.97 412.85 276.17 405.81 311.04 425.94 298.84 432.99"/><path class="cls-31" d="M207.05,317.83a1,1,0,0,1-1-1V195.74a1,1,0,0,1,2,0V316.83A1,1,0,0,1,207.05,317.83Z"/><path class="cls-31" d="M266.19,352a1,1,0,0,1-1-1V129.41a1,1,0,0,1,2,0V351A1,1,0,0,1,266.19,352Z"/><path class="cls-31" d="M324.22,385.56a1,1,0,0,1-1-1V199.21a1,1,0,1,1,2,0V384.55A1,1,0,0,1,324.22,385.56Z"/><path class="cls-31" d="M382.86,419.21a1,1,0,0,1-1-1V135.45a1,1,0,1,1,2,0V418.2A1,1,0,0,1,382.86,419.21Z"/><path class="cls-23" d="M135.61,247.35a1,1,0,0,1-.83-.42,1,1,0,0,1,.24-1.41L206.37,195l59.07-66.25a1,1,0,0,1,1.53,0l57.29,68.91,57.86-63.34,68.7-80.44a1,1,0,1,1,1.53,1.31l-68.72,80.47L325,199.89a1,1,0,0,1-.76.33,1.06,1.06,0,0,1-.76-.36L266.16,131,207.8,196.41a1.29,1.29,0,0,1-.17.16l-71.44,50.6A1,1,0,0,1,135.61,247.35Z"/><path class="cls-4" d="M678,463l-24.74-14.27c-3-1.73-2.63-4.76.84-6.76L678,428.19c3.46-2,8.71-2.22,11.71-.48L714.42,442c3,1.74,2.63,4.77-.84,6.77l-23.84,13.78C686.28,464.53,681,464.74,678,463Z"/><path class="cls-32" d="M683,468.27a12.89,12.89,0,0,1-6.34-1.46L647.3,449.89a4.71,4.71,0,0,1-2.7-4c0-1.86,1.34-3.7,3.7-5.06l28.27-16.35c4.27-2.47,10.78-2.73,14.5-.58l29.34,16.93a4.7,4.7,0,0,1,2.7,4c0,1.86-1.35,3.7-3.7,5.06l-28.27,16.35A16.82,16.82,0,0,1,683,468.27Zm1.75-44.65a15.54,15.54,0,0,0-7.56,1.9L648.9,441.87c-2,1.14-3.11,2.6-3.11,4a3.6,3.6,0,0,0,2.11,3l29.34,16.92c3.39,2,9.36,1.7,13.3-.58l28.27-16.35c2-1.14,3.11-2.61,3.11-4a3.6,3.6,0,0,0-2.11-3l-29.34-16.92A11.73,11.73,0,0,0,684.73,423.62Z"/><path class="cls-33" d="M716.45,417.53h-21l-5.82-3.34c-3-1.74-8.25-1.52-11.71.48L672.21,418H651.27v14.06h0a3.38,3.38,0,0,0,2,3.14L678,449.49c3,1.73,8.25,1.52,11.71-.49l23.84-13.78c1.8-1,2.76-2.36,2.85-3.63h0Z"/><path class="cls-34" d="M713.58,434.25,689.74,448c-3.46,2-8.71,2.21-11.71.48l-24.74-14.27a3.38,3.38,0,0,1-2-3.13h0v1h0a3.38,3.38,0,0,0,2,3.14L678,449.49c3,1.73,8.25,1.52,11.71-.49l23.84-13.78c1.8-1,2.76-2.36,2.85-3.63h0v-1h0C716.34,431.89,715.38,433.21,713.58,434.25Z"/><path class="cls-6" d="M652.6,433.05h0V419h20.94l5.76-3.35c3.47-2,8.71-2.22,11.72-.48l5.81,3.34h19.63v-1h-21l-5.82-3.34c-3-1.74-8.25-1.52-11.71.48L672.21,418H651.27v14.06h0a3.38,3.38,0,0,0,2,3.14l.24.14A2.94,2.94,0,0,1,652.6,433.05Z"/><path class="cls-35" d="M678,435.43l-24.74-14.27c-3-1.73-2.63-4.76.84-6.77L678,400.61c3.46-2,8.71-2.22,11.71-.49l24.74,14.27c3,1.73,2.63,4.76-.84,6.77l-23.84,13.78C686.28,436.94,681,437.16,678,435.43Z"/><path class="cls-2" d="M714.42,414.39l-24.74-14.27a11,11,0,0,0-5.91-1.14,9.86,9.86,0,0,1,4.26,1.14l24.74,14.27c3,1.73,2.62,4.76-.84,6.77l-23.84,13.78a13.34,13.34,0,0,1-5.8,1.63,13.77,13.77,0,0,0,7.45-1.63l23.84-13.78C717.05,419.15,717.42,416.12,714.42,414.39Z"/><path class="cls-6" d="M679.92,435.43l-24.74-14.27c-3-1.73-2.62-4.76.84-6.77l23.84-13.78a13.36,13.36,0,0,1,5.71-1.62,13.75,13.75,0,0,0-7.6,1.62l-23.84,13.78c-3.47,2-3.85,5-.84,6.77L678,435.43a11,11,0,0,0,6,1.13A9.72,9.72,0,0,1,679.92,435.43Z"/><path class="cls-2" d="M696,424.76c-6.68,3.85-17.51,3.85-24.19,0s-6.68-10.11,0-14,17.51-3.85,24.19,0S702.63,420.9,696,424.76Z"/><path class="cls-8" d="M671.76,414.47c6.68-3.86,17.51-3.86,24.19,0a9.83,9.83,0,0,1,4.71,5.14c1-3.09-.56-6.42-4.71-8.82-6.68-3.85-17.51-3.85-24.19,0-4.15,2.4-5.72,5.72-4.71,8.82A9.79,9.79,0,0,1,671.76,414.47Z"/><path class="cls-4" d="M582.18,519.78l-24.74-14.27c-3-1.73-2.63-4.76.84-6.76L582.12,485c3.46-2,8.71-2.22,11.71-.48l24.74,14.26c3,1.74,2.63,4.77-.84,6.77l-23.84,13.78C590.43,521.3,585.18,521.51,582.18,519.78Z"/><path class="cls-36" d="M587.13,525a12.91,12.91,0,0,1-6.34-1.46l-29.34-16.92a4.73,4.73,0,0,1-2.7-4c0-1.86,1.35-3.7,3.7-5.06l28.27-16.35c4.27-2.47,10.78-2.73,14.5-.58l29.34,16.93a4.7,4.7,0,0,1,2.7,4c0,1.86-1.35,3.7-3.7,5.06L595.29,523A16.82,16.82,0,0,1,587.13,525Zm1.75-44.65a15.54,15.54,0,0,0-7.56,1.9l-28.27,16.35c-2,1.14-3.11,2.6-3.11,4a3.6,3.6,0,0,0,2.11,3l29.34,16.92c3.39,2,9.36,1.69,13.3-.58L623,505.62c2-1.14,3.11-2.61,3.11-4a3.6,3.6,0,0,0-2.11-3l-29.34-16.92A11.73,11.73,0,0,0,588.88,480.39Z"/><path class="cls-37" d="M620.6,474.3h-21L593.83,471c-3-1.74-8.25-1.52-11.71.48l-5.76,3.35H555.42v14.06h0a3.38,3.38,0,0,0,2,3.14l24.74,14.27c3,1.73,8.25,1.52,11.71-.49L617.73,492c1.8-1,2.76-2.36,2.85-3.63h0Z"/><path class="cls-38" d="M617.73,491l-23.84,13.79c-3.46,2-8.71,2.21-11.71.48L557.44,491a3.38,3.38,0,0,1-2-3.13h0v1h0a3.38,3.38,0,0,0,2,3.14l24.74,14.27c3,1.73,8.25,1.52,11.71-.49L617.73,492c1.8-1,2.76-2.36,2.85-3.63h0v-1h0C620.49,488.66,619.53,490,617.73,491Z"/><path class="cls-6" d="M556.75,489.82h0V475.76h20.94l5.76-3.35c3.47-2,8.71-2.22,11.72-.48l5.81,3.34H620.6v-1h-21L593.83,471c-3-1.74-8.25-1.52-11.71.48l-5.76,3.35H555.42v14.06h0a3.38,3.38,0,0,0,2,3.14l.24.14A2.94,2.94,0,0,1,556.75,489.82Z"/><path class="cls-39" d="M582.18,492.2l-24.74-14.27c-3-1.73-2.63-4.76.84-6.77l23.84-13.78c3.46-2,8.71-2.22,11.71-.49l24.74,14.27c3,1.73,2.63,4.76-.84,6.77l-23.84,13.78C590.43,493.71,585.18,493.93,582.18,492.2Z"/><path class="cls-2" d="M618.57,471.16l-24.74-14.27a11,11,0,0,0-5.91-1.14,9.86,9.86,0,0,1,4.26,1.14l24.74,14.27c3,1.73,2.63,4.76-.84,6.77l-23.84,13.78a13.34,13.34,0,0,1-5.8,1.63,13.77,13.77,0,0,0,7.45-1.63l23.84-13.78C621.2,475.92,621.57,472.89,618.57,471.16Z"/><path class="cls-6" d="M584.07,492.2l-24.74-14.27c-3-1.73-2.62-4.76.85-6.77L584,457.38a13.36,13.36,0,0,1,5.71-1.62,13.75,13.75,0,0,0-7.6,1.62l-23.84,13.78c-3.47,2-3.84,5-.84,6.77l24.74,14.27a11,11,0,0,0,6,1.13A9.72,9.72,0,0,1,584.07,492.2Z"/><path class="cls-2" d="M600.1,481.53c-6.68,3.85-17.51,3.85-24.19,0s-6.68-10.11,0-14,17.51-3.85,24.19,0S606.78,477.67,600.1,481.53Z"/><path class="cls-8" d="M575.91,471.24c6.68-3.86,17.51-3.86,24.19,0a9.79,9.79,0,0,1,4.71,5.14c1-3.09-.56-6.42-4.71-8.82-6.68-3.85-17.51-3.85-24.19,0-4.15,2.4-5.72,5.72-4.71,8.82A9.79,9.79,0,0,1,575.91,471.24Z"/><path class="cls-4" d="M486.33,576.55l-24.74-14.27c-3-1.73-2.63-4.76.84-6.76l23.84-13.79c3.46-2,8.71-2.22,11.72-.48l24.73,14.26c3,1.74,2.63,4.77-.84,6.77L498,576.06C494.58,578.07,489.33,578.28,486.33,576.55Z"/><path class="cls-40" d="M491.28,581.81a12.91,12.91,0,0,1-6.34-1.46L455.6,563.43a4.73,4.73,0,0,1-2.7-4c0-1.86,1.35-3.7,3.7-5.06L484.87,538c4.27-2.47,10.78-2.73,14.5-.58l29.34,16.93a4.7,4.7,0,0,1,2.7,4c0,1.86-1.34,3.7-3.7,5.06l-28.27,16.35A16.82,16.82,0,0,1,491.28,581.81ZM493,537.16a15.54,15.54,0,0,0-7.56,1.9L457.2,555.41c-2,1.14-3.11,2.6-3.11,4a3.6,3.6,0,0,0,2.11,3l29.34,16.92c3.39,1.95,9.36,1.7,13.3-.58l28.27-16.35c2-1.14,3.11-2.61,3.11-4a3.6,3.6,0,0,0-2.11-3l-29.34-16.92A11.73,11.73,0,0,0,493,537.16Z"/><path class="cls-41" d="M524.75,531.07H503.8L498,527.73c-3-1.74-8.26-1.52-11.72.48l-5.76,3.35H459.57v14.06h0a3.38,3.38,0,0,0,2,3.14L486.33,563c3,1.73,8.25,1.52,11.71-.49l23.84-13.78c1.8-1,2.76-2.36,2.85-3.63h0Z"/><path class="cls-42" d="M521.88,547.79,498,561.58c-3.46,2-8.71,2.21-11.71.48l-24.74-14.27a3.38,3.38,0,0,1-2-3.13h0v1h0a3.38,3.38,0,0,0,2,3.14L486.33,563c3,1.73,8.25,1.52,11.71-.49l23.84-13.78c1.8-1,2.76-2.36,2.85-3.63h0v-1h0C524.64,545.43,523.68,546.75,521.88,547.79Z"/><path class="cls-6" d="M460.9,546.59h0V532.53h20.94l5.76-3.35c3.47-2,8.71-2.22,11.72-.48l5.81,3.34h19.63v-1H503.8L498,527.73c-3-1.74-8.26-1.52-11.72.48l-5.76,3.35H459.57v14.06h0a3.38,3.38,0,0,0,2,3.14l.24.14A2.94,2.94,0,0,1,460.9,546.59Z"/><path class="cls-43" d="M486.33,549,461.59,534.7c-3-1.73-2.63-4.76.84-6.77l23.84-13.78c3.46-2,8.71-2.22,11.72-.49l24.73,14.27c3,1.73,2.63,4.76-.84,6.77L498,548.48C494.58,550.48,489.33,550.7,486.33,549Z"/><path class="cls-2" d="M522.72,527.93,498,513.66a11.06,11.06,0,0,0-5.92-1.14,9.86,9.86,0,0,1,4.26,1.14l24.74,14.27c3,1.73,2.63,4.76-.84,6.77l-23.84,13.78a13.3,13.3,0,0,1-5.8,1.63,13.77,13.77,0,0,0,7.45-1.63l23.84-13.78C525.35,532.69,525.73,529.66,522.72,527.93Z"/><path class="cls-6" d="M488.22,549,463.48,534.7c-3-1.73-2.62-4.76.85-6.77l23.83-13.78a13.4,13.4,0,0,1,5.71-1.62,13.75,13.75,0,0,0-7.6,1.62l-23.84,13.78c-3.47,2-3.84,5-.84,6.77L486.33,549a11,11,0,0,0,6,1.13A9.72,9.72,0,0,1,488.22,549Z"/><path class="cls-2" d="M504.25,538.3c-6.68,3.85-17.51,3.85-24.19,0s-6.68-10.11,0-14,17.51-3.85,24.19,0S510.93,534.44,504.25,538.3Z"/><path class="cls-8" d="M480.06,528c6.68-3.86,17.51-3.86,24.19,0a9.77,9.77,0,0,1,4.71,5.15c1-3.1-.56-6.43-4.71-8.83-6.68-3.85-17.51-3.85-24.19,0-4.15,2.4-5.72,5.72-4.71,8.82A9.83,9.83,0,0,1,480.06,528Z"/></g></svg>