<svg xmlns="http://www.w3.org/2000/svg" xmlns:xlink="http://www.w3.org/1999/xlink" viewBox="0 0 372.02 458.23"><defs><style>.cls-1{fill:url(#New_Gradient_Swatch_1);}.cls-2{fill:none;}.cls-3{isolation:isolate;}.cls-162,.cls-4{opacity:0.2;}.cls-5{opacity:0;}.cls-6{opacity:0.09;}.cls-7{opacity:0.18;}.cls-8{opacity:0.27;}.cls-9{opacity:0.36;}.cls-10{opacity:0.45;}.cls-11{opacity:0.55;}.cls-12{opacity:0.64;}.cls-13{opacity:0.73;}.cls-14{opacity:0.82;}.cls-15{opacity:0.91;}.cls-16,.cls-17,.cls-18,.cls-19,.cls-20,.cls-22,.cls-26{fill:#89846b;}.cls-16,.cls-21{opacity:0.8;}.cls-106,.cls-109,.cls-119,.cls-122,.cls-132,.cls-135,.cls-145,.cls-146,.cls-149,.cls-16,.cls-17,.cls-175,.cls-18,.cls-19,.cls-20,.cls-21,.cls-28,.cls-33,.cls-56,.cls-57,.cls-65,.cls-75,.cls-78,.cls-79,.cls-93,.cls-96{mix-blend-mode:color-dodge;}.cls-17,.cls-34{opacity:0.6;}.cls-18{opacity:0.4;}.cls-19{opacity:0.25;}.cls-20,.cls-80{opacity:0.15;}.cls-23{fill:url(#linear-gradient);}.cls-24{fill:#042929;}.cls-25{fill:url(#linear-gradient-2);}.cls-105,.cls-118,.cls-131,.cls-133,.cls-144,.cls-147,.cls-26,.cls-39,.cls-53,.cls-72,.cls-73,.cls-74,.cls-76,.cls-92{mix-blend-mode:multiply;}.cls-27{fill:url(#linear-gradient-3);}.cls-28{fill:url(#Radial_Gradient_1);}.cls-29{mask:url(#mask);}.cls-175,.cls-30{opacity:0.3;}.cls-31{fill:url(#linear-gradient-4);}.cls-32{fill:url(#linear-gradient-5);}.cls-33{fill:url(#radial-gradient);}.cls-102,.cls-104,.cls-115,.cls-117,.cls-128,.cls-130,.cls-141,.cls-143,.cls-34,.cls-50,.cls-51,.cls-54,.cls-89,.cls-91{mix-blend-mode:screen;}.cls-34{fill:url(#radial-gradient-2);}.cls-35{fill:url(#linear-gradient-6);}.cls-36{fill:url(#linear-gradient-7);}.cls-37{fill:url(#linear-gradient-8);}.cls-38{fill:url(#linear-gradient-9);}.cls-39,.cls-48{fill:#ffffd3;}.cls-40{fill:url(#New_Gradient_Swatch_copy_42);}.cls-41{fill:url(#New_Gradient_Swatch_copy_42-2);}.cls-42{fill:url(#New_Gradient_Swatch_copy_42-3);}.cls-43{fill:url(#New_Gradient_Swatch_copy_42-4);}.cls-44{fill:url(#New_Gradient_Swatch_copy_42-5);}.cls-45{fill:url(#New_Gradient_Swatch_copy_42-6);}.cls-46{fill:url(#New_Gradient_Swatch_copy_42-7);}.cls-47{fill:url(#New_Gradient_Swatch_copy_41);}.cls-49{fill:#fff;}.cls-50{fill:url(#linear-gradient-10);}.cls-51{opacity:0.7;}.cls-52{fill:url(#linear-gradient-11);}.cls-53{fill:#defe7f;}.cls-55{fill:#c3ffa6;}.cls-56{fill:url(#radial-gradient-3);}.cls-57{fill:url(#radial-gradient-4);}.cls-58{fill:url(#New_Gradient_Swatch_copy_40);}.cls-59{fill:url(#New_Gradient_Swatch_copy_40-2);}.cls-60{fill:url(#New_Gradient_Swatch_copy_40-3);}.cls-61{fill:url(#linear-gradient-12);}.cls-62{fill:url(#linear-gradient-13);}.cls-63{fill:url(#linear-gradient-14);}.cls-64{fill:url(#linear-gradient-15);}.cls-66{fill:url(#Radial_Gradient_1-2);}.cls-67{fill:url(#Radial_Gradient_1-3);}.cls-68{clip-path:url(#clip-path);}.cls-69{fill:url(#linear-gradient-16);}.cls-70{fill:url(#New_Gradient_Swatch_copy_31);}.cls-71{fill:url(#New_Gradient_Swatch_copy_31-2);}.cls-72{fill:url(#linear-gradient-17);}.cls-74{fill:url(#linear-gradient-18);}.cls-75{fill:url(#Radial_Gradient_1-4);}.cls-76{fill:url(#linear-gradient-19);}.cls-77{fill:url(#New_Gradient_Swatch_copy_31-3);}.cls-78{opacity:0.5;fill:url(#radial-gradient-5);}.cls-79{fill:url(#radial-gradient-6);}.cls-81{fill:url(#linear-gradient-20);}.cls-82{fill:url(#linear-gradient-21);}.cls-83{fill:url(#linear-gradient-22);}.cls-84{fill:url(#linear-gradient-23);}.cls-85{fill:url(#linear-gradient-24);}.cls-86{fill:url(#linear-gradient-25);}.cls-87{fill:url(#linear-gradient-26);}.cls-88{fill:url(#linear-gradient-27);}.cls-89{fill:url(#White_Black_Radial);}.cls-90{fill:url(#linear-gradient-28);}.cls-91{fill:url(#White_Black_Radial-2);}.cls-92{fill:url(#linear-gradient-29);}.cls-93{fill:url(#radial-gradient-7);}.cls-94{fill:url(#linear-gradient-30);}.cls-95{fill:url(#linear-gradient-31);}.cls-96{fill:url(#radial-gradient-8);}.cls-97{fill:url(#linear-gradient-32);}.cls-98{fill:url(#linear-gradient-33);}.cls-99{fill:url(#linear-gradient-34);}.cls-100{fill:url(#linear-gradient-35);}.cls-101{fill:url(#linear-gradient-36);}.cls-102{fill:url(#White_Black_Radial-3);}.cls-103{fill:url(#linear-gradient-37);}.cls-104{fill:url(#White_Black_Radial-4);}.cls-105{fill:url(#linear-gradient-38);}.cls-106{fill:url(#radial-gradient-9);}.cls-107{fill:url(#linear-gradient-39);}.cls-108{fill:url(#linear-gradient-40);}.cls-109{fill:url(#radial-gradient-10);}.cls-110{fill:url(#linear-gradient-41);}.cls-111{fill:url(#linear-gradient-42);}.cls-112{fill:url(#linear-gradient-43);}.cls-113{fill:url(#linear-gradient-44);}.cls-114{fill:url(#linear-gradient-45);}.cls-115{fill:url(#White_Black_Radial-5);}.cls-116{fill:url(#linear-gradient-46);}.cls-117{fill:url(#White_Black_Radial-6);}.cls-118{fill:url(#linear-gradient-47);}.cls-119{fill:url(#radial-gradient-11);}.cls-120{fill:url(#linear-gradient-48);}.cls-121{fill:url(#linear-gradient-49);}.cls-122{fill:url(#radial-gradient-12);}.cls-123{fill:url(#linear-gradient-50);}.cls-124{fill:url(#linear-gradient-51);}.cls-125{fill:url(#linear-gradient-52);}.cls-126{fill:url(#linear-gradient-53);}.cls-127{fill:url(#linear-gradient-54);}.cls-128{fill:url(#White_Black_Radial-7);}.cls-129{fill:url(#linear-gradient-55);}.cls-130{fill:url(#White_Black_Radial-8);}.cls-131{fill:url(#linear-gradient-56);}.cls-132{fill:url(#radial-gradient-13);}.cls-133{fill:url(#linear-gradient-57);}.cls-134{fill:url(#linear-gradient-58);}.cls-135{fill:url(#radial-gradient-14);}.cls-136{fill:url(#linear-gradient-59);}.cls-137{fill:url(#linear-gradient-60);}.cls-138{fill:url(#linear-gradient-61);}.cls-139{fill:url(#linear-gradient-62);}.cls-140{fill:url(#linear-gradient-63);}.cls-141{fill:url(#White_Black_Radial-9);}.cls-142{fill:url(#linear-gradient-64);}.cls-143{fill:url(#White_Black_Radial-10);}.cls-144{fill:url(#linear-gradient-65);}.cls-145{fill:url(#radial-gradient-15);}.cls-146{fill:url(#radial-gradient-16);}.cls-147{fill:url(#linear-gradient-66);}.cls-148{fill:url(#linear-gradient-67);}.cls-149{fill:url(#radial-gradient-17);}.cls-150{fill:url(#linear-gradient-68);}.cls-151{fill:url(#New_Gradient_Swatch_copy_28);}.cls-152{fill:url(#New_Gradient_Swatch_copy_28-2);}.cls-153{fill:url(#New_Gradient_Swatch_copy_28-3);}.cls-154{fill:url(#New_Gradient_Swatch_copy_28-4);}.cls-155{fill:url(#New_Gradient_Swatch_copy_28-5);}.cls-156{fill:url(#New_Gradient_Swatch_copy_28-6);}.cls-157{fill:url(#New_Gradient_Swatch_copy_28-7);}.cls-158{fill:url(#New_Gradient_Swatch_copy_28-8);}.cls-159{fill:url(#New_Gradient_Swatch_copy_28-9);}.cls-160{fill:url(#New_Gradient_Swatch_copy_28-10);}.cls-161{fill:url(#New_Gradient_Swatch_copy_28-11);}.cls-162{fill:url(#New_Gradient_Swatch_copy_28-12);}.cls-163{fill:url(#New_Gradient_Swatch_copy_28-13);}.cls-164{fill:url(#New_Gradient_Swatch_copy_28-14);}.cls-165{fill:url(#New_Gradient_Swatch_copy_28-15);}.cls-166{fill:url(#New_Gradient_Swatch_copy_28-16);}.cls-167{fill:url(#New_Gradient_Swatch_copy_28-17);}.cls-168{fill:url(#New_Gradient_Swatch_copy_28-18);}.cls-169{fill:url(#New_Gradient_Swatch_copy_28-19);}.cls-170{fill:url(#Radial_Gradient_1-5);}.cls-171{fill:url(#Radial_Gradient_1-6);}.cls-172{fill:url(#Radial_Gradient_1-7);}.cls-173{fill:url(#Radial_Gradient_1-8);}.cls-174{fill:url(#Radial_Gradient_1-9);}.cls-175{fill:url(#radial-gradient-18);}.cls-176{fill:url(#linear-gradient-69);}.cls-177{fill:url(#linear-gradient-70);}.cls-178{fill:url(#linear-gradient-71);}.cls-179{fill:url(#linear-gradient-72);}.cls-180{fill:url(#linear-gradient-73);}.cls-181{fill:url(#linear-gradient-74);}.cls-182{fill:url(#linear-gradient-75);}.cls-183{fill:url(#linear-gradient-76);}.cls-184{fill:url(#linear-gradient-77);}.cls-185{fill:url(#linear-gradient-78);}.cls-186{fill:url(#linear-gradient-79);}.cls-187{fill:url(#linear-gradient-80);}.cls-188{fill:url(#linear-gradient-81);}.cls-189{fill:url(#linear-gradient-82);}.cls-190{fill:url(#linear-gradient-83);}.cls-191{fill:url(#linear-gradient-84);}.cls-192{fill:url(#Radial_Gradient_1-10);}.cls-193{fill:url(#Radial_Gradient_1-11);}.cls-194{fill:url(#Radial_Gradient_1-12);}.cls-195{fill:url(#Radial_Gradient_1-13);}</style><linearGradient id="New_Gradient_Swatch_1" x1="42.51" y1="258.72" x2="55.76" y2="304.72" gradientUnits="userSpaceOnUse"><stop offset="0" stop-color="#fff"/><stop offset="1"/></linearGradient><linearGradient id="linear-gradient" x1="322.96" y1="168.6" x2="-118.71" y2="300.6" gradientUnits="userSpaceOnUse"><stop offset="0.01" stop-color="#fffe9f"/><stop offset="0.2" stop-color="#defe7f"/><stop offset="0.22" stop-color="#dcfe81"/><stop offset="0.6" stop-color="#c3ffa6"/><stop offset="0.63" stop-color="#bbf6a1"/><stop offset="0.7" stop-color="#a6de93"/><stop offset="0.78" stop-color="#82b77c"/><stop offset="0.87" stop-color="#52805c"/><stop offset="0.97" stop-color="#143b34"/><stop offset="1" stop-color="#042929"/></linearGradient><linearGradient id="linear-gradient-2" x1="401.98" y1="143.09" x2="-183.39" y2="318.04" xlink:href="#linear-gradient"/><linearGradient id="linear-gradient-3" x1="346.82" y1="144.69" x2="-1.11" y2="303.1" xlink:href="#linear-gradient"/><radialGradient id="Radial_Gradient_1" cx="97.56" cy="219.24" r="59.61" xlink:href="#New_Gradient_Swatch_1"/><mask id="mask" x="25.2" y="253.95" width="53.25" height="74.25" maskUnits="userSpaceOnUse"><rect class="cls-1" x="25.2" y="253.95" width="53.25" height="74.25"/></mask><linearGradient id="linear-gradient-4" x1="-1385.03" y1="2586.23" x2="-1525.72" y2="2650.29" gradientTransform="matrix(0.46, 0.89, 0.89, -0.46, -1614.14, 2815.6)" xlink:href="#linear-gradient"/><linearGradient id="linear-gradient-5" x1="118.33" y1="65.74" x2="229.89" y2="258.97" gradientUnits="userSpaceOnUse"><stop offset="0.06" stop-color="#0e1522"/><stop offset="0.41" stop-color="#0e1522"/><stop offset="0.47" stop-color="#0e1522"/><stop offset="0.48" stop-color="#121925"/><stop offset="0.49" stop-color="#20252c"/><stop offset="0.5" stop-color="#353939"/><stop offset="0.51" stop-color="#54544c"/><stop offset="0.53" stop-color="#7b7763"/><stop offset="0.53" stop-color="#89846b"/><stop offset="0.53" stop-color="#87826a"/><stop offset="0.55" stop-color="#5c5b50"/><stop offset="0.57" stop-color="#3a3d3c"/><stop offset="0.59" stop-color="#22272e"/><stop offset="0.61" stop-color="#131a25"/><stop offset="0.63" stop-color="#0e1522"/><stop offset="0.81" stop-color="#0e1522"/><stop offset="1" stop-color="#0e1522"/></linearGradient><radialGradient id="radial-gradient" cx="291.69" cy="144.25" r="209.35" gradientUnits="userSpaceOnUse"><stop offset="0" stop-color="#89846b"/><stop offset="0.14" stop-color="#847f67"/><stop offset="0.32" stop-color="#74705b"/><stop offset="0.52" stop-color="#5b5847"/><stop offset="0.73" stop-color="#37352b"/><stop offset="0.95" stop-color="#0a0a08"/><stop offset="1"/></radialGradient><radialGradient id="radial-gradient-2" cx="256.67" cy="129.29" r="123.34" gradientUnits="userSpaceOnUse"><stop offset="0" stop-color="#c3ffa6"/><stop offset="1" stop-color="#c3ffa6"/></radialGradient><linearGradient id="linear-gradient-6" x1="266.61" y1="243.93" x2="-74.34" y2="137.2" gradientUnits="userSpaceOnUse"><stop offset="0.19" stop-color="#152734"/><stop offset="0.93" stop-color="#152734"/></linearGradient><linearGradient id="linear-gradient-7" x1="271.06" y1="375.89" x2="97.91" y2="10.02" gradientUnits="userSpaceOnUse"><stop offset="0" stop-color="#0e1522"/><stop offset="0.49" stop-color="#0e1522"/><stop offset="1" stop-color="#080b15"/></linearGradient><linearGradient id="linear-gradient-8" x1="144.15" y1="222.61" x2="252.89" y2="222.61" xlink:href="#linear-gradient-7"/><linearGradient id="linear-gradient-9" x1="131.86" y1="95.51" x2="297.3" y2="410.97" gradientUnits="userSpaceOnUse"><stop offset="0.01" stop-color="#826e3d"/><stop offset="0.43" stop-color="#152734"/><stop offset="0.9" stop-color="#152734"/></linearGradient><linearGradient id="New_Gradient_Swatch_copy_42" x1="216.26" y1="159.43" x2="173.79" y2="99.29" gradientUnits="userSpaceOnUse"><stop offset="0.04" stop-color="#defe7f"/><stop offset="0.54" stop-color="#edfe8e"/><stop offset="1" stop-color="#fffe9f"/></linearGradient><linearGradient id="New_Gradient_Swatch_copy_42-2" x1="224.33" y1="153.73" x2="181.86" y2="93.59" xlink:href="#New_Gradient_Swatch_copy_42"/><linearGradient id="New_Gradient_Swatch_copy_42-3" x1="224.73" y1="153.45" x2="182.27" y2="93.31" xlink:href="#New_Gradient_Swatch_copy_42"/><linearGradient id="New_Gradient_Swatch_copy_42-4" x1="215.84" y1="159.73" x2="173.37" y2="99.59" xlink:href="#New_Gradient_Swatch_copy_42"/><linearGradient id="New_Gradient_Swatch_copy_42-5" x1="214.58" y1="160.62" x2="172.11" y2="100.48" xlink:href="#New_Gradient_Swatch_copy_42"/><linearGradient id="New_Gradient_Swatch_copy_42-6" x1="225.44" y1="152.95" x2="182.97" y2="92.81" xlink:href="#New_Gradient_Swatch_copy_42"/><linearGradient id="New_Gradient_Swatch_copy_42-7" x1="203.92" y1="134.47" x2="194.73" y2="116.52" xlink:href="#New_Gradient_Swatch_copy_42"/><linearGradient id="New_Gradient_Swatch_copy_41" x1="133.6" y1="1012.62" x2="119.85" y2="999.25" gradientTransform="matrix(0.87, 0.5, 0, 1.15, 110.76, -838.68)" gradientUnits="userSpaceOnUse"><stop offset="0" stop-color="#defe7f"/><stop offset="0.58" stop-color="#defe7f"/><stop offset="0.65" stop-color="#e2fe8f"/><stop offset="0.79" stop-color="#edfeb8"/><stop offset="0.99" stop-color="#fefffa"/><stop offset="1" stop-color="#fff"/></linearGradient><linearGradient id="linear-gradient-10" x1="197.6" y1="335.18" x2="183.85" y2="334.84" gradientUnits="userSpaceOnUse"><stop offset="0" stop-color="#c3ffa6"/><stop offset="1"/></linearGradient><linearGradient id="linear-gradient-11" x1="346.76" y1="141.49" x2="-0.41" y2="327.91" xlink:href="#linear-gradient"/><radialGradient id="radial-gradient-3" cx="1014.24" cy="3245.79" r="3.75" gradientTransform="matrix(0.87, 0.53, 0.02, -0.98, -762.71, 2812.85)" gradientUnits="userSpaceOnUse"><stop offset="0.39" stop-color="#fff"/><stop offset="0.4" stop-color="#e6e7e8"/><stop offset="0.42" stop-color="#aeb0b5"/><stop offset="0.44" stop-color="#7d8188"/><stop offset="0.46" stop-color="#555a63"/><stop offset="0.49" stop-color="#363c47"/><stop offset="0.51" stop-color="#202632"/><stop offset="0.53" stop-color="#131926"/><stop offset="0.55" stop-color="#0e1522"/><stop offset="0.59" stop-color="#090d15"/><stop offset="0.66" stop-color="#040509"/><stop offset="0.75" stop-color="#010102"/><stop offset="1"/></radialGradient><radialGradient id="radial-gradient-4" cx="1052.57" cy="3171.81" r="3.75" xlink:href="#radial-gradient-3"/><linearGradient id="New_Gradient_Swatch_copy_40" x1="240.32" y1="249.3" x2="168.37" y2="376.7" xlink:href="#linear-gradient"/><linearGradient id="New_Gradient_Swatch_copy_40-2" x1="236.19" y1="248.26" x2="181.08" y2="362.51" xlink:href="#linear-gradient"/><linearGradient id="New_Gradient_Swatch_copy_40-3" x1="251.64" y1="225.67" x2="182.54" y2="359.74" xlink:href="#linear-gradient"/><linearGradient id="linear-gradient-12" x1="318.91" y1="146.57" x2="-115.22" y2="276.32" xlink:href="#linear-gradient"/><linearGradient id="linear-gradient-13" x1="380.58" y1="128.26" x2="106.06" y2="298.03" xlink:href="#linear-gradient"/><linearGradient id="linear-gradient-14" x1="345.46" y1="156.11" x2="194.94" y2="249.18" xlink:href="#linear-gradient"/><linearGradient id="linear-gradient-15" x1="344.92" y1="148.81" x2="123.56" y2="260.79" xlink:href="#linear-gradient"/><radialGradient id="Radial_Gradient_1-2" cx="276.85" cy="187.37" r="15.77" xlink:href="#New_Gradient_Swatch_1"/><radialGradient id="Radial_Gradient_1-3" cx="306.61" cy="137.61" r="37.91" xlink:href="#New_Gradient_Swatch_1"/><clipPath id="clip-path"><polygon class="cls-2" points="93.08 225.43 114.98 243.21 137.57 231.67 120.1 199.63 94.56 190.88 93.15 200.42 93.08 225.43"/></clipPath><linearGradient id="linear-gradient-16" x1="2387.55" y1="208.8" x2="2404.36" y2="239.46" gradientTransform="translate(-2284.93)" gradientUnits="userSpaceOnUse"><stop offset="0" stop-color="#fffe9f"/><stop offset="0.23" stop-color="#89846b"/><stop offset="0.54" stop-color="#89846b"/><stop offset="0.61" stop-color="#8c876c"/><stop offset="0.66" stop-color="#979271"/><stop offset="0.72" stop-color="#a8a479"/><stop offset="0.77" stop-color="#c0bd83"/><stop offset="0.82" stop-color="#dfdd91"/><stop offset="0.86" stop-color="#fffe9f"/><stop offset="0.97" stop-color="#fffe9f"/></linearGradient><linearGradient id="New_Gradient_Swatch_copy_31" x1="2385.53" y1="228.39" x2="2424.79" y2="216.64" gradientTransform="translate(-1843.65 -1175.89) rotate(30.31)" gradientUnits="userSpaceOnUse"><stop offset="0.04" stop-color="#fffe9f"/><stop offset="1" stop-color="#fffe9f"/></linearGradient><linearGradient id="New_Gradient_Swatch_copy_31-2" x1="5.16" y1="232.25" x2="44.3" y2="208.66" gradientTransform="matrix(-0.86, -0.5, -0.5, 0.86, 233.27, 38.28)" xlink:href="#New_Gradient_Swatch_copy_31"/><linearGradient id="linear-gradient-17" x1="2389.55" y1="238.25" x2="2391.62" y2="219.74" xlink:href="#linear-gradient-16"/><linearGradient id="linear-gradient-18" x1="2391.11" y1="206.84" x2="2407.82" y2="237.3" xlink:href="#linear-gradient-16"/><radialGradient id="Radial_Gradient_1-4" cx="2395.41" cy="220.73" r="13.44" gradientTransform="translate(-2284.93)" xlink:href="#New_Gradient_Swatch_1"/><linearGradient id="linear-gradient-19" x1="101.21" y1="226.63" x2="114.06" y2="226.63" gradientTransform="matrix(1, 0, 0, 1, 0, 0)" xlink:href="#linear-gradient-16"/><linearGradient id="New_Gradient_Swatch_copy_31-3" x1="122.68" y1="255.41" x2="86.1" y2="189.7" gradientTransform="matrix(1, 0, 0, 1, 0, 0)" xlink:href="#New_Gradient_Swatch_copy_31"/><radialGradient id="radial-gradient-5" cx="111.63" cy="223.85" r="7.38" xlink:href="#New_Gradient_Swatch_1"/><radialGradient id="radial-gradient-6" cx="-173.57" cy="1863.05" r="15.86" gradientTransform="matrix(-0.02, 1, 1, 0.02, -1708.28, 227.12)" gradientUnits="userSpaceOnUse"><stop offset="0.09" stop-color="#fff"/><stop offset="0.09" stop-color="#e6e7e8"/><stop offset="0.11" stop-color="#aeb0b5"/><stop offset="0.13" stop-color="#7d8188"/><stop offset="0.15" stop-color="#555a63"/><stop offset="0.17" stop-color="#363c47"/><stop offset="0.19" stop-color="#202632"/><stop offset="0.21" stop-color="#131926"/><stop offset="0.23" stop-color="#0e1522"/><stop offset="0.3" stop-color="#090d15"/><stop offset="0.42" stop-color="#040509"/><stop offset="0.58" stop-color="#010102"/><stop offset="1"/></radialGradient><linearGradient id="linear-gradient-20" x1="274.76" y1="380.34" x2="274.77" y2="380.34" gradientTransform="matrix(1, 0, 0, 1, 0, 0)" xlink:href="#linear-gradient-16"/><linearGradient id="linear-gradient-21" x1="274.93" y1="386.04" x2="308.62" y2="386.04" gradientTransform="matrix(1, 0, 0, 1, 0, 0)" xlink:href="#linear-gradient-16"/><linearGradient id="linear-gradient-22" x1="308.99" y1="380.34" x2="309" y2="380.34" gradientTransform="matrix(1, 0, 0, 1, 0, 0)" xlink:href="#linear-gradient-16"/><linearGradient id="linear-gradient-23" x1="274.97" y1="381.56" x2="308.67" y2="381.56" gradientTransform="matrix(1, 0, 0, 1, 0, 0)" xlink:href="#linear-gradient-16"/><linearGradient id="linear-gradient-24" x1="274.81" y1="378.35" x2="274.81" y2="378.35" gradientTransform="matrix(1, 0, 0, 1, 0, 0)" xlink:href="#linear-gradient-16"/><linearGradient id="linear-gradient-25" x1="274.97" y1="383.51" x2="308.67" y2="383.51" gradientTransform="matrix(1, 0, 0, 1, 0, 0)" xlink:href="#linear-gradient-16"/><linearGradient id="linear-gradient-26" x1="309.04" y1="378.35" x2="309.04" y2="378.35" gradientTransform="matrix(1, 0, 0, 1, 0, 0)" xlink:href="#linear-gradient-16"/><linearGradient id="linear-gradient-27" x1="323.56" y1="342.33" x2="290.07" y2="376.03" gradientTransform="matrix(1, 0, 0, 1, 0, 0)" xlink:href="#New_Gradient_Swatch_copy_31"/><radialGradient id="White_Black_Radial" cx="284.57" cy="381.49" r="21.52" xlink:href="#New_Gradient_Swatch_1"/><linearGradient id="linear-gradient-28" x1="305.68" y1="360.32" x2="280.65" y2="385.51" gradientTransform="matrix(1, 0, 0, 1, 0, 0)" xlink:href="#New_Gradient_Swatch_copy_31"/><radialGradient id="White_Black_Radial-2" cx="297.95" cy="365.99" r="9.46" xlink:href="#New_Gradient_Swatch_1"/><linearGradient id="linear-gradient-29" x1="310.29" y1="354.86" x2="286.67" y2="378.63" gradientTransform="matrix(1, 0, 0, 1, 0, 0)" xlink:href="#linear-gradient-16"/><radialGradient id="radial-gradient-7" cx="13676.91" cy="-1448.73" r="24.3" gradientTransform="matrix(0.05, -0.14, 0.29, 0.1, 54.35, 2451.52)" gradientUnits="userSpaceOnUse"><stop offset="0" stop-color="#defe7f"/><stop offset="0.01" stop-color="#d8f77b"/><stop offset="0.13" stop-color="#a6be5f"/><stop offset="0.25" stop-color="#7a8b46"/><stop offset="0.37" stop-color="#546030"/><stop offset="0.49" stop-color="#363e1f"/><stop offset="0.62" stop-color="#1e2311"/><stop offset="0.74" stop-color="#0d0f08"/><stop offset="0.87" stop-color="#030402"/><stop offset="1"/></radialGradient><linearGradient id="linear-gradient-30" x1="285.53" y1="374.25" x2="298.29" y2="374.25" gradientTransform="matrix(1, 0, 0, 1, 0, 0)" xlink:href="#linear-gradient-16"/><linearGradient id="linear-gradient-31" x1="304.42" y1="366.93" x2="293.54" y2="372.87" gradientTransform="matrix(1, 0, 0, 1, 0, 0)" xlink:href="#New_Gradient_Swatch_copy_31"/><radialGradient id="radial-gradient-8" cx="283.18" cy="374.67" r="11.42" gradientTransform="matrix(1, 0, 0, 1, 0, 0)" xlink:href="#radial-gradient-7"/><linearGradient id="linear-gradient-32" x1="274.97" y1="376.16" x2="308.67" y2="376.16" gradientTransform="matrix(1, 0, 0, 1, 0, 0)" xlink:href="#linear-gradient-16"/><linearGradient id="linear-gradient-33" x1="274.81" y1="372.95" x2="274.81" y2="372.95" gradientTransform="matrix(1, 0, 0, 1, 0, 0)" xlink:href="#linear-gradient-16"/><linearGradient id="linear-gradient-34" x1="274.97" y1="378.11" x2="308.67" y2="378.11" gradientTransform="matrix(1, 0, 0, 1, 0, 0)" xlink:href="#linear-gradient-16"/><linearGradient id="linear-gradient-35" x1="309.04" y1="372.95" x2="309.04" y2="372.95" gradientTransform="matrix(1, 0, 0, 1, 0, 0)" xlink:href="#linear-gradient-16"/><linearGradient id="linear-gradient-36" x1="323.56" y1="336.93" x2="290.07" y2="370.62" gradientTransform="matrix(1, 0, 0, 1, 0, 0)" xlink:href="#New_Gradient_Swatch_copy_31"/><radialGradient id="White_Black_Radial-3" cx="284.57" cy="376.09" r="21.52" xlink:href="#New_Gradient_Swatch_1"/><linearGradient id="linear-gradient-37" x1="305.68" y1="354.91" x2="280.65" y2="380.1" gradientTransform="matrix(1, 0, 0, 1, 0, 0)" xlink:href="#New_Gradient_Swatch_copy_31"/><radialGradient id="White_Black_Radial-4" cx="297.95" cy="360.59" r="9.46" xlink:href="#New_Gradient_Swatch_1"/><linearGradient id="linear-gradient-38" x1="310.29" y1="349.46" x2="286.67" y2="373.23" gradientTransform="matrix(1, 0, 0, 1, 0, 0)" xlink:href="#linear-gradient-16"/><radialGradient id="radial-gradient-9" cx="13711.01" cy="-1454.48" r="24.3" xlink:href="#radial-gradient-7"/><linearGradient id="linear-gradient-39" x1="285.53" y1="368.85" x2="298.29" y2="368.85" gradientTransform="matrix(1, 0, 0, 1, 0, 0)" xlink:href="#linear-gradient-16"/><linearGradient id="linear-gradient-40" x1="304.42" y1="361.53" x2="293.54" y2="367.46" gradientTransform="matrix(1, 0, 0, 1, 0, 0)" xlink:href="#New_Gradient_Swatch_copy_31"/><radialGradient id="radial-gradient-10" cx="283.18" cy="369.26" r="11.42" gradientTransform="matrix(1, 0, 0, 1, 0, 0)" xlink:href="#radial-gradient-7"/><linearGradient id="linear-gradient-41" x1="274.97" y1="370.47" x2="308.67" y2="370.47" gradientTransform="matrix(1, 0, 0, 1, 0, 0)" xlink:href="#linear-gradient-16"/><linearGradient id="linear-gradient-42" x1="274.81" y1="367.26" x2="274.81" y2="367.26" gradientTransform="matrix(1, 0, 0, 1, 0, 0)" xlink:href="#linear-gradient-16"/><linearGradient id="linear-gradient-43" x1="274.97" y1="372.42" x2="308.67" y2="372.42" gradientTransform="matrix(1, 0, 0, 1, 0, 0)" xlink:href="#linear-gradient-16"/><linearGradient id="linear-gradient-44" x1="309.04" y1="367.26" x2="309.04" y2="367.26" gradientTransform="matrix(1, 0, 0, 1, 0, 0)" xlink:href="#linear-gradient-16"/><linearGradient id="linear-gradient-45" x1="323.56" y1="331.24" x2="290.07" y2="364.94" gradientTransform="matrix(1, 0, 0, 1, 0, 0)" xlink:href="#New_Gradient_Swatch_copy_31"/><radialGradient id="White_Black_Radial-5" cx="284.57" cy="370.4" r="21.52" xlink:href="#New_Gradient_Swatch_1"/><linearGradient id="linear-gradient-46" x1="305.68" y1="349.23" x2="280.65" y2="374.41" gradientTransform="matrix(1, 0, 0, 1, 0, 0)" xlink:href="#New_Gradient_Swatch_copy_31"/><radialGradient id="White_Black_Radial-6" cx="297.95" cy="354.9" r="9.46" xlink:href="#New_Gradient_Swatch_1"/><linearGradient id="linear-gradient-47" x1="310.29" y1="343.77" x2="286.67" y2="367.54" gradientTransform="matrix(1, 0, 0, 1, 0, 0)" xlink:href="#linear-gradient-16"/><radialGradient id="radial-gradient-11" cx="13746.9" cy="-1460.53" r="24.3" xlink:href="#radial-gradient-7"/><linearGradient id="linear-gradient-48" x1="285.53" y1="363.16" x2="298.29" y2="363.16" gradientTransform="matrix(1, 0, 0, 1, 0, 0)" xlink:href="#linear-gradient-16"/><linearGradient id="linear-gradient-49" x1="304.42" y1="355.84" x2="293.54" y2="361.77" gradientTransform="matrix(1, 0, 0, 1, 0, 0)" xlink:href="#New_Gradient_Swatch_copy_31"/><radialGradient id="radial-gradient-12" cx="283.18" cy="363.58" r="11.42" gradientTransform="matrix(1, 0, 0, 1, 0, 0)" xlink:href="#radial-gradient-7"/><linearGradient id="linear-gradient-50" x1="274.97" y1="364.69" x2="308.67" y2="364.69" gradientTransform="matrix(1, 0, 0, 1, 0, 0)" xlink:href="#linear-gradient-16"/><linearGradient id="linear-gradient-51" x1="274.81" y1="361.48" x2="274.81" y2="361.48" gradientTransform="matrix(1, 0, 0, 1, 0, 0)" xlink:href="#linear-gradient-16"/><linearGradient id="linear-gradient-52" x1="274.97" y1="366.64" x2="308.67" y2="366.64" gradientTransform="matrix(1, 0, 0, 1, 0, 0)" xlink:href="#linear-gradient-16"/><linearGradient id="linear-gradient-53" x1="309.04" y1="361.48" x2="309.04" y2="361.48" gradientTransform="matrix(1, 0, 0, 1, 0, 0)" xlink:href="#linear-gradient-16"/><linearGradient id="linear-gradient-54" x1="323.56" y1="325.46" x2="290.07" y2="359.16" gradientTransform="matrix(1, 0, 0, 1, 0, 0)" xlink:href="#New_Gradient_Swatch_copy_31"/><radialGradient id="White_Black_Radial-7" cx="284.57" cy="364.62" r="21.52" xlink:href="#New_Gradient_Swatch_1"/><linearGradient id="linear-gradient-55" x1="305.68" y1="343.45" x2="280.65" y2="368.64" gradientTransform="matrix(1, 0, 0, 1, 0, 0)" xlink:href="#New_Gradient_Swatch_copy_31"/><radialGradient id="White_Black_Radial-8" cx="297.95" cy="349.13" r="9.46" xlink:href="#New_Gradient_Swatch_1"/><linearGradient id="linear-gradient-56" x1="310.29" y1="337.99" x2="286.67" y2="361.77" gradientTransform="matrix(1, 0, 0, 1, 0, 0)" xlink:href="#linear-gradient-16"/><radialGradient id="radial-gradient-13" cx="5503.63" cy="-1813.05" r="24.3" gradientTransform="matrix(0.44, 0, 0, 0.26, -2155.03, 847.49)" xlink:href="#radial-gradient-7"/><linearGradient id="linear-gradient-57" x1="282.59" y1="357.83" x2="302.02" y2="357.83" gradientTransform="matrix(1, 0, 0, 1, 0, 0)" xlink:href="#linear-gradient-16"/><linearGradient id="linear-gradient-58" x1="272.65" y1="373.5" x2="295.27" y2="354.03" gradientTransform="matrix(1, 0, 0, 1, 0, 0)" xlink:href="#New_Gradient_Swatch_copy_31"/><radialGradient id="radial-gradient-14" cx="295.85" cy="354.07" r="7.93" gradientTransform="matrix(1, 0, 0, 1, 0, 0)" xlink:href="#radial-gradient-7"/><linearGradient id="linear-gradient-59" x1="249.64" y1="395.99" x2="283.33" y2="395.99" gradientTransform="matrix(1, 0, 0, 1, 0, 0)" xlink:href="#linear-gradient-16"/><linearGradient id="linear-gradient-60" x1="249.47" y1="392.78" x2="249.48" y2="392.78" gradientTransform="matrix(1, 0, 0, 1, 0, 0)" xlink:href="#linear-gradient-16"/><linearGradient id="linear-gradient-61" x1="249.64" y1="397.94" x2="283.33" y2="397.94" gradientTransform="matrix(1, 0, 0, 1, 0, 0)" xlink:href="#linear-gradient-16"/><linearGradient id="linear-gradient-62" x1="283.7" y1="392.78" x2="283.71" y2="392.78" gradientTransform="matrix(1, 0, 0, 1, 0, 0)" xlink:href="#linear-gradient-16"/><linearGradient id="linear-gradient-63" x1="298.22" y1="356.76" x2="264.74" y2="390.46" gradientTransform="matrix(1, 0, 0, 1, 0, 0)" xlink:href="#New_Gradient_Swatch_copy_31"/><radialGradient id="White_Black_Radial-9" cx="259.23" cy="395.92" r="21.52" xlink:href="#New_Gradient_Swatch_1"/><linearGradient id="linear-gradient-64" x1="280.35" y1="374.75" x2="255.32" y2="399.94" gradientTransform="matrix(1, 0, 0, 1, 0, 0)" xlink:href="#New_Gradient_Swatch_copy_31"/><radialGradient id="White_Black_Radial-10" cx="272.62" cy="380.43" r="9.46" xlink:href="#New_Gradient_Swatch_1"/><linearGradient id="linear-gradient-65" x1="284.96" y1="369.29" x2="261.33" y2="393.07" gradientTransform="matrix(1, 0, 0, 1, 0, 0)" xlink:href="#linear-gradient-16"/><radialGradient id="radial-gradient-15" cx="5432.56" cy="-1874.42" r="19.21" gradientTransform="matrix(0.12, -0.43, 0.26, 0.07, 106.68, 2845.1)" xlink:href="#radial-gradient-7"/><radialGradient id="radial-gradient-16" cx="13519.22" cy="-1512.59" r="19.21" xlink:href="#radial-gradient-7"/><linearGradient id="linear-gradient-66" x1="257.25" y1="389.13" x2="276.68" y2="389.13" gradientTransform="matrix(1, 0, 0, 1, 0, 0)" xlink:href="#linear-gradient-16"/><linearGradient id="linear-gradient-67" x1="247.32" y1="404.8" x2="269.93" y2="385.33" gradientTransform="matrix(1, 0, 0, 1, 0, 0)" xlink:href="#New_Gradient_Swatch_copy_31"/><radialGradient id="radial-gradient-17" cx="270.52" cy="385.37" r="7.93" gradientTransform="matrix(1, 0, 0, 1, 0, 0)" xlink:href="#radial-gradient-7"/><linearGradient id="linear-gradient-68" x1="249.65" y1="400.32" x2="283.35" y2="400.32" gradientTransform="matrix(1, 0, 0, 1, 0, 0)" xlink:href="#linear-gradient-16"/><linearGradient id="New_Gradient_Swatch_copy_28" x1="101.7" y1="342.68" x2="109.86" y2="342.68" gradientUnits="userSpaceOnUse"><stop offset="0.04" stop-color="#152734"/><stop offset="0.14" stop-color="#21363c"/><stop offset="0.35" stop-color="#425f52"/><stop offset="0.63" stop-color="#77a074"/><stop offset="0.98" stop-color="#bffaa3"/><stop offset="1" stop-color="#c3ffa6"/></linearGradient><linearGradient id="New_Gradient_Swatch_copy_28-2" x1="44.15" y1="330.18" x2="96.97" y2="373.41" xlink:href="#New_Gradient_Swatch_copy_28"/><linearGradient id="New_Gradient_Swatch_copy_28-3" x1="115.15" y1="356.8" x2="140.21" y2="356.8" xlink:href="#New_Gradient_Swatch_copy_28"/><linearGradient id="New_Gradient_Swatch_copy_28-4" x1="68.35" y1="353.63" x2="98.36" y2="376.59" xlink:href="#New_Gradient_Swatch_copy_28"/><linearGradient id="New_Gradient_Swatch_copy_28-5" x1="94.65" y1="371.32" x2="142.64" y2="365.63" xlink:href="#New_Gradient_Swatch_copy_28"/><linearGradient id="New_Gradient_Swatch_copy_28-6" x1="72.66" y1="344.65" x2="60.25" y2="331.57" xlink:href="#New_Gradient_Swatch_copy_28"/><linearGradient id="New_Gradient_Swatch_copy_28-7" x1="101.7" y1="345.73" x2="109.86" y2="345.73" xlink:href="#New_Gradient_Swatch_copy_28"/><linearGradient id="New_Gradient_Swatch_copy_28-8" x1="44.15" y1="333.23" x2="96.97" y2="376.46" xlink:href="#New_Gradient_Swatch_copy_28"/><linearGradient id="New_Gradient_Swatch_copy_28-9" x1="115.15" y1="359.84" x2="140.21" y2="359.84" xlink:href="#New_Gradient_Swatch_copy_28"/><linearGradient id="New_Gradient_Swatch_copy_28-10" x1="68.35" y1="356.68" x2="98.36" y2="379.64" xlink:href="#New_Gradient_Swatch_copy_28"/><linearGradient id="New_Gradient_Swatch_copy_28-11" x1="94.65" y1="374.37" x2="142.64" y2="368.68" xlink:href="#New_Gradient_Swatch_copy_28"/><linearGradient id="New_Gradient_Swatch_copy_28-12" x1="72.66" y1="347.7" x2="60.25" y2="334.62" xlink:href="#New_Gradient_Swatch_copy_28"/><linearGradient id="New_Gradient_Swatch_copy_28-13" x1="72.66" y1="342.71" x2="60.25" y2="329.63" xlink:href="#New_Gradient_Swatch_copy_28"/><linearGradient id="New_Gradient_Swatch_copy_28-14" x1="101.7" y1="340.44" x2="109.86" y2="340.44" xlink:href="#New_Gradient_Swatch_copy_28"/><linearGradient id="New_Gradient_Swatch_copy_28-15" x1="88.97" y1="361.92" x2="31.43" y2="326.15" xlink:href="#New_Gradient_Swatch_copy_28"/><linearGradient id="New_Gradient_Swatch_copy_28-16" x1="119.11" y1="354.55" x2="144.16" y2="354.55" xlink:href="#New_Gradient_Swatch_copy_28"/><linearGradient id="New_Gradient_Swatch_copy_28-17" x1="78.69" y1="359.3" x2="110.82" y2="383.88" xlink:href="#New_Gradient_Swatch_copy_28"/><linearGradient id="New_Gradient_Swatch_copy_28-18" x1="98" y1="368.69" x2="146.34" y2="362.95" xlink:href="#New_Gradient_Swatch_copy_28"/><linearGradient id="New_Gradient_Swatch_copy_28-19" x1="-38.41" y1="172.28" x2="152.47" y2="422.09" xlink:href="#New_Gradient_Swatch_copy_28"/><radialGradient id="Radial_Gradient_1-5" cx="105.78" cy="338.92" r="3.43" xlink:href="#New_Gradient_Swatch_1"/><radialGradient id="Radial_Gradient_1-6" cx="69.92" cy="338.27" r="3.54" xlink:href="#New_Gradient_Swatch_1"/><radialGradient id="Radial_Gradient_1-7" cx="76.15" cy="353.07" r="11.29" xlink:href="#New_Gradient_Swatch_1"/><radialGradient id="Radial_Gradient_1-8" cx="105.52" cy="365.94" r="15.92" xlink:href="#New_Gradient_Swatch_1"/><radialGradient id="Radial_Gradient_1-9" cx="125.84" cy="353.21" r="5.56" xlink:href="#New_Gradient_Swatch_1"/><radialGradient id="radial-gradient-18" cx="-6458.81" cy="369.35" r="13.24" gradientTransform="translate(2790.98 -0.09) scale(0.41 1)" gradientUnits="userSpaceOnUse"><stop offset="0" stop-color="#826e3d"/><stop offset="0.14" stop-color="#60512d"/><stop offset="0.3" stop-color="#3d341d"/><stop offset="0.47" stop-color="#221d10"/><stop offset="0.64" stop-color="#0f0d07"/><stop offset="0.82" stop-color="#040302"/><stop offset="1"/></radialGradient><linearGradient id="linear-gradient-69" x1="128.38" y1="366.71" x2="146.54" y2="378.14" gradientUnits="userSpaceOnUse"><stop offset="0" stop-color="#89846b"/><stop offset="0.86" stop-color="#d1ec7c"/><stop offset="1" stop-color="#defe7f"/></linearGradient><linearGradient id="linear-gradient-70" x1="165.62" y1="373.53" x2="177.84" y2="366.26" xlink:href="#linear-gradient-69"/><linearGradient id="linear-gradient-71" x1="83.36" y1="361.82" x2="144.2" y2="404.15" xlink:href="#linear-gradient-69"/><linearGradient id="linear-gradient-72" x1="138.51" y1="403.83" x2="172.34" y2="385.41" xlink:href="#linear-gradient-69"/><linearGradient id="linear-gradient-73" x1="148.23" y1="380.71" x2="196.76" y2="392.14" xlink:href="#linear-gradient-69"/><linearGradient id="linear-gradient-74" x1="128.38" y1="369.71" x2="146.54" y2="381.14" xlink:href="#linear-gradient-69"/><linearGradient id="linear-gradient-75" x1="165.62" y1="376.53" x2="177.84" y2="369.26" xlink:href="#linear-gradient-69"/><linearGradient id="linear-gradient-76" x1="83.36" y1="364.82" x2="144.2" y2="407.15" xlink:href="#linear-gradient-69"/><linearGradient id="linear-gradient-77" x1="138.51" y1="406.83" x2="172.34" y2="388.41" xlink:href="#linear-gradient-69"/><linearGradient id="linear-gradient-78" x1="148.23" y1="383.71" x2="196.76" y2="395.14" xlink:href="#linear-gradient-69"/><linearGradient id="linear-gradient-79" x1="111.03" y1="385.62" x2="179.51" y2="401.74" xlink:href="#linear-gradient-69"/><linearGradient id="linear-gradient-80" x1="145.47" y1="394.48" x2="165.72" y2="399.25" xlink:href="#linear-gradient-69"/><linearGradient id="linear-gradient-81" x1="152.87" y1="379.61" x2="202.14" y2="391.21" xlink:href="#linear-gradient-69"/><linearGradient id="linear-gradient-82" x1="130.6" y1="367.63" x2="146.85" y2="371.46" xlink:href="#linear-gradient-69"/><linearGradient id="linear-gradient-83" x1="166.54" y1="367.23" x2="180.11" y2="370.42" xlink:href="#linear-gradient-69"/><linearGradient id="linear-gradient-84" x1="-0.35" y1="185.2" x2="186.7" y2="429.99" xlink:href="#linear-gradient-69"/><radialGradient id="Radial_Gradient_1-10" cx="169.29" cy="366.35" r="3.44" xlink:href="#New_Gradient_Swatch_1"/><radialGradient id="Radial_Gradient_1-11" cx="134.15" cy="366.86" r="3.39" xlink:href="#New_Gradient_Swatch_1"/><radialGradient id="Radial_Gradient_1-12" cx="163.3" cy="380.89" r="11.06" xlink:href="#New_Gradient_Swatch_1"/><radialGradient id="Radial_Gradient_1-13" cx="132.16" cy="387.21" r="18.6" xlink:href="#New_Gradient_Swatch_1"/></defs><title>features-s1</title><g class="cls-3"><g id="S1"><g class="cls-4"><path class="cls-5" d="M256.81,397.17a18,18,0,0,1-9-2.17l-54.6-31.07-54.6-31.07a9.53,9.53,0,0,1-5.15-8.22c0-3.65,2.26-7.05,6.21-9.33l35.73-20.1a22.15,22.15,0,0,1,10.92-2.78,18,18,0,0,1,9,2.17l54.6,31.07,54.6,31.07a9.51,9.51,0,0,1,5.16,8.22c0,3.65-2.27,7.05-6.21,9.33l-35.74,20.1A22.11,22.11,0,0,1,256.81,397.17Z"/><path class="cls-6" d="M140.64,316.08l9.69-5.41c.39-.22,18.57-10.14,18.92-9.95l6.24-3.06c2.82-1.62,7-2.16,10.55-2.16a18.51,18.51,0,0,1,8.68,2.26l43.71,24.9,9.33,5.31,53,30.21a11.37,11.37,0,0,1,4.12,4A8.38,8.38,0,0,1,306,366c.11,3.51-2.05,6.83-5.93,9.07l-9.69,5.41c-.39.23-18.58,10.14-18.92,9.95l-6.25,3.06c-2.82,1.63-7,2.17-10.54,2.17a18.45,18.45,0,0,1-8.68-2.27l-43.72-24.9L193,363.2l-53-30.21a11.21,11.21,0,0,1-4.12-4,8.39,8.39,0,0,1-1.09-3.82C134.6,321.64,136.75,318.32,140.64,316.08Z"/><path class="cls-7" d="M141.6,316.85l9.43-5.21c.79-.46,17.81-9.41,18.5-9l6.06-2.5c2.54-1.46,6.94-1.56,10.17-1.56a19.12,19.12,0,0,1,8.36,2.36l42.44,24.19,9.05,5.16,51.48,29.36a12.24,12.24,0,0,1,4.06,3.81,8.33,8.33,0,0,1,1.19,3.64c.2,3.36-1.84,6.61-5.65,8.82l-9.43,5.21c-.79.45-17.81,9.41-18.5,9l-6.06,2.51c-2.54,1.46-6.94,1.55-10.17,1.55a19.16,19.16,0,0,1-8.37-2.35l-42.43-24.2-9-5.16L141.2,333.12a12.29,12.29,0,0,1-4.07-3.82,8.36,8.36,0,0,1-1.18-3.63C135.75,322.3,137.79,319.05,141.6,316.85Z"/><path class="cls-8" d="M142.57,317.62l9.17-5c1.18-.68,17-8.67,18.07-8.08l5.88-1.94c2.25-1.3,6.92-.95,9.79-.95a20,20,0,0,1,8.05,2.45l41.15,23.48,8.78,5,49.92,28.5a13.55,13.55,0,0,1,4,3.62,8.29,8.29,0,0,1,1.28,3.45c.31,3.22-1.62,6.4-5.37,8.56l-9.17,5c-1.18.68-17,8.67-18.07,8.08l-5.87,1.94c-2.26,1.3-6.93.95-9.79.95a20,20,0,0,1-8.06-2.45l-41.15-23.49-8.77-5-49.93-28.5a13.55,13.55,0,0,1-4-3.62,8.29,8.29,0,0,1-1.28-3.45C136.89,323,138.82,319.78,142.57,317.62Z"/><path class="cls-9" d="M143.54,318.39l8.91-4.83c1.57-.91,16.27-7.93,17.64-7.14l5.69-1.39c2-1.14,6.91-.34,9.41-.34,2.19,0,6.19,1.65,7.75,2.55L232.8,330l8.5,4.85,48.37,27.64a15.09,15.09,0,0,1,3.95,3.43A7.91,7.91,0,0,1,295,369.2c.42,3.08-1.4,6.18-5.08,8.31L281,382.33c-1.58.91-16.28,7.93-17.65,7.15l-5.69,1.38c-2,1.14-6.9.34-9.41.34-2.18,0-6.18-1.64-7.75-2.55l-39.86-22.77-8.5-4.86-48.37-27.64a15.25,15.25,0,0,1-3.95-3.43,8.18,8.18,0,0,1-1.38-3.26C138,323.61,139.85,320.51,143.54,318.39Z"/><path class="cls-10" d="M144.51,319.15l8.64-4.62c2-1.14,15.51-7.2,17.22-6.22l5.51-.82c1.69-1,6.88.27,9,.27,1.87,0,6.1,1.86,7.44,2.64l38.58,22.07,8.22,4.71L286,364a17.43,17.43,0,0,1,3.9,3.24,8.29,8.29,0,0,1,1.48,3.07c.52,2.94-1.19,6-4.81,8.05l-8.65,4.63c-2,1.14-15.51,7.2-17.21,6.21l-5.51.82c-1.69,1-6.89-.26-9-.26-1.87,0-6.09-1.87-7.43-2.64L200.11,365l-8.23-4.71-46.8-26.78a17.39,17.39,0,0,1-3.9-3.23,8,8,0,0,1-1.48-3.07C139.18,324.26,140.89,321.24,144.51,319.15Z"/><path class="cls-11" d="M145.47,319.92l8.39-4.43c2.37-1.37,14.74-6.46,16.79-5.28L176,310c1.41-.82,6.87.87,8.66.87,1.56,0,6,2.09,7.12,2.74l37.3,21.36,7.95,4.56,45.25,25.92a21.13,21.13,0,0,1,3.85,3,8.4,8.4,0,0,1,1.57,2.89c.63,2.8-1,5.74-4.53,7.8l-8.38,4.43C272.39,384.92,260,390,258,388.83l-5.32.26c-1.41.81-6.87-.87-8.67-.87-1.55,0-6-2.09-7.12-2.74l-37.29-21.36-7.95-4.56-45.25-25.92a21.13,21.13,0,0,1-3.85-3,8.4,8.4,0,0,1-1.57-2.89C140.32,324.92,141.92,322,145.47,319.92Z"/><path class="cls-12" d="M146.44,320.69l8.12-4.24c2.77-1.59,14-5.72,16.37-4.34l5.14.29c1.12-.65,6.85,1.49,8.28,1.49,1.25,0,5.92,2.31,6.81,2.83l36,20.65,7.68,4.41,43.69,25.06a25.83,25.83,0,0,1,3.79,2.84,8.56,8.56,0,0,1,1.67,2.7c.74,2.66-.75,5.53-4.24,7.54l-8.12,4.24c-2.77,1.59-14,5.73-16.37,4.34l-5.14-.29c-1.12.65-6.85-1.48-8.28-1.48-1.25,0-5.92-2.32-6.81-2.84l-36-20.65-7.68-4.41-43.69-25.06a25.83,25.83,0,0,1-3.79-2.84,8.63,8.63,0,0,1-1.67-2.7C141.46,325.57,143,322.71,146.44,320.69Z"/><path class="cls-13" d="M147.41,321.46l7.86-4c3.16-1.83,13.21-5,15.94-3.41l4.95.85c.85-.49,6.84,2.09,7.91,2.09s5.83,2.54,6.5,2.93l34.73,19.95,7.4,4.25,42.13,24.2a24.48,24.48,0,0,1,3.74,2.65,5.67,5.67,0,0,1,1.77,2.51c.85,2.52-.54,5.31-4,7.29l-7.86,4c-3.16,1.82-13.21,5-15.94,3.41l-4.95-.86c-.84.49-6.83-2.09-7.91-2.09s-5.83-2.54-6.5-2.92l-34.72-19.95-7.41-4.25L149,333.91a24.57,24.57,0,0,1-3.73-2.65,5.75,5.75,0,0,1-1.78-2.51C142.59,326.23,144,323.44,147.41,321.46Z"/><path class="cls-14" d="M148.38,322.23l7.6-3.85c3.55-2.05,12.44-4.25,15.52-2.48l4.76,1.42c.56-.33,6.81,2.7,7.53,2.7s5.74,2.76,6.19,3l33.44,19.24,7.13,4.1,40.57,23.34a34.14,34.14,0,0,1,3.68,2.46,5.46,5.46,0,0,1,1.87,2.32c1,2.38-.32,5.09-3.68,7l-7.6,3.85c-3.55,2.05-12.44,4.25-15.52,2.48l-4.76-1.42c-.57.33-6.82-2.7-7.54-2.7s-5.73-2.76-6.18-3L198,361.48l-7.13-4.1L150.25,334a33.32,33.32,0,0,1-3.69-2.46,5.62,5.62,0,0,1-1.87-2.32C143.73,326.88,145,324.17,148.38,322.23Z"/><path class="cls-15" d="M149.34,323l7.34-3.66c3.95-2.28,11.68-3.51,15.1-1.54l4.57,2c.28-.17,6.8,3.3,7.16,3.3s5.65,3,5.87,3.12l32.16,18.53,6.86,3.95,39,22.49c.17.09,3.55,2.1,3.63,2.25a5.5,5.5,0,0,1,2,2.14c1.07,2.23-.12,4.87-3.41,6.77L262.26,386c-3.94,2.28-11.67,3.52-15.09,1.54l-4.57-2c-.29.16-6.8-3.31-7.16-3.31s-5.65-3-5.88-3.12L197.41,360.6l-6.86-4-39-22.48c-.17-.1-3.55-2.11-3.63-2.26a5.43,5.43,0,0,1-2-2.14C144.87,327.54,146.05,324.9,149.34,323Z"/><path d="M244.47,387.21l-47.61-27.49-47.6-27.48c-3.76-2.17-3.29-6,1.05-8.47l7.08-3.46c4.34-2.51,10.91-2.78,14.67-.61l47.61,27.48,47.6,27.49c3.76,2.17,3.29,6-1,8.47l-7.08,3.46C254.8,389.11,248.23,389.38,244.47,387.21Z"/></g><polygon class="cls-16" points="257.26 85.79 257.26 98.09 250.62 88.11 257.26 85.79 257.26 85.79"/><polygon class="cls-17" points="266.3 90.96 266.3 103.26 259.66 93.28 266.3 90.96 266.3 90.96"/><polygon class="cls-18" points="275.33 96.13 275.33 108.43 268.7 98.45 275.33 96.13 275.33 96.13"/><polygon class="cls-19" points="284.37 101.3 284.37 113.59 277.74 103.62 284.37 101.3 284.37 101.3"/><polygon class="cls-20" points="293.41 106.47 293.41 118.76 286.77 108.79 293.41 106.47 293.41 106.47"/><polygon class="cls-16" points="116.14 116.78 116.14 104.49 122.78 114.47 116.14 116.78 116.14 116.78"/><polygon class="cls-17" points="107.11 111.61 107.11 99.32 113.75 109.3 107.11 111.61 107.11 111.61"/><polygon class="cls-18" points="98.07 106.44 98.07 94.15 104.71 104.13 98.07 106.44 98.07 106.44"/><polygon class="cls-19" points="89.03 101.27 89.03 88.98 95.67 98.96 89.03 101.27 89.03 101.27"/><polygon class="cls-20" points="80 96.1 80 83.81 86.63 93.79 80 96.1 80 96.1"/><path class="cls-16" d="M128.61,177.37v-4.52a12,12,0,0,1-2.71-3.4A7.73,7.73,0,0,1,125,166a2.67,2.67,0,0,1,1-2.41,2.57,2.57,0,0,1,2.59.11v-1.07l1.37.78v1.07a8.39,8.39,0,0,1,3.51,5.79l-2.38-1a4.45,4.45,0,0,0-1.13-2.38v4.23a13.55,13.55,0,0,1,3.08,3.59,7.28,7.28,0,0,1,.81,3.34,3.1,3.1,0,0,1-1,2.7,2.85,2.85,0,0,1-2.86,0v2l-1.37-.79v-2a9.35,9.35,0,0,1-2.64-2.92,10.56,10.56,0,0,1-1.3-4.05l2.45,1.12a6.36,6.36,0,0,0,.57,1.81A6.16,6.16,0,0,0,128.61,177.37Zm0-11.34a.94.94,0,0,0-.88.22,1.3,1.3,0,0,0-.33,1,3.07,3.07,0,0,0,.3,1.24,5,5,0,0,0,.91,1.32ZM130,178.31a1.15,1.15,0,0,0,1.15-.09,1.37,1.37,0,0,0,.44-1.15,3.32,3.32,0,0,0-.37-1.46A5.5,5.5,0,0,0,130,174.1Z"/><polygon class="cls-16" points="304.38 304.29 304.38 316.58 297.75 306.6 304.38 304.29 304.38 304.29"/><polygon class="cls-17" points="313.42 309.46 313.42 321.75 306.78 311.77 313.42 309.46 313.42 309.46"/><polygon class="cls-18" points="322.46 314.63 322.46 326.92 315.82 316.94 322.46 314.63 322.46 314.63"/><polygon class="cls-19" points="331.49 319.8 331.49 332.09 324.86 322.11 331.49 319.8 331.49 319.8"/><polygon class="cls-20" points="340.53 324.97 340.53 337.26 333.89 327.28 340.53 324.97 340.53 324.97"/><g class="cls-21"><path class="cls-22" d="M278.17,248.47v-2.16l-1.32-.75-.65-.37v2.14l-2.08-1.2V244l-1.92-1.11v-15.7l1.92,1.11v-2.14l2.08,1.2v2.14l1.46.85.51.3v-2.15l2.08,1.2V232a7.3,7.3,0,0,1,1.26,1.34,8.43,8.43,0,0,1,1.05,1.92,5.64,5.64,0,0,1,.42,2.08,2.58,2.58,0,0,1-.52,1.72,1.56,1.56,0,0,1-1.4.57,8.4,8.4,0,0,1,1.92,2.54,6.25,6.25,0,0,1,.67,2.75,3.62,3.62,0,0,1-.43,1.83,1.84,1.84,0,0,1-1.19.94,3,3,0,0,1-1.78-.29v2.25ZM275,231.39V235l1.81,1c1.07.62,1.74,1,2,1.11a1.26,1.26,0,0,0,1.12.08,1.06,1.06,0,0,0,.41-1,3,3,0,0,0-.35-1.39,3.42,3.42,0,0,0-1-1.15c-.28-.19-1.07-.67-2.37-1.42Zm0,6.24v4.2l2.56,1.47a14.38,14.38,0,0,0,1.89,1,1,1,0,0,0,1-.05,1.28,1.28,0,0,0,.39-1.11,3.29,3.29,0,0,0-.3-1.37,4,4,0,0,0-.86-1.21,13.82,13.82,0,0,0-2.45-1.64Z"/></g><path class="cls-16" d="M296.84,298.34l-.6,2.9a6.68,6.68,0,0,0-2.54-2.46c-1.11-.64-2-.7-2.69-.18a2.42,2.42,0,0,0-.83,1.45l5.62,3.25-.33,1.63-5.5-3.18c0,.18,0,.41,0,.69s0,.56,0,.87l5.21,3-.33,1.63-4.66-2.69a8.67,8.67,0,0,0,.78,2.43,7,7,0,0,0,2.66,2.92c1.31.75,2.36.89,3.13.42v3.59a6.37,6.37,0,0,1-3.1-1,13.07,13.07,0,0,1-4.9-5.18,14.79,14.79,0,0,1-1.73-5l-1.52-.88.33-1.63,1,.58c0-.19,0-.39,0-.6s0-.67,0-.94l-1.34-.77.33-1.63,1.22.7a4.27,4.27,0,0,1,1.71-2.92c1.28-.84,3-.65,5.08.56A11.79,11.79,0,0,1,296.84,298.34Z"/><polygon class="cls-23" points="204.13 183.65 193.13 190.15 224.28 218.55 235.28 212.05 204.13 183.65"/><polygon class="cls-24" points="113.58 268.16 124.58 261.66 202.83 205.47 191.83 211.97 113.58 268.16"/><polygon class="cls-24" points="44.7 275.78 55.7 269.28 96.12 238.58 85.12 245.08 44.7 275.78"/><polygon class="cls-25" points="85.71 223.22 96.71 216.72 125.51 240.1 114.51 246.6 85.71 223.22"/><polygon class="cls-26" points="93.01 225.43 98.65 221.7 120.82 239.7 115.19 243.43 93.01 225.43"/><polygon class="cls-27" points="224.28 218.55 193.13 190.15 114.51 246.6 85.71 223.22 29.07 266.43 44.7 275.78 85.12 245.08 113.58 268.16 191.83 211.97 223.75 241.08 224.28 218.55"/><polygon class="cls-28" points="193.47 189.86 114.85 246.31 86.05 222.94 29.4 266.14 30.16 266.6 85.92 224.06 114.73 247.44 193.34 190.98 224.49 219.39 223.99 240.7 224.09 240.79 224.62 218.26 193.47 189.86"/><g class="cls-29"><g class="cls-30"><polygon class="cls-31" points="59.74 322.82 29.51 267.76 44.97 277.39 64.7 311.7 59.74 322.82"/><polygon class="cls-24" points="44.97 277.39 54.77 271.03 74.49 305.34 64.7 311.7 44.97 277.39"/></g></g><path class="cls-32" d="M249.38,380.39,164,331.08c-9.63-5.56-17.44-20.48-17.44-33.33V70.31c0-6.53-5.37-8-2.12-10.32.13-.09,7.63-3.5,7.77-3.55,3.5-1.34,7.24-1.94,11.79.69l85.41,49.31c9.63,5.56,17.44,20.48,17.44,33.32V367.2c0,6.83-2.21,11.69-5.72,13.92-.21.13-9.24,4.43-9.47,4.51C248.51,386.67,253.59,382.82,249.38,380.39Z"/><path class="cls-33" d="M248.59,106.7,163.18,57.39c-4.54-2.63,80.69,50.88,80.69,50.88,9.63,5.56,17.44,20.48,17.44,33.33,0,0,4.72,232.69,4.72,225.87V140C266,127.18,258.22,112.26,248.59,106.7Z"/><path class="cls-34" d="M242.74,383.42l-85.4-49.3c-9.64-5.57-17.45-20.49-17.45-33.33V73.35c0-12.85,7.81-18.75,17.45-13.19l85.4,49.31c9.63,5.56,17.44,20.48,17.44,33.33V370.24C260.18,383.08,252.37,389,242.74,383.42Z"/><path class="cls-35" d="M241.22,384.25l-85.4-49.31c-9.64-5.56-17.44-20.49-17.44-33.33V74.17c0-12.85,7.8-18.75,17.44-13.19l85.4,49.31c9.64,5.56,17.45,20.48,17.45,33.33V371.06C258.67,383.9,250.86,389.81,241.22,384.25Z"/><path class="cls-36" d="M140.75,303.12V75.4c0-11.26,6.85-16.43,15.29-11.56l85,49.05c8.44,4.87,15.29,18,15.29,29.21V369.83c0,11.26-6.85,16.43-15.29,11.56l-85-49.05C147.6,327.46,140.75,314.38,140.75,303.12Z"/><path class="cls-37" d="M144.15,304.51V77.94c0-9.42,5.73-13.76,12.8-9.68l83.14,48c7.07,4.09,12.8,15,12.8,24.46V367.29c0,9.42-5.73,13.75-12.8,9.67L157,329C149.88,324.88,144.15,313.93,144.15,304.51Z"/><path class="cls-38" d="M157.91,70.77c-6.66-3.85-12.06-.77-12.06,6.88V306.76c0,7.65,5.4,17,12.06,20.81l81.22,46.89c6.66,3.84,12.06.76,12.06-6.88V138.46c0-7.64-5.4-17-12.06-20.8Z"/><polygon class="cls-39" points="145.85 250.99 251.19 311.8 251.19 187.7 145.85 126.88 145.85 250.99"/><polygon class="cls-40" points="191.63 129.96 187.28 127.44 187.28 112.98 191.63 115.5 191.63 129.96"/><polygon class="cls-41" points="212.05 141.74 207.69 139.23 207.69 124.77 212.05 127.28 212.05 141.74"/><polygon class="cls-42" points="214.13 127.37 185.2 110.67 185.2 108.52 214.13 125.23 214.13 127.37"/><polygon class="cls-43" points="214.13 146.25 185.2 129.54 185.2 127.4 214.13 144.1 214.13 146.25"/><polygon class="cls-44" points="215.94 150.1 183.39 131.31 183.39 128.9 215.94 147.69 215.94 150.1"/><polygon class="cls-45" points="216.5 126.16 182.83 106.72 199.66 106.57 216.5 126.16"/><polygon class="cls-46" points="204.94 124.16 197 120.76 199.03 124.26 193.89 127.19 196.74 132.11 201.88 129.18 203.91 132.67 204.94 124.16"/><path class="cls-47" d="M197.37,339.45c0,1.67-1.19,2.34-2.64,1.5a5.81,5.81,0,0,1-2.64-4.55c0-1.67,1.18-2.34,2.64-1.5A5.83,5.83,0,0,1,197.37,339.45Z"/><path class="cls-48" d="M204.69,343.49c0,1.67-1.18,2.35-2.64,1.51a5.82,5.82,0,0,1-2.63-4.55c0-1.68,1.18-2.35,2.63-1.51A5.81,5.81,0,0,1,204.69,343.49Z"/><path class="cls-49" d="M232.66,128.56l10.55,6.08c.4.24.73.05.73-.41a1.63,1.63,0,0,0-.73-1.26l-10.55-6.08c-.4-.24-.72,0-.72.41A1.62,1.62,0,0,0,232.66,128.56Zm10.55,8.17-10.55-6.09c-.4-.23-.72,0-.72.42a1.59,1.59,0,0,0,.72,1.25l10.55,6.09c.4.23.73,0,.73-.41A1.6,1.6,0,0,0,243.21,136.73Zm0,3.76-10.55-6.09c-.4-.23-.72-.05-.72.41a1.62,1.62,0,0,0,.72,1.26l10.55,6.09c.4.23.73,0,.73-.42A1.6,1.6,0,0,0,243.21,140.49Z"/><path class="cls-49" d="M168.05,92.13c0,1.11-.79,1.56-1.76,1a3.86,3.86,0,0,1-1.76-3c0-1.11.79-1.56,1.76-1A3.88,3.88,0,0,1,168.05,92.13Z"/><path class="cls-49" d="M162.75,89.05c0,1.12-.79,1.56-1.76,1a3.85,3.85,0,0,1-1.75-3c0-1.12.78-1.57,1.75-1A3.88,3.88,0,0,1,162.75,89.05Z"/><path class="cls-49" d="M157.45,86c0,1.11-.78,1.56-1.75,1a3.88,3.88,0,0,1-1.76-3c0-1.11.79-1.56,1.76-1A3.85,3.85,0,0,1,157.45,86Z"/><path class="cls-50" d="M194.73,334.9l-11.4-6.25v5.92l11.4,6.38c1.45.84,2.64.17,2.64-1.5A5.83,5.83,0,0,0,194.73,334.9Z"/><polygon class="cls-22" points="247.03 274.11 227.13 262.6 227.13 259.83 247.03 271.34 247.03 274.11"/><polygon class="cls-22" points="241.53 275.88 227.13 267.49 227.13 265.71 241.53 274.11 241.53 275.88"/><polygon class="cls-22" points="241.53 279.11 227.13 270.72 227.13 268.94 241.53 277.34 241.53 279.11"/><polygon class="cls-22" points="216.03 181.95 196.13 170.44 196.13 167.66 216.03 179.17 216.03 181.95"/><g class="cls-51"><path class="cls-24" d="M250.17,310.4l-.56-.33-103.9-60v-122l104.46,60.31ZM146.46,249.65l103,59.45V188.81l-103-59.44Z"/><rect class="cls-24" x="155.53" y="134.72" width="0.75" height="120.69"/><rect class="cls-24" x="167.37" y="141.52" width="0.75" height="120.69"/><rect class="cls-24" x="179.22" y="148.32" width="0.75" height="120.69"/><rect class="cls-24" x="191.07" y="155.12" width="0.75" height="120.69"/><rect class="cls-24" x="202.91" y="161.92" width="0.75" height="120.69"/><rect class="cls-24" x="214.76" y="168.72" width="0.75" height="120.69"/><rect class="cls-24" x="226.61" y="175.52" width="0.75" height="120.69"/><rect class="cls-24" x="238.45" y="182.31" width="0.75" height="120.69"/><rect class="cls-24" x="197.57" y="111.83" width="0.75" height="119.76" transform="translate(-49.74 257.28) rotate(-60)"/><rect class="cls-24" x="197.57" y="125.51" width="0.75" height="119.76" transform="translate(-61.58 264.12) rotate(-60)"/><rect class="cls-24" x="197.57" y="139.19" width="0.75" height="119.76" transform="translate(-73.43 270.96) rotate(-60)"/><rect class="cls-24" x="197.57" y="152.87" width="0.75" height="119.76" transform="translate(-85.27 277.79) rotate(-60)"/><rect class="cls-24" x="197.57" y="166.54" width="0.75" height="119.76" transform="translate(-97.12 284.63) rotate(-60)"/><rect class="cls-24" x="197.57" y="180.22" width="0.75" height="119.76" transform="translate(-108.97 291.47) rotate(-60)"/><rect class="cls-24" x="197.57" y="193.9" width="0.75" height="119.76" transform="translate(-120.81 298.31) rotate(-60)"/><rect class="cls-24" x="197.57" y="207.58" width="0.75" height="119.76" transform="translate(-132.66 305.15) rotate(-60)"/></g><polygon class="cls-22" points="210.53 183.71 196.13 175.32 196.13 173.54 210.53 181.94 210.53 183.71"/><polygon class="cls-22" points="210.53 186.95 196.13 178.55 196.13 176.78 210.53 185.17 210.53 186.95"/><polygon class="cls-52" points="251.19 203.4 223.59 226.29 192.15 197.62 145.85 230.72 145.85 238.64 191.84 205.75 223.47 234.59 251.19 211.6 251.19 203.4"/><path class="cls-53" d="M239.13,117.66,157.91,70.77c-6.66-3.85-12.06-.77-12.06,6.88V306.76c0,7.65,5.4,17,12.06,20.81l81.22,46.89c6.66,3.84,12.06.76,12.06-6.88V138.46C251.19,130.82,245.79,121.5,239.13,117.66Zm11,249.92a9,9,0,0,1-1.61,5.64,4.93,4.93,0,0,1-4,1.85h0a10.11,10.11,0,0,1-4.89-1.52l-81.21-46.89c-6.36-3.67-11.54-12.6-11.54-19.9V77.65c0-4.62,2.15-7.49,5.6-7.49a10.11,10.11,0,0,1,4.89,1.52l81.21,46.89c6.36,3.67,11.54,12.6,11.54,19.89Z"/><g class="cls-54"><path class="cls-55" d="M192.25,195.91a.5.5,0,0,1-.5-.5v-1.88a.5.5,0,0,1,.5-.5.51.51,0,0,1,.5.5v1.88A.5.5,0,0,1,192.25,195.91Zm0-4.35a.5.5,0,0,1-.5-.5v-2.48a.5.5,0,0,1,.5-.5.51.51,0,0,1,.5.5v2.48A.51.51,0,0,1,192.25,191.56Zm0-4.95a.5.5,0,0,1-.5-.5v-2.48a.5.5,0,0,1,.5-.5.51.51,0,0,1,.5.5v2.48A.51.51,0,0,1,192.25,186.61Zm0-5a.5.5,0,0,1-.5-.5v-2.48a.5.5,0,0,1,.5-.5.51.51,0,0,1,.5.5v2.48A.51.51,0,0,1,192.25,181.66Zm0-4.95a.5.5,0,0,1-.5-.5v-2.48a.5.5,0,0,1,.5-.5.51.51,0,0,1,.5.5v2.48A.51.51,0,0,1,192.25,176.71Zm0-5a.5.5,0,0,1-.5-.5v-2.48a.5.5,0,0,1,.5-.5.5.5,0,0,1,.5.5v2.48A.51.51,0,0,1,192.25,171.76Z"/></g><g class="cls-54"><path class="cls-55" d="M223.58,261.57a.5.5,0,0,1-.5-.5v-.87a.5.5,0,0,1,1,0v.87A.5.5,0,0,1,223.58,261.57Zm0-3.34a.5.5,0,0,1-.5-.5v-2.48a.5.5,0,0,1,1,0v2.48A.5.5,0,0,1,223.58,258.23Zm0-5a.5.5,0,0,1-.5-.5V250.3a.5.5,0,0,1,1,0v2.47A.5.5,0,0,1,223.58,253.27Zm0-5a.5.5,0,0,1-.5-.5v-2.47a.5.5,0,0,1,1,0v2.47A.5.5,0,0,1,223.58,248.32Zm0-4.95a.5.5,0,0,1-.5-.5V240.4a.5.5,0,0,1,1,0v2.47A.5.5,0,0,1,223.58,243.37Zm0-5a.5.5,0,0,1-.5-.5v-2.47a.5.5,0,0,1,1,0v2.47A.5.5,0,0,1,223.58,238.42Z"/></g><path class="cls-56" d="M195.16,169.33a7.14,7.14,0,0,0-3.15-5.64c-1.79-1.09-3.29-.33-3.33,1.69a7.14,7.14,0,0,0,3.15,5.65C193.62,172.12,195.12,171.36,195.16,169.33Z"/><path class="cls-57" d="M226.6,262a7.15,7.15,0,0,0-3.16-5.65c-1.79-1.09-3.28-.33-3.33,1.7a7.14,7.14,0,0,0,3.15,5.65C225.06,264.79,226.55,264,226.6,262Z"/><polygon class="cls-58" points="151.9 290.94 151.9 304.44 244.03 357.63 244.03 338.15 234.12 317.61 222.55 316.39 204.78 288.98 191.35 301.5 183.3 283.2 165.12 291.03 151.9 290.94"/><polygon class="cls-59" points="151.9 297.37 151.9 304.44 244.03 357.63 244.03 342.82 228.33 324.01 220.07 328.21 205.2 299.35 194.04 309.28 185.98 296.84 170.9 301.77 151.9 297.37"/><polygon class="cls-60" points="151.9 301.99 151.9 304.44 244.03 357.63 244.03 350.23 237.42 339.01 225.85 341.68 209.33 320.45 192.8 317.92 187.02 309.51 169.66 309.63 151.9 301.99"/><polygon class="cls-61" points="283.45 155.95 272.45 162.45 323.7 146.36 334.7 139.86 283.45 155.95"/><polygon class="cls-62" points="302.7 193.2 313.7 186.7 334.7 139.86 323.7 146.36 302.7 193.2"/><polygon class="cls-63" points="260.53 211.61 266.2 209.26 304.69 177.48 293.69 183.98 260.53 211.61"/><polygon class="cls-64" points="260.53 211.61 293.69 183.98 302.7 193.2 323.7 146.36 272.45 162.45 281.76 171.79 260.57 189.49 260.53 211.61"/><g class="cls-65"><polygon class="cls-66" points="260.77 190.52 281.96 172.82 281.24 172.09 260.77 189.19 260.73 211.31 260.73 211.31 260.77 190.52"/><polygon class="cls-67" points="323.2 147.62 323.9 146.06 272.65 162.15 273.66 163.16 323.2 147.62"/></g><g class="cls-68"><path class="cls-69" d="M122.91,231.42c0,3.85-1.33,6.58-3.49,7.9l-3.75,2.32c-2.25,1.25-.81-1.6-4.23-3.57C104.57,234.1,99,224.5,99,216.61c0-3.9-3.6-3.93-1.39-5.23l4.18-2.38c2.24-1.22,5.3-1,8.68,1C117.34,213.93,122.91,223.53,122.91,231.42Z"/><ellipse class="cls-70" cx="106.4" cy="226.65" rx="10.13" ry="17.54" transform="translate(-99.84 84.68) rotate(-30.31)"/><ellipse class="cls-71" cx="106.4" cy="226.65" rx="7.49" ry="12.97" transform="translate(-99.84 84.68) rotate(-30.31)"/><path class="cls-72" d="M107.25,236.4c-5.08-2.93-9.19-10-9.19-15.86a7.5,7.5,0,0,1,1.44-4.83c-1.42,1-2.29,3-2.29,5.63,0,5.83,4.11,12.94,9.19,15.87,3.27,1.88,6.12,1.58,7.76-.42C112.47,238,110,238,107.25,236.4Z"/><g class="cls-73"><path class="cls-22" d="M110.74,210.13l-.27-.17-.24-.13-4.14,2.39.31.16.22.13Z"/><path class="cls-22" d="M106.24,208.38l-4.17,2.41a7.45,7.45,0,0,1,.77.15l4.17-2.41Z"/><path class="cls-22" d="M113.19,211.88l-4.12,2.37.41.36,4.12-2.37C113.46,212.12,113.33,212,113.19,211.88Z"/><path class="cls-22" d="M117.69,216.78l-4.11,2.37c.11.14.2.29.3.43l4.11-2.37Z"/><path class="cls-22" d="M115.62,214.22l-4.11,2.38.35.39,4.11-2.37Z"/><path class="cls-22" d="M119.44,219.53l-4.1,2.36c.09.15.17.31.25.46l4.1-2.37C119.6,219.83,119.52,219.68,119.44,219.53Z"/><path class="cls-22" d="M122.2,235.73l-4,2.33c-.1.27-.21.54-.32.79l4-2.32C122,236.27,122.1,236,122.2,235.73Z"/><path class="cls-22" d="M118.83,234.14c0,.21,0,.41,0,.62l4.07-2.35,0-.62Z"/><path class="cls-22" d="M122.73,229c0-.18,0-.37-.07-.56l-4.08,2.36c0,.19,0,.37.07.56Z"/><path class="cls-22" d="M117.84,227.64l.15.52,4.08-2.36c0-.18-.09-.35-.14-.52Z"/><path class="cls-22" d="M121.05,222.85c-.07-.16-.13-.32-.2-.49l-4.09,2.37.2.48Z"/></g><path class="cls-74" d="M110.47,210c-3.38-2-6.44-2.17-8.68-1l-.56.31c2.18-.93,5-.62,8.17,1.19,6.87,4,12.44,13.57,12.44,21.45,0,3.86-1.33,6.58-3.49,7.9,0,0,1-.49,1.07-.53,2.16-1.32,3.49-4,3.49-7.9C122.91,223.53,117.34,213.93,110.47,210Z"/><path class="cls-75" d="M107,212c-3.3-1.9-6.24-2.1-8.46-1,2.07-.58,4.65-.14,7.44,1.47,6.87,4,12.44,13.57,12.44,21.46,0,4.1-1.52,6.92-3.93,8.13,3-.85,5-3.92,5-8.61C119.39,225.6,113.82,216,107,212Z"/><path class="cls-76" d="M108.27,219.44l1.11,4.32a1.51,1.51,0,0,0,.62.88l3.4,2c.63.38.9,1.46.39,1.61l-2.7.79c-.23.07-.32.35-.24.7l1,4.3c.19.81-.5,1-1,.26L108,230.51a.84.84,0,0,0-.77-.44l-2.79.61c-.52.12-1.21-.86-1-1.45l1-3.16a1.27,1.27,0,0,0-.24-1l-2.7-3.91c-.51-.73-.25-1.51.39-1.16l3.39,1.88c.28.16.53.09.62-.16l1.12-3C107.21,218.14,108.06,218.63,108.27,219.44Z"/><path class="cls-77" d="M107.52,219.82l1.11,4.32a1.52,1.52,0,0,0,.62.87l3.4,2c.63.39.9,1.47.39,1.62l-2.7.79c-.23.06-.32.34-.24.7l1,4.29c.19.81-.5,1-1,.27l-2.78-3.83a.87.87,0,0,0-.77-.45l-2.79.62c-.52.11-1.21-.86-1-1.45l1-3.16a1.26,1.26,0,0,0-.24-1l-2.7-3.91c-.51-.74-.25-1.52.39-1.16l3.39,1.88c.28.15.53.09.62-.16l1.12-3C106.46,218.51,107.31,219,107.52,219.82Z"/><path class="cls-78" d="M107.52,219.82l1.11,4.32a1.52,1.52,0,0,0,.62.87l3.4,2c.63.39.9,1.47.39,1.62l-2.7.79c-.23.06-.32.34-.24.7l1,4.29c.19.81-.5,1-1,.27l-2.78-3.83a.87.87,0,0,0-.77-.45l-2.79.62c-.52.11-1.21-.86-1-1.45l1-3.16a1.26,1.26,0,0,0-.24-1l-2.7-3.91c-.51-.74-.25-1.52.39-1.16l3.39,1.88c.28.15.53.09.62-.16l1.12-3C106.46,218.51,107.31,219,107.52,219.82Z"/></g><circle class="cls-79" cx="157.38" cy="84.8" r="15.86" transform="translate(-21.37 87.47) rotate(-29.17)"/><g class="cls-80"><path class="cls-81" d="M274.76,380.27v.14c0-.05,0-.09,0-.14Z"/><path class="cls-82" d="M291.88,390c-9.45,0-17.12-4.46-17.12-10v.93h0s0,1.18,0,1.23c0,5.51,7.67,10,17.12,10s17.12-4.46,17.12-10a.66.66,0,0,0,0-.14h0v-2C309,385.49,301.34,390,291.88,390Z"/><path class="cls-83" d="M309,380.41v-.14h0A.66.66,0,0,1,309,380.41Z"/></g><path class="cls-84" d="M309,374.09H274.81v4.83h0v.14c0,5.5,7.66,10,17.12,10s17.11-4.47,17.11-10v-.14h0Z"/><g class="cls-73"><path class="cls-85" d="M274.81,378.28v0Z"/><path class="cls-86" d="M291.93,388c-9.46,0-17.12-4.46-17.12-10v.93h0v.14c0,5.5,7.66,10,17.12,10s17.11-4.47,17.11-10v-.14h0V378C309,383.5,301.38,388,291.93,388Z"/><path class="cls-87" d="M309,378.42v-.14h0Z"/></g><g class="cls-73"><path class="cls-22" d="M297.17,388.55l.48-.11V375.79h-.48Z"/><path class="cls-22" d="M299.32,388l.48-.14V375.79h-.48Z"/><path class="cls-22" d="M301.47,387.33c.17-.06.32-.14.48-.2V375.79h-.48Z"/><path class="cls-22" d="M295,388.86l.48-.05v-13H295Z"/><path class="cls-22" d="M305.77,384.9l.48-.39v-8.72h-.48Z"/><path class="cls-22" d="M307.92,382.58a7.12,7.12,0,0,0,.48-.85v-5.94h-.48Z"/><path class="cls-22" d="M303.62,386.32l.48-.26V375.79h-.48Z"/><path class="cls-22" d="M292.87,389l.48,0V375.79h-.48Z"/><path class="cls-22" d="M290.72,389h.48V375.79h-.48Z"/><path class="cls-22" d="M286.42,388.49l.48.1v-12.8h-.48Z"/><path class="cls-22" d="M288.57,388.83l.48,0V375.79h-.48Z"/><path class="cls-22" d="M284.27,388l.48.14V375.79h-.48Z"/><path class="cls-22" d="M275.66,382.16a7.48,7.48,0,0,0,.48.76v-7.13h-.48Z"/><path class="cls-22" d="M277.81,384.7l.48.37v-9.28h-.48Z"/><path class="cls-22" d="M282.12,387.22l.48.19V375.79h-.48Z"/><path class="cls-22" d="M280,386.18l.47.26V375.79H280Z"/></g><ellipse class="cls-88" cx="291.93" cy="374.16" rx="17.12" ry="9.97"/><path class="cls-89" d="M291.93,383.86c-9.26,0-16.78-4.28-17.09-9.62,0,.12,0,.23,0,.35,0,5.5,7.66,10,17.12,10s17.11-4.46,17.11-10c0-.12,0-.23,0-.35C308.7,379.58,301.18,383.86,291.93,383.86Z"/><ellipse class="cls-90" cx="291.93" cy="374.16" rx="12.8" ry="7.45"/><path class="cls-91" d="M292.35,367.08c6.84,0,12.4,3.12,12.76,7.05a2.58,2.58,0,0,0,0-.4c0-4.11-5.73-7.45-12.8-7.45s-12.79,3.34-12.79,7.45c0,.14,0,.27,0,.4C280,370.2,285.52,367.08,292.35,367.08Z"/><path class="cls-92" d="M291.93,367.51c6.83,0,12.4,3.12,12.76,7.05,0-.13,0-.27,0-.4,0-4.12-5.73-7.45-12.79-7.45s-12.8,3.33-12.8,7.45c0,.13,0,.27,0,.4C279.52,370.63,285.09,367.51,291.93,367.51Z"/><path class="cls-93" d="M300.92,364.56c3.84,1.31,6.43,3.91,5.79,5.82s-4.3,2.39-8.14,1.08-6.44-3.92-5.79-5.82S297.07,363.25,300.92,364.56Z"/><g class="cls-73"><path class="cls-94" d="M292.91,371.82c-.31.06-.64.13-1,.23s-.61.16-.95.27a9.1,9.1,0,0,0-1,.37l1,.59.33-.12.38-.13c.58-.21,1.13-.38,1.65-.52a9.44,9.44,0,0,1,1.45-.28,4.66,4.66,0,0,1,1.3,0,3.56,3.56,0,0,1,1.19.43,1.85,1.85,0,0,1,.85.84,1.15,1.15,0,0,1,0,.89,2.64,2.64,0,0,1-.64.9,7,7,0,0,1-1.09.85l1.38.8-1.15.66-1.4-.81a21.69,21.69,0,0,1-2.28,1,19.61,19.61,0,0,1-2.36.66l-.75-1.82c.39-.08.79-.17,1.2-.28s.74-.19,1.16-.33a9.35,9.35,0,0,0,1.22-.47l-1-.58q-.54.21-1.11.39a14.69,14.69,0,0,1-1.56.44,7.09,7.09,0,0,1-1.28.19,4.16,4.16,0,0,1-1.08-.08,3.29,3.29,0,0,1-.94-.37,2,2,0,0,1-.83-.78,1.28,1.28,0,0,1-.11-.88,2.15,2.15,0,0,1,.49-.91,5,5,0,0,1,1-.89l-1.15-.67,1.15-.66,1.16.67c.35-.16.7-.31,1.06-.45s.71-.26,1.06-.37l1-.3.91-.24Zm-3.86,1.83a.64.64,0,0,0,.42.08,3.21,3.21,0,0,0,.63-.13l-.86-.5C288.89,373.34,288.83,373.53,289.05,373.65Zm5.5.92a.79.79,0,0,0-.46-.06,4.48,4.48,0,0,0-.67.14l.85.49a1,1,0,0,0,.37-.35C294.68,374.7,294.65,374.63,294.55,374.57Z"/></g><path class="cls-95" d="M292.91,371.39c-.31.06-.64.14-1,.23s-.61.16-.95.27-.66.24-1,.37l1,.59.33-.12.38-.13c.58-.2,1.13-.38,1.65-.52a9.44,9.44,0,0,1,1.45-.28,5.08,5.08,0,0,1,1.3,0,3.58,3.58,0,0,1,1.19.44,1.83,1.83,0,0,1,.85.83,1.17,1.17,0,0,1,0,.9,2.52,2.52,0,0,1-.64.89,7,7,0,0,1-1.09.85l1.38.8-1.15.66-1.4-.81a18.14,18.14,0,0,1-2.28,1,17.93,17.93,0,0,1-2.36.66l-.75-1.82,1.2-.27c.35-.09.74-.2,1.16-.34a11,11,0,0,0,1.22-.46l-1-.59q-.54.21-1.11.39-.86.29-1.56.45a7.09,7.09,0,0,1-1.28.19,4.15,4.15,0,0,1-1.08-.09,3,3,0,0,1-.94-.37,2,2,0,0,1-.83-.77,1.29,1.29,0,0,1-.11-.88,2.18,2.18,0,0,1,.49-.92,5,5,0,0,1,1-.89l-1.15-.66,1.15-.67,1.16.68c.35-.17.7-.32,1.06-.46s.71-.26,1.06-.37l1-.3.91-.24Zm-3.86,1.84a.79.79,0,0,0,.42.08,3.34,3.34,0,0,0,.63-.14l-.86-.5C288.89,372.91,288.83,373.1,289.05,373.23Zm5.5.91a.79.79,0,0,0-.46-.06,3.61,3.61,0,0,0-.67.15l.85.48c.21-.14.34-.25.37-.34A.17.17,0,0,0,294.55,374.14Z"/><path class="cls-96" d="M292.91,371.39c-.31.06-.64.14-1,.23s-.61.16-.95.27-.66.24-1,.37l1,.59.33-.12.38-.13c.58-.2,1.13-.38,1.65-.52a9.44,9.44,0,0,1,1.45-.28,5.08,5.08,0,0,1,1.3,0,3.58,3.58,0,0,1,1.19.44,1.83,1.83,0,0,1,.85.83,1.17,1.17,0,0,1,0,.9,2.52,2.52,0,0,1-.64.89,7,7,0,0,1-1.09.85l1.38.8-1.15.66-1.4-.81a18.14,18.14,0,0,1-2.28,1,17.93,17.93,0,0,1-2.36.66l-.75-1.82,1.2-.27c.35-.09.74-.2,1.16-.34a11,11,0,0,0,1.22-.46l-1-.59q-.54.21-1.11.39-.86.29-1.56.45a7.09,7.09,0,0,1-1.28.19,4.15,4.15,0,0,1-1.08-.09,3,3,0,0,1-.94-.37,2,2,0,0,1-.83-.77,1.29,1.29,0,0,1-.11-.88,2.18,2.18,0,0,1,.49-.92,5,5,0,0,1,1-.89l-1.15-.66,1.15-.67,1.16.68c.35-.17.7-.32,1.06-.46s.71-.26,1.06-.37l1-.3.91-.24Zm-3.86,1.84a.79.79,0,0,0,.42.08,3.34,3.34,0,0,0,.63-.14l-.86-.5C288.89,372.91,288.83,373.1,289.05,373.23Zm5.5.91a.79.79,0,0,0-.46-.06,3.61,3.61,0,0,0-.67.15l.85.48c.21-.14.34-.25.37-.34A.17.17,0,0,0,294.55,374.14Z"/><path class="cls-97" d="M309,368.69H274.81v4.83h0v.13c0,5.51,7.66,10,17.12,10s17.11-4.46,17.11-10v-.13h0Z"/><g class="cls-73"><path class="cls-98" d="M274.81,372.88v0Z"/><path class="cls-99" d="M291.93,382.56c-9.46,0-17.12-4.47-17.12-10v.93h0v.13c0,5.51,7.66,10,17.12,10s17.11-4.46,17.11-10v-.13h0v-.93C309,378.09,301.38,382.56,291.93,382.56Z"/><path class="cls-100" d="M309,373v-.13h0Z"/></g><g class="cls-73"><path class="cls-22" d="M297.17,383.14l.48-.1V370.38h-.48Z"/><path class="cls-22" d="M299.32,382.63l.48-.13V370.38h-.48Z"/><path class="cls-22" d="M301.47,381.93c.17-.06.32-.14.48-.21V370.38h-.48Z"/><path class="cls-22" d="M295,383.45l.48-.05v-13H295Z"/><path class="cls-22" d="M305.77,379.5c.16-.13.33-.26.48-.4v-8.72h-.48Z"/><path class="cls-22" d="M307.92,377.18a8,8,0,0,0,.48-.85v-5.95h-.48Z"/><path class="cls-22" d="M303.62,380.92l.48-.26V370.38h-.48Z"/><path class="cls-22" d="M292.87,383.6l.48,0v-13.2h-.48Z"/><path class="cls-22" d="M290.72,383.59h.48V370.38h-.48Z"/><path class="cls-22" d="M286.42,383.09c.16,0,.31.07.48.09v-12.8h-.48Z"/><path class="cls-22" d="M288.57,383.43l.48,0V370.38h-.48Z"/><path class="cls-22" d="M284.27,382.56l.48.13V370.38h-.48Z"/><path class="cls-22" d="M275.66,376.76a8.78,8.78,0,0,0,.48.76v-7.14h-.48Z"/><path class="cls-22" d="M277.81,379.29l.48.38v-9.29h-.48Z"/><path class="cls-22" d="M282.12,381.82l.48.19V370.38h-.48Z"/><path class="cls-22" d="M280,380.78c.15.09.31.17.47.25V370.38H280Z"/></g><ellipse class="cls-101" cx="291.93" cy="368.76" rx="17.12" ry="9.97"/><path class="cls-102" d="M291.93,378.46c-9.26,0-16.78-4.28-17.09-9.62,0,.11,0,.23,0,.34,0,5.51,7.66,10,17.12,10s17.11-4.46,17.11-10c0-.11,0-.23,0-.34C308.7,374.18,301.18,378.46,291.93,378.46Z"/><ellipse class="cls-103" cx="291.93" cy="368.76" rx="12.8" ry="7.45"/><path class="cls-104" d="M292.35,361.68c6.84,0,12.4,3.12,12.76,7.05a2.71,2.71,0,0,0,0-.4c0-4.12-5.73-7.45-12.8-7.45s-12.79,3.33-12.79,7.45c0,.13,0,.27,0,.4C280,364.8,285.52,361.68,292.35,361.68Z"/><path class="cls-105" d="M291.93,362.1c6.83,0,12.4,3.13,12.76,7.06,0-.14,0-.27,0-.4,0-4.12-5.73-7.46-12.79-7.46s-12.8,3.34-12.8,7.46c0,.13,0,.26,0,.4C279.52,365.23,285.09,362.1,291.93,362.1Z"/><path class="cls-106" d="M300.92,359.15c3.84,1.31,6.43,3.92,5.79,5.82s-4.3,2.39-8.14,1.08-6.44-3.91-5.79-5.82S297.07,357.85,300.92,359.15Z"/><g class="cls-73"><path class="cls-107" d="M292.91,366.42c-.31.06-.64.13-1,.22l-.95.28c-.33.11-.66.23-1,.36l1,.6.33-.12.38-.14q.87-.3,1.65-.51a8.38,8.38,0,0,1,1.45-.28,4.67,4.67,0,0,1,1.3,0,3.58,3.58,0,0,1,1.19.44,1.88,1.88,0,0,1,.85.83,1.17,1.17,0,0,1,0,.9,2.64,2.64,0,0,1-.64.9,7,7,0,0,1-1.09.85l1.38.79-1.15.67-1.4-.81a19.74,19.74,0,0,1-2.28.95,18,18,0,0,1-2.36.67l-.75-1.83q.58-.11,1.2-.27c.35-.08.74-.2,1.16-.33a11,11,0,0,0,1.22-.47l-1-.58-1.11.39a14.69,14.69,0,0,1-1.56.44,7.09,7.09,0,0,1-1.28.19,4.16,4.16,0,0,1-1.08-.08,3.61,3.61,0,0,1-.94-.37,2,2,0,0,1-.83-.78,1.28,1.28,0,0,1-.11-.88,2.24,2.24,0,0,1,.49-.92,5,5,0,0,1,1-.88l-1.15-.67,1.15-.66,1.16.67a10.86,10.86,0,0,1,1.06-.45c.36-.14.71-.26,1.06-.37s.7-.22,1-.3l.91-.24Zm-3.86,1.83a.71.71,0,0,0,.42.08,3.21,3.21,0,0,0,.63-.13l-.86-.51C288.89,367.94,288.83,368.12,289.05,368.25Zm5.5.92a.79.79,0,0,0-.46-.06,3.5,3.5,0,0,0-.67.14l.85.49a1,1,0,0,0,.37-.35A.16.16,0,0,0,294.55,369.17Z"/></g><path class="cls-108" d="M292.91,366c-.31.06-.64.14-1,.23s-.61.16-.95.27a9.1,9.1,0,0,0-1,.37l1,.59.33-.12.38-.13c.58-.21,1.13-.38,1.65-.52a9.44,9.44,0,0,1,1.45-.28,4.66,4.66,0,0,1,1.3,0,3.56,3.56,0,0,1,1.19.43,1.85,1.85,0,0,1,.85.84,1.15,1.15,0,0,1,0,.89,2.64,2.64,0,0,1-.64.9,7,7,0,0,1-1.09.85l1.38.8-1.15.66-1.4-.81a21.69,21.69,0,0,1-2.28,1,19.61,19.61,0,0,1-2.36.66l-.75-1.82,1.2-.27c.35-.09.74-.2,1.16-.34a9.35,9.35,0,0,0,1.22-.47l-1-.58q-.54.21-1.11.39-.86.29-1.56.45a8,8,0,0,1-1.28.18,4.16,4.16,0,0,1-1.08-.08,3.29,3.29,0,0,1-.94-.37,2,2,0,0,1-.83-.78,1.28,1.28,0,0,1-.11-.88,2.15,2.15,0,0,1,.49-.91,5,5,0,0,1,1-.89l-1.15-.67,1.15-.66,1.16.67c.35-.16.7-.31,1.06-.45s.71-.26,1.06-.37l1-.3.91-.24Zm-3.86,1.83a.64.64,0,0,0,.42.08,2.61,2.61,0,0,0,.63-.13l-.86-.5C288.89,367.51,288.83,367.7,289.05,367.82Zm5.5.92a.79.79,0,0,0-.46-.06,4.48,4.48,0,0,0-.67.14l.85.49a1,1,0,0,0,.37-.35C294.68,368.87,294.65,368.8,294.55,368.74Z"/><path class="cls-109" d="M292.91,366c-.31.06-.64.14-1,.23s-.61.16-.95.27a9.1,9.1,0,0,0-1,.37l1,.59.33-.12.38-.13c.58-.21,1.13-.38,1.65-.52a9.44,9.44,0,0,1,1.45-.28,4.66,4.66,0,0,1,1.3,0,3.56,3.56,0,0,1,1.19.43,1.85,1.85,0,0,1,.85.84,1.15,1.15,0,0,1,0,.89,2.64,2.64,0,0,1-.64.9,7,7,0,0,1-1.09.85l1.38.8-1.15.66-1.4-.81a21.69,21.69,0,0,1-2.28,1,19.61,19.61,0,0,1-2.36.66l-.75-1.82,1.2-.27c.35-.09.74-.2,1.16-.34a9.35,9.35,0,0,0,1.22-.47l-1-.58q-.54.21-1.11.39-.86.29-1.56.45a8,8,0,0,1-1.28.18,4.16,4.16,0,0,1-1.08-.08,3.29,3.29,0,0,1-.94-.37,2,2,0,0,1-.83-.78,1.28,1.28,0,0,1-.11-.88,2.15,2.15,0,0,1,.49-.91,5,5,0,0,1,1-.89l-1.15-.67,1.15-.66,1.16.67c.35-.16.7-.31,1.06-.45s.71-.26,1.06-.37l1-.3.91-.24Zm-3.86,1.83a.64.64,0,0,0,.42.08,2.61,2.61,0,0,0,.63-.13l-.86-.5C288.89,367.51,288.83,367.7,289.05,367.82Zm5.5.92a.79.79,0,0,0-.46-.06,4.48,4.48,0,0,0-.67.14l.85.49a1,1,0,0,0,.37-.35C294.68,368.87,294.65,368.8,294.55,368.74Z"/><path class="cls-110" d="M309,363H274.81v4.83h0V368c0,5.5,7.66,10,17.12,10S309,373.47,309,368v-.14h0Z"/><g class="cls-73"><path class="cls-111" d="M274.81,367.19v0Z"/><path class="cls-112" d="M291.93,376.87c-9.46,0-17.12-4.46-17.12-10v.93h0V368c0,5.5,7.66,10,17.12,10S309,373.47,309,368v-.14h0v-.93C309,372.41,301.38,376.87,291.93,376.87Z"/><path class="cls-113" d="M309,367.33v-.14h0Z"/></g><g class="cls-73"><path class="cls-22" d="M297.17,377.46l.48-.11V364.7h-.48Z"/><path class="cls-22" d="M299.32,377l.48-.14V364.7h-.48Z"/><path class="cls-22" d="M301.47,376.24c.17-.06.32-.14.48-.2V364.7h-.48Z"/><path class="cls-22" d="M295,377.77l.48-.06v-13H295Z"/><path class="cls-22" d="M305.77,373.81l.48-.39V364.7h-.48Z"/><path class="cls-22" d="M307.92,371.49a7.12,7.12,0,0,0,.48-.85V364.7h-.48Z"/><path class="cls-22" d="M303.62,375.23l.48-.26V364.7h-.48Z"/><path class="cls-22" d="M292.87,377.91l.48,0V364.7h-.48Z"/><path class="cls-22" d="M290.72,377.9h.48V364.7h-.48Z"/><path class="cls-22" d="M286.42,377.4l.48.1V364.7h-.48Z"/><path class="cls-22" d="M288.57,377.74l.48,0V364.7h-.48Z"/><path class="cls-22" d="M284.27,376.87l.48.14V364.7h-.48Z"/><path class="cls-22" d="M275.66,371.07a8.78,8.78,0,0,0,.48.76V364.7h-.48Z"/><path class="cls-22" d="M277.81,373.61l.48.37V364.7h-.48Z"/><path class="cls-22" d="M282.12,376.13l.48.19V364.7h-.48Z"/><path class="cls-22" d="M280,375.09l.47.26V364.7H280Z"/></g><ellipse class="cls-114" cx="291.93" cy="363.07" rx="17.12" ry="9.97"/><path class="cls-115" d="M291.93,372.77c-9.26,0-16.78-4.28-17.09-9.62,0,.11,0,.23,0,.35,0,5.5,7.66,10,17.12,10S309,369,309,363.5c0-.12,0-.24,0-.35C308.7,368.49,301.18,372.77,291.93,372.77Z"/><ellipse class="cls-116" cx="291.93" cy="363.07" rx="12.8" ry="7.45"/><path class="cls-117" d="M292.35,356c6.84,0,12.4,3.12,12.76,7.05a2.58,2.58,0,0,0,0-.4c0-4.11-5.73-7.45-12.8-7.45s-12.79,3.34-12.79,7.45c0,.14,0,.27,0,.4C280,359.11,285.52,356,292.35,356Z"/><path class="cls-118" d="M291.93,356.42c6.83,0,12.4,3.12,12.76,7.05,0-.13,0-.27,0-.4,0-4.12-5.73-7.45-12.79-7.45s-12.8,3.33-12.8,7.45c0,.13,0,.27,0,.4C279.52,359.54,285.09,356.42,291.93,356.42Z"/><path class="cls-119" d="M300.92,353.47c3.84,1.31,6.43,3.91,5.79,5.82s-4.3,2.38-8.14,1.08-6.44-3.92-5.79-5.82S297.07,352.16,300.92,353.47Z"/><g class="cls-73"><path class="cls-120" d="M292.91,360.73c-.31.06-.64.13-1,.23s-.61.16-.95.27a9.1,9.1,0,0,0-1,.37l1,.59.33-.12.38-.13c.58-.21,1.13-.38,1.65-.52a9.44,9.44,0,0,1,1.45-.28,4.66,4.66,0,0,1,1.3,0,3.56,3.56,0,0,1,1.19.43,1.85,1.85,0,0,1,.85.84,1.15,1.15,0,0,1,0,.89,2.64,2.64,0,0,1-.64.9,7,7,0,0,1-1.09.85l1.38.8-1.15.66-1.4-.81a21.69,21.69,0,0,1-2.28,1,19.61,19.61,0,0,1-2.36.66l-.75-1.83q.58-.11,1.2-.27c.35-.08.74-.19,1.16-.33a9.35,9.35,0,0,0,1.22-.47l-1-.58q-.54.21-1.11.39a14.69,14.69,0,0,1-1.56.44,7.09,7.09,0,0,1-1.28.19,4.16,4.16,0,0,1-1.08-.08,3.61,3.61,0,0,1-.94-.37,2,2,0,0,1-.83-.78,1.28,1.28,0,0,1-.11-.88,2.24,2.24,0,0,1,.49-.92,5.27,5.27,0,0,1,1-.88l-1.15-.67,1.15-.66,1.16.67c.35-.16.7-.31,1.06-.45s.71-.26,1.06-.37l1-.3.91-.24Zm-3.86,1.83a.64.64,0,0,0,.42.08,3.21,3.21,0,0,0,.63-.13l-.86-.5C288.89,362.25,288.83,362.44,289.05,362.56Zm5.5.92a.79.79,0,0,0-.46-.06,4.48,4.48,0,0,0-.67.14l.85.49a1,1,0,0,0,.37-.35C294.68,363.61,294.65,363.54,294.55,363.48Z"/></g><path class="cls-121" d="M292.91,360.3c-.31.06-.64.14-1,.23s-.61.16-.95.27-.66.24-1,.37l1,.59.33-.12.38-.13c.58-.2,1.13-.38,1.65-.52a9.44,9.44,0,0,1,1.45-.28,5.08,5.08,0,0,1,1.3,0,3.58,3.58,0,0,1,1.19.44,1.83,1.83,0,0,1,.85.83,1.17,1.17,0,0,1,0,.9,2.52,2.52,0,0,1-.64.89,7,7,0,0,1-1.09.85l1.38.8-1.15.66-1.4-.81a18.14,18.14,0,0,1-2.28,1,17.93,17.93,0,0,1-2.36.66l-.75-1.82,1.2-.27c.35-.09.74-.2,1.16-.34a9.35,9.35,0,0,0,1.22-.47l-1-.58q-.54.21-1.11.39-.86.29-1.56.45a8.1,8.1,0,0,1-1.28.19,4.15,4.15,0,0,1-1.08-.09,3,3,0,0,1-.94-.37,1.92,1.92,0,0,1-.83-.78,1.26,1.26,0,0,1-.11-.87,2.18,2.18,0,0,1,.49-.92,5,5,0,0,1,1-.89l-1.15-.66,1.15-.67,1.16.68c.35-.17.7-.32,1.06-.46s.71-.26,1.06-.37l1-.3.91-.24Zm-3.86,1.84a.79.79,0,0,0,.42.08,3.34,3.34,0,0,0,.63-.14l-.86-.5C288.89,361.82,288.83,362,289.05,362.14Zm5.5.91a.79.79,0,0,0-.46-.06,4.48,4.48,0,0,0-.67.14l.85.49c.21-.14.34-.25.37-.34A.17.17,0,0,0,294.55,363.05Z"/><path class="cls-122" d="M292.91,360.3c-.31.06-.64.14-1,.23s-.61.16-.95.27-.66.24-1,.37l1,.59.33-.12.38-.13c.58-.2,1.13-.38,1.65-.52a9.44,9.44,0,0,1,1.45-.28,5.08,5.08,0,0,1,1.3,0,3.58,3.58,0,0,1,1.19.44,1.83,1.83,0,0,1,.85.83,1.17,1.17,0,0,1,0,.9,2.52,2.52,0,0,1-.64.89,7,7,0,0,1-1.09.85l1.38.8-1.15.66-1.4-.81a18.14,18.14,0,0,1-2.28,1,17.93,17.93,0,0,1-2.36.66l-.75-1.82,1.2-.27c.35-.09.74-.2,1.16-.34a9.35,9.35,0,0,0,1.22-.47l-1-.58q-.54.21-1.11.39-.86.29-1.56.45a8.1,8.1,0,0,1-1.28.19,4.15,4.15,0,0,1-1.08-.09,3,3,0,0,1-.94-.37,1.92,1.92,0,0,1-.83-.78,1.26,1.26,0,0,1-.11-.87,2.18,2.18,0,0,1,.49-.92,5,5,0,0,1,1-.89l-1.15-.66,1.15-.67,1.16.68c.35-.17.7-.32,1.06-.46s.71-.26,1.06-.37l1-.3.91-.24Zm-3.86,1.84a.79.79,0,0,0,.42.08,3.34,3.34,0,0,0,.63-.14l-.86-.5C288.89,361.82,288.83,362,289.05,362.14Zm5.5.91a.79.79,0,0,0-.46-.06,4.48,4.48,0,0,0-.67.14l.85.49c.21-.14.34-.25.37-.34A.17.17,0,0,0,294.55,363.05Z"/><path class="cls-123" d="M309,357.22H274.81v4.83h0v.14c0,5.51,7.66,10,17.12,10s17.11-4.46,17.11-10v-.14h0Z"/><g class="cls-73"><path class="cls-124" d="M274.81,361.41v0Z"/><path class="cls-125" d="M291.93,371.09c-9.46,0-17.12-4.46-17.12-10v.92h0v.14c0,5.51,7.66,10,17.12,10s17.11-4.46,17.11-10v-.14h0v-.92C309,366.63,301.38,371.09,291.93,371.09Z"/><path class="cls-126" d="M309,361.55v-.14h0Z"/></g><g class="cls-73"><path class="cls-22" d="M297.17,371.68l.48-.1V358.92h-.48Z"/><path class="cls-22" d="M299.32,371.17l.48-.13V358.92h-.48Z"/><path class="cls-22" d="M301.47,370.47l.48-.21V358.92h-.48Z"/><path class="cls-22" d="M295,372l.48-.05v-13H295Z"/><path class="cls-22" d="M305.77,368c.16-.13.33-.26.48-.4v-8.72h-.48Z"/><path class="cls-22" d="M307.92,365.72a8,8,0,0,0,.48-.85v-5.95h-.48Z"/><path class="cls-22" d="M303.62,369.46l.48-.26V358.92h-.48Z"/><path class="cls-22" d="M292.87,372.13h.48v-13.2h-.48Z"/><path class="cls-22" d="M290.72,372.12l.48,0V358.92h-.48Z"/><path class="cls-22" d="M286.42,371.62l.48.1v-12.8h-.48Z"/><path class="cls-22" d="M288.57,372l.48,0V358.92h-.48Z"/><path class="cls-22" d="M284.27,371.1l.48.13V358.92h-.48Z"/><path class="cls-22" d="M275.66,365.29a8.93,8.93,0,0,0,.48.77v-7.14h-.48Z"/><path class="cls-22" d="M277.81,367.83l.48.37v-9.28h-.48Z"/><path class="cls-22" d="M282.12,370.35c.15.07.31.13.48.19V358.92h-.48Z"/><path class="cls-22" d="M280,369.32l.47.25V358.92H280Z"/></g><ellipse class="cls-127" cx="291.93" cy="357.29" rx="17.12" ry="9.97"/><path class="cls-128" d="M291.93,367c-9.26,0-16.78-4.27-17.09-9.62,0,.12,0,.23,0,.35,0,5.5,7.66,10,17.12,10s17.11-4.47,17.11-10c0-.12,0-.23,0-.35C308.7,362.72,301.18,367,291.93,367Z"/><ellipse class="cls-129" cx="291.93" cy="357.29" rx="12.8" ry="7.45"/><path class="cls-130" d="M292.35,350.21c6.84,0,12.4,3.13,12.76,7.06a2.85,2.85,0,0,0,0-.4c0-4.12-5.73-7.46-12.8-7.46s-12.79,3.34-12.79,7.46c0,.13,0,.26,0,.4C280,353.34,285.52,350.21,292.35,350.21Z"/><path class="cls-131" d="M291.93,350.64c6.83,0,12.4,3.12,12.76,7.05,0-.13,0-.26,0-.4,0-4.11-5.73-7.45-12.79-7.45s-12.8,3.34-12.8,7.45c0,.14,0,.27,0,.4C279.52,353.76,285.09,350.64,291.93,350.64Z"/><ellipse class="cls-132" cx="281.87" cy="367.57" rx="10.76" ry="6.43" transform="translate(-146.7 543.32) rotate(-74.81)"/><path class="cls-133" d="M296.45,355.82l4.84.88c.81.14,1,.76.3,1l-4.13,1.68c-.27.12-.44.3-.43.49l.08,2.93c0,.49-.95.77-1.63.48l-4.07-1.76a1.65,1.65,0,0,0-.94-.09l-4.79.93c-.81.16-1.57-.29-1.31-.75l1.62-2.77a.4.4,0,0,0-.16-.54l-3-2.35c-.51-.39,0-.95.83-.94l5.07.05a1.35,1.35,0,0,0,.84-.25l2.91-2.38a1.43,1.43,0,0,1,1.82.16l1.52,2.8A.93.93,0,0,0,296.45,355.82Z"/><path class="cls-134" d="M296.45,355.27l4.84.88c.81.15,1,.77.3,1.05l-4.13,1.68c-.27.11-.44.29-.43.49l.08,2.92c0,.49-.95.77-1.63.48L291.41,361a1.65,1.65,0,0,0-.94-.08l-4.79.93c-.81.15-1.57-.29-1.31-.76l1.62-2.76a.41.41,0,0,0-.16-.55l-3-2.34c-.51-.4,0-1,.83-.95l5.07.05a1.35,1.35,0,0,0,.84-.25l2.91-2.38a1.42,1.42,0,0,1,1.82.17l1.52,2.79A.93.93,0,0,0,296.45,355.27Z"/><path class="cls-135" d="M296.45,355.27l4.84.88c.81.15,1,.77.3,1.05l-4.13,1.68c-.27.11-.44.29-.43.49l.08,2.92c0,.49-.95.77-1.63.48L291.41,361a1.65,1.65,0,0,0-.94-.08l-4.79.93c-.81.15-1.57-.29-1.31-.76l1.62-2.76a.41.41,0,0,0-.16-.55l-3-2.34c-.51-.4,0-1,.83-.95l5.07.05a1.35,1.35,0,0,0,.84-.25l2.91-2.38a1.42,1.42,0,0,1,1.82.17l1.52,2.79A.93.93,0,0,0,296.45,355.27Z"/><path class="cls-136" d="M283.71,388.52H249.47v4.83h0s0,.1,0,.14c0,5.51,7.67,10,17.12,10s17.12-4.46,17.12-10a.71.71,0,0,0,0-.14h0Z"/><g class="cls-73"><path class="cls-137" d="M249.47,392.71v.14s0-.09,0-.14Z"/><path class="cls-138" d="M266.59,402.39c-9.45,0-17.12-4.46-17.12-10v.92h0s0,.1,0,.14c0,5.51,7.67,10,17.12,10s17.12-4.46,17.12-10a.71.71,0,0,0,0-.14h0v-.92C283.71,397.93,276.05,402.39,266.59,402.39Z"/><path class="cls-139" d="M283.71,392.85v-.14h0A.71.71,0,0,1,283.71,392.85Z"/></g><g class="cls-73"><path class="cls-22" d="M271.84,403l.48-.1V390.22h-.48Z"/><path class="cls-22" d="M274,402.47l.48-.13V390.22H274Z"/><path class="cls-22" d="M276.14,401.77l.48-.21V390.22h-.48Z"/><path class="cls-22" d="M269.69,403.29l.48-.05v-13h-.48Z"/><path class="cls-22" d="M280.44,399.34c.16-.13.33-.26.48-.4v-8.72h-.48Z"/><path class="cls-22" d="M282.59,397a8,8,0,0,0,.48-.85v-5.95h-.48Z"/><path class="cls-22" d="M278.29,400.76l.48-.26V390.22h-.48Z"/><path class="cls-22" d="M267.53,403.43H268v-13.2h-.48Z"/><path class="cls-22" d="M265.38,403.42l.48,0V390.22h-.48Z"/><path class="cls-22" d="M261.08,402.92l.48.1v-12.8h-.48Z"/><path class="cls-22" d="M263.23,403.27l.48,0V390.22h-.48Z"/><path class="cls-22" d="M258.93,402.4l.48.13V390.22h-.48Z"/><path class="cls-22" d="M250.33,396.59a8.93,8.93,0,0,0,.48.77v-7.14h-.48Z"/><path class="cls-22" d="M252.48,399.13c.15.13.32.25.48.37v-9.28h-.48Z"/><path class="cls-22" d="M256.78,401.65l.48.19V390.22h-.48Z"/><path class="cls-22" d="M254.63,400.62l.48.25V390.22h-.48Z"/></g><ellipse class="cls-140" cx="266.59" cy="388.59" rx="17.12" ry="9.97"/><path class="cls-141" d="M266.59,398.29c-9.25,0-16.77-4.27-17.09-9.62,0,.12,0,.23,0,.35,0,5.5,7.67,10,17.12,10s17.12-4.47,17.12-10c0-.12,0-.23,0-.35C283.36,394,275.85,398.29,266.59,398.29Z"/><ellipse class="cls-142" cx="266.59" cy="388.59" rx="12.8" ry="7.45"/><path class="cls-143" d="M267,381.51c6.83,0,12.4,3.13,12.76,7.06,0-.14,0-.27,0-.4,0-4.12-5.73-7.46-12.8-7.46s-12.8,3.34-12.8,7.46a2.85,2.85,0,0,0,0,.4C254.62,384.64,260.18,381.51,267,381.51Z"/><path class="cls-144" d="M266.59,381.94c6.84,0,12.4,3.12,12.76,7.05a2.58,2.58,0,0,0,0-.4c0-4.11-5.73-7.45-12.8-7.45s-12.79,3.34-12.79,7.45c0,.14,0,.27,0,.4C254.19,385.06,259.76,381.94,266.59,381.94Z"/><path class="cls-145" d="M250.33,397.19c1.55-5.74,5.6-9.63,9-8.7s4.95,6.34,3.4,12.07"/><path class="cls-146" d="M281.37,384.81c-.65,1.91-4.29,2.39-8.14,1.08s-6.43-3.92-5.79-5.82"/><path class="cls-147" d="M271.12,387.12,276,388c.81.14,1,.76.29,1l-4.12,1.68c-.28.12-.44.3-.43.49l.08,2.93c0,.49-.95.77-1.63.48l-4.07-1.76a1.66,1.66,0,0,0-.94-.09l-4.8.93c-.8.16-1.57-.29-1.3-.75l1.61-2.77a.4.4,0,0,0-.15-.54l-3-2.35c-.51-.39,0-1,.83-.94l5.06,0a1.36,1.36,0,0,0,.85-.25l2.91-2.38a1.41,1.41,0,0,1,1.81.16l1.52,2.8A1,1,0,0,0,271.12,387.12Z"/><path class="cls-148" d="M271.12,386.57l4.84.88c.81.15,1,.77.29,1.05l-4.12,1.68c-.28.11-.44.29-.43.49l.08,2.92c0,.49-.95.77-1.63.48l-4.07-1.76a1.66,1.66,0,0,0-.94-.08l-4.8.93c-.8.15-1.57-.29-1.3-.76l1.61-2.76a.41.41,0,0,0-.15-.55l-3-2.34c-.51-.4,0-1,.83-.95l5.06.05a1.36,1.36,0,0,0,.85-.25l2.91-2.38a1.4,1.4,0,0,1,1.81.17l1.52,2.79A1,1,0,0,0,271.12,386.57Z"/><path class="cls-149" d="M271.12,386.57l4.84.88c.81.15,1,.77.29,1.05l-4.12,1.68c-.28.11-.44.29-.43.49l.08,2.92c0,.49-.95.77-1.63.48l-4.07-1.76a1.66,1.66,0,0,0-.94-.08l-4.8.93c-.8.15-1.57-.29-1.3-.76l1.61-2.76a.41.41,0,0,0-.15-.55l-3-2.34c-.51-.4,0-1,.83-.95l5.06.05a1.36,1.36,0,0,0,.85-.25l2.91-2.38a1.4,1.4,0,0,1,1.81.17l1.52,2.79A1,1,0,0,0,271.12,386.57Z"/><g class="cls-80"><path class="cls-150" d="M266.61,404.23c-9.46,0-17.12-4.46-17.12-10v.93h0c0,.05,0,1.18,0,1.23,0,5.51,7.66,10,17.12,10s17.12-4.46,17.12-10c0-.05,0-.09,0-.14h0v-2C283.73,399.77,276.06,404.23,266.61,404.23Z"/></g><path class="cls-151" d="M108.85,340.09a10.89,10.89,0,0,0-5.24,1.54c-1.72,1.13-2.28,2.76-1.67,4.21a4.25,4.25,0,0,1,1.67-1.9,10.9,10.9,0,0,1,5.24-1.55c.61,0,1-.32,1-.62v-2.25C109.81,339.8,109.43,340.06,108.85,340.09Z"/><path class="cls-152" d="M89.7,359a4.39,4.39,0,0,1,1.66,1.9c.59-1.44,0-3.07-1.66-4.2-3.11-2.07-8.52-2.16-11.8-.27a4.23,4.23,0,0,0-2.3,2.83c-.09.54-1.2.78-1.86.39l-13-7.51v2.3h0l13,7.52c.66.38,1.77.14,1.86-.4a4.25,4.25,0,0,1,2.3-2.83C81.18,356.88,86.59,357,89.7,359Z"/><path class="cls-153" d="M132.57,354.61h0v-2.3l-13,7.53c-.85.49-.33,1.35.87,1.4l.63,0,11.55-6.67Z"/><path class="cls-154" d="M96.76,373l-13-7.52a.68.68,0,0,1-.28-.28v2c-.08.2,0,.42.28.6l13,7.51Z"/><path class="cls-155" d="M125.17,369a12.32,12.32,0,0,1-10.48,0,4.14,4.14,0,0,1-2.46-3c-.09-.69-1.56-1-2.4-.51L96.76,373v2.3l13.07-7.54c.84-.49,2.31-.18,2.4.51a4.16,4.16,0,0,0,2.46,3,12.28,12.28,0,0,0,10.48,0,4,4,0,0,0,2.45-3.09h0v-2.3h0A4,4,0,0,1,125.17,369Z"/><path class="cls-156" d="M72.89,342a10.89,10.89,0,0,1-5-1.31A4.15,4.15,0,0,1,65.7,338v1.42c-.22,1.28.52,2.62,2.24,3.61a10.68,10.68,0,0,0,4.32,1.26l1.5-.87C74.61,342.89,74.09,342,72.89,342Z"/><g class="cls-4"><path class="cls-157" d="M108.85,343.14a10.89,10.89,0,0,0-5.24,1.54c-1.72,1.13-2.28,2.76-1.67,4.21a4.25,4.25,0,0,1,1.67-1.9,10.79,10.79,0,0,1,5.24-1.55c.61,0,1-.32,1-.62v-2.25C109.81,342.85,109.43,343.11,108.85,343.14Z"/><path class="cls-158" d="M89.7,362.09a4.39,4.39,0,0,1,1.66,1.9c.59-1.44,0-3.07-1.66-4.2-3.11-2.07-8.52-2.16-11.8-.27a4.23,4.23,0,0,0-2.3,2.83c-.09.54-1.2.78-1.86.39l-13-7.51v2.3h0l13,7.52c.66.38,1.77.14,1.86-.4a4.25,4.25,0,0,1,2.3-2.83C81.18,359.93,86.59,360,89.7,362.09Z"/><path class="cls-159" d="M132.57,357.66h0v-2.3l-13,7.53c-.85.49-.33,1.35.87,1.4l.63,0,11.55-6.67Z"/><path class="cls-160" d="M96.76,376l-13-7.52a.68.68,0,0,1-.28-.28v2c-.08.2,0,.42.28.6l13,7.51Z"/><path class="cls-161" d="M125.17,372a12.32,12.32,0,0,1-10.48,0,4.14,4.14,0,0,1-2.46-3c-.09-.69-1.56-1-2.4-.51L96.76,376v2.3l13.07-7.54c.84-.49,2.31-.18,2.4.51a4.17,4.17,0,0,0,2.46,3,12.28,12.28,0,0,0,10.48,0,4,4,0,0,0,2.45-3.09h0v-2.31h0A4,4,0,0,1,125.17,372Z"/></g><path class="cls-162" d="M72.89,345a10.89,10.89,0,0,1-5-1.31A4.15,4.15,0,0,1,65.7,341v1.42c-.22,1.28.52,2.62,2.24,3.61a10.68,10.68,0,0,0,4.32,1.26l1.5-.87C74.61,345.93,74.09,345.07,72.89,345Z"/><path class="cls-163" d="M72.89,340a11,11,0,0,1-5-1.31A4.15,4.15,0,0,1,65.7,336v1.42c-.22,1.28.52,2.62,2.24,3.61a10.68,10.68,0,0,0,4.32,1.26l1.5-.87C74.61,340.94,74.09,340.08,72.89,340Z"/><path class="cls-164" d="M108.85,336.88a10.78,10.78,0,0,0-5.24,1.54c-1.65,1.08-2.22,2.62-1.74,4a2.93,2.93,0,0,0,.07,2.12,4.25,4.25,0,0,1,1.67-1.9,10.9,10.9,0,0,1,5.24-1.55c.61,0,1-.32,1-.62v-4.19C109.81,336.59,109.43,336.84,108.85,336.88Z"/><path class="cls-165" d="M89.7,353.53c-3.11-2.07-8.53-2.16-11.8-.27a4.23,4.23,0,0,0-2.3,2.83c-.09.54-1.2.78-1.86.39l-13-7.51v4.24h0l13,7.52c.66.38,1.77.14,1.86-.4a4.25,4.25,0,0,1,2.3-2.83c3.27-1.89,8.69-1.79,11.8.27a4.39,4.39,0,0,1,1.66,1.9,3,3,0,0,0,.06-2.12C91.9,356.15,91.33,354.61,89.7,353.53Z"/><path class="cls-166" d="M132.57,353.34h0V349.1l-13,7.53c-.85.49-.33,1.35.87,1.4h.07l-.94.54c-.85.49-.33,1.35.87,1.4l.63,0,11.55-6.67Z"/><path class="cls-167" d="M83.74,362.26a.68.68,0,0,1-.28-.28v3.93c-.08.2,0,.42.28.6l13,7.51v-4.24Z"/><path class="cls-168" d="M127.62,362.65a4,4,0,0,1-2.45,3.1,12.32,12.32,0,0,1-10.48,0,4.14,4.14,0,0,1-2.46-3c-.09-.69-1.56-1-2.4-.51l-13.07,7.55V374l13.07-7.54c.84-.49,2.31-.18,2.4.51a4.16,4.16,0,0,0,2.46,3,12.28,12.28,0,0,0,10.48,0,4,4,0,0,0,2.45-3.09h0v0a.85.85,0,0,0,0-.16v-4.05Z"/><path class="cls-169" d="M103.61,338.42a10.78,10.78,0,0,1,5.24-1.54c.94-.05,1.36-.69.7-1.08l-13-7.51-13.07,7.54c-.84.49-2.31.18-2.4-.51a4.16,4.16,0,0,0-2.46-3,12.28,12.28,0,0,0-10.48,0c-3.22,1.72-3.28,4.63-.18,6.41a10.88,10.88,0,0,0,5,1.3c1.2.05,1.72.91.87,1.4L60.71,349h0l13,7.51c.66.39,1.77.15,1.86-.39a4.23,4.23,0,0,1,2.3-2.83c3.27-1.89,8.69-1.8,11.8.27,2.53,1.68,2.52,4.45,0,6.11a10.78,10.78,0,0,1-5.24,1.54c-.93.06-1.36.7-.7,1.08l13,7.52,13.07-7.55c.84-.49,2.31-.18,2.4.51a4.14,4.14,0,0,0,2.46,3,12.32,12.32,0,0,0,10.48,0c3.22-1.72,3.28-4.64.18-6.42a10.88,10.88,0,0,0-4.95-1.3c-1.2,0-1.72-.91-.87-1.4l13.05-7.53h0l-13-7.51c-.67-.38-1.78-.14-1.87.39a4.2,4.2,0,0,1-2.3,2.83c-3.27,1.89-8.69,1.8-11.8-.26C101.06,342.85,101.07,340.08,103.61,338.42Z"/><g class="cls-65"><path class="cls-170" d="M103.61,338.08a3.58,3.58,0,0,0-1.88,3.46,3.87,3.87,0,0,1,1.88-2.66,10.9,10.9,0,0,1,5.24-1.55c.9-.05,1.32-.64.76-1a1.37,1.37,0,0,1-.76.23A10.9,10.9,0,0,0,103.61,338.08Z"/><path class="cls-171" d="M67.94,339.19a10.88,10.88,0,0,0,5,1.3,1.58,1.58,0,0,1,1.11.42c.48-.5,0-1.18-1.11-1.22a10.88,10.88,0,0,1-5-1.3,4.1,4.1,0,0,1-2.24-2.75C65.51,336.9,66.25,338.21,67.94,339.19Z"/><path class="cls-172" d="M89.7,354a3.89,3.89,0,0,1,1.86,2.65,3.61,3.61,0,0,0-1.86-3.45c-3.11-2.06-8.52-2.16-11.8-.27a4.24,4.24,0,0,0-2.3,2.84c-.09.53-1.2.77-1.86.39L61.41,349l-.7.4h0l13,7.52c.66.38,1.77.14,1.86-.4a4.25,4.25,0,0,1,2.3-2.83C81.18,351.82,86.59,351.92,89.7,354Z"/><path class="cls-173" d="M125.17,365.4a12.28,12.28,0,0,1-10.48,0,4.16,4.16,0,0,1-2.46-3c-.09-.69-1.56-1-2.4-.51l-13.07,7.54-13-7.51-.06-.05c-.33.24-.37.59.06.85l13,7.51,13.07-7.54c.84-.49,2.31-.18,2.4.51a4.16,4.16,0,0,0,2.46,3,12.28,12.28,0,0,0,10.48,0c1.83-1,2.64-2.34,2.42-3.66A4.17,4.17,0,0,1,125.17,365.4Z"/><path class="cls-174" d="M132.57,349.55l-.69-.4-12.35,7.14c-.49.28-.52.68-.24,1a.76.76,0,0,1,.24-.18l13.05-7.54Z"/></g><path class="cls-175" d="M123.85,369.25c0,7.32-2.45,13.25-5.48,13.25s-5.48-5.93-5.48-13.25S115.35,356,118.37,356,123.85,361.94,123.85,369.25Z"/><path class="cls-176" d="M131.13,370.3a10.86,10.86,0,0,1,5.15,1.54,4.19,4.19,0,0,1,1.67,1.9c.6-1.43,0-3.05-1.67-4.16a10.74,10.74,0,0,0-5.15-1.53,1.08,1.08,0,0,1-1-.51v2C130,369.88,130.43,370.26,131.13,370.3Z"/><path class="cls-177" d="M165.56,372.63l1.48.86a10.25,10.25,0,0,0,4.2-1.22c1.55-.9,2.27-2.09,2.18-3.26V367.1a3.79,3.79,0,0,1-2.18,2.91,10.56,10.56,0,0,1-4.84,1.26C165.23,371.31,164.73,372.15,165.56,372.63Z"/><polygon class="cls-178" points="143.33 400.33 108.01 379.94 108.01 382.19 143.33 402.58 143.33 400.33"/><path class="cls-179" d="M156.24,392.8a1,1,0,0,1-.23.21l-12.68,7.32v2.25L156,395.27c.33-.2.38-.45.23-.67Z"/><path class="cls-180" d="M165.75,387.38c-.65.38-1.74.13-1.83-.4a4.46,4.46,0,0,0-2.65-3,13,13,0,0,0-10.38-.05c-2.35,1.18-3.17,3-2.46,4.56a4.92,4.92,0,0,1,2.46-2.3,13,13,0,0,1,10.38,0,4.46,4.46,0,0,1,2.65,3c.09.53,1.18.77,1.83.4l12.68-7.32v-2.26Z"/><g class="cls-4"><path class="cls-181" d="M131.13,373.3a10.86,10.86,0,0,1,5.15,1.54,4.19,4.19,0,0,1,1.67,1.9c.6-1.43,0-3.05-1.67-4.16a10.74,10.74,0,0,0-5.15-1.53,1.08,1.08,0,0,1-1-.51v2C130,372.88,130.43,373.26,131.13,373.3Z"/><path class="cls-182" d="M165.56,375.63l1.48.86a10.25,10.25,0,0,0,4.2-1.22c1.55-.9,2.27-2.09,2.18-3.26V370.1a3.79,3.79,0,0,1-2.18,2.91,10.56,10.56,0,0,1-4.84,1.26C165.23,374.31,164.73,375.15,165.56,375.63Z"/><polygon class="cls-183" points="143.33 403.33 108.01 382.94 108.01 385.19 143.33 405.58 143.33 403.33"/><path class="cls-184" d="M156.24,395.8a1,1,0,0,1-.23.21l-12.68,7.32v2.25L156,398.27c.33-.2.38-.45.23-.67Z"/><path class="cls-185" d="M165.75,390.38c-.65.38-1.74.13-1.83-.4a4.46,4.46,0,0,0-2.65-3,13,13,0,0,0-10.38-.05c-2.35,1.18-3.17,3-2.46,4.56a4.92,4.92,0,0,1,2.46-2.3,13,13,0,0,1,10.38,0,4.46,4.46,0,0,1,2.65,3c.09.53,1.18.77,1.83.4l12.68-7.32v-2.26Z"/></g><polygon class="cls-186" points="143.33 397.18 108.01 376.79 108.01 380.95 143.33 401.34 143.33 397.18"/><path class="cls-187" d="M156.24,389.65a.79.79,0,0,1-.23.21l-12.68,7.32v4.16L156,394c.33-.19.38-.45.23-.66Z"/><path class="cls-188" d="M165.75,384.23c-.65.38-1.74.13-1.83-.4a4.46,4.46,0,0,0-2.65-3,13.05,13.05,0,0,0-10.38-.05c-2.27,1.13-3.1,2.82-2.53,4.38a2.64,2.64,0,0,0,.07,2.08,5,5,0,0,1,2.46-2.3,13.05,13.05,0,0,1,10.38,0,4.46,4.46,0,0,1,2.65,3c.09.53,1.18.78,1.83.4l12.68-7.31v-4.17Z"/><path class="cls-189" d="M131.13,369.06a10.74,10.74,0,0,1,5.15,1.53A4.21,4.21,0,0,1,138,372.5a2.85,2.85,0,0,0,.07-2.09c.48-1.38-.1-2.91-1.74-4a10.74,10.74,0,0,0-5.15-1.53,1.06,1.06,0,0,1-1-.51v3.9C130,368.64,130.43,369,131.13,369.06Z"/><path class="cls-190" d="M165.56,371.39l1.48.85a10.1,10.1,0,0,0,4.2-1.22c1.55-.89,2.27-2.08,2.18-3.26v-1.9h0V364a3.77,3.77,0,0,1-2.18,2.91,10.56,10.56,0,0,1-4.84,1.26c-1.17,0-1.67.88-.84,1.37l.92.53h-.08C165.23,370.07,164.73,370.91,165.56,371.39Z"/><path class="cls-191" d="M160.73,360.56a4,4,0,0,0-2.39,2.91c-.07.68-1.51,1-2.35.49h0l-12.87-7.43-12.68,7.32c-.65.38-.22,1,.7,1.06a10.74,10.74,0,0,1,5.15,1.53c2.51,1.64,2.55,4.35.08,6-3,2-8.33,2.09-11.55.22a4.19,4.19,0,0,1-2.29-2.78c-.09-.53-1.19-.77-1.83-.39L108,376.79l35.32,20.39L156,389.86c.64-.37.23-1-.69-1.06a11.06,11.06,0,0,1-4.82-1.32c-3.22-1.86-3.1-4.92.39-6.67a13.05,13.05,0,0,1,10.38.05,4.46,4.46,0,0,1,2.65,3c.09.53,1.18.78,1.83.4l12.68-7.32-12.87-7.42c-.83-.48-.33-1.33.84-1.37a10.56,10.56,0,0,0,4.84-1.26c3-1.74,2.92-4.59-.25-6.29A12,12,0,0,0,160.73,360.56Z"/><g class="cls-65"><path class="cls-192" d="M171.24,366.41a10.56,10.56,0,0,1-4.84,1.26c-1.07,0-1.58.75-1,1.24a1.57,1.57,0,0,1,1-.34,10.56,10.56,0,0,0,4.84-1.26c1.66-1,2.38-2.26,2.15-3.52A4,4,0,0,1,171.24,366.41Z"/><path class="cls-193" d="M131.13,365.35a10.74,10.74,0,0,1,5.15,1.53,3.9,3.9,0,0,1,1.87,2.57,3.55,3.55,0,0,0-1.87-3.47,10.74,10.74,0,0,0-5.15-1.53,1.39,1.39,0,0,1-.66-.18l0,0C129.78,364.66,130.21,365.29,131.13,365.35Z"/><path class="cls-194" d="M165.75,383.78c-.65.38-1.74.13-1.83-.4a4.48,4.48,0,0,0-2.65-3,13.05,13.05,0,0,0-10.38-.05c-2,1-2.91,2.47-2.67,3.88a4.41,4.41,0,0,1,2.67-3,13,13,0,0,1,10.38.05,4.46,4.46,0,0,1,2.65,3c.09.53,1.18.78,1.83.4l12.68-7.32-.78-.45Z"/><path class="cls-195" d="M156,389.43l-12.65,7.3-34.54-19.94-.78.44,35.32,20.4L156,390.31C156.46,390,156.38,389.65,156,389.43Z"/></g></g></g></svg>